<svg width="16" height="16" viewBox="0 0 16 16" fill="none" xmlns="http://www.w3.org/2000/svg">
<path fill-rule="evenodd" clip-rule="evenodd" d="M8 9.60075C8.88366 9.60075 9.6 8.8844 9.6 8.00075C9.6 7.11709 8.88366 6.40075 8 6.40075C7.11634 6.40075 6.4 7.11709 6.4 8.00075C6.4 8.8844 7.11634 9.60075 8 9.60075ZM8 10.6674C9.47276 10.6674 10.6667 9.4735 10.6667 8.00075C10.6667 6.52799 9.47276 5.33408 8 5.33408C6.52724 5.33408 5.33333 6.52799 5.33333 8.00075C5.33333 9.4735 6.52724 10.6674 8 10.6674Z" fill="#fff"/>
<path d="M0 8.00077C0 7.70622 0.238781 7.46744 0.533333 7.46744H2.66667C2.96122 7.46744 3.2 7.70622 3.2 8.00077C3.2 8.29532 2.96122 8.5341 2.66667 8.5341H0.533333C0.238782 8.5341 0 8.29532 0 8.00077Z" fill="#fff"/>
<path d="M16 8.00077C16 8.29532 15.7612 8.5341 15.4667 8.5341H13.3333C13.0388 8.5341 12.8 8.29532 12.8 8.00077C12.8 7.70622 13.0388 7.46744 13.3333 7.46744H15.4667C15.7612 7.46744 16 7.70622 16 8.00077Z" fill="#fff"/>
<path d="M4 14.9289C3.74491 14.7816 3.65751 14.4554 3.80479 14.2003L4.87145 12.3528C5.01873 12.0977 5.34491 12.0103 5.6 12.1576C5.85509 12.3049 5.94249 12.6311 5.79521 12.8861L4.72855 14.7337C4.58127 14.9888 4.25509 15.0762 4 14.9289Z" fill="#fff"/>
<path d="M12.0001 1.07157C12.2552 1.21885 12.3426 1.54503 12.1953 1.80012L9.52865 6.41892C9.38137 6.67401 9.05519 6.76141 8.8001 6.61414C8.54501 6.46686 8.45761 6.14068 8.60489 5.88559L11.2716 1.26679C11.4188 1.0117 11.745 0.924296 12.0001 1.07157Z" fill="#fff"/>
<path fill-rule="evenodd" clip-rule="evenodd" d="M13.6936 3.4745C13.5828 3.66653 13.6 3.90526 13.7252 4.08822C14.4875 5.20167 14.9333 6.54876 14.9333 8C14.9333 11.8292 11.8292 14.9333 8 14.9333C4.17083 14.9333 1.06667 11.8292 1.06667 8C1.06667 4.17083 4.17083 1.06667 8 1.06667C8.17789 1.06667 8.35422 1.07337 8.52874 1.08653C8.74961 1.10318 8.96463 0.998689 9.07537 0.806868C9.26499 0.478452 9.07182 0.0621502 8.69399 0.0296835C8.46528 0.0100301 8.23381 0 8 0C3.58172 0 0 3.58249 0 8.00077C0 12.419 3.58172 16 8 16C12.4183 16 16 12.419 16 8.00077C16 6.29536 15.4664 4.71382 14.557 3.41555C14.3396 3.10527 13.883 3.14643 13.6936 3.4745Z" fill="#fff"/>
<path d="M4 1.07254C4.25509 0.92526 4.58127 1.01266 4.72855 1.26775L5.79521 3.11527C5.94249 3.37036 5.85509 3.69654 5.6 3.84382C5.34491 3.99109 5.01873 3.90369 4.87145 3.6486L3.80479 1.80108C3.65751 1.54599 3.74491 1.21981 4 1.07254Z" fill="#fff"/>
<path d="M12 14.9289C11.7449 15.0762 11.4187 14.9888 11.2715 14.7337L10.2048 12.8861C10.0575 12.6311 10.1449 12.3049 10.4 12.1576C10.6551 12.0103 10.9813 12.0977 11.1285 12.3528L12.1952 14.2003C12.3425 14.4554 12.2551 14.7816 12 14.9289Z" fill="#fff"/>
</svg>
