<svg width="28" height="28" viewBox="0 0 28 28" fill="none" xmlns="http://www.w3.org/2000/svg">
<g clip-path="url(#clip0_3018_209)">
<path d="M3 14C3 16.1756 3.64514 18.3023 4.85383 20.1113C6.06253 21.9202 7.7805 23.3301 9.79048 24.1627C11.8005 24.9952 14.0122 25.2131 16.146 24.7886C18.2798 24.3642 20.2398 23.3166 21.7782 21.7782C23.3166 20.2398 24.3642 18.2798 24.7886 16.146C25.2131 14.0122 24.9952 11.8005 24.1627 9.79048C23.3301 7.7805 21.9202 6.06253 20.1113 4.85383C18.3023 3.64514 16.1756 3 14 3C11.0826 3 8.28473 4.15893 6.22183 6.22183C4.15893 8.28473 3 11.0826 3 14H3Z" fill="#A0A0A0"/>
<path d="M18.4463 9.75675C17.6132 9.38 16.7352 9.11167 15.8338 8.95833C15.8257 8.95682 15.8172 8.95785 15.8097 8.9613C15.8022 8.96474 15.7959 8.97043 15.7917 8.97758C15.6725 9.19168 15.5642 9.41165 15.4672 9.63667C14.4948 9.49141 13.5062 9.49141 12.5338 9.63667C12.4361 9.41147 12.326 9.19189 12.2038 8.97896C12.1998 8.97172 12.1936 8.96588 12.1862 8.9622C12.1787 8.95852 12.1703 8.95717 12.1621 8.95833C11.2608 9.11114 10.3828 9.37901 9.54962 9.75537C9.54267 9.7583 9.53676 9.76325 9.53266 9.76958C8.04736 11.8555 7.3734 14.4114 7.63699 16.9585C7.63763 16.9643 7.63942 16.9698 7.64226 16.9749C7.64509 16.9799 7.64891 16.9843 7.65349 16.9879C8.62451 17.6957 9.7077 18.235 10.8577 18.5833C10.8658 18.586 10.8746 18.5861 10.8828 18.5837C10.891 18.5812 10.8982 18.5763 10.9035 18.5696C11.151 18.2387 11.3702 17.8876 11.559 17.52C11.5627 17.5125 11.5639 17.5041 11.5625 17.4958C11.5611 17.4876 11.5571 17.48 11.5512 17.4742C11.5471 17.4703 11.5422 17.4673 11.537 17.4655C11.1913 17.3344 10.8564 17.1764 10.5355 16.9929C10.5297 16.9896 10.5248 16.9849 10.5213 16.9792C10.5178 16.9735 10.5158 16.9671 10.5154 16.9604C10.515 16.9538 10.5162 16.9472 10.519 16.9411C10.5218 16.9351 10.5261 16.93 10.5314 16.926C10.5987 16.8765 10.6661 16.8242 10.7303 16.7725C10.7361 16.7677 10.743 16.7647 10.7505 16.7638C10.7578 16.7628 10.7653 16.7639 10.772 16.767C11.7831 17.233 12.8832 17.4744 13.9966 17.4744C15.11 17.4744 16.2101 17.233 17.2212 16.767C17.228 16.7637 17.2357 16.7624 17.2432 16.7633C17.2507 16.7641 17.2579 16.7669 17.2638 16.7715C17.328 16.8238 17.3949 16.8756 17.4627 16.9255C17.468 16.9295 17.4723 16.9347 17.4751 16.9407C17.4795 16.9497 17.4803 16.96 17.4774 16.9696C17.4746 16.9792 17.4682 16.9874 17.4595 16.9925C17.1394 17.1765 16.8044 17.3333 16.4581 17.4613C16.4527 17.4633 16.4479 17.4665 16.4439 17.4705C16.4398 17.4745 16.4367 17.4794 16.4347 17.4847C16.4326 17.4899 16.4317 17.4956 16.432 17.5012C16.4323 17.507 16.4338 17.5126 16.4365 17.5177C16.6287 17.8831 16.8477 18.2337 17.0915 18.5668C17.0966 18.5738 17.1037 18.5791 17.112 18.5818C17.1202 18.5845 17.1291 18.5846 17.1373 18.582C18.2889 18.2351 19.3737 17.6962 20.3457 16.9879C20.3504 16.9845 20.3543 16.9802 20.3572 16.9753C20.3602 16.9703 20.362 16.9647 20.3626 16.959C20.6316 14.4116 19.9564 11.8541 18.4651 9.77142C18.461 9.7643 18.4542 9.75904 18.4463 9.75675ZM11.872 15.524C11.551 15.5062 11.2499 15.3626 11.0341 15.1243C10.8182 14.8861 10.7049 14.5724 10.7188 14.2512C10.7031 13.9296 10.8158 13.6149 11.032 13.3763C11.2483 13.1377 11.5504 12.9947 11.872 12.9788C12.0316 12.9859 12.1881 13.0245 12.3327 13.0924C12.4772 13.1603 12.6069 13.2563 12.7141 13.3746C12.8214 13.493 12.9041 13.6315 12.9575 13.782C13.0108 13.9325 13.0339 14.0921 13.0252 14.2516C13.041 14.5733 12.9284 14.8881 12.7121 15.1268C12.4959 15.3655 12.1937 15.5085 11.872 15.5244V15.524ZM16.1345 15.524C15.8134 15.5063 15.5123 15.3627 15.2964 15.1245C15.0806 14.8862 14.9673 14.5724 14.9813 14.2512C14.9736 14.0918 14.9973 13.9324 15.0511 13.7822C15.105 13.632 15.1879 13.4938 15.2952 13.3757C15.4024 13.2575 15.5319 13.1616 15.6763 13.0935C15.8206 13.0255 15.9769 12.9865 16.1363 12.9788C16.2959 12.9859 16.4525 13.0245 16.597 13.0924C16.7416 13.1603 16.8712 13.2563 16.9785 13.3746C17.0857 13.493 17.1684 13.6315 17.2218 13.782C17.2752 13.9325 17.2982 14.0921 17.2895 14.2516C17.2978 14.411 17.2744 14.5705 17.2209 14.7208C17.1674 14.8712 17.0846 15.0094 16.9775 15.1277C16.8703 15.246 16.7408 15.3419 16.5965 15.41C16.4521 15.4781 16.2958 15.517 16.1363 15.5244L16.1345 15.524Z" fill="white"/>
</g>
<defs>
<clipPath id="clip0_3018_209">
<rect width="22" height="22" fill="white" transform="translate(3 3)"/>
</clipPath>
</defs>
</svg>
