<svg xmlns="http://www.w3.org/2000/svg" width="48" height="48" viewBox="0 0 48 48">
  <g id="How_to_play" data-name="How to play" transform="translate(60 -107)">
    <g id="矩形_80" data-name="矩形 80" transform="translate(-60 107)" fill="none" stroke="#707070" stroke-width="2">
      <rect width="48" height="48" rx="12" stroke="none"/>
      <rect x="1" y="1" width="46" height="46" rx="11" fill="none"/>
    </g>
    <path id="路径_500" data-name="路径 500" d="M10.9,6.44A10.4,10.4,0,0,0,3.258,9.209C1.337,11.055.42,13.6.42,16.858H5.4A7.216,7.216,0,0,1,6.49,12.55a4.545,4.545,0,0,1,4.1-1.8,4.717,4.717,0,0,1,3.493,1.231,4.823,4.823,0,0,1,1.223,3.429,4.886,4.886,0,0,1-1.179,3.121l-.524.615c-2.838,2.549-4.541,4.4-5.109,5.582a9.36,9.36,0,0,0-.873,4.308v.615h5.022v-.615a6.245,6.245,0,0,1,.655-2.857,6.8,6.8,0,0,1,1.747-2.2c2.1-1.846,3.362-3.033,3.755-3.473A8.825,8.825,0,0,0,20.42,15.1,8,8,0,0,0,17.8,8.77,9.883,9.883,0,0,0,10.9,6.44ZM10.114,31.8a3.353,3.353,0,0,0-2.4.923,3.413,3.413,0,0,0,0,4.747,3.39,3.39,0,0,0,2.4.967,3.353,3.353,0,0,0,2.4-.923,3.412,3.412,0,0,0,.044-4.791A3.458,3.458,0,0,0,10.114,31.8Z" transform="translate(-46.42 108.56)" fill="#707070"/>
  </g>
</svg>
