<svg width="75" height="34" viewBox="0 0 75 34" fill="none" xmlns="http://www.w3.org/2000/svg">
<g clip-path="url(#clip0_2906_1496)">
<path d="M20.1768 10.2962C20.1596 11.04 20.092 11.7819 19.9749 12.5167L17.9562 22.812C17.9562 23.0138 17.7543 23.1148 17.5525 23.1148H15.0291C14.8121 23.0996 14.6405 22.928 14.6254 22.711V22.6101L16.6441 12.5167C16.7612 12.0201 16.8288 11.5124 16.8459 11.0027C16.8459 8.58029 15.4329 7.16722 12.4049 7.16722C8.77124 7.16722 6.2479 9.08496 5.44043 13.2232L3.52269 22.9129C3.52269 23.1148 3.32082 23.2157 3.11895 23.2157H0.494677C0.27767 23.2005 0.106082 23.029 0.0909424 22.812V22.711L3.72456 4.64388C3.7397 4.42687 3.91128 4.25528 4.12829 4.24014H6.5507C6.76771 4.25528 6.9393 4.42687 6.95444 4.64388V4.74481L6.8535 5.45135C6.84947 5.66331 6.96756 5.85912 7.1563 5.95601C7.26733 5.96914 7.37836 5.9328 7.45911 5.85508C9.18911 4.60956 11.2835 3.97065 13.4142 4.03827C17.5525 3.93734 20.1768 6.25882 20.1768 10.2962Z" fill="black"/>
<path d="M41.8775 12.315V12.8197C41.8775 13.0215 41.7766 13.2234 41.5747 13.2234L26.6365 15.9486C26.4276 15.9819 26.2842 16.1777 26.3176 16.3867C26.3216 16.4089 26.3266 16.4311 26.3337 16.4533C26.9393 18.8757 28.7561 20.1878 32.1879 20.1878C34.1662 20.2706 36.1061 19.6246 37.6383 18.371C37.828 18.2701 38.0541 18.2701 38.2439 18.371L38.3448 18.472L39.3542 20.1878C39.4551 20.3897 39.4551 20.5916 39.2532 20.6925C37.1669 22.368 34.5608 23.2613 31.8851 23.2158C26.2328 23.2158 22.801 19.986 22.801 15.0402C22.801 8.68139 27.2421 3.9375 33.3991 3.9375C38.4357 3.9375 41.8775 6.86458 41.8775 12.315ZM26.7374 13.5262L38.3448 11.4066C38.5396 11.3975 38.69 11.232 38.6819 11.0372C38.6799 10.9897 38.6678 10.9443 38.6476 10.9019C38.2439 8.27765 36.2252 6.86458 33.2981 6.86458C29.5636 6.86458 26.9393 9.28699 26.3337 13.0215C26.3297 13.2335 26.4478 13.4293 26.6365 13.5262H26.7374Z" fill="black"/>
<path d="M42.1803 20.7944L43.2906 18.7757C43.4137 18.5658 43.6721 18.48 43.8962 18.5739C45.7503 19.6922 47.8881 20.2534 50.0531 20.1888C53.283 20.1888 54.9989 19.1795 54.9989 17.3627C54.9989 13.729 44.5018 16.3533 44.5018 9.89357C44.5018 6.15902 47.9335 3.73661 53.0812 3.73661C55.2593 3.72248 57.4082 4.24229 59.3391 5.25062C59.5409 5.35155 59.6419 5.55342 59.44 5.75528L58.5316 7.87489C58.4084 8.08483 58.1501 8.17063 57.926 8.07676C56.3464 7.2269 54.5709 6.80903 52.7784 6.86555C49.6494 6.86555 47.9335 8.07676 47.9335 9.6917C47.9335 13.5272 58.4306 10.802 58.4306 17.1608C58.4306 21.0972 54.898 23.3178 49.7503 23.3178C47.1291 23.4035 44.5371 22.7374 42.2812 21.4C42.0794 21.0972 42.0794 20.8953 42.1803 20.7944Z" fill="black"/>
<path d="M65.6877 17.0578C65.6039 17.3879 65.5706 17.728 65.5868 18.0671C65.4505 19.2077 66.264 20.2423 67.4036 20.3785C67.4369 20.3826 67.4702 20.3856 67.5045 20.3886H68.0092C68.7904 20.3916 69.5575 20.1817 70.2297 19.783C70.4538 19.6891 70.7122 19.7749 70.8353 19.9849V20.0858L71.34 21.8017C71.4268 21.9884 71.3451 22.2105 71.1583 22.2973C71.1513 22.3003 71.1452 22.3033 71.1381 22.3064C69.8684 22.9937 68.4432 23.3409 66.9999 23.3157C64.0728 23.3157 62.0541 21.5998 62.0541 18.5718C62.0369 18.0651 62.0713 17.5574 62.155 17.0578L65.4858 0.302801C65.4858 0.100934 65.6877 0 65.8896 0H68.6148C68.8318 0.0151401 69.0034 0.186728 69.0185 0.403735V0.504669L68.4129 3.63362C68.4089 3.84558 68.527 4.04139 68.7157 4.13828H73.1568C73.3738 4.15342 73.5454 4.32501 73.5605 4.54202V4.64295L73.1568 6.66163C73.1568 6.8635 72.9549 6.96443 72.7531 6.96443H68.1101C67.9083 6.96443 67.7064 7.06536 67.7064 7.26723L65.6877 17.0578Z" fill="black"/>
<path d="M2.11153 28.6642L1.82791 30.0793H4.31492L4.108 31.0735H1.63715L1.24754 33.0256H0L1.07192 27.67H5.11936L4.91245 28.6642H2.11153Z" fill="black"/>
<path d="M6.01364 28.9094H7.19961L6.38104 33.0264H5.19507L6.01364 28.9094ZM6.30837 28.1564C6.17816 28.0363 6.11357 27.8889 6.11357 27.7153C6.11357 27.5114 6.18624 27.3418 6.33158 27.2066C6.47693 27.0713 6.66769 27.0037 6.90186 27.0037C7.11079 27.0037 7.28036 27.0623 7.41056 27.1763C7.54077 27.2904 7.60537 27.4327 7.60537 27.6013C7.60537 27.8203 7.53168 27.9979 7.38331 28.1322C7.23494 28.2674 7.04417 28.335 6.809 28.335C6.60511 28.336 6.43857 28.2765 6.30837 28.1564Z" fill="black"/>
<path d="M12.2563 29.212C12.5268 29.4543 12.6621 29.7995 12.6621 30.2476C12.6621 30.4162 12.6439 30.5817 12.6086 30.7452L12.1493 33.0253H10.9553L11.3984 30.8219C11.4186 30.7351 11.4287 30.6402 11.4287 30.5383C11.4287 30.3243 11.3701 30.1608 11.2531 30.0498C11.136 29.9377 10.9593 29.8812 10.7252 29.8812C10.4193 29.8812 10.165 29.969 9.96413 30.1457C9.76327 30.3213 9.62701 30.5857 9.55535 30.937L9.14253 33.0253H7.94849L8.76706 28.9092H9.89954L9.80769 29.3523C10.1751 29.0162 10.6263 28.8477 11.1622 28.8477C11.6215 28.8487 11.9858 28.9698 12.2563 29.212Z" fill="black"/>
<path d="M18.7374 28.9092L17.9188 33.0263H16.7863L16.863 32.6216C16.5209 32.9324 16.1 33.0879 15.6003 33.0879C15.2794 33.0879 14.9836 33.0142 14.7131 32.8658C14.4426 32.7185 14.2276 32.5055 14.0672 32.2269C13.9067 31.9483 13.8259 31.6203 13.8259 31.2428C13.8259 30.7896 13.9269 30.3808 14.1277 30.0155C14.3286 29.6501 14.6031 29.3644 14.9503 29.1575C15.2965 28.9516 15.6801 28.8477 16.0979 28.8477C16.7298 28.8477 17.1769 29.0546 17.4373 29.4674L17.5443 28.9082H18.7374V28.9092ZM16.5945 31.9282C16.7782 31.8141 16.9216 31.6546 17.0235 31.4497C17.1255 31.2448 17.1759 31.0107 17.1759 30.7462C17.1759 30.4656 17.0932 30.2436 16.9276 30.0811C16.7611 29.9176 16.531 29.8358 16.2352 29.8358C16.001 29.8358 15.7911 29.8933 15.6074 30.0084C15.4237 30.1225 15.2804 30.2819 15.1784 30.4868C15.0765 30.6917 15.026 30.9259 15.026 31.1903C15.026 31.4709 15.1088 31.693 15.2743 31.8555C15.4409 32.019 15.671 32.1008 15.9667 32.1008C16.2019 32.1008 16.4108 32.0432 16.5945 31.9282Z" fill="black"/>
<path d="M23.7861 29.212C24.0566 29.4543 24.1919 29.7995 24.1919 30.2476C24.1919 30.4162 24.1737 30.5817 24.1384 30.7452L23.6791 33.0253H22.4851L22.9282 30.8219C22.9484 30.7351 22.9585 30.6402 22.9585 30.5383C22.9585 30.3243 22.8999 30.1608 22.7828 30.0498C22.6658 29.9377 22.4891 29.8812 22.255 29.8812C21.9491 29.8812 21.6948 29.969 21.4939 30.1457C21.2931 30.3213 21.1568 30.5857 21.0851 30.937L20.6723 33.0253H19.4783L20.2968 28.9092H21.4293L21.3375 29.3523C21.7049 29.0162 22.156 28.8477 22.692 28.8477C23.1513 28.8487 23.5156 28.9698 23.7861 29.212Z" fill="black"/>
<path d="M26.3345 32.8578C26.0186 32.7053 25.7744 32.4893 25.6038 32.2108C25.4332 31.9322 25.3474 31.6102 25.3474 31.2428C25.3474 30.7896 25.4544 30.3808 25.6684 30.0195C25.8824 29.6571 26.1811 29.3705 26.5637 29.1616C26.9462 28.9526 27.3772 28.8477 27.8566 28.8477C28.2957 28.8477 28.6742 28.9385 28.9921 29.1202C29.3111 29.3008 29.5493 29.5572 29.7077 29.8893L28.6984 30.394C28.5198 30.0215 28.2139 29.8348 27.7799 29.8348C27.5458 29.8348 27.3348 29.8923 27.1491 30.0074C26.9624 30.1214 26.817 30.2809 26.713 30.4858C26.6091 30.6907 26.5566 30.9218 26.5566 31.1812C26.5566 31.4618 26.6404 31.6849 26.8089 31.8514C26.9775 32.017 27.2117 32.0997 27.5124 32.0997C27.9515 32.0997 28.2876 31.916 28.5228 31.5486L29.4029 32.0997C29.2041 32.4106 28.9326 32.6529 28.5884 32.8265C28.2442 33.0001 27.8627 33.0869 27.4448 33.0869C27.0199 33.0869 26.6495 33.0102 26.3345 32.8578Z" fill="black"/>
<path d="M31.0697 28.9094H32.2556L31.4371 33.0254H30.2511L31.0697 28.9094ZM31.3644 28.1564C31.2342 28.0363 31.1696 27.8889 31.1696 27.7153C31.1696 27.5114 31.2423 27.3418 31.3876 27.2066C31.533 27.0713 31.7237 27.0037 31.9579 27.0037C32.1668 27.0037 32.3364 27.0623 32.4666 27.1763C32.5968 27.2904 32.6614 27.4327 32.6614 27.6013C32.6614 27.8203 32.5877 27.9979 32.4393 28.1322C32.291 28.2674 32.1002 28.335 31.865 28.335C31.6611 28.336 31.4946 28.2765 31.3644 28.1564Z" fill="black"/>
<path d="M38.0018 28.9102L37.1832 33.0263H36.0507L36.1274 32.6216C35.7853 32.9324 35.3644 33.0879 34.8647 33.0879C34.5438 33.0879 34.248 33.0142 33.9775 32.8658C33.707 32.7185 33.492 32.5055 33.3316 32.2269C33.1711 31.9483 33.0903 31.6203 33.0903 31.2428C33.0903 30.7896 33.1913 30.3808 33.3921 30.0155C33.593 29.6501 33.8675 29.3644 34.2147 29.1575C34.5609 28.9516 34.9445 28.8477 35.3624 28.8477C35.9942 28.8477 36.4413 29.0546 36.7017 29.4674L36.8087 28.9082H38.0018V28.9102ZM35.8589 31.9292C36.0426 31.8151 36.186 31.6556 36.2879 31.4507C36.3899 31.2458 36.4403 31.0117 36.4403 30.7472C36.4403 30.4666 36.3576 30.2446 36.192 30.0821C36.0255 29.9186 35.7954 29.8368 35.4996 29.8368C35.2655 29.8368 35.0555 29.8943 34.8718 30.0094C34.6881 30.1235 34.5448 30.2829 34.4428 30.4878C34.3409 30.6927 34.2904 30.9269 34.2904 31.1913C34.2904 31.4719 34.3732 31.694 34.5387 31.8565C34.7053 32.02 34.9354 32.1018 35.2311 32.1018C35.4663 32.1018 35.6752 32.0442 35.8589 31.9292Z" fill="black"/>
<path d="M39.8759 27.3496H41.0689L39.9375 33.0261H38.7434L39.8759 27.3496Z" fill="black"/>
<path d="M51.3058 27.67L50.2419 33.0256H49.0792L49.707 29.8431L47.6641 32.4604H47.113L46.0108 29.8129L45.3678 33.0266H44.2051L45.277 27.671H46.2863L47.6247 31.0069L50.2419 27.671H51.3058V27.67Z" fill="black"/>
<path d="M56.8905 28.9102L56.0719 33.0263H54.9384L55.0151 32.6216C54.674 32.9324 54.2521 33.0879 53.7535 33.0879C53.4325 33.0879 53.1367 33.0142 52.8652 32.8658C52.5947 32.7185 52.3797 32.5055 52.2193 32.2269C52.0578 31.9493 51.978 31.6203 51.978 31.2428C51.978 30.7896 52.079 30.3808 52.2808 30.0155C52.4817 29.6511 52.7562 29.3644 53.1024 29.1575C53.4496 28.9516 53.8322 28.8477 54.25 28.8477C54.8829 28.8477 55.328 29.0546 55.5884 29.4674L55.6954 28.9082H56.8905V28.9102ZM54.7476 31.9292C54.9324 31.8151 55.0747 31.6556 55.1776 31.4507C55.2796 31.2469 55.329 31.0117 55.329 30.7472C55.329 30.4666 55.2463 30.2446 55.0807 30.0821C54.9152 29.9186 54.6841 29.8368 54.3883 29.8368C54.1542 29.8368 53.9452 29.8943 53.7615 30.0094C53.5768 30.1235 53.4345 30.2829 53.3315 30.4878C53.2296 30.6917 53.1801 30.9269 53.1801 31.1913C53.1801 31.4719 53.2629 31.694 53.4284 31.8565C53.594 32.02 53.8251 32.1018 54.1208 32.1018C54.356 32.1018 54.565 32.0442 54.7476 31.9292Z" fill="black"/>
<path d="M60.1295 28.9798C60.3828 28.893 60.6795 28.8496 61.0217 28.8496L60.8077 29.9518C60.6634 29.9407 60.5736 29.9357 60.5322 29.9357C60.1708 29.9357 59.8802 30.0255 59.6652 30.2041C59.4482 30.3828 59.3008 30.6604 59.2241 31.0379L58.8264 33.0273H57.6313L58.4509 28.9112H59.5834L59.4835 29.4007C59.6631 29.2059 59.8771 29.0666 60.1295 28.9798Z" fill="black"/>
<path d="M64.4261 30.6996L65.8412 33.0261H64.4564L63.4763 31.4273L62.7496 32.0319L62.5517 33.0261H61.3567L62.4892 27.3496H63.6832L63.0483 30.525L65.0216 28.91H66.575L64.4261 30.6996Z" fill="black"/>
<path d="M70.9768 31.2903H67.8247C67.865 31.8514 68.2193 32.132 68.8875 32.132C69.0964 32.132 69.2973 32.0987 69.4891 32.0321C69.6808 31.9655 69.8474 31.8716 69.9897 31.7495L70.4873 32.5368C70.2572 32.7215 69.9957 32.8578 69.7 32.9496C69.4033 33.0425 69.0924 33.0879 68.7654 33.0879C68.3424 33.0879 67.971 33.0132 67.6521 32.8618C67.3341 32.7124 67.0878 32.4964 66.9173 32.2148C66.7457 31.9352 66.6609 31.6102 66.6609 31.2428C66.6609 30.7896 66.7638 30.3808 66.9708 30.0155C67.1777 29.6501 67.4643 29.3644 67.8327 29.1575C68.1991 28.9516 68.617 28.8477 69.0863 28.8477C69.485 28.8477 69.8292 28.9213 70.1229 29.0697C70.4166 29.2181 70.6437 29.429 70.8042 29.7046C70.9647 29.9801 71.0455 30.2991 71.0455 30.6614C71.0455 30.8512 71.0212 31.0601 70.9768 31.2903ZM68.3213 29.97C68.1285 30.1204 67.9902 30.3284 67.9084 30.5938H69.9513C69.9513 30.3284 69.8686 30.1204 69.702 29.97C69.5365 29.8207 69.3124 29.7439 69.0328 29.7439C68.7532 29.7439 68.515 29.8207 68.3213 29.97Z" fill="black"/>
<path d="M73.4618 31.5731C73.4517 31.6144 73.4457 31.671 73.4457 31.7416C73.4457 32.0071 73.592 32.1403 73.8827 32.1403C74.0402 32.1403 74.2007 32.0908 74.3652 31.9939L74.5408 32.8438C74.2764 33.0063 73.9332 33.0881 73.5153 33.0881C73.1277 33.0881 72.8179 32.9861 72.5827 32.7822C72.3475 32.5784 72.2294 32.2978 72.2294 31.9405C72.2294 31.8375 72.2425 31.7184 72.2678 31.5811L72.5968 29.9208H71.9609L72.1456 29.0023H72.7805L72.9794 28H74.1734L73.9746 29.0023H75.0001L74.8164 29.9208H73.7909L73.4618 31.5731Z" fill="black"/>
</g>
<defs>
<clipPath id="clip0_2906_1496">
<rect width="75.0001" height="33.0881" fill="white"/>
</clipPath>
</defs>
</svg>
