<svg xmlns="http://www.w3.org/2000/svg" width="48.936" height="40.025" viewBox="0 0 48.936 40.025">
  <g id="拍卖" transform="matrix(0.985, -0.174, 0.174, 0.985, -25.241, -98.255)">
    <g id="组_104" data-name="组 104" transform="translate(-4.588 0)">
      <path id="减去_6" data-name="减去 6" d="M-346.764-527.477a7.008,7.008,0,0,1-7-7,7.088,7.088,0,0,1,.063-.941l1.943.694c0,.078-.006.161-.006.247a5.006,5.006,0,0,0,5,5,5.025,5.025,0,0,0,4.018-2.028l1.946.695a7.048,7.048,0,0,1-2.5,2.416A7,7,0,0,1-346.764-527.477Z" transform="translate(371.352 668.869)" fill="#878787"/>
      <path id="路径_589" data-name="路径 589" d="M26-4.162,2,4.409V15.591l24,8.571V-4.162M28-7V27L0,17V3Z" transform="translate(13.588 115)" fill="#878787"/>
      <path id="矩形_155" data-name="矩形 155" d="M3,2A1,1,0,0,0,2,3V13a1,1,0,0,0,2,0V3A1,1,0,0,0,3,2M3,0A3,3,0,0,1,6,3V13a3,3,0,0,1-6,0V3A3,3,0,0,1,3,0Z" transform="translate(9.588 117)" fill="#878787"/>
      <path id="矩形_160" data-name="矩形 160" d="M3,2A1,1,0,0,0,2,3V33a1,1,0,0,0,2,0V3A1,1,0,0,0,3,2M3,0A3,3,0,0,1,6,3V33a3,3,0,0,1-6,0V3A3,3,0,0,1,3,0Z" transform="translate(39.588 107)" fill="#878787"/>
    </g>
    <rect id="矩形_163" data-name="矩形 163" width="8" height="2" rx="1" transform="translate(44.036 134.134) rotate(30)" fill="#878787"/>
    <rect id="矩形_162" data-name="矩形 162" width="8" height="2" rx="1" transform="translate(45 124)" fill="#878787"/>
    <rect id="矩形_164" data-name="矩形 164" width="8" height="2" rx="1" transform="translate(43.036 114.134) rotate(-30)" fill="#878787"/>
  </g>
</svg>
