<svg width="22" height="22" viewBox="0 0 22 22" fill="none" xmlns="http://www.w3.org/2000/svg">
<path d="M5.84049 8H6.92437L8.68051 8H10.7659L12.9062 8H14.7996H16.1441C16.3637 8 16.542 8.04369 16.6792 8.13108C16.8164 8.21846 16.9102 8.32967 16.9605 8.46472C17.0108 8.59977 17.0131 8.74872 16.9673 8.91157C16.9216 9.07442 16.821 9.23529 16.6655 9.39417C16.3271 9.71193 15.9704 10.0456 15.5953 10.3951C15.2203 10.7446 14.8362 11.0982 14.4429 11.4556L13.2904 12.5281C12.8971 12.8855 12.5221 13.2311 12.1654 13.5648C12.0007 13.7157 11.8041 13.8269 11.5754 13.8984C11.3467 13.9699 11.1112 14.0037 10.8688 13.9997C10.6265 13.9957 10.3886 13.95 10.1554 13.8627C9.92216 13.7753 9.71865 13.6521 9.54487 13.4933C8.91375 12.9213 8.2552 12.3017 7.5692 11.6344C6.88321 10.9671 6.1652 10.2521 5.41518 9.4895C5.24139 9.30678 5.12249 9.12606 5.05846 8.94732C4.99443 8.76858 4.983 8.6097 5.02416 8.47068C5.06532 8.33166 5.15679 8.21846 5.29856 8.13108C5.44033 8.04369 5.62097 8 5.84049 8Z" fill="#8BB7FF"/>
</svg>
