<svg xmlns="http://www.w3.org/2000/svg" width="48" height="48" viewBox="0 0 48 48">
  <g id="怎么玩" transform="translate(60 -107)">
    <path id="矩形_80" data-name="矩形 80" d="M24,2a22.006,22.006,0,0,0-8.563,42.272A22.006,22.006,0,0,0,32.563,3.728,21.86,21.86,0,0,0,24,2m0-2A24,24,0,1,1,0,24,24,24,0,0,1,24,0Z" transform="translate(-60 107)" fill="#878787"/>
    <path id="路径_593" data-name="路径 593" d="M-218.306-525a2.383,2.383,0,0,1-1.717-.7,2.105,2.105,0,0,1-.645-1.645,2.105,2.105,0,0,1,.645-1.645,2.362,2.362,0,0,1,1.717-.652,2.454,2.454,0,0,1,1.749.64,2.258,2.258,0,0,1,.658,1.657,2.219,2.219,0,0,1-.689,1.688A2.359,2.359,0,0,1-218.306-525Zm1.542-8.791h-3.026a7.939,7.939,0,0,1,.758-3.465l.013-.027c.5-1.036,2.136-2.809,4.875-5.27l.05-.045.567-.666.014-.018a5.851,5.851,0,0,0,1.4-3.751,5.785,5.785,0,0,0-1.494-4.114l-.019-.02a5.685,5.685,0,0,0-4.2-1.526,5.544,5.544,0,0,0-4.923,2.227,7.3,7.3,0,0,0-1.239,3.883h-2.981a8.6,8.6,0,0,1,2.5-5.927l.008-.008A9.4,9.4,0,0,1-217.519-555a8.853,8.853,0,0,1,6.228,2.071l.01.01A6.985,6.985,0,0,1-209-547.34a7.888,7.888,0,0,1-1.391,4.772c-.347.378-1.484,1.456-3.633,3.349a7.816,7.816,0,0,0-1.99,2.511,7.181,7.181,0,0,0-.751,2.917Z" transform="translate(182 671)" fill="#878787"/>
  </g>
</svg>
