<svg xmlns="http://www.w3.org/2000/svg" width="36" height="40" viewBox="0 0 36 40">
  <g id="我出价的" transform="translate(-11 -113)">
    <path id="减去_5" data-name="减去 5" d="M-406-611a2,2,0,0,0,2-2v-32a2,2,0,0,0-.555-1.387,7.544,7.544,0,0,1-5.4,2.387,7.418,7.418,0,0,1-5.021-2.022A7.419,7.419,0,0,1-420-644a7.419,7.419,0,0,1-5.022-2.022A7.419,7.419,0,0,1-430.044-644a7.544,7.544,0,0,1-5.4-2.387A2,2,0,0,0-436-645v32a2,2,0,0,0,2,2h28m0,2h-28a4,4,0,0,1-4-4v-32a3.986,3.986,0,0,1,3.065-3.89,6.067,6.067,0,0,0,4.891,2.89,6.1,6.1,0,0,0,4.968-3h.108A6.106,6.106,0,0,0-420-646a6.106,6.106,0,0,0,4.968-3h.108a6.105,6.105,0,0,0,4.967,3,6.068,6.068,0,0,0,4.892-2.89A3.985,3.985,0,0,1-402-645v32A4,4,0,0,1-406-609Z" transform="translate(449 762)" fill="#878787"/>
    <g id="nesttokenicon" transform="translate(17 123)">
      <path id="椭圆_34" data-name="椭圆 34" d="M12,2A10,10,0,1,0,22,12,10.011,10.011,0,0,0,12,2m0-2A12,12,0,1,1,0,12,12,12,0,0,1,12,0Z" fill="#878787"/>
      <path id="路径_592" data-name="路径 592" d="M32.718,25.755a3.329,3.329,0,0,1,3.673,3.611,10.542,10.542,0,0,1-.15,1.35l-1.2,6.075a.239.239,0,0,1-.225.225h-1.5c-.15,0-.3-.15-.225-.3l1.2-6a4.3,4.3,0,0,0,.075-.9c0-1.5-.825-2.325-2.625-2.325a3.944,3.944,0,0,0-4.125,3.6L26.49,36.866a.239.239,0,0,1-.225.225h-1.5c-.15,0-.3-.15-.225-.3l2.1-10.725a.239.239,0,0,1,.225-.225H28.29c.15,0,.3.15.225.3l-.075.45a.228.228,0,0,0,.375.225,5.611,5.611,0,0,1,3.525-1.05Q32.533,25.755,32.718,25.755Z" transform="translate(-18.39 -19.316)" fill="#878787"/>
    </g>
  </g>
</svg>
