<svg id="我拍到的" xmlns="http://www.w3.org/2000/svg" width="36" height="40" viewBox="0 0 36 40">
  <g id="组_105" data-name="组 105">
    <path id="减去_5_-_轮廓" data-name="减去 5 - 轮廓" d="M32,2a2,2,0,0,1,2,2V36a2.028,2.028,0,0,1-.038.391,1.992,1.992,0,0,1-.517,1,8.9,8.9,0,0,0-1.211-1.027,7.786,7.786,0,0,0-1.317-.748,7.151,7.151,0,0,0-1.4-.457,7.064,7.064,0,0,0-2.824-.024,7.1,7.1,0,0,0-1.3.386,7.6,7.6,0,0,0-1.227.633,8.518,8.518,0,0,0-1.141.872,8.519,8.519,0,0,0-1.141-.872,7.6,7.6,0,0,0-1.227-.633,7.058,7.058,0,0,0-5.306,0,7.6,7.6,0,0,0-1.227.633,8.514,8.514,0,0,0-1.141.872,8.513,8.513,0,0,0-1.141-.871,7.6,7.6,0,0,0-1.227-.633A7.047,7.047,0,0,0,7.956,35a7.011,7.011,0,0,0-1.469.155,7.154,7.154,0,0,0-1.4.457,7.79,7.79,0,0,0-1.317.748,8.908,8.908,0,0,0-1.211,1.027,1.992,1.992,0,0,1-.517-1A2.026,2.026,0,0,1,2,36V4a1.993,1.993,0,0,1,.587-1.413A1.995,1.995,0,0,1,4,2H32m0-2H4A4,4,0,0,0,0,4V36a3.994,3.994,0,0,0,.856,2.479,3.987,3.987,0,0,0,2.209,1.41,8.306,8.306,0,0,1,1.058-1.238,6.574,6.574,0,0,1,1.188-.906A5.449,5.449,0,0,1,6.6,37.189a4.971,4.971,0,0,1,2.744.007,5.463,5.463,0,0,1,1.31.578,6.627,6.627,0,0,1,1.2.94A8.444,8.444,0,0,1,12.924,40h.108A8.461,8.461,0,0,1,14.1,38.715a6.629,6.629,0,0,1,1.2-.94,5.465,5.465,0,0,1,1.31-.578,4.98,4.98,0,0,1,2.771,0,5.464,5.464,0,0,1,1.31.578,6.631,6.631,0,0,1,1.2.94A8.455,8.455,0,0,1,22.968,40h.108a8.463,8.463,0,0,1,1.068-1.285,6.629,6.629,0,0,1,1.2-.94,5.464,5.464,0,0,1,1.31-.578,4.969,4.969,0,0,1,2.743-.007,5.453,5.453,0,0,1,1.288.557,6.575,6.575,0,0,1,1.188.906,8.3,8.3,0,0,1,1.058,1.238A3.988,3.988,0,0,0,36,36V4a4,4,0,0,0-4-4Z" fill="#878787"/>
    <path id="矩形_170" data-name="矩形 170" d="M1,2H23a1,1,0,1,0,0-2H1A1,1,0,1,0,1,2Z" transform="translate(6 19)" fill="#878787"/>
    <path id="矩形_169" data-name="矩形 169" d="M1,2H23a1,1,0,1,0,0-2H1A1,1,0,1,0,1,2Z" transform="translate(6 13)" fill="#878787"/>
    <path id="矩形_168" data-name="矩形 168" d="M1,2H23a1,1,0,1,0,0-2H1A1,1,0,1,0,1,2Z" transform="translate(6 7)" fill="#878787"/>
    <path id="路径_594" data-name="路径 594" d="M5.77,7.648a1.292,1.292,0,0,1-.393.266A1.069,1.069,0,0,1,4.95,8a1.09,1.09,0,0,1-.428-.092,1.352,1.352,0,0,1-.4-.271L.377,4.019A1.3,1.3,0,0,1,.1,3.634.992.992,0,0,1,0,3.221a.972.972,0,0,1,.09-.412,1.246,1.246,0,0,1,.275-.38,1.306,1.306,0,0,1,.4-.267,1.071,1.071,0,0,1,.427-.087,1.09,1.09,0,0,1,.428.092,1.357,1.357,0,0,1,.4.27L4.929,5.253l5.076-4.9A1.3,1.3,0,0,1,10.4.087,1.073,1.073,0,0,1,10.827,0a1.091,1.091,0,0,1,.428.092,1.351,1.351,0,0,1,.4.271A1.143,1.143,0,0,1,12,1.132a1.058,1.058,0,0,1-.071.431,1.087,1.087,0,0,1-.265.391L5.77,7.645Z" transform="translate(19.443 24.564)" fill="#878787"/>
  </g>
</svg>
