<svg xmlns="http://www.w3.org/2000/svg" width="48" height="48" viewBox="0 0 48 48">
  <g id="我挖到的" transform="translate(62 -106)">
    <path id="矩形_153" data-name="矩形 153" d="M24,2a22.006,22.006,0,0,0-8.563,42.272A22.006,22.006,0,0,0,32.563,3.728,21.86,21.86,0,0,0,24,2m0-2A24,24,0,1,1,0,24,24,24,0,0,1,24,0Z" transform="translate(-62 106)" fill="#878787"/>
    <path id="矩形_80" data-name="矩形 80" d="M5,2A3,3,0,0,0,5,8H23a3,3,0,0,0,0-6H5M5,0H23a5,5,0,0,1,0,10H5A5,5,0,0,1,5,0Z" transform="translate(-52 134)" fill="#878787"/>
    <path id="椭圆_31" data-name="椭圆 31" d="M10,2a8,8,0,1,0,8,8,8.009,8.009,0,0,0-8-8m0-2A10,10,0,1,1,0,10,10,10,0,0,1,10,0Z" transform="translate(-48 115)" fill="#878787"/>
  </g>
</svg>
