<svg width="22" height="22" viewBox="0 0 22 22" fill="none" xmlns="http://www.w3.org/2000/svg">
<path d="M16.1595 14L15.0756 14H13.3195H11.2341H9.09376H7.20041H5.85586C5.63634 14 5.45798 13.9563 5.32078 13.8689C5.18359 13.7815 5.08983 13.6703 5.03953 13.5353C4.98922 13.4002 4.98693 13.2513 5.03267 13.0884C5.0784 12.9256 5.17901 12.7647 5.3345 12.6058C5.67293 12.2881 6.02965 11.9544 6.40466 11.6049C6.77967 11.2554 7.16382 10.9018 7.55713 10.5444L8.7096 9.47193C9.1029 9.11446 9.47791 8.76889 9.83463 8.43525C9.99927 8.28431 10.1959 8.17309 10.4246 8.1016C10.6533 8.0301 10.8888 7.99634 11.1312 8.00031C11.3735 8.00429 11.6114 8.04996 11.8446 8.13735C12.0778 8.22473 12.2813 8.34786 12.4551 8.50674C13.0862 9.07871 13.7448 9.69834 14.4308 10.3656C15.1168 11.0329 15.8348 11.7479 16.5848 12.5105C16.7586 12.6932 16.8775 12.8739 16.9415 13.0527C17.0056 13.2314 17.017 13.3903 16.9758 13.5293C16.9347 13.6683 16.8432 13.7815 16.7014 13.8689C16.5597 13.9563 16.379 14 16.1595 14Z" fill="#8BB7FF"/>
</svg>
