<svg width="18" height="18" viewBox="0 0 18 18" fill="none" xmlns="http://www.w3.org/2000/svg">
<path d="M2.885 3.824C2.82828 3.88009 2.76165 3.92518 2.6885 3.957C2.62104 3.98584 2.54837 4.00047 2.475 4C2.40129 3.9993 2.32849 3.98365 2.261 3.954C2.18674 3.92121 2.11899 3.87531 2.061 3.8185L0.188503 2.0095C0.130923 1.95437 0.0839749 1.88912 0.0500032 1.817C0.0186163 1.75259 0.00155834 1.68214 3.15364e-06 1.6105C-0.000253084 1.53937 0.0151084 1.46905 0.0450032 1.4045C0.0783945 1.33304 0.125054 1.26856 0.182503 1.2145C0.240331 1.15801 0.308147 1.11274 0.382503 1.081C0.449937 1.05203 0.522608 1.03722 0.596003 1.0375C0.669713 1.03821 0.742515 1.05386 0.810003 1.0835C0.884201 1.11619 0.951938 1.16192 1.01 1.2185L2.4645 2.6265L5.0025 0.176503C5.05959 0.120387 5.12654 0.0752975 5.2 0.0435033C5.26745 0.0145525 5.34011 -0.000252805 5.4135 3.26583e-06C5.48721 0.00072046 5.56001 0.0163688 5.6275 0.0460033C5.70177 0.0787852 5.76952 0.124686 5.8275 0.181503C5.93189 0.283016 5.99358 0.420542 6 0.566003C6.00329 0.639524 5.9912 0.712921 5.9645 0.781503C5.9352 0.855594 5.88997 0.922337 5.832 0.977003L2.885 3.8225V3.824Z" fill="#878787"/>
<path d="M8.5 3.50001H17.5C17.6326 3.50001 17.7598 3.44733 17.8536 3.35356C17.9473 3.25979 18 3.13262 18 3.00001C18 2.8674 17.9473 2.74022 17.8536 2.64645C17.7598 2.55269 17.6326 2.50001 17.5 2.50001H8.5C8.36739 2.50001 8.24022 2.55269 8.14645 2.64645C8.05268 2.74022 8 2.8674 8 3.00001C8 3.13262 8.05268 3.25979 8.14645 3.35356C8.24022 3.44733 8.36739 3.50001 8.5 3.50001Z" fill="#878787"/>
<path d="M8.5 1.50001H17.5C17.6326 1.50001 17.7598 1.44733 17.8536 1.35356C17.9473 1.25979 18 1.13261 18 1.00001C18 0.867398 17.9473 0.740221 17.8536 0.646453C17.7598 0.552685 17.6326 0.500006 17.5 0.500006H8.5C8.36739 0.500006 8.24022 0.552685 8.14645 0.646453C8.05268 0.740221 8 0.867398 8 1.00001C8 1.13261 8.05268 1.25979 8.14645 1.35356C8.24022 1.44733 8.36739 1.50001 8.5 1.50001Z" fill="#878787"/>
<path d="M2.885 10.824C2.82828 10.8801 2.76165 10.9252 2.6885 10.957C2.62104 10.9858 2.54837 11.0005 2.475 11C2.40129 10.9993 2.32849 10.9837 2.261 10.954C2.18674 10.9212 2.11899 10.8753 2.061 10.8185L0.188503 9.0095C0.130923 8.95437 0.0839749 8.88912 0.0500032 8.817C0.0186163 8.75259 0.00155834 8.68214 3.15364e-06 8.6105C-0.000253084 8.53937 0.0151084 8.46905 0.0450032 8.4045C0.0783945 8.33304 0.125054 8.26856 0.182503 8.2145C0.240331 8.15801 0.308147 8.11274 0.382503 8.081C0.449937 8.05202 0.522608 8.03722 0.596003 8.0375C0.669713 8.03821 0.742515 8.05385 0.810003 8.0835C0.884201 8.11619 0.951938 8.16191 1.01 8.2185L2.4645 9.6265L5.0025 7.1765C5.05959 7.12039 5.12654 7.0753 5.2 7.0435C5.26745 7.01455 5.34011 6.99975 5.4135 7C5.48721 7.00072 5.56001 7.01637 5.6275 7.046C5.70177 7.07878 5.76952 7.12469 5.8275 7.1815C5.93189 7.28302 5.99358 7.42054 6 7.566C6.00329 7.63952 5.9912 7.71292 5.9645 7.7815C5.9352 7.85559 5.88997 7.92234 5.832 7.977L2.885 10.8225V10.824Z" fill="#878787"/>
<path d="M8.5 10.5H17.5C17.6326 10.5 17.7598 10.4473 17.8536 10.3536C17.9473 10.2598 18 10.1326 18 10C18 9.8674 17.9473 9.74022 17.8536 9.64645C17.7598 9.55268 17.6326 9.50001 17.5 9.50001H8.5C8.36739 9.50001 8.24022 9.55268 8.14645 9.64645C8.05268 9.74022 8 9.8674 8 10C8 10.1326 8.05268 10.2598 8.14645 10.3536C8.24022 10.4473 8.36739 10.5 8.5 10.5Z" fill="#878787"/>
<path d="M8.5 8.50001H17.5C17.6326 8.50001 17.7598 8.44733 17.8536 8.35356C17.9473 8.25979 18 8.13262 18 8.00001C18 7.8674 17.9473 7.74022 17.8536 7.64645C17.7598 7.55268 17.6326 7.50001 17.5 7.50001H8.5C8.36739 7.50001 8.24022 7.55268 8.14645 7.64645C8.05268 7.74022 8 7.8674 8 8.00001C8 8.13262 8.05268 8.25979 8.14645 8.35356C8.24022 8.44733 8.36739 8.50001 8.5 8.50001Z" fill="#878787"/>
<path d="M2.885 17.824C2.82828 17.8801 2.76165 17.9252 2.6885 17.957C2.62104 17.9858 2.54837 18.0005 2.475 18C2.40129 17.9993 2.32849 17.9837 2.261 17.954C2.18674 17.9212 2.11899 17.8753 2.061 17.8185L0.188503 16.0095C0.130923 15.9544 0.0839749 15.8891 0.0500032 15.817C0.0186163 15.7526 0.00155834 15.6821 3.15364e-06 15.6105C-0.000253084 15.5394 0.0151084 15.469 0.0450032 15.4045C0.0783945 15.333 0.125054 15.2686 0.182503 15.2145C0.240331 15.158 0.308147 15.1127 0.382503 15.081C0.449937 15.052 0.522608 15.0372 0.596003 15.0375C0.669713 15.0382 0.742515 15.0539 0.810003 15.0835C0.884201 15.1162 0.951938 15.1619 1.01 15.2185L2.4645 16.6265L5.0025 14.1765C5.05959 14.1204 5.12654 14.0753 5.2 14.0435C5.26745 14.0146 5.34011 13.9997 5.4135 14C5.48721 14.0007 5.56001 14.0164 5.6275 14.046C5.70177 14.0788 5.76952 14.1247 5.8275 14.1815C5.93189 14.283 5.99358 14.4205 6 14.566C6.00329 14.6395 5.9912 14.7129 5.9645 14.7815C5.9352 14.8556 5.88997 14.9223 5.832 14.977L2.885 17.8225V17.824Z" fill="#878787"/>
<path d="M8.5 17.5H17.5C17.6326 17.5 17.7598 17.4473 17.8536 17.3536C17.9473 17.2598 18 17.1326 18 17C18 16.8674 17.9473 16.7402 17.8536 16.6465C17.7598 16.5527 17.6326 16.5 17.5 16.5H8.5C8.36739 16.5 8.24022 16.5527 8.14645 16.6465C8.05268 16.7402 8 16.8674 8 17C8 17.1326 8.05268 17.2598 8.14645 17.3536C8.24022 17.4473 8.36739 17.5 8.5 17.5Z" fill="#878787"/>
<path d="M8.5 15.5H17.5C17.6326 15.5 17.7598 15.4473 17.8536 15.3536C17.9473 15.2598 18 15.1326 18 15C18 14.8674 17.9473 14.7402 17.8536 14.6465C17.7598 14.5527 17.6326 14.5 17.5 14.5H8.5C8.36739 14.5 8.24022 14.5527 8.14645 14.6465C8.05268 14.7402 8 14.8674 8 15C8 15.1326 8.05268 15.2598 8.14645 15.3536C8.24022 15.4473 8.36739 15.5 8.5 15.5Z" fill="#878787"/>
</svg>
