<svg xmlns="http://www.w3.org/2000/svg" width="48" height="45.176" viewBox="0 0 48 45.176">
  <g id="PROVABLY_FAIR" data-name="PROVABLY FAIR" transform="translate(60 -114)">
    <path id="矩形_84" data-name="矩形 84" d="M2,0H20.588a2,2,0,0,1,2,2v.824a0,0,0,0,1,0,0H0a0,0,0,0,1,0,0V2A2,2,0,0,1,2,0Z" transform="translate(-47.294 156.353)" fill="#707070"/>
    <rect id="矩形_82" data-name="矩形 82" width="45.176" height="2.824" rx="1.412" transform="translate(-58.588 119.647)" fill="#707070"/>
    <rect id="矩形_83" data-name="矩形 83" width="2.824" height="45.176" rx="1.412" transform="translate(-37.412 114)" fill="#707070"/>
    <g id="left" transform="translate(-60 121.059)">
      <path id="路径_501" data-name="路径 501" d="M-219.529-538.529A8.48,8.48,0,0,1-228-547h16.941A8.48,8.48,0,0,1-219.529-538.529Z" transform="translate(228 568.177)" fill="#707070"/>
      <g id="路径_502" data-name="路径 502" transform="translate(-0.492 -1.626)" fill="#fff">
        <path d="M 16.13042831420898 23.21461296081543 L 1.795138120651245 23.21461296081543 C 1.704318046569824 23.21461296081543 1.635618090629578 23.14366340637207 1.593978047370911 23.08415412902832 C 1.509568095207214 22.96352386474609 1.448708057403564 22.75422286987305 1.531018137931824 22.52857398986816 L 8.698668479919434 2.878943681716919 C 8.757207870483398 2.718443632125854 8.85347843170166 2.626403570175171 8.962787628173828 2.626403570175171 C 9.072088241577148 2.626403570175171 9.168357849121094 2.718443632125854 9.226898193359375 2.878943681716919 L 16.39453887939453 22.52858352661133 C 16.47684860229492 22.75422286987305 16.41598892211914 22.96352386474609 16.33157730102539 23.08415412902832 C 16.28993797302246 23.14367294311523 16.22123718261719 23.21461296081543 16.13042831420898 23.21461296081543 Z" stroke="none"/>
        <path d="M 8.962782859802246 5.073009490966797 L 2.709996223449707 22.21461296081543 L 15.21556091308594 22.21461296081543 L 8.962782859802246 5.073009490966797 M 8.962782859802246 1.626398086547852 C 9.453935623168945 1.626398086547852 9.945087432861328 1.929681777954102 10.16634750366211 2.536252975463867 L 17.33398818969727 22.18589210510254 C 17.68673896789551 23.1529426574707 17.05688858032227 24.21461296081543 16.13042831420898 24.21461296081543 L 1.795137405395508 24.21461296081543 C 0.8686676025390625 24.21461296081543 0.2388172149658203 23.1529426574707 0.5915679931640625 22.18589210510254 L 7.759218215942383 2.536252975463867 C 7.980478286743164 1.929681777954102 8.471631050109863 1.626398086547852 8.962782859802246 1.626398086547852 Z" stroke="none" fill="#707070"/>
      </g>
    </g>
    <g id="right" transform="translate(-28.941 121.059)">
      <path id="路径_503" data-name="路径 503" d="M-219.529-538.529A8.48,8.48,0,0,1-228-547h16.941A8.48,8.48,0,0,1-219.529-538.529Z" transform="translate(228 568.177)" fill="#707070"/>
      <g id="路径_504" data-name="路径 504" transform="translate(-0.492 -1.626)" fill="#fff">
        <path d="M 16.13042831420898 23.21461296081543 L 1.795138120651245 23.21461296081543 C 1.704318046569824 23.21461296081543 1.635618090629578 23.14366340637207 1.593978047370911 23.08415412902832 C 1.509568095207214 22.96352386474609 1.448708057403564 22.75422286987305 1.531018137931824 22.52857398986816 L 8.698668479919434 2.878943681716919 C 8.757207870483398 2.718443632125854 8.85347843170166 2.626403570175171 8.962787628173828 2.626403570175171 C 9.072088241577148 2.626403570175171 9.168357849121094 2.718443632125854 9.226898193359375 2.878943681716919 L 16.39453887939453 22.52858352661133 C 16.47684860229492 22.75422286987305 16.41598892211914 22.96352386474609 16.33157730102539 23.08415412902832 C 16.28993797302246 23.14367294311523 16.22123718261719 23.21461296081543 16.13042831420898 23.21461296081543 Z" stroke="none"/>
        <path d="M 8.962782859802246 5.073009490966797 L 2.709996223449707 22.21461296081543 L 15.21556091308594 22.21461296081543 L 8.962782859802246 5.073009490966797 M 8.962782859802246 1.626398086547852 C 9.453935623168945 1.626398086547852 9.945087432861328 1.929681777954102 10.16634750366211 2.536252975463867 L 17.33398818969727 22.18589210510254 C 17.68673896789551 23.1529426574707 17.05688858032227 24.21461296081543 16.13042831420898 24.21461296081543 L 1.795137405395508 24.21461296081543 C 0.8686676025390625 24.21461296081543 0.2388172149658203 23.1529426574707 0.5915679931640625 22.18589210510254 L 7.759218215942383 2.536252975463867 C 7.980478286743164 1.929681777954102 8.471631050109863 1.626398086547852 8.962782859802246 1.626398086547852 Z" stroke="none" fill="#707070"/>
      </g>
    </g>
  </g>
</svg>
