<svg width="18" height="16" viewBox="0 0 18 16" fill="none" xmlns="http://www.w3.org/2000/svg">
<path d="M0 15.4948C0 15.2157 0.223858 14.9895 0.5 14.9895H17.5C17.7761 14.9895 18 15.2157 18 15.4948C18 15.7738 17.7761 16 17.5 16H0.500001C0.223858 16 0 15.7738 0 15.4948Z" fill="#0047BB"/>
<path d="M0 10.4215C0 10.1425 0.223858 9.91629 0.5 9.91629C0.776142 9.91629 1 10.1425 1 10.4215V15.4948C1 15.7738 0.776143 16 0.500001 16C0.223858 16 0 15.7738 0 15.4948V10.4215Z" fill="#0047BB"/>
<path d="M17 10.4215C17 10.1425 17.2239 9.91629 17.5 9.91629C17.7761 9.91629 18 10.1425 18 10.4215V15.4948C18 15.7738 17.7761 16 17.5 16C17.2239 16 17 15.7738 17 15.4948V10.4215Z" fill="#0047BB"/>
<path d="M8.53553 1.30642C8.53553 1.02739 8.75939 0.80119 9.03553 0.80119C9.31168 0.80119 9.53553 1.02739 9.53553 1.30642V10.4215C9.53553 10.7006 9.31168 10.9268 9.03553 10.9268C8.75939 10.9268 8.53553 10.7006 8.53553 10.4215V1.30642Z" fill="#0047BB"/>
<path d="M8.68198 0.147979C8.87724 -0.0493264 9.19383 -0.0493263 9.38909 0.147979C9.58435 0.345284 9.58435 0.665179 9.38909 0.862485L5.85355 4.43501C5.65829 4.63232 5.34171 4.63232 5.14645 4.43501C4.95118 4.23771 4.95118 3.91781 5.14645 3.72051L8.68198 0.147979Z" fill="#0047BB"/>
<path d="M8.68198 0.147979C8.87724 -0.0493264 9.19383 -0.0493263 9.38909 0.147979L12.9246 3.72051C13.1199 3.91781 13.1199 4.23771 12.9246 4.43501C12.7294 4.63232 12.4128 4.63232 12.2175 4.43501L8.68198 0.862485C8.48672 0.665179 8.48672 0.345284 8.68198 0.147979Z" fill="#0047BB"/>
</svg>
