<svg width="18" height="18" viewBox="0 0 18 18" fill="none" xmlns="http://www.w3.org/2000/svg">
<path fill-rule="evenodd" clip-rule="evenodd" d="M8.17922 17.75H9.77883C10.814 17.75 11.6538 16.9082 11.6558 15.875V15.4883C11.6685 15.4834 11.6807 15.478 11.6929 15.4727C11.7051 15.4673 11.7173 15.4619 11.73 15.457C12.2944 15.2207 12.8237 14.9141 13.3081 14.541L13.6694 14.748C14.1011 14.9961 14.605 15.0605 15.0855 14.9316C15.5659 14.8027 15.9702 14.4941 16.2202 14.0645L17.0112 12.707C17.2652 12.2715 17.3335 11.7637 17.2027 11.2773C17.0718 10.791 16.7593 10.3848 16.3218 10.1348L15.9839 9.94141C16.0249 9.63086 16.0464 9.31445 16.0464 9C16.0464 8.68555 16.0249 8.36914 15.9839 8.05859L16.3218 7.86523C16.7593 7.61523 17.0718 7.20898 17.2027 6.72266C17.3335 6.23633 17.2652 5.72852 17.0112 5.29297L16.2202 3.93555C15.9702 3.50586 15.5659 3.19727 15.0855 3.06836C14.605 2.93945 14.1011 3.00391 13.6694 3.25195L13.3081 3.45898C12.8237 3.08789 12.2964 2.7793 11.73 2.54297C11.7066 2.53125 11.6812 2.52148 11.6558 2.51172V2.125C11.6558 1.0918 10.814 0.25 9.78078 0.25H8.18117C7.14797 0.25 6.30617 1.0918 6.30617 2.125V2.51172C6.29347 2.5166 6.28127 2.52197 6.26906 2.52734C6.25685 2.53271 6.24465 2.53809 6.23195 2.54297C5.6675 2.7793 5.1382 3.08594 4.65383 3.45898L4.2925 3.25195C3.86086 3.00391 3.35695 2.93945 2.87648 3.06836C2.39601 3.19727 1.99172 3.50586 1.74172 3.93555L0.950702 5.29297C0.696796 5.72852 0.628437 6.23633 0.759296 6.72266C0.890155 7.20898 1.20266 7.61523 1.64016 7.86523L1.97805 8.05859C1.93703 8.36914 1.91555 8.68555 1.91555 9C1.91555 9.31445 1.93703 9.63086 1.97805 9.94141L1.64016 10.1348C1.20266 10.3848 0.890155 10.791 0.759296 11.2773C0.628437 11.7637 0.696796 12.2715 0.950702 12.707L1.74172 14.0645C1.99172 14.4941 2.39601 14.8027 2.87648 14.9316C3.35695 15.0605 3.86086 14.9961 4.2925 14.748L4.65187 14.541C5.13625 14.9121 5.66359 15.2207 6.23 15.457C6.25344 15.4688 6.27883 15.4785 6.30422 15.4883V15.875C6.30422 16.9082 7.14601 17.75 8.17922 17.75ZM5.23047 9C5.23047 11.0684 6.91211 12.75 8.98047 12.75C11.0488 12.75 12.7305 11.0684 12.7305 9C12.7305 6.93164 11.0488 5.25 8.98047 5.25C6.91211 5.25 5.23047 6.93164 5.23047 9Z" fill="#BDD6FF"/>
</svg>
