<svg width="22" height="22" viewBox="0 0 22 22" fill="none" xmlns="http://www.w3.org/2000/svg">
<g clip-path="url(#clip0_837_1827)">
<circle cx="11" cy="11" r="10.5" stroke="#878787"/>
<path d="M11 5C8.7944 5 7 6.68225 7 8.75H8.6C8.6 7.5095 9.6768 6.5 11 6.5C12.3232 6.5 13.4 7.5095 13.4 8.75C13.4 9.55175 13.0368 9.84875 12.2152 10.4412C11.9096 10.6617 11.5648 10.9108 11.2344 11.2198C10.1848 12.203 10.196 13.1728 10.2 13.25V14.75H11.8V13.2432C11.8 13.2253 11.8184 12.7925 12.3656 12.2802C12.6216 12.0402 12.9112 11.8317 13.1904 11.63C14.0384 11.018 15 10.325 15 8.75C15 6.68225 13.2056 5 11 5ZM10.2 15.5H11.8V17H10.2V15.5Z" fill="#878787"/>
</g>
<defs>
<clipPath id="clip0_837_1827">
<rect width="22" height="22" fill="white"/>
</clipPath>
</defs>
</svg>
