<svg width="28" height="28" viewBox="0 0 24 24" fill="none" xmlns="http://www.w3.org/2000/svg">
<g clip-path="url(#clip0_767_4073)">
<path d="M24 12C24 18.6259 18.627 23.9981 11.9971 23.999C5.37206 23.999 -0.000959639 18.6259 5.14575e-07 11.999C-0.00191979 5.37216 5.3711 0 11.999 0C18.627 0 24 5.37312 24 12V12Z" fill="#EAB300"/>
<path d="M12.0019 7.35112L15.2567 10.5722L17.1485 8.69671L12.0019 3.6001L6.85538 8.69671L8.74711 10.5722L12.0019 7.35112Z" fill="white"/>
<path d="M5.49232 10.032L3.60059 11.9075L5.49232 13.783L7.38923 11.9075L5.49232 10.032Z" fill="white"/>
<path d="M16.6147 11.9075L18.5116 10.032L20.4033 11.9075L18.5116 13.783L16.6147 11.9075Z" fill="white"/>
<path d="M12.0019 16.474L8.74711 13.2529L6.85538 15.1284L12.0019 20.225L17.1485 15.1284L15.2567 13.2529L12.0019 16.474Z" fill="white"/>
<path d="M13.8937 11.9177L12.0019 13.7933L10.1102 11.9177L12.0019 10.0422L13.8937 11.9177Z" fill="white"/>
</g>
<defs>
<clipPath id="clip0_767_4073">
<rect width="28" height="28" fill="white"/>
</clipPath>
</defs>
</svg>
