<?xml version="1.0" encoding="utf-8"?>
<!-- Generator: Adobe Illustrator 21.0.2, SVG Export Plug-In . SVG Version: 6.00 Build 0)  -->
<svg version="1.1" id="图层_1" xmlns="http://www.w3.org/2000/svg" xmlns:xlink="http://www.w3.org/1999/xlink" x="0px" y="0px"
	 viewBox="0 0 30 30" style="enable-background:new 0 0 30 30;" xml:space="preserve">
<style type="text/css">
	.st0{clip-path:url(#SVGID_2_);fill:#F3BA2F;}
	.st1{clip-path:url(#SVGID_2_);fill:#FFFFFF;}
</style>
<g>
	<defs>
		<rect id="SVGID_1_" width="30" height="30"/>
	</defs>
	<clipPath id="SVGID_2_">
		<use xlink:href="#SVGID_1_"  style="overflow:visible;"/>
	</clipPath>
	<path class="st0" d="M15,0c8.3,0,15,6.7,15,15s-6.7,15-15,15S0,23.3,0,15S6.7,0,15,0"/>
	<path class="st1" d="M11.4,13.5L15,9.9l3.6,3.6l2.1-2.1L15,5.6l-5.8,5.8L11.4,13.5z M5.6,15l2.1-2.1L9.9,15l-2.1,2.1L5.6,15z
		 M11.4,16.5l3.6,3.6l3.6-3.6l2.1,2.1L15,24.4l-5.8-5.8l0,0L11.4,16.5z M20.1,15l2.1-2.1l2.1,2.1l-2.1,2.1L20.1,15z M17.1,15
		L17.1,15L17.1,15L15,17.2L12.9,15l0,0l0,0l0.4-0.4l0.2-0.2l1.6-1.6L17.1,15L17.1,15z"/>
</g>
</svg>
