<svg width="518" height="220" viewBox="0 0 518 220" fill="none" xmlns="http://www.w3.org/2000/svg">
<mask id="mask0_6194_94138" style="mask-type:alpha" maskUnits="userSpaceOnUse" x="-1" y="0" width="521" height="220">
<rect x="-0.666748" width="520" height="220" fill="url(#paint0_linear_6194_94138)"/>
</mask>
<g mask="url(#mask0_6194_94138)">
<rect x="-0.666748" width="520" height="220" fill="url(#paint1_linear_6194_94138)"/>
<rect x="0.333252" width="520" height="220" fill="url(#paint2_linear_6194_94138)"/>
<mask id="mask1_6194_94138" style="mask-type:alpha" maskUnits="userSpaceOnUse" x="-139" y="-71" width="770" height="366">
<path d="M-54.797 -7.38042L602.789 -70.0292L630.563 221.5L-138.952 294.812L-54.797 -7.38042Z" fill="url(#paint3_linear_6194_94138)"/>
</mask>
<g mask="url(#mask1_6194_94138)">
<path d="M-54.4118 -3.33159L603.174 -65.9804L630.563 221.5L-138.953 294.812L-54.4118 -3.33159Z" fill="url(#paint4_linear_6194_94138)"/>
<line opacity="0.4" x1="-120.171" y1="47.3743" x2="607.371" y2="-21.9394" stroke="#0D0E14" stroke-opacity="0.4"/>
<line opacity="0.4" x1="-113.999" y1="112.158" x2="613.543" y2="42.8438" stroke="#0D0E14" stroke-opacity="0.4"/>
<line opacity="0.4" x1="-106.283" y1="193.14" x2="621.259" y2="123.826" stroke="#0D0E14" stroke-opacity="0.4"/>
<line opacity="0.4" y1="-0.5" x2="599.419" y2="-0.5" transform="matrix(0.291369 -0.956611 0.368312 0.929702 -101.442 336.543)" stroke="#0D0E14" stroke-opacity="0.4"/>
<line opacity="0.4" y1="-0.5" x2="687.749" y2="-0.5" transform="matrix(0.186133 -0.982525 0.466762 0.884383 -19.2932 382.102)" stroke="#0D0E14" stroke-opacity="0.4"/>
<line opacity="0.4" y1="-0.5" x2="761.47" y2="-0.5" transform="matrix(0.101755 -0.99481 0.592615 0.805486 127.883 411.379)" stroke="#0D0E14" stroke-opacity="0.4"/>
<line opacity="0.4" y1="-0.5" x2="816.659" y2="-0.5" transform="matrix(0.0301227 -0.999546 0.75419 0.656656 291.438 427.7)" stroke="#0D0E14" stroke-opacity="0.4"/>
<line opacity="0.4" y1="-0.5" x2="850.753" y2="-0.5" transform="matrix(-0.0341238 -0.999418 0.929825 0.368001 462.364 430.96)" stroke="#0D0E14" stroke-opacity="0.4"/>
</g>
<path fill-rule="evenodd" clip-rule="evenodd" d="M242.221 141.001C255.446 147.194 274.271 137.805 285.048 119.304C295.826 100.802 294.617 79.9493 282.593 71.6945C283.126 71.9497 283.651 72.2254 284.17 72.5219C299.047 81.0353 302.056 103.477 290.889 122.646C279.723 141.815 258.61 150.454 243.732 141.94C243.214 141.644 242.71 141.33 242.221 141.001Z" fill="#666669"/>
<path fill-rule="evenodd" clip-rule="evenodd" d="M263.449 139.265C271.327 135.531 278.981 128.486 284.51 118.995C290.038 109.504 292.367 99.4118 291.69 90.7829C291.013 82.1505 287.341 75.0488 280.938 71.3847C274.535 67.7206 266.494 68.1196 258.613 71.8548C250.734 75.5885 243.08 82.6336 237.551 92.1244C232.023 101.615 229.694 111.708 230.371 120.337C231.048 128.969 234.72 136.071 241.123 139.735C247.526 143.399 255.567 143 263.449 139.265ZM240.812 140.269C254.077 147.859 273.882 138.473 285.048 119.304C296.215 100.134 294.514 78.4412 281.249 70.8507C267.985 63.2603 248.179 72.6468 237.013 91.8161C225.846 110.985 227.547 132.679 240.812 140.269Z" fill="#666669"/>
<path fill-rule="evenodd" clip-rule="evenodd" d="M263 133.544C269.541 130.443 275.902 124.591 280.498 116.7C285.095 108.81 287.028 100.424 286.466 93.259C285.904 86.091 282.857 80.212 277.561 77.1817C272.266 74.1513 265.605 74.4754 259.061 77.5769C252.52 80.677 246.158 86.5299 241.562 94.4201C236.966 102.31 235.033 110.697 235.595 117.861C236.157 125.029 239.204 130.909 244.499 133.939C249.795 136.969 256.455 136.645 263 133.544ZM244.188 134.473C255.238 140.796 271.736 132.977 281.037 117.009C290.339 101.041 288.922 82.9705 277.872 76.6477C266.823 70.3249 250.325 78.1438 241.024 94.1118C231.722 110.08 233.139 128.15 244.188 134.473Z" fill="#666669"/>
<path d="M273.424 102.728C272.935 103.567 272.223 104.502 271.414 105.605L261.493 118.052C261.298 118.387 260.95 118.412 260.824 118.34L258.321 116.908C258.071 116.764 258.016 116.285 258.337 116.021L268.159 103.743C268.773 102.975 269.164 102.304 269.458 101.801C271.413 98.4446 271.111 95.8108 268.107 94.0917C264.477 92.0146 260.41 93.267 256.53 98.2071L247.126 110.054C246.931 110.39 246.582 110.414 246.457 110.343L243.954 108.91C243.704 108.767 243.649 108.288 243.969 108.024L261.453 86.0328C261.648 85.6972 261.996 85.6726 262.121 85.7443L264.5 87.1052C264.75 87.2484 264.805 87.7273 264.484 87.9913L263.772 88.9265C263.354 89.3583 263.659 89.9804 264.105 89.7881C266.71 89.0411 269.103 89.5159 271.357 90.8052C275.808 92.9048 276.552 97.3579 273.424 102.728Z" fill="#666669"/>
<path fill-rule="evenodd" clip-rule="evenodd" d="M263.201 120.57L273.316 108.235C273.436 108.075 273.554 107.919 273.669 107.766C274.344 106.87 274.933 106.088 275.35 105.372C278.478 100.002 277.491 95.4093 272.626 93.0728C270.154 91.6582 267.565 91.072 264.802 91.7284C264.332 91.9068 263.978 91.2568 264.409 90.832L265.133 89.9038C265.466 89.6467 265.386 89.1539 265.112 88.9967L262.502 87.5035C262.365 87.4249 261.992 87.4356 261.797 87.7712L243.973 109.567C243.64 109.824 243.719 110.317 243.994 110.474L246.741 112.046C246.878 112.125 247.251 112.114 247.446 111.778L257.033 100.036C260.985 95.1377 265.296 94.0246 269.279 96.3037C272.575 98.1899 273.011 100.9 271.056 104.256C270.762 104.76 270.371 105.431 269.745 106.192L259.728 118.359C259.395 118.616 259.474 119.109 259.749 119.266L262.495 120.838C262.633 120.916 263.005 120.906 263.201 120.57ZM256.547 99.6509L256.548 99.6496C258.574 97.1393 260.738 95.5396 262.968 94.887C265.217 94.2289 267.465 94.554 269.59 95.7697C271.339 96.7708 272.423 98.0478 272.746 99.6047C273.065 101.143 272.612 102.818 271.594 104.565L271.591 104.57C271.296 105.076 270.885 105.782 270.227 106.581L260.171 118.796L262.68 120.231L262.687 120.219L272.825 107.856C272.944 107.697 273.061 107.542 273.174 107.392C273.851 106.493 274.414 105.746 274.812 105.063C276.328 102.46 276.798 100.128 276.378 98.2159C275.962 96.3244 274.651 94.7304 272.355 93.6277L272.334 93.618L272.315 93.6068C269.957 92.2577 267.542 91.7208 264.979 92.3205C264.405 92.5124 263.908 92.1883 263.707 91.7728C263.506 91.358 263.561 90.8248 263.938 90.4279L264.688 89.4661L262.318 88.11L262.311 88.1216L244.416 110.004L246.925 111.44L246.932 111.428L256.547 99.6509Z" fill="#666669"/>
<path fill-rule="evenodd" clip-rule="evenodd" d="M262.572 120.787L260.706 118.012L261.223 117.67L263.09 120.445L262.572 120.787Z" fill="#666669"/>
<path fill-rule="evenodd" clip-rule="evenodd" d="M259.605 119.071L258.205 116.605L258.747 116.303L260.147 118.769L259.605 119.071Z" fill="#666669"/>
<path fill-rule="evenodd" clip-rule="evenodd" d="M246.502 111.857L246.346 110.162L246.966 110.106L247.121 111.802L246.502 111.857Z" fill="#666669"/>
<path fill-rule="evenodd" clip-rule="evenodd" d="M264.697 89.4777L264.075 87.782L264.697 87.3196L265.319 89.3235L264.697 89.4777Z" fill="#666669"/>
<path fill-rule="evenodd" clip-rule="evenodd" d="M243.856 110.134V108.438H244.479V110.134H243.856Z" fill="#666669"/>
<path fill-rule="evenodd" clip-rule="evenodd" d="M357.234 156.207C355.462 159.492 351.454 161.792 344.951 162.706C338.497 163.613 330.007 163.081 320.011 161.128C300.044 157.226 274.526 147.746 248.238 133.568C221.951 119.391 200.011 103.276 185.782 88.7345C178.658 81.4548 173.55 74.6531 170.763 68.7621C167.954 62.8257 167.674 58.2134 169.446 54.9284C171.218 51.6434 175.225 49.3432 181.729 48.4292C188.182 47.5223 196.672 48.0542 206.668 50.0075C222.613 53.1232 242.098 59.7963 262.688 69.578C263.685 69.2608 264.68 68.9975 265.67 68.7898C218.159 45.8107 175.778 38.9746 167.686 53.979C158.821 70.4157 194.46 106.837 247.289 135.329C300.117 163.82 350.129 173.593 358.994 157.156C366.964 142.379 338.961 111.448 294.837 84.6491C295.269 85.6345 295.653 86.6524 295.986 87.6988C314.49 99.1337 329.968 111.231 340.898 122.401C348.021 129.68 353.129 136.482 355.917 142.373C358.726 148.309 359.005 152.922 357.234 156.207Z" fill="#C3C3C6"/>
<path fill-rule="evenodd" clip-rule="evenodd" d="M196.982 25.7451C198.81 33.9133 189.742 46.2104 175.108 54.6594C159.251 63.814 142.75 65.0506 137.781 57.5712L137.716 57.6012L137.462 57.0506C137.238 56.653 137.048 56.2405 136.892 55.8146L134.716 51.1012L135.624 50.6821L136.337 52.2258C136.544 44.1936 145.222 33.4222 158.44 25.7905C172.511 17.6669 187.089 15.7782 193.666 20.6821L192.218 17.6045L193.123 17.1787L195.912 23.1047C195.957 23.1777 196.001 23.2514 196.044 23.326C196.323 23.8097 196.551 24.3157 196.729 24.8417L197.123 25.6787L196.982 25.7451Z" fill="#666669"/>
<path d="M193.044 17.326C197.646 25.2979 188.273 39.3263 172.108 48.6594C155.942 57.9924 139.107 59.0958 134.504 51.1239C129.902 43.152 139.275 29.1235 155.44 19.7905C171.606 10.4574 188.441 9.35403 193.044 17.326Z" fill="#C3C3C6"/>
<path fill-rule="evenodd" clip-rule="evenodd" d="M189.532 31.9267C193.258 26.3502 194.184 21.3009 192.178 17.826C190.172 14.351 185.336 12.6281 178.643 13.0667C172.022 13.5007 163.919 16.0498 155.94 20.6565C147.961 25.2632 141.702 31.0058 138.016 36.5232C134.29 42.0997 133.364 47.149 135.37 50.6239C137.376 54.0988 142.212 55.8217 148.904 55.3831C155.526 54.9492 163.629 52.4 171.608 47.7933C179.587 43.1867 185.846 37.444 189.532 31.9267ZM172.108 48.6594C188.273 39.3263 197.646 25.2979 193.044 17.326C188.441 9.35403 171.606 10.4574 155.44 19.7905C139.275 29.1235 129.902 43.152 134.504 51.1239C139.107 59.0958 155.942 57.9924 172.108 48.6594Z" fill="#666669"/>
<path fill-rule="evenodd" clip-rule="evenodd" d="M169.672 26.3975C172.501 24.5934 175.58 24.3634 176.55 25.8839C177.519 27.4044 176.012 30.0995 173.184 31.9036C170.355 33.7077 167.275 33.9377 166.306 32.4172C165.336 30.8968 166.843 28.2016 169.672 26.3975ZM162.998 32.2522L165.06 35.4859C165.483 36.1489 165.824 36.6837 166.035 37.1588C166.251 37.6479 166.358 38.1309 166.246 38.7123C166.067 39.6359 165.495 40.6591 164.611 41.6354C164.055 42.2499 163.375 42.7917 162.569 43.3572C161.786 43.9064 160.791 44.541 159.557 45.3277L158.825 45.7943C158.197 46.1953 157.513 46.2464 157.297 45.9085L150.274 34.8963C150.058 34.5584 150.393 33.9595 151.022 33.5586L151.753 33.0919C152.987 32.3052 153.982 31.6706 154.81 31.1921C155.663 30.6995 156.441 30.3117 157.233 30.0664C158.491 29.6767 159.66 29.5894 160.572 29.817C161.147 29.9603 161.54 30.2606 161.892 30.6633C162.234 31.0544 162.575 31.5892 162.998 32.2522Z" fill="#1C8929"/>
<path fill-rule="evenodd" clip-rule="evenodd" d="M225.809 108.601C233.919 115.786 233.725 135.563 224.774 155.522C215.076 177.147 198.699 190.953 187.815 186.871L187.77 186.952L187.086 186.567C186.549 186.32 186.037 186.031 185.55 185.702L179.695 182.406L180.33 181.278L182.247 182.357C176.377 173.772 177.317 155.892 185.402 137.864C194.008 118.674 207.873 105.642 218.492 105.802L214.639 103.67L215.266 102.538L222.684 106.642C222.787 106.684 222.889 106.728 222.991 106.774C223.651 107.07 224.273 107.428 224.859 107.845L225.906 108.425L225.809 108.601Z" fill="#5F5F62"/>
<path d="M215.295 102.752C226.167 107.628 226.966 129.453 217.078 151.5C207.191 173.547 190.362 187.466 179.489 182.59C168.617 177.714 167.818 155.889 177.706 133.842C187.593 111.796 204.422 97.876 215.295 102.752Z" fill="#C3C3C6"/>
<path fill-rule="evenodd" clip-rule="evenodd" d="M222.678 120.734C222.36 112.058 219.504 106.059 214.765 103.933C210.026 101.808 203.646 103.665 196.956 109.199C190.337 114.673 183.767 123.49 178.887 134.372C174.007 145.254 171.792 156.024 172.106 164.608C172.424 173.284 175.28 179.284 180.019 181.409C184.758 183.535 191.138 181.677 197.828 176.144C204.447 170.669 211.017 161.852 215.897 150.97C220.777 140.088 222.992 129.318 222.678 120.734ZM217.078 151.5C226.966 129.453 226.167 107.628 215.295 102.752C204.422 97.876 187.593 111.796 177.706 133.842C167.818 155.889 168.617 177.714 179.489 182.59C190.362 187.466 207.191 173.547 217.078 151.5Z" fill="#5F5F62"/>
<path fill-rule="evenodd" clip-rule="evenodd" d="M197.647 129.987C199.248 125.95 202.305 123.374 204.475 124.235C206.645 125.095 207.106 129.065 205.506 133.103C203.905 137.14 200.848 139.716 198.678 138.855C196.508 137.995 196.047 134.025 197.647 129.987ZM195.083 141.189L199.698 143.019C200.644 143.394 201.407 143.697 201.988 144.036C202.586 144.385 203.064 144.811 203.387 145.506C203.9 146.611 204.075 148.118 203.888 149.812C203.77 150.879 203.467 151.963 203.05 153.167C202.644 154.337 202.081 155.757 201.383 157.518L200.969 158.562C200.614 159.459 199.934 160.032 199.452 159.84L183.735 153.609C183.253 153.418 183.15 152.536 183.506 151.639L183.92 150.594C184.618 148.834 185.181 147.414 185.687 146.284C186.209 145.12 186.731 144.124 187.376 143.266C188.401 141.904 189.561 140.926 190.691 140.473C191.403 140.188 192.043 140.205 192.718 140.36C193.373 140.512 194.136 140.814 195.083 141.189Z" fill="#B80700"/>
<path fill-rule="evenodd" clip-rule="evenodd" d="M395.6 156.175C393.346 161.732 382.99 165.277 370.924 164.285C357.851 163.211 347.627 157.21 347.751 150.778L347.7 150.769L347.775 150.341C347.805 150.015 347.861 149.695 347.943 149.38L348.584 145.717L349.29 145.84L349.08 147.04C352.478 142.394 361.982 139.588 372.88 140.483C384.481 141.437 393.838 146.27 395.712 151.84L396.114 149.437L396.821 149.555L396.047 154.183C396.044 154.244 396.04 154.306 396.035 154.367C396.002 154.766 395.93 155.157 395.82 155.54L395.711 156.193L395.6 156.175Z" fill="#666669"/>
<path d="M396.714 149.61C396.174 156.182 384.932 160.623 371.604 159.528C358.276 158.432 347.909 152.216 348.449 145.644C348.99 139.071 360.232 134.631 373.56 135.726C386.888 136.821 397.255 143.037 396.714 149.61Z" fill="#C3C3C6"/>
<path fill-rule="evenodd" clip-rule="evenodd" d="M388.692 156.778C393.161 155.013 395.765 152.416 396 149.551C396.236 146.686 394.09 143.699 389.969 141.228C385.892 138.783 380.08 136.98 373.501 136.44C366.923 135.899 360.894 136.729 356.472 138.476C352.003 140.241 349.399 142.837 349.164 145.702C348.928 148.567 351.074 151.554 355.195 154.025C359.272 156.47 365.084 158.273 371.663 158.814C378.241 159.354 384.27 158.524 388.692 156.778ZM371.604 159.528C384.932 160.623 396.174 156.182 396.714 149.61C397.255 143.037 386.888 136.821 373.56 135.726C360.232 134.631 348.99 139.071 348.449 145.644C347.909 152.216 358.276 158.432 371.604 159.528Z" fill="#666669"/>
<path fill-rule="evenodd" clip-rule="evenodd" d="M379.248 145.421C381.65 145.512 383.558 146.633 383.509 147.924C383.46 149.215 381.473 150.188 379.071 150.097C376.669 150.006 374.762 148.885 374.811 147.594C374.859 146.303 376.846 145.33 379.248 145.421ZM372.93 146.148L372.826 148.894C372.804 149.457 372.787 149.911 372.717 150.277C372.645 150.653 372.511 150.981 372.208 151.278C371.726 151.749 370.972 152.118 370.053 152.333C369.475 152.468 368.853 152.51 368.148 152.514C367.462 152.518 366.618 152.486 365.57 152.447L364.949 152.423C364.415 152.403 363.991 152.154 364.002 151.867L364.356 142.516C364.367 142.23 364.809 142.013 365.342 142.034L365.964 142.057C367.011 142.097 367.856 142.129 368.539 142.185C369.242 142.242 369.858 142.331 370.425 142.51C371.325 142.793 372.049 143.218 372.494 143.725C372.774 144.043 372.883 144.381 372.926 144.761C372.968 145.131 372.951 145.585 372.93 146.148Z" fill="#1C8929"/>
<path fill-rule="evenodd" clip-rule="evenodd" d="M366.219 61.9678C367.016 65.5305 363.061 70.8938 356.678 74.5788C349.762 78.5716 342.565 79.1111 340.398 75.8493L340.369 75.8626L340.256 75.6184C340.16 75.4472 340.078 75.2697 340.011 75.0864L339.061 73.0275L339.457 72.8447L339.767 73.5181C339.857 70.0147 343.642 65.3161 349.408 61.9872C355.545 58.444 361.904 57.6202 364.772 59.759L364.141 58.4172L364.536 58.2314L365.751 60.8151C365.771 60.8471 365.791 60.8795 365.81 60.9123C365.932 61.1235 366.031 61.3444 366.109 61.5741L366.28 61.9389L366.219 61.9678Z" fill="#030308" fill-opacity="0.6"/>
<ellipse cx="351.734" cy="65.6663" rx="14.7415" ry="7.26979" transform="rotate(-30 351.734 65.6663)" fill="#C3C3C6"/>
<path d="M364.068 58.5455C364.924 60.0285 364.537 62.2021 362.916 64.6284C361.315 67.0251 358.593 69.5236 355.119 71.5291C351.646 73.5345 348.121 74.6426 345.245 74.8311C342.333 75.0219 340.257 74.2701 339.401 72.787C338.545 71.304 338.931 69.1305 340.553 66.7042C342.154 64.3074 344.876 61.8089 348.35 59.8035C351.823 57.798 355.348 56.69 358.224 56.5015C361.136 56.3106 363.212 57.0625 364.068 58.5455Z" stroke="#030308" stroke-opacity="0.6"/>
<g opacity="0.3">
<path fill-rule="evenodd" clip-rule="evenodd" d="M66.7192 169.808C68.3043 176.889 60.4433 187.549 47.7568 194.874C34.0112 202.81 19.7064 203.882 15.3988 197.398L15.3422 197.425L15.1205 196.944C14.9272 196.601 14.7634 196.245 14.6284 195.878L12.7415 191.79L13.5286 191.426L14.1463 192.765C14.3259 185.802 21.8482 176.464 33.3077 169.847C45.505 162.805 58.1424 161.168 63.8445 165.418L62.5892 162.751L63.3736 162.382L65.7898 167.516C65.8296 167.58 65.8684 167.645 65.9063 167.711C66.149 168.131 66.3469 168.571 66.5013 169.028L66.8412 169.75L66.7192 169.808Z" fill="#030308" fill-opacity="0.6"/>
<path d="M62.8729 162.764C64.7203 165.964 63.8199 170.506 60.5668 175.375C57.3334 180.214 51.8614 185.228 44.9063 189.244C37.9513 193.259 30.8729 195.491 25.0655 195.871C19.2225 196.254 14.8383 194.763 12.9908 191.563C11.1433 188.363 12.0438 183.82 15.2969 178.952C18.5302 174.113 24.0023 169.099 30.9573 165.083C37.9123 161.068 44.9907 158.836 50.7982 158.455C56.6411 158.072 61.0254 159.564 62.8729 162.764Z" stroke="#030308" stroke-opacity="0.6"/>
</g>
<g opacity="0.6">
<path fill-rule="evenodd" clip-rule="evenodd" d="M495.505 42.1301C492.649 44.6253 485.792 43.6767 479.262 39.6798C472.187 35.3491 468.124 29.0481 470.026 25.4518L470 25.4324L470.164 25.2126C470.274 25.037 470.397 24.872 470.533 24.7173L471.938 22.8317L472.301 23.1024L471.841 23.7201C475.083 22.0647 481.248 23.1879 487.147 26.7982C493.425 30.6412 497.332 36.0357 496.803 39.715L497.714 38.4725L498.08 38.7405L496.324 41.1335C496.305 41.167 496.285 41.2003 496.265 41.2332C496.133 41.4488 495.981 41.6488 495.81 41.8332L495.562 42.1721L495.505 42.1301Z" fill="#030308" fill-opacity="0.6"/>
<path d="M497.577 38.4818C496.642 40.0087 494.457 40.7338 491.436 40.4578C488.451 40.185 484.817 38.9392 481.262 36.7629C477.706 34.5866 474.944 31.9176 473.343 29.3831C471.723 26.8185 471.374 24.5423 472.309 23.0153C473.243 21.4884 475.429 20.7634 478.45 21.0393C481.435 21.3121 485.069 22.5579 488.624 24.7342C492.18 26.9105 494.942 29.5795 496.543 32.114C498.163 34.6786 498.512 36.9549 497.577 38.4818Z" stroke="#030308" stroke-opacity="0.6"/>
</g>
</g>
<defs>
<linearGradient id="paint0_linear_6194_94138" x1="259.333" y1="0" x2="259.333" y2="220" gradientUnits="userSpaceOnUse">
<stop stop-color="#1F2329"/>
<stop offset="1" stop-color="#16181C"/>
</linearGradient>
<linearGradient id="paint1_linear_6194_94138" x1="259.333" y1="0" x2="259.333" y2="220" gradientUnits="userSpaceOnUse">
<stop stop-color="#1F2329"/>
<stop offset="1" stop-color="#16181C"/>
</linearGradient>
<linearGradient id="paint2_linear_6194_94138" x1="260.333" y1="0" x2="260.333" y2="220" gradientUnits="userSpaceOnUse">
<stop stop-color="#121318"/>
<stop offset="1" stop-color="#17191E"/>
</linearGradient>
<linearGradient id="paint3_linear_6194_94138" x1="239.018" y1="-35.3724" x2="266.792" y2="256.157" gradientUnits="userSpaceOnUse">
<stop stop-color="#1F2329"/>
<stop offset="1" stop-color="#16181C"/>
</linearGradient>
<linearGradient id="paint4_linear_6194_94138" x1="218.417" y1="-29.3242" x2="245.805" y2="258.156" gradientUnits="userSpaceOnUse">
<stop stop-color="white"/>
<stop offset="1" stop-color="#E0E0E0"/>
</linearGradient>
</defs>
</svg>
