<svg width="518" height="220" viewBox="0 0 518 220" fill="none" xmlns="http://www.w3.org/2000/svg">
<mask id="mask0_6194_92995" style="mask-type:alpha" maskUnits="userSpaceOnUse" x="-2" y="0" width="521" height="220">
<rect x="-1.33325" width="520" height="220" fill="url(#paint0_linear_6194_92995)"/>
</mask>
<g mask="url(#mask0_6194_92995)">
<rect x="-1.33325" y="-1" width="520" height="220" fill="url(#paint1_linear_6194_92995)"/>
<g opacity="0.3">
<path fill-rule="evenodd" clip-rule="evenodd" d="M203.501 199.101C237.57 215.204 286.067 190.793 313.832 142.688C341.597 94.582 338.482 40.3635 307.507 18.9005C308.879 19.564 310.233 20.2809 311.568 21.0519C349.895 43.1873 357.646 101.536 328.879 151.378C300.112 201.219 245.722 223.68 207.395 201.544C206.06 200.773 204.762 199.958 203.501 199.101Z" fill="#B1B1B1"/>
<path fill-rule="evenodd" clip-rule="evenodd" d="M258.187 194.588C278.482 184.88 298.202 166.563 312.444 141.886C326.687 117.209 332.686 90.9673 330.943 68.5315C329.199 46.0868 319.739 27.622 303.243 18.095C286.747 8.568 266.032 9.60544 245.729 19.3172C225.433 29.0251 205.714 47.3429 191.472 72.0197C177.229 96.6966 171.23 122.938 172.973 145.374C174.717 167.819 184.177 186.284 200.672 195.811C217.168 205.338 237.884 204.3 258.187 194.588ZM199.871 197.199C234.043 216.935 285.065 192.529 313.832 142.688C342.599 92.846 338.217 36.4423 304.045 16.7066C269.873 -3.0291 218.85 21.3765 190.084 71.2181C161.317 121.06 165.699 177.463 199.871 197.199Z" fill="#B1B1B1"/>
<path fill-rule="evenodd" clip-rule="evenodd" d="M257.031 179.712C273.882 171.652 290.27 156.434 302.11 135.919C313.951 115.404 318.932 93.5982 317.484 74.9697C316.036 56.3324 308.186 41.0465 294.544 33.1675C280.902 25.2884 263.743 26.1309 246.884 34.1952C230.033 42.2557 213.645 57.4735 201.804 77.9885C189.964 98.5035 184.983 120.309 186.43 138.938C187.878 157.575 195.728 172.861 209.371 180.74C223.013 188.619 240.172 187.777 257.031 179.712ZM208.569 182.128C237.035 198.568 279.536 178.238 303.498 136.721C327.461 95.2027 323.811 48.2188 295.345 31.7791C266.88 15.3393 224.379 35.6691 200.416 77.1869C176.454 118.705 180.104 165.689 208.569 182.128Z" fill="#B1B1B1"/>
<path d="M283.885 99.5891C282.625 101.771 280.792 104.202 278.707 107.07L253.15 139.432C252.646 140.305 251.749 140.368 251.427 140.182L244.978 136.458C244.333 136.085 244.191 134.84 245.018 134.154L270.323 102.228C271.904 100.233 272.912 98.4877 273.667 97.1787C278.704 88.4525 277.927 81.6045 270.188 77.1349C260.836 71.7341 250.358 74.9905 240.365 87.8351L216.137 118.638C215.634 119.51 214.737 119.574 214.415 119.388L207.965 115.663C207.32 115.291 207.179 114.046 208.005 113.359L253.045 56.1811C253.549 55.3085 254.445 55.2446 254.768 55.4309L260.895 58.9693C261.54 59.3417 261.681 60.5868 260.855 61.2732L259.021 63.7049C257.943 64.8276 258.73 66.4451 259.878 65.945C266.588 64.0029 272.755 65.2373 278.559 68.5895C290.027 74.0488 291.943 85.6271 283.885 99.5891Z" fill="#B1B1B1"/>
<path fill-rule="evenodd" clip-rule="evenodd" d="M257.549 145.98L283.607 113.908C283.916 113.492 284.22 113.086 284.517 112.688C286.255 110.359 287.772 108.326 288.848 106.463C296.906 92.5011 294.363 80.5607 281.829 74.4857C275.461 70.8075 268.792 69.2833 261.675 70.99C260.463 71.4539 259.552 69.7639 260.661 68.6593L262.526 66.2458C263.383 65.5775 263.179 64.2962 262.472 63.8875L255.749 60.005C255.395 59.8007 254.436 59.8283 253.932 60.7009L208.014 117.372C207.157 118.04 207.361 119.322 208.069 119.73L215.145 123.817C215.499 124.022 216.458 123.994 216.962 123.121L241.66 92.5904C251.841 79.8544 262.946 76.9602 273.207 82.8861C281.699 87.7904 282.82 94.8376 277.784 103.564C277.028 104.873 276.021 106.618 274.408 108.595L248.601 140.231C247.744 140.899 247.948 142.18 248.655 142.589L255.732 146.676C256.086 146.88 257.045 146.853 257.549 145.98ZM240.408 91.5891L240.411 91.5856C245.629 85.0586 251.205 80.8993 256.95 79.2025C262.742 77.4916 268.535 78.3368 274.008 81.4977C278.515 84.1005 281.306 87.4209 282.138 91.4688C282.961 95.4696 281.793 99.8247 279.172 104.365L279.164 104.378C278.404 105.695 277.345 107.532 275.65 109.609L249.744 141.366L256.207 145.099L256.224 145.068L282.342 112.924C282.65 112.51 282.95 112.107 283.242 111.716C284.986 109.379 286.436 107.436 287.46 105.662C291.366 98.8933 292.577 92.8303 291.495 87.8579C290.424 82.9398 287.045 78.7954 281.131 75.9284L281.078 75.9031L281.028 75.8741C274.954 72.3664 268.732 70.9703 262.13 72.5295C260.651 73.0283 259.369 72.1858 258.852 71.1054C258.336 70.027 258.478 68.6405 259.447 67.6087L261.379 65.1079L255.274 61.582L255.257 61.6121L209.157 118.508L215.62 122.24L215.637 122.211L240.408 91.5891Z" fill="#B1B1B1"/>
<path fill-rule="evenodd" clip-rule="evenodd" d="M255.929 146.544L251.121 139.329L252.455 138.44L257.263 145.654L255.929 146.544Z" fill="#B1B1B1"/>
<path fill-rule="evenodd" clip-rule="evenodd" d="M248.285 142.083L244.679 135.67L246.076 134.884L249.682 141.297L248.285 142.083Z" fill="#B1B1B1"/>
<path fill-rule="evenodd" clip-rule="evenodd" d="M214.529 123.327L214.128 118.918L215.724 118.773L216.125 123.182L214.529 123.327Z" fill="#B1B1B1"/>
<path fill-rule="evenodd" clip-rule="evenodd" d="M261.404 65.1379L259.801 60.7291L261.404 59.5267L263.006 64.7371L261.404 65.1379Z" fill="#B1B1B1"/>
<path fill-rule="evenodd" clip-rule="evenodd" d="M207.714 118.845V114.436H209.317V118.845H207.714Z" fill="#B1B1B1"/>
</g>
<path d="M-1.33325 127.699L55.2841 119.054C103.769 111.651 153.217 113.472 201.026 124.422C239.234 133.173 278.545 136.106 317.628 133.123L333.895 131.881C370.299 129.102 406.285 122.319 441.203 111.656L518.667 88V220H-1.33325V127.699Z" fill="url(#paint2_linear_6194_92995)"/>
<path opacity="0.3" d="M-1.33325 128L55.2671 119.292C103.757 111.832 153.224 113.667 201.028 124.699V124.699C239.232 133.515 278.554 136.47 317.646 133.463L333.909 132.212C370.302 129.413 406.272 122.583 441.158 111.849L518.667 88" stroke="#2ECD3C" stroke-width="0.962526"/>
<line x1="8.41016" y1="34.4074" x2="508.924" y2="34.4074" stroke="black" stroke-opacity="0.1" stroke-width="0.962526" stroke-dasharray="1.93 3.85"/>
<line x1="8.41016" y1="96.009" x2="508.924" y2="96.009" stroke="black" stroke-opacity="0.1" stroke-width="0.962526" stroke-dasharray="1.93 3.85"/>
<line x1="8.41016" y1="188.411" x2="508.924" y2="188.411" stroke="black" stroke-opacity="0.1" stroke-width="0.962526" stroke-dasharray="1.93 3.85"/>
<line x1="8.41016" y1="65.2082" x2="508.924" y2="65.2082" stroke="black" stroke-opacity="0.1" stroke-width="0.962526" stroke-dasharray="1.93 3.85"/>
<line x1="8.41016" y1="157.611" x2="508.924" y2="157.611" stroke="black" stroke-opacity="0.1" stroke-width="0.962526" stroke-dasharray="1.93 3.85"/>
<line x1="8.41016" y1="126.81" x2="508.924" y2="126.81" stroke="black" stroke-opacity="0.1" stroke-width="0.962526" stroke-dasharray="1.93 3.85"/>
<path d="M26.1957 198.575L45.1248 185.222L64.0539 198.575L64.054 235.633L55.6427 241.321L55.6427 236.636L45.1248 228.94L34.2269 236.636L34.2269 241.321L26.1959 235.633L26.1957 198.575Z" fill="#1C8929"/>
<path d="M34.227 240.986L26.196 235.383L45.1252 222.031L64.0543 235.383L55.6428 241.655" stroke="#030308" stroke-opacity="0.6" stroke-width="1.18347"/>
<path d="M26.196 198.574L45.1252 185.222L64.0543 198.574" stroke="#030308" stroke-opacity="0.6" stroke-width="1.18347"/>
<path d="M33.5972 169.357L44.9546 161.346L56.3121 169.357" stroke="#030308" stroke-opacity="0.6" stroke-width="1.18347"/>
<path d="M34.2263 193.47V169.377" stroke="#030308" stroke-opacity="0.6" stroke-width="1.18347"/>
<path d="M26.865 234.963V198.824" stroke="#030308" stroke-opacity="0.6" stroke-width="1.18347"/>
<path d="M55.6423 193.47V169.377" stroke="#030308" stroke-opacity="0.6" stroke-width="1.18347"/>
<path d="M63.6736 235.633V198.824" stroke="#030308" stroke-opacity="0.6" stroke-width="1.18347"/>
<path d="M44.9343 256.379L44.9343 162.016" stroke="#030308" stroke-opacity="0.6" stroke-width="1.18347"/>
<path d="M133.112 218.575L152.041 205.222L170.97 218.575L170.97 255.633L162.559 261.321L162.559 256.636L152.041 248.94L141.143 256.636L141.143 261.321L133.112 255.633L133.112 218.575Z" fill="#B80700"/>
<path d="M133.112 218.574L152.041 205.222L170.971 218.574" stroke="#030308" stroke-opacity="0.6" stroke-width="1.18347"/>
<path d="M140.513 189.357L151.87 181.346L163.228 189.357" stroke="#030308" stroke-opacity="0.6" stroke-width="1.18347"/>
<path d="M141.143 213.47V189.377" stroke="#030308" stroke-opacity="0.6" stroke-width="1.18347"/>
<path d="M133.781 254.962V218.822" stroke="#030308" stroke-opacity="0.6" stroke-width="1.18347"/>
<path d="M162.559 213.47V189.377" stroke="#030308" stroke-opacity="0.6" stroke-width="1.18347"/>
<path d="M170.59 255.631V218.822" stroke="#030308" stroke-opacity="0.6" stroke-width="1.18347"/>
<path d="M151.851 276.379L151.851 182.016" stroke="#030308" stroke-opacity="0.6" stroke-width="1.18347"/>
<path d="M346.944 203.575L365.874 190.222L384.803 203.575L384.803 240.633L376.391 246.321L376.391 241.636L365.874 233.94L354.976 241.636L354.976 246.321L346.945 240.633L346.944 203.575Z" fill="#B80700"/>
<path d="M346.945 203.574L365.874 190.222L384.803 203.574" stroke="#030308" stroke-opacity="0.6" stroke-width="1.18347"/>
<path d="M354.345 174.357L365.703 166.346L377.06 174.357" stroke="#030308" stroke-opacity="0.6" stroke-width="1.18347"/>
<path d="M354.975 198.47V174.377" stroke="#030308" stroke-opacity="0.6" stroke-width="1.18347"/>
<path d="M347.614 239.962V203.822" stroke="#030308" stroke-opacity="0.6" stroke-width="1.18347"/>
<path d="M376.391 198.47V174.377" stroke="#030308" stroke-opacity="0.6" stroke-width="1.18347"/>
<path d="M384.422 240.631V203.822" stroke="#030308" stroke-opacity="0.6" stroke-width="1.18347"/>
<path d="M365.683 261.379L365.683 167.016" stroke="#030308" stroke-opacity="0.6" stroke-width="1.18347"/>
<path d="M240.028 192.575L258.957 179.222L277.886 192.575L277.887 229.633L269.475 235.321L269.475 230.636L258.957 222.94L248.059 230.636L248.059 235.321L240.028 229.633L240.028 192.575Z" fill="#1C8929"/>
<path d="M247.43 230.283L258.787 222.272L270.145 230.283" stroke="#030308" stroke-opacity="0.6" stroke-width="1.18347"/>
<path d="M248.06 234.986L240.029 229.383L258.958 216.031L277.887 229.383L269.475 235.655" stroke="#030308" stroke-opacity="0.6" stroke-width="1.18347"/>
<path d="M240.029 192.574L258.958 179.222L277.887 192.574" stroke="#030308" stroke-opacity="0.6" stroke-width="1.18347"/>
<path d="M247.43 163.357L258.787 155.346L270.145 163.357" stroke="#030308" stroke-opacity="0.6" stroke-width="1.18347"/>
<path d="M248.059 187.47V163.377" stroke="#030308" stroke-opacity="0.6" stroke-width="1.18347"/>
<path d="M240.698 228.963V192.824" stroke="#030308" stroke-opacity="0.6" stroke-width="1.18347"/>
<path d="M269.475 187.47V163.377" stroke="#030308" stroke-opacity="0.6" stroke-width="1.18347"/>
<path d="M277.506 229.633V192.824" stroke="#030308" stroke-opacity="0.6" stroke-width="1.18347"/>
<path d="M258.767 250.379L258.767 156.016" stroke="#030308" stroke-opacity="0.6" stroke-width="1.18347"/>
<path d="M453.861 193.575L472.79 180.222L491.719 193.575L491.719 230.633L483.308 236.321L483.308 231.636L472.79 223.94L461.892 231.636L461.892 236.321L453.861 230.633L453.861 193.575Z" fill="#1C8929"/>
<path d="M461.262 231.283L472.62 223.272L483.977 231.283" stroke="#030308" stroke-opacity="0.6" stroke-width="1.18347"/>
<path d="M461.892 235.986L453.861 230.383L472.79 217.031L491.719 230.383L483.308 236.655" stroke="#030308" stroke-opacity="0.6" stroke-width="1.18347"/>
<path d="M453.861 193.574L472.79 180.222L491.719 193.574" stroke="#030308" stroke-opacity="0.6" stroke-width="1.18347"/>
<path d="M461.262 164.357L472.62 156.346L483.977 164.357" stroke="#030308" stroke-opacity="0.6" stroke-width="1.18347"/>
<path d="M461.891 188.47V164.377" stroke="#030308" stroke-opacity="0.6" stroke-width="1.18347"/>
<path d="M454.53 229.963V193.824" stroke="#030308" stroke-opacity="0.6" stroke-width="1.18347"/>
<path d="M483.307 188.47V164.377" stroke="#030308" stroke-opacity="0.6" stroke-width="1.18347"/>
<path d="M491.339 230.633V193.824" stroke="#030308" stroke-opacity="0.6" stroke-width="1.18347"/>
<path d="M472.599 251.379L472.599 157.016" stroke="#030308" stroke-opacity="0.6" stroke-width="1.18347"/>
<g clip-path="url(#clip0_6194_92995)">
<path d="M164.694 93C168.426 93 172.074 91.8857 175.177 89.7979C178.28 87.7102 180.699 84.7428 182.127 81.271C183.555 77.7992 183.929 73.9789 183.201 70.2933C182.473 66.6077 180.676 63.2222 178.037 60.565C175.398 57.9078 172.036 56.0982 168.376 55.3651C164.715 54.632 160.921 55.0082 157.474 56.4463C154.026 57.8844 151.079 60.3196 149.005 63.4442C146.932 66.5687 145.825 70.2422 145.825 74C145.825 79.0391 147.813 83.8718 151.352 87.435C154.891 90.9982 159.69 93 164.694 93Z" fill="#C0E79B"/>
<path d="M166.783 70.8824V68.3491H172.557V64.5H156.847V68.3522H162.616V70.8856C157.928 71.1009 154.403 72.0319 154.403 73.145C154.403 74.2581 157.93 75.1875 162.616 75.406V83.5H166.787V75.4044C171.468 75.1875 174.986 74.2581 174.986 73.1434C174.986 72.0287 171.465 71.0993 166.783 70.8824ZM166.783 74.7204C166.665 74.7204 166.061 74.7632 164.715 74.7632C163.638 74.7632 162.883 74.7362 162.614 74.7204C158.476 74.5352 155.381 73.8132 155.381 72.9502C155.381 72.0873 158.471 71.3669 162.614 71.1801V74C162.888 74.019 163.66 74.0665 164.734 74.0665C166.02 74.0665 166.665 74.0142 166.787 74V71.1753C170.923 71.359 174.006 72.081 174.006 72.9455C174.006 73.81 170.918 74.5304 166.789 74.7204H166.783Z" fill="#26A17B"/>
</g>
<ellipse cx="139.536" cy="74" rx="18.869" ry="19" fill="#D8DFFF"/>
<path d="M139.484 62.5996L139.334 63.113V78.0096L139.484 78.1604L146.351 74.073L139.484 62.5996Z" fill="#343434"/>
<path d="M139.484 62.5996L132.617 74.073L139.484 78.1604V70.93V62.5996Z" fill="#8C8C8C"/>
<path d="M139.484 79.47L139.4 79.5738V84.8802L139.484 85.1289L146.355 75.3848L139.484 79.47Z" fill="#3C3C3B"/>
<path d="M139.484 85.1289V79.47L132.617 75.3848L139.484 85.1289Z" fill="#8C8C8C"/>
<path d="M139.484 78.1601L146.351 74.0727L139.484 70.9297V78.1601Z" fill="#141414"/>
<path d="M132.617 74.0727L139.484 78.1601V70.9297L132.617 74.0727Z" fill="#393939"/>
<g clip-path="url(#clip1_6194_92995)">
<path d="M325.007 93C328.739 93 332.387 91.8857 335.49 89.7979C338.593 87.7102 341.011 84.7428 342.44 81.271C343.868 77.7992 344.241 73.9789 343.513 70.2933C342.785 66.6077 340.988 63.2222 338.349 60.565C335.71 57.9078 332.348 56.0982 328.688 55.3651C325.028 54.632 321.234 55.0082 317.786 56.4463C314.338 57.8844 311.391 60.3196 309.318 63.4442C307.245 66.5687 306.138 70.2422 306.138 74C306.138 79.0391 308.126 83.8718 311.665 87.435C315.203 90.9982 320.003 93 325.007 93Z" fill="#C0E79B"/>
<path d="M327.095 70.8824V68.3491H332.869V64.5H317.159V68.3522H322.928V70.8856C318.241 71.1009 314.716 72.0319 314.716 73.145C314.716 74.2581 318.243 75.1875 322.928 75.406V83.5H327.1V75.4044C331.781 75.1875 335.298 74.2581 335.298 73.1434C335.298 72.0287 331.778 71.0993 327.095 70.8824ZM327.095 74.7204C326.977 74.7204 326.373 74.7632 325.027 74.7632C323.95 74.7632 323.196 74.7362 322.927 74.7204C318.788 74.5352 315.694 73.8132 315.694 72.9502C315.694 72.0873 318.783 71.3669 322.927 71.1801V74C323.2 74.019 323.972 74.0665 325.046 74.0665C326.333 74.0665 326.977 74.0142 327.1 74V71.1753C331.235 71.359 334.319 72.081 334.319 72.9455C334.319 73.81 331.231 74.5304 327.101 74.7204H327.095Z" fill="#26A17B"/>
</g>
<g clip-path="url(#clip2_6194_92995)">
<path d="M318.56 74.0001C318.56 84.4426 310.154 92.9074 299.783 92.9074C289.413 92.9074 281.007 84.4426 281.007 74.0001C281.007 63.5578 289.413 55.0928 299.783 55.0928C310.154 55.0928 318.56 63.5578 318.56 74.0001Z" fill="#F7931A"/>
<path d="M304.343 79.5257C304.266 79.7875 304.139 80.0314 303.968 80.2433C303.797 80.4551 303.586 80.6307 303.347 80.7598C303.109 80.8904 302.848 80.9722 302.578 81.0004C302.308 81.0286 302.036 81.0026 301.776 80.9239L296.489 79.3382L297.667 75.3557L302.954 76.9417H302.954C304.044 77.2686 304.667 78.4278 304.343 79.5257ZM306.126 71.3644C306.256 71.6041 306.337 71.8674 306.365 72.1389C306.393 72.4104 306.367 72.6848 306.289 72.9462C305.964 74.0437 304.812 74.6707 303.723 74.3444H303.722L298.435 72.7586L299.612 68.7762L304.9 70.3619C305.16 70.4391 305.402 70.5675 305.613 70.7395C305.823 70.9116 305.998 71.124 306.126 71.3644ZM308.493 70.0749C307.889 68.9501 306.885 68.1295 305.668 67.7646L304.969 67.555L305.948 64.2435L303.435 63.4899L302.456 66.8013L300.31 66.1579L301.29 62.8465L300.688 62.6659L298.249 61.9346L297.305 65.1265L294.333 64.2352L293.494 67.0713L296.466 67.9628L293.413 78.2858L290.441 77.3945L289.602 80.2308L292.574 81.1219L291.777 83.816L292.379 83.9965L294.818 84.7279L295.65 81.9143L297.801 82.5592L296.968 85.373L299.471 86.1236L300.303 83.3098L301.008 83.521C301.45 83.6542 301.91 83.722 302.372 83.7224C303.151 83.7224 303.923 83.5275 304.628 83.1435C305.745 82.5348 306.559 81.5248 306.922 80.299C307.303 79.0098 307.115 77.6853 306.509 76.5951C307.609 76.0167 308.486 75.0095 308.868 73.7197C309.231 72.4939 309.097 71.1995 308.493 70.0749Z" fill="white"/>
</g>
<g clip-path="url(#clip3_6194_92995)">
<path d="M245.174 93C248.984 93 252.708 91.8857 255.876 89.7979C259.043 87.7102 261.512 84.7428 262.97 81.271C264.428 77.7992 264.809 73.9789 264.066 70.2933C263.323 66.6077 261.488 63.2222 258.795 60.565C256.101 57.9078 252.668 56.0982 248.932 55.3651C245.196 54.632 241.323 55.0082 237.803 56.4463C234.283 57.8844 231.275 60.3196 229.158 63.4442C227.042 66.5687 225.912 70.2422 225.912 74C225.912 79.0391 227.941 83.8718 231.554 87.435C235.166 90.9982 240.066 93 245.174 93Z" fill="#C0E79B"/>
<path d="M247.306 70.8824V68.3491H253.2V64.5H237.163V68.3522H243.052V70.8856C238.267 71.1009 234.668 72.0319 234.668 73.145C234.668 74.2581 238.269 75.1875 243.052 75.406V83.5H247.311V75.4044C252.089 75.1875 255.68 74.2581 255.68 73.1434C255.68 72.0287 252.086 71.0993 247.306 70.8824ZM247.306 74.7204C247.186 74.7204 246.569 74.7632 245.195 74.7632C244.096 74.7632 243.325 74.7362 243.051 74.7204C238.826 74.5352 235.667 73.8132 235.667 72.9502C235.667 72.0873 238.821 71.3669 243.051 71.1801V74C243.33 74.019 244.118 74.0665 245.214 74.0665C246.527 74.0665 247.186 74.0142 247.311 74V71.1753C251.532 71.359 254.68 72.081 254.68 72.9455C254.68 73.81 251.528 74.5304 247.312 74.7204H247.306Z" fill="#26A17B"/>
</g>
<g clip-path="url(#clip4_6194_92995)">
<path d="M238.753 74C238.753 84.491 230.129 92.997 219.487 92.9985C208.852 92.9985 200.228 84.491 200.229 73.9985C200.226 63.5059 208.851 55 219.49 55C230.129 55 238.753 63.5074 238.753 74Z" fill="#EAB300"/>
<path d="M219.494 66.6393L224.719 71.7394L227.755 68.7698L219.494 60.7002L211.233 68.7698L214.27 71.7394L219.494 66.6393Z" fill="white"/>
<path d="M209.045 70.884L206.009 73.8536L209.045 76.8231L212.09 73.8536L209.045 70.884Z" fill="white"/>
<path d="M226.899 73.8536L229.943 70.884L232.98 73.8536L229.943 76.8231L226.899 73.8536Z" fill="white"/>
<path d="M219.494 81.0839L214.27 75.9838L211.233 78.9534L219.494 87.023L227.755 78.9534L224.719 75.9838L219.494 81.0839Z" fill="white"/>
<path d="M222.531 73.8698L219.494 76.8394L216.458 73.8698L219.494 70.9002L222.531 73.8698Z" fill="white"/>
</g>
<circle cx="378.354" cy="74" r="19" fill="#C0E79B"/>
<circle cx="378.354" cy="74" r="2.375" fill="#26A17B"/>
<circle cx="385.479" cy="74" r="2.375" fill="#26A17B"/>
<circle cx="371.229" cy="74" r="2.375" fill="#26A17B"/>
</g>
<defs>
<linearGradient id="paint0_linear_6194_92995" x1="258.667" y1="0" x2="258.667" y2="220" gradientUnits="userSpaceOnUse">
<stop stop-color="#1F2329"/>
<stop offset="1" stop-color="#16181C"/>
</linearGradient>
<linearGradient id="paint1_linear_6194_92995" x1="258.667" y1="-1" x2="258.667" y2="219" gradientUnits="userSpaceOnUse">
<stop stop-color="#F0F1F5"/>
<stop offset="1" stop-color="#C9C9C9"/>
</linearGradient>
<linearGradient id="paint2_linear_6194_92995" x1="258.667" y1="107.85" x2="258.667" y2="220" gradientUnits="userSpaceOnUse">
<stop stop-color="#9BFFDB"/>
<stop offset="1" stop-color="#A0C0A4"/>
</linearGradient>
<clipPath id="clip0_6194_92995">
<rect width="37.7379" height="38" fill="white" transform="translate(145.825 55)"/>
</clipPath>
<clipPath id="clip1_6194_92995">
<rect width="37.7379" height="38" fill="white" transform="translate(306.138 55)"/>
</clipPath>
<clipPath id="clip2_6194_92995">
<rect width="37.7379" height="38" fill="white" transform="translate(280.979 55)"/>
</clipPath>
<clipPath id="clip3_6194_92995">
<rect width="38.5241" height="38" fill="white" transform="translate(225.912 55)"/>
</clipPath>
<clipPath id="clip4_6194_92995">
<rect width="38.5241" height="38" fill="white" transform="translate(200.229 55)"/>
</clipPath>
</defs>
</svg>
