<svg width="1920" height="448" viewBox="0 0 1920 448" fill="none" xmlns="http://www.w3.org/2000/svg">
<rect width="1920" height="448" fill="#F8F8F8"/>
<path opacity="0.6" fill-rule="evenodd" clip-rule="evenodd" d="M1323.91 58.737C1323.91 48.2436 1332.41 39.7371 1342.91 39.7371H1448.19C1458.68 39.7371 1467.19 48.2437 1467.19 58.7371V122.34H1579.32V82.6205C1579.32 72.1271 1587.82 63.6205 1598.32 63.6205H1703.6C1714.09 63.6205 1722.6 72.1271 1722.6 82.6205V122.34H1776.58V39.7371H1919.86V170.01H1829.62V378.516H1008.28V437.07H865V397.966C865 323.102 922.417 261.649 995.617 255.239V142.916H880.617C880.617 100.946 914.64 66.923 956.61 66.923H1023.9V122.34H1215.93V76.6478H1323.91V58.737Z" fill="url(#paint0_linear_18962_102645)"/>
<defs>
<linearGradient id="paint0_linear_18962_102645" x1="1633.3" y1="39.7371" x2="1633.3" y2="437.07" gradientUnits="userSpaceOnUse">
<stop stop-color="#E7E7E7"/>
<stop offset="1" stop-color="#F0F1F5" stop-opacity="0.4"/>
</linearGradient>
</defs>
</svg>
