<svg width="48" height="48" viewBox="0 0 48 48" fill="none" xmlns="http://www.w3.org/2000/svg">
<path fill-rule="evenodd" clip-rule="evenodd" d="M9 8C8.44772 8 8 8.44772 8 9V18C8 19.1046 7.10457 20 6 20C4.89543 20 4 19.1046 4 18V9C4 6.23858 6.23858 4 9 4H39C41.7615 4 44 6.2386 44 9V18C44 19.1046 43.1046 20 42 20C40.8954 20 40 19.1046 40 18V9C40 8.4477 39.5523 8 39 8H9Z" fill="#333333"/>
<path fill-rule="evenodd" clip-rule="evenodd" d="M32 22C33.1046 22 34 22.8954 34 24V31C34 32.1046 33.1046 33 32 33C30.8954 33 30 32.1046 30 31V24C30 22.8954 30.8954 22 32 22Z" fill="#333333"/>
<path fill-rule="evenodd" clip-rule="evenodd" d="M24 13C25.1046 13 26 13.8954 26 15V31C26 32.1046 25.1046 33 24 33C22.8954 33 22 32.1046 22 31V15C22 13.8954 22.8954 13 24 13Z" fill="#333333"/>
<path fill-rule="evenodd" clip-rule="evenodd" d="M16 17C17.1046 17 18 17.8954 18 19V31C18 32.1046 17.1046 33 16 33C14.8954 33 14 32.1046 14 31V19C14 17.8954 14.8954 17 16 17Z" fill="#333333"/>
<path fill-rule="evenodd" clip-rule="evenodd" d="M6 28C7.10457 28 8 28.8954 8 30V39C8 39.5523 8.4477 40 9 40H39C39.5523 40 40 39.5523 40 39V30C40 28.8954 40.8954 28 42 28C43.1046 28 44 28.8954 44 30V39C44 41.7615 41.7615 44 39 44H9C6.2386 44 4 41.7615 4 39V30C4 28.8954 4.89543 28 6 28Z" fill="#333333"/>
</svg>
