<svg width="48" height="48" viewBox="0 0 48 48" fill="none" xmlns="http://www.w3.org/2000/svg">
<path fill-rule="evenodd" clip-rule="evenodd" d="M4 6C4 4.89543 4.89543 4 6 4H23.9917C25.0963 4 25.9917 4.89543 25.9917 6C25.9917 7.10457 25.0963 8 23.9917 8H8V40H24C25.1046 40 26 40.8954 26 42C26 43.1046 25.1046 44 24 44H6C4.89543 44 4 43.1046 4 42V6Z" fill="#333333"/>
<path fill-rule="evenodd" clip-rule="evenodd" d="M31.5858 13.5858C32.3668 12.8047 33.6332 12.8047 34.4142 13.5858L43.4142 22.5858C44.1953 23.3668 44.1953 24.6332 43.4142 25.4142L34.4142 34.4142C33.6332 35.1953 32.3668 35.1953 31.5858 34.4142C30.8047 33.6332 30.8047 32.3668 31.5858 31.5858L39.1716 24L31.5858 16.4142C30.8047 15.6332 30.8047 14.3668 31.5858 13.5858Z" fill="#333333"/>
<path fill-rule="evenodd" clip-rule="evenodd" d="M14 23.9917C14 22.8871 14.8954 21.9917 16 21.9917H42C43.1046 21.9917 44 22.8871 44 23.9917C44 25.0963 43.1046 25.9917 42 25.9917H16C14.8954 25.9917 14 25.0963 14 23.9917Z" fill="#333333"/>
</svg>
