<svg width="48" height="48" viewBox="0 0 48 48" fill="none" xmlns="http://www.w3.org/2000/svg">
<g clip-path="url(#clip0_5123_74523)">
<circle cx="24" cy="24.0017" r="24" fill="white"/>
<path d="M24 0.00170898C10.7447 0.00170898 0 10.7435 0 23.9952C0 37.2469 10.7447 48.0017 24 48.0017C37.2553 48.0017 48 37.2599 48 24.0082C48 10.7565 37.2553 0.00170898 24 0.00170898ZM23.9184 39.7815C24.5312 39.7815 25.028 40.276 25.028 40.8859C25.028 41.4959 24.5312 41.9903 23.9184 41.9903C23.3056 41.9903 22.8088 41.4959 22.8088 40.8859C22.8088 40.276 23.3056 39.7815 23.9184 39.7815ZM33.3013 39.0994C33.7789 39.0994 34.1661 39.4848 34.1661 39.9602C34.1661 40.4356 33.7789 40.821 33.3013 40.821C32.8236 40.821 32.4364 40.4356 32.4364 39.9602C32.4364 39.4848 32.8236 39.0994 33.3013 39.0994ZM14.8293 39.0994C15.3069 39.0994 15.6941 39.4848 15.6941 39.9602C15.6941 40.4356 15.3069 40.821 14.8293 40.821C14.3516 40.821 13.9644 40.4356 13.9644 39.9602C13.9644 39.4848 14.3516 39.0994 14.8293 39.0994ZM30.772 34.4545C31.529 34.4545 32.1427 35.0653 32.1427 35.8187C32.1427 36.5722 31.529 37.183 30.772 37.183C30.0149 37.183 29.4013 36.5722 29.4013 35.8187C29.4013 35.0653 30.0149 34.4545 30.772 34.4545ZM17.0649 34.4545C17.8219 34.4545 18.4356 35.0653 18.4356 35.8187C18.4356 36.5722 17.8219 37.183 17.0649 37.183C16.3078 37.183 15.6941 36.5722 15.6941 35.8187C15.6941 35.0653 16.3078 34.4545 17.0649 34.4545ZM24.0816 32.9603C24.9648 32.9603 25.6808 33.6729 25.6808 34.5519C25.6808 35.4309 24.9648 36.1435 24.0816 36.1435C23.1984 36.1435 22.4824 35.4309 22.4824 34.5519C22.4824 33.6729 23.1984 32.9603 24.0816 32.9603ZM38.6046 31.4336C39.2174 31.4336 39.7142 31.9281 39.7142 32.538C39.7142 33.148 39.2174 33.6424 38.6046 33.6424C37.9918 33.6424 37.495 33.148 37.495 32.538C37.495 31.9281 37.9918 31.4336 38.6046 31.4336ZM9.29749 31.2712C9.91032 31.2712 10.4071 31.7657 10.4071 32.3756C10.4071 32.9855 9.91032 33.48 9.29749 33.48C8.68466 33.48 8.18787 32.9855 8.18787 32.3756C8.18787 31.7657 8.68466 31.2712 9.29749 31.2712ZM20.8506 26.7237C22.3286 26.7237 23.5268 27.9162 23.5268 29.3872C23.5268 30.8583 22.3286 32.0508 20.8506 32.0508C19.3726 32.0508 18.1745 30.8583 18.1745 29.3872C18.1745 27.9162 19.3726 26.7237 20.8506 26.7237ZM27.182 26.5613C28.66 26.5613 29.8582 27.7538 29.8582 29.2248C29.8582 30.6959 28.66 31.8884 27.182 31.8884C25.704 31.8884 24.5059 30.6959 24.5059 29.2248C24.5059 27.7538 25.704 26.5613 27.182 26.5613ZM33.2197 27.6332C34.1029 27.6332 34.8188 28.3458 34.8188 29.2248C34.8188 30.1039 34.1029 30.8165 33.2197 30.8165C32.3365 30.8165 31.6205 30.1039 31.6205 29.2248C31.6205 28.3458 32.3365 27.6332 33.2197 27.6332ZM14.813 27.6332C15.6962 27.6332 16.4121 28.3458 16.4121 29.2248C16.4121 30.1039 15.6962 30.8165 14.813 30.8165C13.9298 30.8165 13.2138 30.1039 13.2138 29.2248C13.2138 28.3458 13.9298 27.6332 14.813 27.6332ZM17.7828 21.2667C19.2608 21.2667 20.459 22.4592 20.459 23.9302C20.459 25.4013 19.2608 26.5938 17.7828 26.5938C16.3048 26.5938 15.1067 25.4013 15.1067 23.9302C15.1067 22.4592 16.3048 21.2667 17.7828 21.2667ZM30.1845 21.2667C31.6625 21.2667 32.8607 22.4592 32.8607 23.9302C32.8607 25.4013 31.6625 26.5938 30.1845 26.5938C28.7065 26.5938 27.5084 25.4013 27.5084 23.9302C27.5084 22.4592 28.7065 21.2667 30.1845 21.2667ZM37.8213 22.7609C38.5784 22.7609 39.192 23.3717 39.192 24.1251C39.192 24.8786 38.5784 25.4894 37.8213 25.4894C37.0643 25.4894 36.4506 24.8786 36.4506 24.1251C36.4506 23.3717 37.0643 22.7609 37.8213 22.7609ZM10.4071 22.5985C11.1641 22.5985 11.7778 23.2093 11.7778 23.9627C11.7778 24.7162 11.1641 25.327 10.4071 25.327C9.65009 25.327 9.0364 24.7162 9.0364 23.9627C9.0364 23.2093 9.65009 22.5985 10.4071 22.5985ZM5.36485 23.1507C5.8425 23.1507 6.22971 23.5361 6.22971 24.0114C6.22971 24.4868 5.8425 24.8722 5.36485 24.8722C4.88721 24.8722 4.5 24.4868 4.5 24.0114C4.5 23.5361 4.88721 23.1507 5.36485 23.1507ZM42.6351 23.0857C43.1128 23.0857 43.5 23.4711 43.5 23.9465C43.5 24.4219 43.1128 24.8073 42.6351 24.8073C42.1575 24.8073 41.7703 24.4219 41.7703 23.9465C41.7703 23.4711 42.1575 23.0857 42.6351 23.0857ZM27.182 15.9396C28.66 15.9396 29.8582 17.1321 29.8582 18.6032C29.8582 20.0742 28.66 21.2667 27.182 21.2667C25.704 21.2667 24.5059 20.0742 24.5059 18.6032C24.5059 17.1321 25.704 15.9396 27.182 15.9396ZM20.8506 15.8097C22.3286 15.8097 23.5268 17.0022 23.5268 18.4732C23.5268 19.9443 22.3286 21.1368 20.8506 21.1368C19.3726 21.1368 18.1745 19.9443 18.1745 18.4732C18.1745 17.0022 19.3726 15.8097 20.8506 15.8097ZM14.813 17.2064C15.6962 17.2064 16.4121 17.919 16.4121 18.7981C16.4121 19.6771 15.6962 20.3897 14.813 20.3897C13.9298 20.3897 13.2138 19.6771 13.2138 18.7981C13.2138 17.919 13.9298 17.2064 14.813 17.2064ZM33.2197 17.0115C34.1029 17.0115 34.8188 17.7241 34.8188 18.6032C34.8188 19.4822 34.1029 20.1948 33.2197 20.1948C32.3365 20.1948 31.6205 19.4822 31.6205 18.6032C31.6205 17.7241 32.3365 17.0115 33.2197 17.0115ZM9.3954 14.4454C10.0082 14.4454 10.505 14.9399 10.505 15.5498C10.505 16.1598 10.0082 16.6542 9.3954 16.6542C8.78257 16.6542 8.28577 16.1598 8.28577 15.5498C8.28577 14.9399 8.78257 14.4454 9.3954 14.4454ZM38.6046 14.4454C39.2174 14.4454 39.7142 14.9399 39.7142 15.5498C39.7142 16.1598 39.2174 16.6542 38.6046 16.6542C37.9918 16.6542 37.495 16.1598 37.495 15.5498C37.495 14.9399 37.9918 14.4454 38.6046 14.4454ZM23.9184 11.8469C24.8016 11.8469 25.5176 12.5595 25.5176 13.4385C25.5176 14.3175 24.8016 15.0301 23.9184 15.0301C23.0352 15.0301 22.3192 14.3175 22.3192 13.4385C22.3192 12.5595 23.0352 11.8469 23.9184 11.8469ZM17.0649 10.775C17.8219 10.775 18.4356 11.3858 18.4356 12.1392C18.4356 12.8927 17.8219 13.5035 17.0649 13.5035C16.3078 13.5035 15.6941 12.8927 15.6941 12.1392C15.6941 11.3858 16.3078 10.775 17.0649 10.775ZM30.772 10.775C31.529 10.775 32.1427 11.3858 32.1427 12.1392C32.1427 12.8927 31.529 13.5035 30.772 13.5035C30.0149 13.5035 29.4013 12.8927 29.4013 12.1392C29.4013 11.3858 30.0149 10.775 30.772 10.775ZM14.6008 7.36433C15.0785 7.36433 15.4657 7.74972 15.4657 8.22511C15.4657 8.70051 15.0785 9.08589 14.6008 9.08589C14.1232 9.08589 13.736 8.70051 13.736 8.22511C13.736 7.74972 14.1232 7.36433 14.6008 7.36433ZM33.236 7.10448C33.7136 7.10448 34.1008 7.48986 34.1008 7.96525C34.1008 8.44065 33.7136 8.82603 33.236 8.82603C32.7583 8.82603 32.3711 8.44065 32.3711 7.96525C32.3711 7.48986 32.7583 7.10448 33.236 7.10448ZM23.9184 6.00008C24.5312 6.00008 25.028 6.49454 25.028 7.10448C25.028 7.71442 24.5312 8.20887 23.9184 8.20887C23.3056 8.20887 22.8088 7.71442 22.8088 7.10448C22.8088 6.49454 23.3056 6.00008 23.9184 6.00008Z" fill="#2F76D8"/>
</g>
<defs>
<clipPath id="clip0_5123_74523">
<rect width="48" height="48" fill="white"/>
</clipPath>
</defs>
</svg>
