<svg width="48" height="48" viewBox="0 0 48 48" fill="none" xmlns="http://www.w3.org/2000/svg">
<path fill-rule="evenodd" clip-rule="evenodd" d="M24.0631 8C25.1677 8.00145 26.0619 8.89805 26.0605 10.0026L26.0239 38.0026C26.0225 39.1072 25.1259 40.0014 24.0213 40C22.9167 39.9986 22.0225 39.102 22.0239 37.9974L22.0605 9.99739C22.0619 8.89282 22.9585 7.99856 24.0631 8Z" fill="#333333"/>
<path fill-rule="evenodd" clip-rule="evenodd" d="M8 24C8 22.8954 8.89543 22 10 22H38C39.1046 22 40 22.8954 40 24C40 25.1046 39.1046 26 38 26H10C8.89543 26 8 25.1046 8 24Z" fill="#333333"/>
</svg>
