<svg width="48" height="48" viewBox="0 0 48 48" fill="none" xmlns="http://www.w3.org/2000/svg">
<path fill-rule="evenodd" clip-rule="evenodd" d="M24.0001 3L12.0271 9.43317L16.429 11.8098L24.0001 7.75317L31.5711 11.8098L35.973 9.43317L24.0001 3ZM31.5711 15.1698L35.973 17.5464V22.2995L28.4018 26.3561V34.4694L24.0001 36.846L19.5982 34.4694V26.3561L12.0271 22.2995V17.5464L16.429 15.1698L24.0001 19.2263L31.5711 15.1698ZM35.973 25.6596V30.4127L31.5711 32.7894V28.0361L35.973 25.6596ZM31.5271 36.1492L39.0983 32.0927V23.9795L43.5 21.603V34.4694L31.5271 40.9024V36.1492ZM39.0983 15.8664L34.6964 13.4898L39.0983 11.1132L43.5 13.4898V18.243L39.0983 20.6196V15.8664ZM19.5982 42.6235V37.8703L24.0001 40.2468L28.4018 37.8703V42.6235L24.0001 45L19.5982 42.6235ZM16.429 32.7894L12.0271 30.4127V25.6596L16.429 28.0361V32.7894ZM24.0001 15.8664L19.5982 13.4898L24.0001 11.1132L28.4018 13.4898L24.0001 15.8664ZM13.3036 13.4898L8.9018 15.8664V20.6196L4.5 18.243V13.4898L8.9018 11.1132L13.3036 13.4898ZM4.5 21.603L8.9018 23.9795V32.0927L16.4729 36.1492V40.9024L4.5 34.4694V21.603Z" fill="#F0B90B"/>
</svg>
