<svg width="48" height="48" viewBox="0 0 48 48" fill="none" xmlns="http://www.w3.org/2000/svg">
<g clip-path="url(#clip0_243_5210)">
<path d="M48 24C48 37.2518 37.254 47.9962 23.9942 47.9981C10.7441 47.9981 -0.00191928 37.2518 1.02915e-06 23.9981C-0.00383959 10.7443 10.7422 0 23.9981 0C37.254 0 48 10.7462 48 24Z" fill="#EAB300"/>
<path d="M24.0038 14.7022L30.5135 21.1444L34.2969 17.3934L24.0038 7.2002L13.7108 17.3934L17.4942 21.1444L24.0038 14.7022Z" fill="white"/>
<path d="M10.9846 20.064L7.20117 23.815L10.9846 27.566L14.7785 23.815L10.9846 20.064Z" fill="white"/>
<path d="M33.2293 23.815L37.0231 20.064L40.8066 23.815L37.0231 27.566L33.2293 23.815Z" fill="white"/>
<path d="M24.0038 32.9481L17.4942 26.5059L13.7108 30.2569L24.0038 40.4501L34.2969 30.2569L30.5135 26.5059L24.0038 32.9481Z" fill="white"/>
<path d="M27.7873 23.8355L24.0039 27.5865L20.2204 23.8355L24.0039 20.0845L27.7873 23.8355Z" fill="white"/>
</g>
<defs>
<clipPath id="clip0_243_5210">
<rect width="48" height="48" fill="white"/>
</clipPath>
</defs>
</svg>
