<svg width="48" height="48" viewBox="0 0 48 48" fill="none" xmlns="http://www.w3.org/2000/svg">
<g clip-path="url(#clip0_205_86)">
<path d="M47.8005 23.9996C47.8005 37.1901 37.1081 47.8825 23.9176 47.8825C10.7273 47.8825 0.034668 37.1901 0.034668 23.9996C0.034668 10.8093 10.7273 0.116699 23.9176 0.116699C37.1081 0.116699 47.8005 10.8093 47.8005 23.9996Z" fill="#F7931A"/>
<path d="M29.7163 30.9794C29.6189 31.3101 29.4568 31.6182 29.2395 31.8858C29.0221 32.1534 28.7538 32.3752 28.4501 32.5383C28.1473 32.7033 27.8149 32.8066 27.4719 32.8422C27.129 32.8778 26.7824 32.8449 26.4523 32.7456L19.7266 30.7425L21.225 25.7121L27.9502 27.7154H27.9504C29.3371 28.1283 30.1295 29.5926 29.7163 30.9794ZM31.9847 20.6704C32.1496 20.9732 32.2527 21.3057 32.2883 21.6487C32.3238 21.9916 32.291 22.3382 32.1918 22.6684C31.7786 24.0548 30.3136 24.8468 28.9277 24.4346H28.9275L22.2021 22.4315L23.7 17.4011L30.4257 19.4041C30.7563 19.5016 31.0644 19.6637 31.332 19.8811C31.5996 20.0984 31.8215 20.3667 31.9847 20.6704ZM34.9954 19.0416C34.2266 17.6208 32.9506 16.5843 31.4027 16.1233L30.5128 15.8585L31.7586 11.6756L28.5623 10.7236L27.3166 14.9065L24.5877 14.0938L25.8337 9.91091L25.068 9.68282L21.9661 8.75903L20.7653 12.7909L16.9851 11.6651L15.9182 15.2475L19.6984 16.3736L15.8148 29.4132L12.0346 28.2874L10.9678 31.87L14.7477 32.9956L13.7344 36.3987L14.4998 36.6268L17.6017 37.5506L18.6602 33.9966L21.3955 34.8112L20.337 38.3655L23.5204 39.3136L24.5789 35.7594L25.475 36.0261C26.0378 36.1943 26.6221 36.28 27.2096 36.2805C28.2007 36.2805 29.1825 36.0343 30.0789 35.5492C31.4997 34.7804 32.5359 33.5046 32.9971 31.9563C33.4819 30.3277 33.2426 28.6547 32.4715 27.2776C33.8715 26.547 34.987 25.2748 35.4724 23.6455C35.9335 22.0972 35.764 20.4621 34.9954 19.0416Z" fill="white"/>
</g>
<defs>
<clipPath id="clip0_205_86">
<rect width="48" height="48" fill="white"/>
</clipPath>
</defs>
</svg>
