<svg width="48" height="48" viewBox="0 0 48 48" fill="none" xmlns="http://www.w3.org/2000/svg">
<g clip-path="url(#clip0_205_86)">
<path d="M47.8007 23.9996C47.8007 37.1901 37.1083 47.8825 23.9178 47.8825C10.7275 47.8825 0.0349121 37.1901 0.0349121 23.9996C0.0349121 10.8093 10.7275 0.116699 23.9178 0.116699C37.1083 0.116699 47.8007 10.8093 47.8007 23.9996Z" fill="#F7931A"/>
<path d="M29.7166 30.9794C29.6192 31.3101 29.4571 31.6182 29.2397 31.8858C29.0223 32.1534 28.754 32.3752 28.4503 32.5383C28.1476 32.7033 27.8151 32.8066 27.4722 32.8422C27.1292 32.8778 26.7827 32.8449 26.4525 32.7456L19.7268 30.7425L21.2252 25.7121L27.9504 27.7154H27.9507C29.3373 28.1283 30.1298 29.5926 29.7166 30.9794ZM31.985 20.6704C32.1498 20.9732 32.253 21.3057 32.2885 21.6487C32.324 21.9916 32.2913 22.3382 32.192 22.6684C31.7789 24.0548 30.3139 24.8468 28.928 24.4346H28.9277L22.2023 22.4315L23.7002 17.4011L30.4259 19.4041C30.7566 19.5016 31.0647 19.6637 31.3323 19.8811C31.5999 20.0984 31.8217 20.3667 31.985 20.6704V20.6704ZM34.9957 19.0416C34.2269 17.6208 32.9508 16.5843 31.4029 16.1233L30.5131 15.8585L31.7588 11.6756L28.5626 10.7236L27.3168 14.9065L24.588 14.0938L25.8339 9.91091L25.0682 9.68282L21.9663 8.75903L20.7655 12.7909L16.9853 11.6651L15.9185 15.2475L19.6987 16.3736L15.8151 29.4132L12.0349 28.2874L10.968 31.87L14.748 32.9956L13.7346 36.3987L14.5001 36.6268L17.602 37.5506L18.6605 33.9966L21.3958 34.8112L20.3373 38.3655L23.5206 39.3136L24.5791 35.7594L25.4752 36.0261C26.0381 36.1943 26.6224 36.28 27.2098 36.2805C28.201 36.2805 29.1828 36.0343 30.0791 35.5492C31.4999 34.7804 32.5362 33.5046 32.9974 31.9563C33.4822 30.3277 33.2429 28.6547 32.4717 27.2776C33.8717 26.547 34.9873 25.2748 35.4726 23.6455C35.9338 22.0972 35.7642 20.4621 34.9957 19.0416" fill="white"/>
</g>
<defs>
<clipPath id="clip0_205_86">
<rect width="48" height="48" fill="white"/>
</clipPath>
</defs>
</svg>
