<svg width="14" height="14" viewBox="0 0 14 14" fill="none" xmlns="http://www.w3.org/2000/svg">
    <path fill-rule="evenodd" clip-rule="evenodd" d="M4.66667 0.583984C4.98883 0.583984 5.25 0.845152 5.25 1.16732V1.45898H8.75V1.16732C8.75 0.845152 9.01117 0.583984 9.33333 0.583984C9.6555 0.583984 9.91667 0.845152 9.91667 1.16732V1.45898H11.9583C12.6027 1.45898 13.125 1.98132 13.125 2.62565V5.54232V11.6673C13.125 12.3117 12.6027 12.834 11.9583 12.834H2.04167C1.39734 12.834 0.875 12.3117 0.875 11.6673V5.54232V2.62565C0.875 1.98132 1.39733 1.45898 2.04167 1.45898H4.08333V1.16732C4.08333 0.845152 4.3445 0.583984 4.66667 0.583984ZM8.75 2.62565V3.50065C8.75 3.82282 9.01117 4.08398 9.33333 4.08398C9.6555 4.08398 9.91667 3.82282 9.91667 3.50065V2.62565H11.9583V4.95898H2.04167V2.62565H4.08333V3.50065C4.08333 3.82282 4.3445 4.08398 4.66667 4.08398C4.98883 4.08398 5.25 3.82282 5.25 3.50065V2.62565H8.75ZM11.9583 6.12565H2.04167V11.6673H11.9583V6.12565ZM7.58333 9.91732C7.58333 9.59515 7.8445 9.33398 8.16667 9.33398H9.91667C10.2388 9.33398 10.5 9.59515 10.5 9.91732C10.5 10.2395 10.2388 10.5007 9.91667 10.5007H8.16667C7.8445 10.5007 7.58333 10.2395 7.58333 9.91732ZM4.08333 9.33398C3.76117 9.33398 3.5 9.59515 3.5 9.91732C3.5 10.2395 3.76117 10.5007 4.08333 10.5007H5.83333C6.1555 10.5007 6.41667 10.2395 6.41667 9.91732C6.41667 9.59515 6.1555 9.33398 5.83333 9.33398H4.08333ZM7.58333 7.58398C7.58333 7.26182 7.8445 7.00065 8.16667 7.00065H9.91667C10.2388 7.00065 10.5 7.26182 10.5 7.58398C10.5 7.90615 10.2388 8.16732 9.91667 8.16732H8.16667C7.8445 8.16732 7.58333 7.90615 7.58333 7.58398ZM4.08333 7.00065C3.76117 7.00065 3.5 7.26182 3.5 7.58398C3.5 7.90615 3.76117 8.16732 4.08333 8.16732H5.83333C6.1555 8.16732 6.41667 7.90615 6.41667 7.58398C6.41667 7.26182 6.1555 7.00065 5.83333 7.00065H4.08333Z" fill="#F9F9F9" fill-opacity="0.6"/>
</svg>