<svg width="48" height="48" viewBox="0 0 48 48" fill="none" xmlns="http://www.w3.org/2000/svg">
<path fill-rule="evenodd" clip-rule="evenodd" d="M15.8125 7C15.3638 7 15 7.36377 15 7.8125V11H32.1875C34.8454 11 37 13.1546 37 15.8125V33H40.1875C40.6362 33 41 32.6362 41 32.1875V7.8125C41 7.36377 40.6362 7 40.1875 7H15.8125ZM37 37H40.1875C42.8454 37 45 34.8454 45 32.1875V7.8125C45 5.15463 42.8454 3 40.1875 3H15.8125C13.1546 3 11 5.15463 11 7.8125V11H7.8125C5.15463 11 3 13.1546 3 15.8125V40.1875C3 42.8454 5.15463 45 7.8125 45H32.1875C34.8454 45 37 42.8454 37 40.1875V37ZM7.8125 15C7.36377 15 7 15.3638 7 15.8125V40.1875C7 40.6362 7.36377 41 7.8125 41H32.1875C32.6362 41 33 40.6362 33 40.1875V15.8125C33 15.3638 32.6362 15 32.1875 15H7.8125Z" fill="#333333"/>
</svg>
