<svg width="48" height="48" viewBox="0 0 48 48" fill="none" xmlns="http://www.w3.org/2000/svg">
<path fill-rule="evenodd" clip-rule="evenodd" d="M24 42C14.0589 42 6 33.9411 6 24C6 22.7525 6.12715 21.533 6.36975 20.3543C6.52309 19.6093 7.16956 19.0681 7.92993 19.0483C8.6903 19.0286 9.36405 19.5353 9.55595 20.2713C10.5395 24.0438 13.9716 26.8264 18.0496 26.8264C22.897 26.8264 26.8264 22.897 26.8264 18.0496C26.8264 13.9716 24.0438 10.5395 20.2714 9.55599C19.5353 9.36411 19.0286 8.69037 19.0483 7.93001C19.0681 7.16964 19.6092 6.52316 20.3542 6.3698C21.5329 6.12716 22.7525 6 24 6C33.9411 6 42 14.0589 42 24C42 33.9411 33.9411 42 24 42Z" fill="#1E1F2A"/>
</svg>
