<svg width="14" height="14" viewBox="0 0 14 14" fill="none" xmlns="http://www.w3.org/2000/svg">
    <path fill-rule="evenodd" clip-rule="evenodd" d="M0.333984 2.00065C0.333984 1.08018 1.08018 0.333984 2.00065 0.333984H12.0007C12.9211 0.333984 13.6673 1.08019 13.6673 2.00065V7.00065C13.6673 7.36884 13.3688 7.66732 13.0007 7.66732C12.6325 7.66732 12.334 7.36884 12.334 7.00065V2.00065C12.334 1.81655 12.1848 1.66732 12.0007 1.66732H2.00065C1.81656 1.66732 1.66732 1.81656 1.66732 2.00065V12.0007C1.66732 12.1848 1.81655 12.334 2.00065 12.334H7.00065C7.36884 12.334 7.66732 12.6325 7.66732 13.0007C7.66732 13.3688 7.36884 13.6673 7.00065 13.6673H2.00065C1.08019 13.6673 0.333984 12.9211 0.333984 12.0007V2.00065Z" fill="#F9F9F9"/>
    <path fill-rule="evenodd" clip-rule="evenodd" d="M9.66732 8.33398C8.93094 8.33398 8.33398 8.93094 8.33398 9.66732C8.33398 10.4037 8.93094 11.0007 9.66732 11.0007C10.4037 11.0007 11.0007 10.4037 11.0007 9.66732C11.0007 8.93094 10.4037 8.33398 9.66732 8.33398ZM7.00065 9.66732C7.00065 8.19456 8.19456 7.00065 9.66732 7.00065C11.1401 7.00065 12.334 8.19456 12.334 9.66732C12.334 11.1401 11.1401 12.334 9.66732 12.334C8.19456 12.334 7.00065 11.1401 7.00065 9.66732Z" fill="#F9F9F9"/>
    <path fill-rule="evenodd" clip-rule="evenodd" d="M10.8134 10.5842C11.0434 10.2967 11.4629 10.2501 11.7504 10.4801L13.4171 11.8134C13.7046 12.0434 13.7512 12.4629 13.5212 12.7504C13.2912 13.038 12.8717 13.0846 12.5842 12.8546L10.9175 11.5212C10.63 11.2912 10.5834 10.8717 10.8134 10.5842Z" fill="#F9F9F9"/>
    <path fill-rule="evenodd" clip-rule="evenodd" d="M3.00065 4.33398C3.00065 3.96579 3.29913 3.66732 3.66732 3.66732H10.334C10.7022 3.66732 11.0007 3.96579 11.0007 4.33398C11.0007 4.70217 10.7022 5.00065 10.334 5.00065H3.66732C3.29913 5.00065 3.00065 4.70217 3.00065 4.33398Z" fill="#F9F9F9"/>
    <path fill-rule="evenodd" clip-rule="evenodd" d="M3.00065 7.00065C3.00065 6.63246 3.29913 6.33398 3.66732 6.33398H6.33398C6.70217 6.33398 7.00065 6.63246 7.00065 7.00065C7.00065 7.36884 6.70217 7.66732 6.33398 7.66732H3.66732C3.29913 7.66732 3.00065 7.36884 3.00065 7.00065Z" fill="#F9F9F9"/>
</svg>