<svg width="48" height="48" viewBox="0 0 48 48" fill="none" xmlns="http://www.w3.org/2000/svg">
<path fill-rule="evenodd" clip-rule="evenodd" d="M7 8C6.44772 8 6 8.44772 6 9V33C6 33.5523 6.44771 34 7 34H41C41.5523 34 42 33.5523 42 33V9C42 8.44772 41.5523 8 41 8H7ZM26 38H41C43.7614 38 46 35.7614 46 33V9C46 6.23858 43.7614 4 41 4H7C4.23858 4 2 6.23858 2 9V33C2 35.7614 4.23858 38 7 38H22V41H10C8.89543 41 8 41.8954 8 43C8 44.1046 8.89543 45 10 45H38C39.1046 45 40 44.1046 40 43C40 41.8954 39.1046 41 38 41H26V38ZM33.5052 12.683C34.2325 13.5143 34.1483 14.7778 33.317 15.5052L17.317 29.5052C16.4857 30.2325 15.2222 30.1483 14.4948 29.317C13.7675 28.4857 13.8517 27.2222 14.683 26.4948L30.683 12.4948C31.5143 11.7675 32.7778 11.8517 33.5052 12.683ZM15 16C14.4477 16 14 16.4477 14 17C14 17.5523 14.4477 18 15 18C15.5523 18 16 17.5523 16 17C16 16.4477 15.5523 16 15 16ZM10 17C10 14.2386 12.2386 12 15 12C17.7614 12 20 14.2386 20 17C20 19.7614 17.7614 22 15 22C12.2386 22 10 19.7614 10 17ZM33 24C32.4477 24 32 24.4477 32 25C32 25.5523 32.4477 26 33 26C33.5523 26 34 25.5523 34 25C34 24.4477 33.5523 24 33 24ZM28 25C28 22.2386 30.2386 20 33 20C35.7614 20 38 22.2386 38 25C38 27.7614 35.7614 30 33 30C30.2386 30 28 27.7614 28 25Z" fill="#333333"/>
</svg>
