<svg width="48" height="48" viewBox="0 0 48 48" fill="none" xmlns="http://www.w3.org/2000/svg">
<rect x="4" y="4" width="40" height="40" rx="20" fill="#313236"/>
<g clip-path="url(#clip0_929_80475)">
<path fill-rule="evenodd" clip-rule="evenodd" d="M26.8271 14.945C27.2257 14.7149 27.7354 14.8515 27.9655 15.2501L29.6494 18.1667H31.5002C32.4207 18.1667 33.1668 18.9129 33.1668 19.8334V31.5C33.1668 32.4205 32.4207 33.1667 31.5002 33.1667H16.5002C15.5797 33.1667 14.8335 32.4205 14.8335 31.5V19.8334C14.8335 18.9129 15.5797 18.1667 16.5002 18.1667H21.247L26.8271 14.945ZM24.5969 18.1571L27.7213 18.1605L26.9388 16.8051L24.5969 18.1571ZM31.5002 28.5834H28.1668C26.7861 28.5834 25.6668 27.2775 25.6668 25.6667C25.6668 24.0559 26.7861 22.75 28.1668 22.75H31.5002V28.5834Z" fill="#F9F9F9" fill-opacity="0.8"/>
</g>
<defs>
<clipPath id="clip0_929_80475">
<rect width="20" height="20" fill="white" transform="translate(14 14)"/>
</clipPath>
</defs>
</svg>
