<svg width="48" height="48" viewBox="0 0 48 48" fill="none" xmlns="http://www.w3.org/2000/svg">
<path d="M24 44C35.0457 44 44 35.0457 44 24C44 12.9543 35.0457 4 24 4C12.9543 4 4 12.9543 4 24C4 35.0457 12.9543 44 24 44Z" fill="#333333"/>
<path d="M26 16C26 14.8954 25.1046 14 24 14C22.8954 14 22 14.8954 22 16V22H16C14.8954 22 14 22.8954 14 24C14 25.1046 14.8954 26 16 26H22V32C22 33.1046 22.8954 34 24 34C25.1046 34 26 33.1046 26 32V26H32C33.1046 26 34 25.1046 34 24C34 22.8954 33.1046 22 32 22H26V16Z" fill="white"/>
</svg>
