<svg width="48" height="48" viewBox="0 0 48 48" fill="none" xmlns="http://www.w3.org/2000/svg">
<path d="M17.3408 24.4443C17.3408 25.823 18.3975 26.9564 19.6804 26.9564C20.9828 26.9564 22.0187 25.823 22.0187 24.4443C22.0395 23.0656 20.9893 21.9322 19.6804 21.9322C18.3715 21.9322 17.3408 23.0656 17.3408 24.4443Z" fill="#333333"/>
<path d="M25.9765 24.4443C25.9765 25.823 27.0332 26.9564 28.3161 26.9564C29.6184 26.9564 30.6543 25.823 30.6543 24.4443C30.6751 23.0656 29.6184 21.9322 28.3161 21.9322C27.0124 21.9322 25.9765 23.0656 25.9765 24.4443Z" fill="#333333"/>
<path fill-rule="evenodd" clip-rule="evenodd" d="M24 44C35.0457 44 44 35.0457 44 24C44 12.9543 35.0457 4 24 4C12.9543 4 4 12.9543 4 24C4 35.0457 12.9543 44 24 44ZM27.6584 14C29.5079 14.3029 31.3107 14.8357 33.0212 15.5929C35.9665 19.7449 37.43 24.4244 36.8893 29.8143H36.8828C34.8929 31.2296 32.6677 32.3055 30.3021 32.9948C29.7718 32.3055 29.3052 31.5743 28.897 30.8064C29.6639 30.5297 30.41 30.1851 31.1171 29.7828C30.9351 29.6524 30.7531 29.5165 30.5763 29.3755C26.408 31.2662 21.5911 31.2662 17.424 29.3755C17.2473 29.5218 17.0653 29.6524 16.8768 29.7828C17.5852 30.1903 18.33 30.5297 19.0981 30.8064C18.6952 31.5743 18.2234 32.3106 17.6918 33C15.3262 32.3106 13.101 31.2347 11.1111 29.8194C10.6497 25.1661 11.5673 20.4396 14.9675 15.5982C16.6779 14.8409 18.4807 14.3082 20.3368 14.0052C20.589 14.4387 20.819 14.8878 21.0283 15.3475C22.9974 15.0654 25.003 15.0654 26.9708 15.3475C27.1749 14.8878 27.4062 14.4387 27.6584 14Z" fill="#333333"/>
</svg>
