<svg width="48" height="48" viewBox="0 0 48 48" fill="none" xmlns="http://www.w3.org/2000/svg">
<path d="M40.8201 6.66675L26.2358 17.5001L28.9479 11.1156L40.8201 6.66675Z" fill="#E17726" stroke="#E17726" stroke-width="0.25" stroke-linecap="round" stroke-linejoin="round"/>
<path d="M7.17969 6.66675L21.6341 17.6012L19.052 11.1156L7.17969 6.66675Z" fill="#E27625" stroke="#E27625" stroke-width="0.25" stroke-linecap="round" stroke-linejoin="round"/>
<path d="M35.5689 31.7856L31.6885 37.7368L39.9976 40.0335L42.3779 31.9157L35.5689 31.7856Z" fill="#E27625" stroke="#E27625" stroke-width="0.25" stroke-linecap="round" stroke-linejoin="round"/>
<path d="M5.63599 31.9157L8.00177 40.0335L16.2965 37.7368L12.4304 31.7856L5.63599 31.9157Z" fill="#E27625" stroke="#E27625" stroke-width="0.25" stroke-linecap="round" stroke-linejoin="round"/>
<path d="M15.8493 21.7324L13.5413 25.228L21.7638 25.6035L21.4898 16.7202L15.8493 21.7324Z" fill="#E27625" stroke="#E27625" stroke-width="0.25" stroke-linecap="round" stroke-linejoin="round"/>
<path d="M32.15 21.7325L26.4231 16.6191L26.2356 25.6036L34.4581 25.228L32.15 21.7325Z" fill="#E27625" stroke="#E27625" stroke-width="0.25" stroke-linecap="round" stroke-linejoin="round"/>
<path d="M16.2966 37.7367L21.2734 35.3245L16.9891 31.9734L16.2966 37.7367Z" fill="#E27625" stroke="#E27625" stroke-width="0.25" stroke-linecap="round" stroke-linejoin="round"/>
<path d="M26.7263 35.3245L31.6886 37.7367L31.0106 31.9734L26.7263 35.3245Z" fill="#E27625" stroke="#E27625" stroke-width="0.25" stroke-linecap="round" stroke-linejoin="round"/>
<path d="M31.6886 37.7369L26.7263 35.3247L27.1302 38.5602L27.0869 39.9325L31.6886 37.7369Z" fill="#D5BFB2" stroke="#D5BFB2" stroke-width="0.25" stroke-linecap="round" stroke-linejoin="round"/>
<path d="M16.2966 37.7369L20.9128 39.9325L20.884 38.5602L21.2734 35.3247L16.2966 37.7369Z" fill="#D5BFB2" stroke="#D5BFB2" stroke-width="0.25" stroke-linecap="round" stroke-linejoin="round"/>
<path d="M20.9993 29.8355L16.8735 28.6222L19.7875 27.2788L20.9993 29.8355Z" fill="#233447" stroke="#233447" stroke-width="0.25" stroke-linecap="round" stroke-linejoin="round"/>
<path d="M27.0005 29.8355L28.2123 27.2788L31.1407 28.6222L27.0005 29.8355Z" fill="#233447" stroke="#233447" stroke-width="0.25" stroke-linecap="round" stroke-linejoin="round"/>
<path d="M16.2967 37.7368L17.018 31.7856L12.4307 31.9157L16.2967 37.7368Z" fill="#CC6228" stroke="#CC6228" stroke-width="0.25" stroke-linecap="round" stroke-linejoin="round"/>
<path d="M30.9817 31.7856L31.6886 37.7368L35.569 31.9157L30.9817 31.7856Z" fill="#CC6228" stroke="#CC6228" stroke-width="0.25" stroke-linecap="round" stroke-linejoin="round"/>
<path d="M34.4581 25.2275L26.2356 25.6031L27.0001 29.8354L28.2119 27.2787L31.1403 28.622L34.4581 25.2275Z" fill="#CC6228" stroke="#CC6228" stroke-width="0.25" stroke-linecap="round" stroke-linejoin="round"/>
<path d="M16.8736 28.622L19.7875 27.2787L20.9993 29.8354L21.7638 25.6031L13.5413 25.2275L16.8736 28.622Z" fill="#CC6228" stroke="#CC6228" stroke-width="0.25" stroke-linecap="round" stroke-linejoin="round"/>
<path d="M13.5415 25.2275L16.9892 31.9731L16.8738 28.622L13.5415 25.2275Z" fill="#E27525" stroke="#E27525" stroke-width="0.25" stroke-linecap="round" stroke-linejoin="round"/>
<path d="M31.1405 28.622L31.0107 31.9731L34.4585 25.2275L31.1405 28.622Z" fill="#E27525" stroke="#E27525" stroke-width="0.25" stroke-linecap="round" stroke-linejoin="round"/>
<path d="M21.7641 25.6035L20.9995 29.8358L21.966 34.8335L22.1824 28.2469L21.7641 25.6035Z" fill="#E27525" stroke="#E27525" stroke-width="0.25" stroke-linecap="round" stroke-linejoin="round"/>
<path d="M26.236 25.6035L25.832 28.2325L26.034 34.8335L27.0005 29.8358L26.236 25.6035Z" fill="#E27525" stroke="#E27525" stroke-width="0.25" stroke-linecap="round" stroke-linejoin="round"/>
<path d="M27.0004 29.8357L26.0339 34.8334L26.7264 35.3245L31.0108 31.9734L31.1406 28.6223L27.0004 29.8357Z" fill="#F5841F" stroke="#F5841F" stroke-width="0.25" stroke-linecap="round" stroke-linejoin="round"/>
<path d="M16.8735 28.6223L16.989 31.9734L21.2733 35.3245L21.9658 34.8334L20.9993 29.8357L16.8735 28.6223Z" fill="#F5841F" stroke="#F5841F" stroke-width="0.25" stroke-linecap="round" stroke-linejoin="round"/>
<path d="M27.087 39.9324L27.1302 38.5602L26.7552 38.2423H21.2446L20.884 38.5602L20.9128 39.9324L16.2966 37.7368L17.9123 39.0657L21.1869 41.3335H26.7984L30.0874 39.0657L31.6886 37.7368L27.087 39.9324Z" fill="#C0AC9D" stroke="#C0AC9D" stroke-width="0.25" stroke-linecap="round" stroke-linejoin="round"/>
<path d="M26.7264 35.3245L26.0339 34.8335H21.9659L21.2736 35.3245L20.884 38.5602L21.2447 38.2424H26.7552L27.1303 38.5602L26.7264 35.3245Z" fill="#161616" stroke="#161616" stroke-width="0.25" stroke-linecap="round" stroke-linejoin="round"/>
<path d="M41.4403 18.2078L42.6665 12.2279L40.82 6.66675L26.7263 17.139L32.1502 21.7323L39.8102 23.9712L41.498 21.9923L40.7624 21.4578L41.9308 20.389L41.0364 19.6957L42.2049 18.8001L41.4403 18.2078Z" fill="#763E1A" stroke="#763E1A" stroke-width="0.25" stroke-linecap="round" stroke-linejoin="round"/>
<path d="M5.33325 12.2279L6.57385 18.2078L5.78045 18.8001L6.96334 19.6957L6.06896 20.389L7.23742 21.4578L6.50172 21.9923L8.18951 23.9712L15.8495 21.7323L21.2735 17.139L7.17973 6.66675L5.33325 12.2279Z" fill="#763E1A" stroke="#763E1A" stroke-width="0.25" stroke-linecap="round" stroke-linejoin="round"/>
<path d="M39.8103 23.971L32.1504 21.7322L34.4585 25.2278L31.0107 31.9733L35.5692 31.9155H42.378L39.8103 23.971Z" fill="#F5841F" stroke="#F5841F" stroke-width="0.25" stroke-linecap="round" stroke-linejoin="round"/>
<path d="M15.8492 21.7322L8.18931 23.971L5.63599 31.9155H12.4304L16.9888 31.9733L13.5412 25.2278L15.8492 21.7322Z" fill="#F5841F" stroke="#F5841F" stroke-width="0.25" stroke-linecap="round" stroke-linejoin="round"/>
<path d="M26.2357 25.6035L26.7262 17.139L28.9477 11.1157H19.0518L21.2733 17.139L21.7637 25.6035L21.9513 28.2613L21.9657 34.8335H26.0337L26.0481 28.2613L26.2357 25.6035Z" fill="#F5841F" stroke="#F5841F" stroke-width="0.25" stroke-linecap="round" stroke-linejoin="round"/>
</svg>
