<svg width="48" height="48" viewBox="0 0 48 48" fill="none" xmlns="http://www.w3.org/2000/svg">
<g clip-path="url(#clip0_5123_74522)">
<path d="M24 48C37.2548 48 48 37.2548 48 24C48 10.7452 37.2548 0 24 0C10.7452 0 0 10.7452 0 24C0 37.2548 10.7452 48 24 48Z" fill="#988430"/>
<path d="M23.9998 47.231C36.83 47.231 47.231 36.83 47.231 23.9998C47.231 11.1695 36.83 0.768555 23.9998 0.768555C11.1695 0.768555 0.768555 11.1695 0.768555 23.9998C0.768555 36.83 11.1695 47.231 23.9998 47.231Z" fill="#7A6A2A"/>
<path d="M24.0001 46.7416C36.56 46.7416 46.7418 36.5597 46.7418 23.9998C46.7418 11.4399 36.56 1.25806 24.0001 1.25806C11.4401 1.25806 1.2583 11.4399 1.2583 23.9998C1.2583 36.5597 11.4401 46.7416 24.0001 46.7416Z" fill="#BA9F33"/>
<path fill-rule="evenodd" clip-rule="evenodd" d="M10.4934 21.4369C10.3575 21.3128 10.2139 21.1883 10.0818 21.0642C9.94967 20.94 9.81399 20.8156 9.67805 20.6915L9.27409 20.3075C9.20804 20.2414 9.13815 20.1833 9.0721 20.117C9.00605 20.0589 8.92849 19.9928 8.86244 19.9345C8.32637 19.4258 7.78724 18.9171 7.2586 18.4082C7.80618 18.9092 8.34225 19.4066 8.88983 19.915L9.08004 20.1055C9.14609 20.1713 9.21597 20.2296 9.28202 20.2957L9.68573 20.6684C9.82167 20.7926 9.95377 20.917 10.0897 21.0524C10.2256 21.1878 10.3577 21.3125 10.4937 21.4364L10.4934 21.4369ZM3.37892 21.3601C3.37892 21.3601 5.32836 21.5619 6.27991 21.6978C7.16132 21.8222 9.91869 22.2454 9.91869 22.2454L3.37892 21.3601ZM3.37892 21.3601C3.9265 21.4067 4.47409 21.4648 5.02167 21.5232C5.30122 21.5503 5.56925 21.5813 5.83729 21.6084L6.24868 21.6553C6.38461 21.6745 6.51671 21.6939 6.65265 21.7134L8.28388 21.9735L9.09924 22.1094C9.36727 22.156 9.6353 22.2067 9.91485 22.2533C9.64682 22.2262 9.36727 22.1873 9.09924 22.1483L8.28388 22.0319L6.65265 21.7912C6.51671 21.7718 6.38461 21.7444 6.24868 21.7252L5.83703 21.6778C5.569 21.6507 5.28945 21.6118 5.02141 21.5805C4.47383 21.5147 3.92625 21.4446 3.37866 21.3594L3.37892 21.3601ZM9.72465 22.7533C9.72465 22.7533 7.64311 23.2817 6.94013 23.4836C6.24893 23.6738 4.15562 24.3108 4.15562 24.3108L9.72439 22.7535L9.72465 22.7533Z" fill="#CFB66C"/>
<path fill-rule="evenodd" clip-rule="evenodd" d="M9.72405 22.7532C9.26197 22.8891 8.80245 23.0212 8.33371 23.1456L6.94338 23.5184C6.4813 23.6543 6.02178 23.7864 5.56098 23.9223L4.86978 24.1125C4.64066 24.1786 4.4077 24.2367 4.1709 24.303C4.39976 24.2262 4.63298 24.1476 4.8621 24.0816L5.5533 23.8604C6.01538 23.7165 6.4749 23.5806 6.9357 23.437C7.40546 23.3205 7.86779 23.1961 8.33755 23.0834C8.78402 22.9708 9.25403 22.8584 9.72405 22.7534V22.7532ZM4.44661 25.5922C4.67547 25.5067 7.31637 24.2759 7.93 23.9884C8.2372 23.8445 9.13013 23.5276 9.13013 23.5276L4.44661 25.5922Z" fill="#CFB66C"/>
<path fill-rule="evenodd" clip-rule="evenodd" d="M4.44679 25.5924C4.64852 25.5156 4.83898 25.4217 5.03303 25.3323L5.60775 25.0643L6.76129 24.509C7.14529 24.3265 7.51853 24.125 7.91457 23.9535C8.11655 23.8683 8.31853 23.7984 8.52026 23.7323L8.82746 23.6353C8.93217 23.6082 9.02945 23.5769 9.13466 23.5498C8.75066 23.7323 8.34644 23.8877 7.96193 24.0662C7.57793 24.2566 7.18522 24.412 6.78893 24.5828L5.6162 25.0991C5.22247 25.2586 4.83847 25.4293 4.44653 25.5924H4.44679ZM4.70279 26.6676C4.70279 26.6676 7.09485 25.2658 7.91815 24.8152C8.34925 24.5746 9.74343 23.8831 9.74343 23.8831L4.70279 26.6676Z" fill="#CFB66C"/>
<path fill-rule="evenodd" clip-rule="evenodd" d="M4.70288 26.6679C5.10659 26.4193 5.51824 26.1669 5.92989 25.9107L6.54429 25.5377C6.75395 25.4135 6.95593 25.297 7.16969 25.1729C7.37936 25.0485 7.58134 24.9243 7.79484 24.8078C7.89648 24.7451 8.00298 24.6905 8.11331 24.6448L8.43945 24.4817C8.87055 24.272 9.30166 24.0583 9.75606 23.8757C9.34441 24.1361 8.92099 24.3575 8.49782 24.5864C8.28816 24.7029 8.0744 24.8078 7.86473 24.9243C7.65507 25.0408 7.45308 25.1652 7.23932 25.2778C7.02966 25.402 6.82768 25.5185 6.61417 25.6311L5.98109 25.9767L4.70339 26.6679H4.70288ZM9.72406 24.1901C9.72406 24.1901 8.2367 25.3319 7.75516 25.6969C7.27363 26.062 5.85616 27.0873 5.85616 27.0873L9.72406 24.1901V24.1901Z" fill="#CFB66C"/>
<path fill-rule="evenodd" clip-rule="evenodd" d="M18.2601 33.3978L17.499 31.957L17.9416 30.1551L21.0989 28.9357L19.7552 26.1786L20.4192 23.3941L21.6659 20.9007L25.5185 20.295L28.3493 17.5959L34.4621 18.058L35.662 24.594L33.3513 32.8231L32.035 37.0834L26.6989 37.2854L24.2213 35.5689L21.3203 34.357L18.2601 33.3978Z" fill="#E2CC85"/>
<path fill-rule="evenodd" clip-rule="evenodd" d="M27.6195 33.3515C27.6195 33.3515 26.8814 33.6894 25.6227 33.6116C25.2584 33.1224 22.7071 32.8932 22.7071 32.8932C22.7071 32.8932 22.3886 32.7962 21.8254 33.0292C21.2587 33.2596 20.7226 33.2312 20.2216 33.3553C19.7206 33.4795 19.2232 32.8272 18.8392 32.6912C18.4552 32.5476 17.946 32.202 17.946 32.202L16.8708 32.0971L14.7117 31.1844L11.2816 27.7671L10.3495 29.2263L10.062 31.0321L11.0991 33.172L13.8913 35.7156L19.3359 37.098L22.563 36.1472L26.6057 34.4384L27.6195 33.3512V33.3515Z" fill="#F1D789"/>
<path fill-rule="evenodd" clip-rule="evenodd" d="M8.27559 21.2738L8.96679 19.1808L9.79034 17.8291L12.4425 17.6077L11.6463 19.9301L9.42913 23.8758L10.3494 27.3981L8.71847 28.2135L8.21722 27.4447L7.81351 25.6816L7.78638 23.701L8.27559 21.2738Z" fill="#F4ECB4"/>
<path fill-rule="evenodd" clip-rule="evenodd" d="M11.2505 33.2077L10.7418 32.4971C10.7418 32.4971 10.6059 32.1592 10.6837 31.864C10.7605 31.565 10.7495 31.5455 10.7109 31.4329C10.6722 31.3203 10.3458 30.9319 10.3653 30.5978C10.3845 30.2599 10.3381 30.1473 10.5864 29.8795C10.8465 29.6194 10.769 29.1688 10.769 29.1688L11.1069 29.3785L11.1837 29.262C11.1837 29.262 11.3078 29.359 11.3078 29.5106C11.335 29.3009 11.2223 28.3299 11.4786 28.1087C11.7349 27.8875 12.1893 29.1455 12.1893 29.1455L11.9097 27.3203L11.1911 25.4486L9.91341 23.7398L9.83661 21.8562V21.6931C9.83661 21.6931 9.25011 22.5942 9.08704 23.3059C8.97056 23.7951 9.25011 24.3893 9.192 25.0923C9.14515 25.7914 9.08704 25.7369 9.25779 26.0139C9.42855 26.2909 9.84429 26.8605 9.68122 27.2721C9.5376 27.6257 9.04813 27.3771 9.04813 27.3771C9.04813 27.3771 8.95111 27.6643 8.81901 27.7693C8.77242 27.5985 8.72199 27.4897 8.6288 27.3853C8.62087 27.4513 8.60167 27.5407 8.60167 27.5407C8.60167 27.5407 8.51616 27.2726 8.43066 26.9347C8.31444 26.4844 8.19002 25.8902 8.07738 25.5718C8.03079 25.7543 7.91431 26.3096 7.91431 26.3096L7.98036 27.1641L8.29882 28.3368L8.60602 29.1048L8.90503 30.0446L9.16487 30.6759L9.37453 31.1574L9.55706 32.2411L10.4385 33.1729L10.9085 33.3828L11.25 33.208L11.2505 33.2077Z" fill="#F3E19D"/>
<path fill-rule="evenodd" clip-rule="evenodd" d="M8.73753 19.5648C8.73753 19.5648 8.10444 20.64 7.92217 21.7239C7.73989 22.8078 7.57657 23.9532 7.69177 25.4287C7.80825 26.9164 8.02969 27.8287 8.20838 28.4813C8.51558 29.5649 9.31123 31.0717 9.31123 31.0717L9.33836 31.0134C9.20462 30.7599 9.09788 30.493 9.0199 30.2172C8.91494 29.8056 8.87603 29.3164 8.779 29.0949C8.6935 28.8737 8.54988 28.6833 8.47999 28.4114C8.41394 28.1513 8.40319 27.7396 8.20044 27.433C8.11494 27.3085 8.00998 26.9824 7.979 26.6563C7.94009 26.1668 7.99846 25.6192 7.95186 25.1689C7.86636 24.4193 7.80825 23.9107 7.88581 23.5182C7.96338 23.1258 8.36761 22.0117 8.61618 21.1262C8.77926 20.5591 8.68198 20.0814 8.98099 19.5881C9.27999 19.0989 9.46278 18.6678 9.52857 18.3688C9.60537 18.0969 8.7365 19.5648 8.7365 19.5648H8.73753Z" fill="#F2E8B0"/>
<path fill-rule="evenodd" clip-rule="evenodd" d="M11.7399 19.134C11.7399 19.134 11.4138 19.2313 11.2584 19.4021C11.103 19.5651 11.037 19.7011 10.8273 19.9768C10.6176 20.2525 10.6059 20.4778 10.4348 20.8234C10.2641 21.1613 9.88726 21.67 9.84066 21.8525C9.79407 22.035 9.7165 22.8893 9.61948 23.2933C9.53398 23.6972 9.7165 24.1944 9.7165 24.1944L9.93769 24.1475C9.93769 24.1475 9.93769 24.435 10.1591 24.6293C10.3803 24.8195 10.4192 23.9845 10.4192 23.9845L11.2464 21.1923L12.4928 20.3457L12.6288 19.6622L11.7394 19.134H11.7399Z" fill="#F5EEC0"/>
<path fill-rule="evenodd" clip-rule="evenodd" d="M12.3458 20.4C12.3458 20.4 11.7593 20.4387 11.4721 20.6486C11.3556 20.7339 11.309 20.8037 11.1848 20.9087C10.9557 21.0989 10.7225 21.2738 10.6101 21.5231C10.4857 21.7714 10.3498 22.1483 10.2566 22.8589C10.2177 23.1579 10.2177 23.4336 10.1905 23.6745C10.1516 24.0007 10.0935 24.2608 10.1245 24.4425C10.1634 24.8153 10.5479 25.0096 10.5853 25.4328L11.3814 25.029L12.131 22.0735L13.7233 21.0751L12.8222 20.0654L12.3448 20.3982L12.3458 20.4Z" fill="#E6DB9D"/>
<path fill-rule="evenodd" clip-rule="evenodd" d="M8.14552 40.3018C8.14885 40.2726 8.15218 40.2434 8.1555 40.2135C8.27173 39.2151 8.29144 38.4583 8.37669 37.9845C8.50085 37.3127 8.58635 37.0629 8.5669 36.8115C8.53976 36.4078 8.50878 36.1126 8.5477 35.8018C8.60581 35.3902 9.00978 34.9009 8.99826 34.563C8.99032 34.295 8.85438 34.1204 8.7379 33.9573C8.62142 33.7943 8.52824 33.6583 8.52824 33.6583C8.52824 33.6583 9.3244 33.1107 9.31672 30.9048C9.33298 30.9094 9.34862 30.9159 9.36331 30.9242L9.75551 32.0386L10.0235 32.3648L11.0527 34.2832L12.377 35.5689L14.3341 36.8852L15.5613 38.2208L15.6855 41.782L14.0817 43.8635L13.819 44.3392C11.7323 43.2916 9.81873 41.9298 8.14526 40.3015L8.14552 40.3018Z" fill="#E5CB7A"/>
<path fill-rule="evenodd" clip-rule="evenodd" d="M13.0447 43.7088C13.0447 43.7088 13.0718 43.2662 13.4369 42.9787C13.4952 43.0757 13.5339 43.1692 13.5224 43.2388C13.5884 43.1226 14.0505 42.3769 15.0952 42.1826C16.14 41.9923 16.3924 41.2313 16.3924 41.2313L18.6096 39.2158L21.1455 36.8818L24.2291 35.7982L25.6701 35.4446C25.6701 35.4446 25.6972 35.5496 25.6429 35.7826C25.9107 35.7634 26.5049 35.6274 27.1224 35.4098C27.3709 35.3128 27.6042 35.2739 27.7283 35.4021C27.9108 35.5729 27.938 35.9769 27.9495 36.2175C28.2485 36.1515 28.5941 35.8642 28.8711 35.8914C29.314 35.938 29.7062 36.4584 30.1567 36.4584C30.7509 36.4584 31.0187 36.0933 31.4344 35.8059C31.683 35.6351 32.0401 35.4219 32.2421 35.2777C32.7236 34.9242 37.8188 33.3669 37.8188 33.3669L39.6052 33.4834L39.8927 35.4019L39.7391 40.4169C39.7201 40.4351 39.7012 40.454 39.682 40.4722L31.5596 44.7144L20.3007 46.4403C17.7787 46.0283 15.3449 45.1911 13.103 43.9646L13.0454 43.7086L13.0447 43.7088Z" fill="#D8C173"/>
<path fill-rule="evenodd" clip-rule="evenodd" d="M8.82812 40.9398C8.98813 40.6052 9.132 40.3254 9.15734 40.2253C9.17731 40.4271 9.21392 40.8697 9.28764 41.3402C9.13285 41.2086 8.97968 41.0751 8.82812 40.9396V40.9398Z" fill="#F1D789"/>
<path fill-rule="evenodd" clip-rule="evenodd" d="M17.0526 45.6593L18.5087 45.2544L18.6329 45.2933C18.6329 45.2933 18.6989 45.3322 18.6989 45.464C18.8814 45.3593 19.0368 45.3785 19.1495 45.3089C19.2076 45.433 19.2657 45.8447 19.5222 45.8951C19.79 45.9535 20.0775 45.7786 20.3688 45.5575C20.656 45.3283 20.9832 45.0409 21.2308 44.9244C21.3216 45.0914 21.402 45.2638 21.4717 45.4407C21.7978 45.1806 22.3648 44.1244 23.1725 44.1436C23.406 43.5919 23.796 43.1207 24.2943 42.7883C25.0439 42.2796 25.5136 42.2407 26.1001 42.2873C26.3331 41.9847 26.6201 41.728 26.9467 41.5301C27.0438 41.569 27.3118 41.732 27.6459 41.5767C27.9838 41.4215 28.3642 40.8194 28.8652 40.7418C29.1352 40.7047 29.4097 40.7623 29.6419 40.9049C29.6419 40.9049 31.1011 39.4562 32.108 38.9747C32.069 38.8582 31.9915 38.4194 33.1719 37.4484C33.2379 37.5068 33.1913 37.6698 33.2379 37.6788C33.2571 37.6788 33.5451 37.5546 33.9097 37.2748C34.3602 36.9372 34.8999 36.5836 35.226 36.4866C35.8404 36.3041 36.4922 36.6768 36.4922 36.6768C36.5476 36.6379 36.6094 36.609 36.6747 36.5913C36.8299 36.5642 36.9425 36.5447 37.028 36.5145C37.0203 36.7165 37.133 37.0621 37.028 37.3611C37.1496 37.4295 37.2784 37.4842 37.412 37.5242C37.3462 37.6678 37.2024 38.0328 36.9617 38.2077C37.1634 38.3047 37.1906 38.4174 37.4781 38.5149C37.3616 38.678 37.1709 38.9578 37.0859 39.1293C37.0004 39.3118 36.6934 40.0691 36.5575 40.3563C36.4139 40.6438 36.2198 41.1719 36.1264 41.2779C36.033 41.3839 35.6953 41.8332 35.4352 42.0544C35.6656 41.9688 36.6082 41.6816 37.0081 41.5728C36.889 41.7474 36.2856 42.6426 35.7055 43.5036C32.928 45.1683 29.8277 46.222 26.611 46.5944C23.3943 46.9668 20.1351 46.6493 17.0508 45.6632L17.0526 45.6593Z" fill="#E0CD81"/>
<path fill-rule="evenodd" clip-rule="evenodd" d="M12.4417 20.2951C12.4417 20.2951 12.1041 20.2951 12.038 20.3416C11.972 20.3882 12.3759 20.4855 12.5001 20.5321C12.6243 20.5787 12.8923 20.7922 12.9622 20.9632C13.0282 21.1263 15.3893 22.0776 15.3893 22.0776L17.0592 21.9921L17.635 21.1967L16.5398 20.2375L17.3078 17.9734L16.2905 18.1365L13.8438 19.5957L12.6166 20.0657L12.4417 20.2951Z" fill="#DFC57C"/>
<path fill-rule="evenodd" clip-rule="evenodd" d="M16.1089 21.0449C16.133 21.0839 16.167 21.116 16.2075 21.1378C16.2479 21.1596 16.2934 21.1703 16.3393 21.169C16.6849 21.169 17.0031 21.2545 17.1352 21.4291C17.3566 21.7089 17.9703 22.6021 17.9703 22.6021L19.4382 23.1302L19.5329 21.4017L17.929 20.2874L16.1038 20.9591V21.0446H16.1079L16.1089 21.0449Z" fill="#E5CC7C"/>
<path fill-rule="evenodd" clip-rule="evenodd" d="M15.8207 21.6856C15.8207 21.6856 16.0885 21.7051 16.4264 21.5806C16.7643 21.4562 17.3196 21.1884 17.5605 21.2934C17.8982 21.437 17.8283 21.8876 18.1936 22.2918C18.4148 22.5404 18.8187 22.5327 19.0479 22.8007C19.277 23.0688 20.0652 22.9443 20.0652 22.9443L20.3642 24.5571L19.1643 26.0952L18.7719 28.0057H17.1494L15.6671 27.4177L14.937 25.6513L15.3021 23.8649L15.8207 21.6856Z" fill="#D2C281"/>
<path fill-rule="evenodd" clip-rule="evenodd" d="M18.9595 21.7631C18.9997 21.7755 19.0415 21.782 19.0836 21.7825C19.0371 21.8214 18.9398 21.9067 18.9787 22.1281C19.0176 22.3496 19.1418 22.6291 19.0371 22.7999C19.1206 22.8913 19.183 23 19.2196 23.1183C19.2856 23.3088 19.3051 23.4834 19.7359 23.5108C19.6738 23.5491 19.6164 23.5947 19.5652 23.6467C19.5652 23.6467 19.8642 23.9068 20.0157 24.1474C20.1709 24.1408 20.5825 24.0128 20.5825 24.0128L20.668 24.0712L20.8506 23.9944C20.8506 23.9944 20.6798 23.9283 20.804 23.5128C20.9204 23.1478 21.0254 23.1672 21.0344 23.1401C21.0433 23.113 21.1199 22.7284 21.1199 22.5731C21.178 22.3713 21.2246 21.7577 21.2246 21.7577L21.1004 20.4024L20.4015 19.979L19.8332 19.4304L19.2972 20.4401L18.9441 20.7921L18.917 21.6658L18.9595 21.7631Z" fill="#E2C270"/>
<path fill-rule="evenodd" clip-rule="evenodd" d="M20.6406 20.6293C20.6406 20.6293 20.7648 20.9826 20.8116 21.2545C20.8281 21.2016 20.8373 21.1468 20.8388 21.0914C20.8388 21.0914 20.9358 21.6275 20.955 21.8489C20.9939 21.841 21.0318 21.8294 21.0405 21.8681C21.0492 21.9068 21.1378 22.3381 21.1173 22.5788C21.279 22.312 21.5028 22.0882 21.7696 21.9265C21.925 21.8292 22.1075 21.7245 22.298 21.7166C22.597 21.7089 22.8143 21.907 23.1717 21.907C24.0336 21.907 24.8144 21.2739 25.3892 21.0799C25.8123 20.936 26.1774 20.8313 26.4336 20.5981C26.5581 20.4934 26.7795 20.2604 26.9812 19.9146C27.2493 19.4538 27.5288 19.0526 27.8086 19.0022C27.682 19.0254 27.5532 19.0345 27.4246 19.0293C27.4246 19.0293 27.5101 18.9438 27.655 18.8273C27.7999 18.7109 27.9735 18.5672 28.2218 18.5672C28.6647 18.5672 28.8859 18.633 29.1344 18.633C29.383 18.6254 29.5266 18.5672 29.5266 18.5672C29.5266 18.5672 29.787 18.7498 30.3732 18.7498C30.9597 18.7574 31.3519 18.8079 31.6589 18.8353C31.9658 18.8627 32.9947 18.7498 33.2898 18.7585C33.4823 18.7659 33.6712 18.8121 33.8454 18.8944L32.8938 16.1296L29.4757 13.1421L27.4408 14.5829L24.3104 17.713L21.2814 18.8353L20.6483 19.5459V20.6293H20.6406Z" fill="#CCB360"/>
<path fill-rule="evenodd" clip-rule="evenodd" d="M27.437 19.0446C27.437 19.0446 27.5225 18.9594 27.6659 18.8429C27.8092 18.7264 27.9846 18.5825 28.2329 18.5825C28.6756 18.5825 28.897 18.6486 29.1456 18.6486C29.3942 18.6409 29.5378 18.5825 29.5378 18.5825C29.5378 18.5825 29.7984 18.7648 30.3844 18.7648C30.9709 18.7725 31.3631 18.8229 31.67 18.8501C31.9769 18.8772 33.0058 18.7648 33.301 18.7733C33.4934 18.7805 33.6823 18.8267 33.8562 18.9092L33.4251 17.6625L32.9244 16.7112L31.4952 15.146C31.4952 15.146 29.7799 14.1363 29.7669 14.1286C29.7592 14.121 29.1727 13.9656 29.1727 13.9656L27.6193 14.9054L26.2098 18.5521L26.1826 19.3201L27.095 19.7512C27.3241 19.3672 27.5768 19.06 27.8136 19.0211C27.5998 19.0444 27.4368 19.0444 27.4368 19.0444L27.437 19.0446Z" fill="#D5B457"/>
<path fill-rule="evenodd" clip-rule="evenodd" d="M27.4176 19.305C27.2817 19.3127 27.1693 19.2856 27.1381 19.1886C27.0216 18.8624 26.9284 18.8158 26.8309 18.8158C26.7334 18.8158 26.6018 19.0255 26.5237 19.0447C26.4456 19.0639 26.3529 18.804 26.3529 18.804L26.2674 18.7651C26.2674 18.7651 25.7664 19.0913 25.4132 19.4758C25.0599 19.8603 24.4811 20.5128 24.221 20.6291C23.9609 20.7453 23.0675 20.7845 22.7618 20.8505C22.4561 20.9166 22.1172 21.138 22.0706 21.1884C22.024 21.2389 22.2068 21.2931 22.2339 21.3436C22.2611 21.3902 21.9347 21.3707 21.9075 21.4204C21.8883 21.4593 21.9843 21.6805 22.0319 21.7931C22.1153 21.7517 22.2067 21.7291 22.2997 21.7271C22.5987 21.7194 22.8163 21.9175 23.1734 21.9175C24.0356 21.9175 24.8162 21.2844 25.3909 21.0901C25.8143 20.9465 26.1794 20.8416 26.4356 20.6086C26.5598 20.5039 26.7812 20.2707 26.9832 19.9251C27.1307 19.6883 27.2745 19.4668 27.4184 19.3038L27.4176 19.305Z" fill="#D2B257"/>
<path fill-rule="evenodd" clip-rule="evenodd" d="M15.0528 38.5245C15.0528 38.5245 14.976 38.237 14.2643 37.4954C14.0623 37.2857 13.9382 37.1114 13.8022 36.9867C13.4643 36.668 13.2662 36.5828 13.0255 36.4002C12.4974 36.008 11.9227 36.008 11.4801 35.5265C11.0374 35.045 10.5216 34.1249 10.1632 33.1846C9.80993 32.2448 9.71265 31.9458 9.71265 31.9187C9.71265 31.8915 9.80993 31.709 9.93409 31.7361C10.0582 31.7633 10.0582 32.0039 10.0895 32.0623C10.1513 32.1576 10.2215 32.2472 10.2991 32.3301C10.4817 32.54 10.7418 32.7909 10.8739 33.1651C10.8467 32.8467 10.7379 32.4934 10.7379 32.4934C10.7379 32.4934 11.4214 32.9245 12.0038 33.3748C12.5903 33.8254 12.831 33.9808 13.0022 34.268C13.1735 34.5552 13.577 35.3127 13.7702 35.5342C13.9635 35.7556 16.6118 36.5904 16.6118 36.5904L17.8716 37.5297L18.497 38.9006L18.0075 39.6686L17.0678 39.8706L15.5415 39.187L15.0528 38.5243V38.5245Z" fill="#D2B159"/>
<path fill-rule="evenodd" clip-rule="evenodd" d="M11.6621 33.8021C11.6621 33.8021 11.9806 34.3107 12.7573 34.7923C13.4564 35.2157 14.5631 35.6002 15.5497 35.8293C16.1165 35.9652 16.6835 36.07 17.1922 36.0779C18.5631 36.0971 19.5067 35.7052 20.6759 35.5769C21.3089 35.5108 22.0856 35.4604 22.8933 35.2697C23.9301 35.0211 24.5437 34.7413 25.3788 34.3481C25.9845 34.0685 26.54 33.8589 26.9903 33.5909C27.6234 33.2181 28.0855 32.8026 28.6216 32.6785C28.5555 32.861 28.4856 33.1871 27.9575 33.5251C28.2371 33.5171 28.6216 33.4979 28.6216 33.4979C28.6216 33.4979 28.2488 33.7191 27.5924 34.2163C27.1885 34.5235 26.6527 35.0434 26.1051 35.389C25.7516 35.6104 25.367 35.773 25.1146 35.9056C24.5002 36.2435 24.2524 36.4143 23.8487 36.8272C23.9923 36.8195 24.0041 36.8272 24.0041 36.8272C24.0041 36.8272 23.4952 36.8932 23.1304 37.0873C23.0536 37.0873 22.9205 37.0602 22.6875 37.1262C22.505 37.1843 22.2641 37.3167 22.0158 37.3863C21.6622 37.4913 21.546 37.4447 21.546 37.4447L21.6041 37.5612C21.6041 37.5612 21.1433 37.5532 20.9897 37.5688C21.0168 37.5765 21.0092 37.5883 21.0092 37.5883C20.9822 37.5928 20.9562 37.602 20.9324 37.6154C20.8585 37.6633 20.7771 37.6987 20.6917 37.7201C20.6451 37.7278 20.6062 37.7278 20.5479 37.7396C20.5673 37.7862 20.7189 38.0468 20.7887 38.2004C20.7306 38.2393 19.8567 38.8995 19.8567 38.8995C19.8838 38.9422 19.9059 38.9878 19.9227 39.0355C19.9498 39.1207 19.9616 39.2451 19.9888 39.3032C20.0545 39.4197 20.0935 39.4392 20.0935 39.4392C20.0935 39.4392 19.9887 39.4586 19.806 39.5052C19.6508 39.5441 19.4604 39.6099 19.1916 39.6488C19.1091 39.6596 19.0261 39.6661 18.943 39.6683C18.9819 39.7538 19.1527 40.0799 18.838 40.4565C18.5234 40.8331 18.4264 40.8879 18.3294 41.1285C18.2805 41.0916 18.2285 41.059 18.174 41.0312C18.0693 40.9846 17.9254 40.915 17.875 40.8216C17.8456 40.9461 17.8066 41.0681 17.7585 41.1866C17.6615 41.4467 17.5178 41.7032 17.4907 41.8973C17.3857 41.7808 17.1917 41.5517 16.9237 41.5983C16.6556 41.6449 16.4421 42.0099 16.3955 42.1149C16.3955 42.0488 16.3489 41.9984 16.3374 42.076C16.3295 42.1615 16.182 43.0544 15.3587 43.7768C15.3511 43.5943 15.3511 43.1903 15.3316 43.0585C15.2548 43.1353 15.1609 43.2487 14.6015 43.4896C14.0539 43.7302 14.1407 43.9711 14.1407 43.9711C14.1407 43.9711 14.0941 43.5871 14.3893 43.1827C14.6883 42.7789 14.8708 42.5885 14.8708 42.5575C14.866 42.526 14.8525 42.4964 14.8319 42.472C14.793 42.4331 14.7154 42.3865 14.7154 42.3555C14.762 42.3363 15.2241 42.1149 15.197 41.6564C15.1698 41.245 14.9952 41.0312 14.8708 40.8799C14.8516 40.8605 15.0536 40.7169 15.0262 40.6703C15.0067 40.6431 14.7584 40.4604 14.7272 40.3631C14.7345 40.305 14.7476 40.2478 14.7661 40.1923C14.7932 40.1068 14.8127 40.0485 14.805 39.9903C14.7856 39.8933 14.6806 39.6253 14.6496 39.5981C14.6768 39.6058 14.8708 39.5981 14.8708 39.5981C14.8708 39.5981 14.7157 39.3496 14.6883 39.2331C14.6609 39.1166 14.6028 38.8097 14.5718 38.7516C14.6378 38.7592 14.8009 38.7708 14.8009 38.7516C14.8089 38.6932 14.6573 38.5962 14.7241 38.5212C14.7707 38.5288 14.8601 38.5677 14.9453 38.6765C14.8987 38.5521 14.8211 38.3115 14.6578 38.2145C14.7346 38.1873 14.9957 38.1172 15.2249 38.2531C15.454 38.3891 15.5321 38.5793 15.5321 38.5793C15.5321 38.5793 15.668 38.6842 15.8779 38.8396C16.1185 39.0298 16.4252 39.3004 16.9147 39.4919C17.0197 39.5503 17.2874 39.5503 17.4817 39.5114C17.5664 39.4912 17.6475 39.4585 17.7224 39.4143C17.7494 39.3984 17.7781 39.3854 17.8079 39.3754C17.7661 39.2916 17.7181 39.2111 17.6643 39.1345C17.7303 39.1345 17.8079 39.1425 17.8079 39.1425C17.8079 39.1425 17.8545 39.0375 17.6448 38.8353C17.6914 38.7887 17.7498 38.7585 17.7498 38.6799C17.6837 38.6722 17.5673 38.5752 17.5401 38.5363C17.5788 38.5091 17.6371 38.4198 17.7032 38.3926C17.6448 38.346 17.5012 38.1517 17.4352 38.1325C17.4983 38.1091 17.5593 38.0805 17.6177 38.047C17.6177 38.047 17.2915 37.9615 17.1866 37.8917C17.0816 37.8149 16.9265 37.682 16.8333 37.6431C16.736 37.6042 16.5653 37.585 16.4954 37.5071C16.5612 37.5266 16.6661 37.5071 16.744 37.5071C16.8021 37.5071 16.8295 37.5148 16.8487 37.5148C16.841 37.4877 16.841 37.4293 16.9925 37.4101C17.0654 37.3991 17.1362 37.3768 17.2022 37.3441C17.2022 37.3441 17.0583 37.3364 16.895 37.181C16.7317 37.0256 16.596 36.9014 16.5028 36.882C16.4058 36.8625 16.2233 36.948 16.1106 36.9401C15.9552 36.9209 15.8892 36.8431 15.8892 36.8431C15.8892 36.8431 15.3728 36.8897 14.2272 36.1908C13.2368 35.5848 12.8057 35.049 12.8057 35.049C12.713 35.0154 12.6234 34.9738 12.5379 34.9246C12.1651 34.7306 11.6485 34.3266 11.6642 33.7982L11.6621 33.8021Z" fill="#C2A44D"/>
<path fill-rule="evenodd" clip-rule="evenodd" d="M25.9495 10.4932C26.0393 10.5224 26.1192 10.5762 26.1799 10.6486C26.3624 10.8582 26.4789 11.2543 26.0634 11.6777C26.2265 11.7358 26.2938 11.7545 26.4361 11.7358C26.2925 11.9068 25.9664 12.2719 25.9469 12.5903C25.9275 12.8504 26.0905 12.9283 26.0905 12.9283C26.0905 12.9283 25.842 13.2155 25.8304 13.6963C25.9478 13.5639 26.0763 13.4418 26.2144 13.3312C26.5019 13.1021 26.898 12.842 27.166 12.6789C27.1624 12.7473 27.1716 12.8157 27.1931 12.8806C27.1931 12.8806 27.6939 12.469 28.1147 12.6518C28.3049 12.7373 28.2194 13.0051 28.2194 13.0051C28.2194 13.0051 28.4798 12.908 28.6623 13.0906C28.8448 13.2731 29.1029 13.7439 29.2353 13.9264C29.2934 14.0119 29.4449 14.175 29.6001 14.4274C29.812 14.7808 29.989 15.154 30.1284 15.5418C30.1361 15.3398 30.1865 15.0254 30.7615 15.2233C31.3362 15.4253 31.9885 15.8487 32.5361 16.6825C33.0837 17.5163 33.2194 18.4576 33.4951 18.816C33.7747 19.1616 34.0621 19.7363 34.0816 19.9772C34.1011 20.2181 33.9961 20.9946 34.5708 23.0956C34.7339 22.4433 34.9825 20.9946 34.9825 20.9946L35.1184 19.7169L35.2738 15.7635L31.1455 12.3338L27.9184 9.99194L25.8174 10.1939L25.9492 10.4929L25.9495 10.4932Z" fill="#CAA13E"/>
<path fill-rule="evenodd" clip-rule="evenodd" d="M33.6196 16.3766C33.6196 16.3766 33.5612 15.9926 32.5905 15.3398C31.6195 14.6952 30.8622 14.6952 30.1633 14.1476C29.6273 13.7165 29.0682 12.726 28.7041 12.3999C28.3506 12.0776 28.2925 11.1455 28.2925 11.1455L29.4847 10.1471L31.2577 7.58427L32.7566 5.93384L33.4749 6.93224L34.4733 8.10497L35.0286 10.4584L35.2306 13.9031L33.6178 16.3768L33.6196 16.3766Z" fill="#B59544"/>
<path fill-rule="evenodd" clip-rule="evenodd" d="M34.8198 20.5057C34.8492 19.9833 34.7847 19.4598 34.6294 18.9602C34.3734 18.164 33.814 16.7504 33.5542 16.221C33.4492 15.6345 33.527 15.5879 33.6397 15.5219C33.7523 15.4558 34.1757 15.2147 34.4077 14.3686C34.6396 13.5225 35.3592 13.4948 35.3592 13.4948L35.8018 13.1687L36.4738 14.8501L37.0601 16.3687L37.2426 17.5299L37.3785 18.5201L37.0601 20.6134L35.4875 22.0347L34.8196 20.5057H34.8198Z" fill="#C89D3A"/>
<path fill-rule="evenodd" clip-rule="evenodd" d="M12.874 43.8373V43.7943C12.9067 43.7738 12.9356 43.7478 12.9593 43.7175C12.9864 43.6785 13.0061 43.632 13.0253 43.6204C13.0642 43.601 13.2468 43.5436 13.3438 43.5621C13.4408 43.5805 13.6973 43.6862 13.8333 43.6785C14.1128 43.6709 14.439 43.4571 14.9556 43.5544C15.7323 43.698 15.9148 44.2261 16.3654 44.5251C16.6726 44.7351 16.9905 44.6416 17.0371 44.6416H17.1418C17.1613 44.6416 17.3049 44.4785 17.3827 44.4865C17.5381 44.4942 17.5535 44.6224 17.6505 44.6301C17.8796 44.6572 18.3225 44.5136 18.5439 44.572C18.6096 44.5926 18.6693 44.6287 18.718 44.6773C18.7667 44.726 18.8029 44.7856 18.8235 44.8513C18.8701 44.9949 18.8312 45.1774 18.7185 45.2824C18.4779 45.5036 18.2488 45.7135 18.2022 45.8968C18.2614 45.942 18.3183 45.9902 18.3727 46.0412C16.4512 45.5516 14.6024 44.8114 12.874 43.8396V43.8373Z" fill="#CEB052"/>
<path fill-rule="evenodd" clip-rule="evenodd" d="M33.5535 36.0777C33.5535 36.0777 34.1592 35.2701 34.3691 34.8699C34.5788 34.4575 33.705 29.2351 33.705 29.2351L35.4604 23.4838L35.4136 21.6119C35.4136 21.6119 35.4991 19.8837 35.7011 19.1341C35.942 19.5652 36.6915 20.0857 36.8546 20.3614C36.9314 19.833 37.1923 18.7186 37.1536 17.5303C37.2972 17.7515 37.6428 19.9769 37.6428 19.9769L37.9884 21.4757L38.439 23.0681L38.94 24.7497L39.239 25.9109L39.4098 26.1905L39.5536 26.6797L39.6896 27.2081L40.0818 28.4469L40.3122 29.4642L40.4947 31.309C40.5344 31.4502 40.563 31.5944 40.5802 31.7401C40.5879 31.942 40.5531 32.0585 40.5531 32.0936C40.5531 32.1287 40.6191 32.5362 40.592 32.8432C40.5531 33.1504 40.5531 33.3908 40.3122 33.6112C40.0713 33.8316 39.92 35.149 39.92 35.149L39.4889 34.8617C39.4889 34.8617 39.5744 34.4693 39.3724 34.1122C39.1704 33.755 38.7782 33.6811 38.5568 33.7394C38.3356 33.786 37.8929 33.8557 37.7491 33.9801C37.6131 34.1042 37.2793 34.4887 36.9724 34.6636C36.5884 34.894 35.9627 34.9122 35.6289 34.9897C35.2909 35.0665 34.9182 35.2969 34.5258 35.5645C34.2181 35.7637 33.8932 35.935 33.555 36.0765V36.0765L33.5535 36.0777Z" fill="#CCA847"/>
<path fill-rule="evenodd" clip-rule="evenodd" d="M33.5535 44.5631C33.5535 44.5631 33.5791 44.5798 33.6285 44.6069C36.3875 43.3143 38.8596 41.4819 40.8989 39.2181C40.8766 38.4322 40.8477 37.6266 40.8159 37.3281C40.7501 36.695 40.7967 36.0504 40.7773 35.6776C40.7578 35.3049 40.5482 33.7863 40.4511 33.3941C40.3462 33.0019 40.1439 32.8076 40.1132 32.8076C40.0861 32.8156 39.9227 33.5457 39.9227 33.7292C39.9227 33.9128 39.8838 34.3546 39.8838 34.4673C39.8567 34.4593 39.8452 34.3905 39.8452 34.3623C39.8063 34.4593 39.7597 34.6303 39.7402 34.6498C39.7208 34.6692 39.7674 34.4867 39.7402 34.4478C39.7131 34.4089 39.6634 34.4284 39.6742 34.3313C39.6788 34.2738 39.6878 34.2167 39.7013 34.1606C39.7013 34.1606 39.5848 34.3313 39.4996 34.7663C39.4141 35.1974 39.4141 35.2092 39.3831 35.2478C39.356 35.2947 39.2006 35.4498 39.1926 35.5082C39.185 35.6129 39.3365 35.7178 39.348 35.7759C39.3557 35.8732 39.2121 36.3235 39.1655 36.5439C39.1189 36.7644 39.1384 37.1962 39.0887 37.4177C39.0498 37.6196 39.0119 37.7361 38.879 37.8214C38.9761 37.8408 39.0692 37.868 39.0692 37.868C39.0692 37.868 39.2052 38.4427 38.8596 38.9322C38.7354 39.1029 38.7044 39.1807 38.5723 39.3361C38.312 39.6234 38.11 39.9505 38.0906 40.1633C38.0771 40.1005 38.068 40.0368 38.0634 39.9728C38.0634 39.9728 37.6597 40.4428 37.4887 40.7108C37.2675 41.0564 36.9606 41.037 36.8743 41.1225C36.788 41.208 36.7693 41.3631 36.7975 41.4876C36.7207 41.5068 36.5763 41.5341 36.479 41.8332C36.4324 41.9883 36.316 42.1404 36.1334 42.2448C35.9509 42.3492 35.7295 42.3807 35.6168 42.4079C35.7138 42.435 35.7528 42.435 35.7994 42.466C35.7412 42.563 35.4732 42.7146 35.1742 42.9089C34.8752 43.0914 34.7313 43.3592 34.6576 43.534C34.5808 43.6971 34.4674 43.802 34.2849 43.8215C34.3617 43.8681 34.4753 43.9766 34.5334 44.0117C34.4479 44.0312 34.303 44.0312 34.0442 44.2526C33.7723 44.4779 33.6792 44.5439 33.5547 44.5634L33.5535 44.5631Z" fill="#C39D3C"/>
<path fill-rule="evenodd" clip-rule="evenodd" d="M28.1497 46.3628C28.2984 46.2586 28.4595 46.1732 28.6292 46.1086C29.2349 45.868 29.8757 45.8214 30.1281 45.7438C30.369 45.667 30.5592 45.561 30.8582 45.5029C30.8503 45.571 30.8436 45.635 30.8364 45.6954C29.9549 45.9726 29.0572 46.1955 28.1484 46.3628H28.1497Z" fill="#D2BA6B"/>
<path fill-rule="evenodd" clip-rule="evenodd" d="M39.3216 30.4311C39.3216 30.4311 39.1974 31.1028 38.976 31.5263C38.7545 31.9497 38.5152 32.5359 38.5152 32.5359C38.5166 32.4038 38.5322 32.2723 38.5618 32.1435C38.2822 32.3066 37.6025 32.699 37.4098 32.8736C37.2272 33.0367 36.9203 33.3241 36.8427 33.4601C37.0253 32.9243 37.2155 32.4427 37.2467 32.2213C36.9671 32.4233 35.6621 33.499 34.9826 34.2096L32.866 35.9223C32.6218 36.0541 32.3702 36.1718 32.1126 36.2751C31.7478 36.4302 31.3167 36.5623 30.9982 36.6867C31.0837 36.4576 31.2194 36.2553 31.4099 36.0613C31.6119 35.8711 32.2176 35.2147 32.3108 34.9093C32.3963 34.5908 32.4157 34.4006 32.3031 34.1326C32.1981 34.1597 31.9575 34.1715 31.7944 34.2181C31.6313 34.2647 31.4565 34.4393 31.4565 34.4393C31.4565 34.4393 31.5806 33.7286 31.8487 33.0569C31.6467 33.0646 31.3011 33.1227 31.3011 33.1227C31.3011 33.1227 31.7826 32.315 32.6067 31.7521C32.3543 31.8058 32.1074 31.8824 31.8689 31.9809C31.3874 32.1829 30.8592 32.4819 30.467 32.645C30.6882 32.3378 32.2416 30.1208 33.1661 28.0547C34.0877 25.9926 34.432 25.4645 34.634 24.3578C34.7387 23.8102 34.7108 23.001 34.7387 22.2762C34.7658 21.5576 34.8551 20.913 34.797 20.4819C35.0377 20.7809 35.9388 21.6237 35.9698 23.5073C35.9969 25.3907 35.1078 27.9346 34.1639 29.3052C34.3943 29.3713 34.9913 29.4491 35.6047 28.3836C36.2181 27.3181 36.2107 27.0207 36.4321 26.5778C36.4592 26.7992 36.4513 26.8768 36.4513 26.8768C36.4513 26.8768 37.3447 25.7934 37.7679 24.4302C37.8534 25.0167 38.1058 25.5333 37.7095 26.609C37.3563 27.5798 36.8942 27.8168 36.8942 27.8168C36.8942 27.8168 37.1233 27.7779 37.461 27.5759C37.5193 27.7195 37.5078 27.8831 37.6048 27.941C37.7019 27.9988 37.834 28.0964 37.8534 28.1896C37.9581 28.0342 38.1212 27.836 38.1719 27.6886C38.133 27.9958 38.1058 29.339 38.2487 30.0225C38.5479 29.9954 38.8546 29.9759 39.0643 29.436C38.9207 29.9644 38.9207 30.2826 39.0177 30.7332C39.1769 30.6246 39.3205 30.4303 39.3205 30.4303L39.3216 30.4311Z" fill="#C0993A"/>
<path fill-rule="evenodd" clip-rule="evenodd" d="M29.2313 9.02535C29.2313 9.02535 28.9323 9.14951 28.4237 9.14951C27.981 9.14951 28.1052 8.97876 27.414 8.97876C26.3501 8.97876 22.6334 9.59316 21.9809 9.58446C21.5575 9.57678 23.4099 9.76698 23.4099 9.76698L28.1441 9.83303L29.0954 9.75623L29.4489 9.03687L29.2313 9.02535Z" fill="#A88F33"/>
<path fill-rule="evenodd" clip-rule="evenodd" d="M16.9554 18.2796C16.9554 18.2796 16.3494 18.7417 16.0932 19.0952C15.8369 19.4488 15.701 19.6815 15.4097 19.9689C15.4781 19.9716 15.5464 19.9624 15.6117 19.9418C15.6117 19.9418 15.6117 20.0186 15.5651 20.0388C15.6053 20.0343 15.6461 20.0389 15.6844 20.0522C15.7226 20.0655 15.7574 20.0871 15.7862 20.1156C15.7007 20.1622 15.4678 20.3954 15.6503 20.6712C15.7862 20.8808 16.0737 20.9 16.0737 20.9C16.0737 20.9 16.0077 21.0905 16.2834 21.071C16.8776 21.0439 17.5416 20.7835 17.8483 20.8496C18.1555 20.9264 18.3301 20.9545 18.5475 21.3314C18.7779 21.7041 18.9786 21.7625 18.9786 21.7625C18.9786 21.7625 19.1145 21.4166 19.0835 20.9003C19.195 20.6219 19.2568 20.3262 19.2661 20.0265L19.0641 18.5392L18.1827 17.4246L17.0409 18.0576L16.9554 18.2788V18.2796Z" fill="#E3C571"/>
<path fill-rule="evenodd" clip-rule="evenodd" d="M18.0388 18.0583C18.0388 18.0583 18.1243 18.2603 18.4817 18.2795C18.4428 18.365 18.4428 18.3768 18.4546 18.4426C18.4622 18.5086 18.4738 18.6057 18.4738 18.6057C18.5131 18.5866 18.5487 18.5606 18.5787 18.5289C18.5982 18.6144 18.5593 18.75 18.5787 18.8473C18.5907 18.9065 18.6103 18.9639 18.6368 19.0181C18.6425 19.0048 18.649 18.9919 18.6563 18.9794C18.664 18.96 18.7331 19.1891 18.9243 19.3634C18.9242 19.3366 18.9308 19.3102 18.9435 19.2866C18.9465 19.3353 18.9626 19.3823 18.9901 19.4226C18.9758 19.4157 18.9627 19.4066 18.9515 19.3954C18.9515 19.3954 18.9707 20.0098 19.0756 20.3275C19.0932 20.307 19.1088 20.2849 19.1222 20.2615C19.1222 20.2423 19.1145 20.4325 19.0951 20.5687C19.0679 20.7046 19.0874 20.8948 19.0874 20.8948C19.1574 20.8397 19.2344 20.794 19.3163 20.7589C19.4327 20.712 19.6235 20.5684 19.7397 20.2499C19.8071 20.0696 19.8591 19.8838 19.8951 19.6947C19.9326 19.767 19.9585 19.8447 19.9719 19.9251C19.9798 20.0221 20.1623 19.9717 20.1623 19.9717L20.2012 19.5483L20.4316 18.589L20.6413 17.9948L21.651 16.4222L23.4752 15.0173L25.0676 15.3824L26.411 13.5571L24.0965 12.1667L21.9062 12.3959L19.9184 15.1491L18.3263 17.6464L18.0388 18.0581V18.0583Z" fill="#D8B65B"/>
<path fill-rule="evenodd" clip-rule="evenodd" d="M29.5106 14.0738C29.5106 14.0738 29.3747 14.1009 28.9825 14.3042C28.5903 14.5074 28.3184 14.572 28.1669 14.871C28.0153 15.17 28.0038 15.407 28.0038 15.407C28.0038 15.407 28.2718 15.2906 28.4272 15.2516C28.5903 15.213 28.7728 15.2245 28.7534 15.2906C28.7347 15.3358 28.7088 15.3778 28.6766 15.4147C28.6766 15.4147 28.9838 15.407 28.9756 15.5586C28.9674 15.7101 28.9175 15.8771 28.8594 15.9508C28.801 16.0276 28.5604 16.1412 28.5332 16.2306C28.4672 16.4131 28.5604 16.4208 28.5253 16.5683C28.4981 16.7121 28.3701 16.9917 27.9506 17.4809C27.5195 17.9704 27.3362 18.316 27.3362 18.316C27.3362 18.316 27.1265 17.9238 27.0177 17.5859C26.9409 17.6245 26.5285 17.8536 26.5285 17.8536L25.5731 14.5256L25.5923 14.3042C25.5923 14.3042 25.6778 14.1995 25.6972 14.0052C25.5536 13.9586 25.5342 13.9197 25.3437 13.7374C25.1532 13.5551 24.9981 13.3334 24.6799 13.1819C24.6333 13.0964 24.5749 12.9801 24.342 12.9333C24.109 12.8865 23.9692 12.8481 23.9692 12.8481C23.9692 12.8481 24.0934 12.8012 24.1518 12.7042C24.0079 12.7236 23.8917 12.7702 23.5771 12.7625C23.2586 12.7546 23.2235 12.7431 23.0489 12.7702C22.8743 12.7974 22.6649 12.8752 22.5868 12.6072C22.5013 12.5411 22.3188 12.5995 22.1634 12.8283C22.008 13.0572 21.9538 13.24 21.6547 13.3293C21.6337 13.4611 21.5876 13.5877 21.5188 13.7021C21.4333 13.8459 21.2974 13.9896 21.1148 14.2031C20.8274 14.541 20.8739 15.0962 20.4157 15.5197C19.9536 15.9428 20.4925 14.3467 20.4925 14.3467L21.2303 12.5803L23.3313 10.5259L26.5935 10.3047L26.912 11.9943L28.5043 12.5419L29.5101 14.0758L29.5106 14.0738Z" fill="#D3AE4D"/>
<path fill-rule="evenodd" clip-rule="evenodd" d="M30.0272 14.4465L28.6563 12.4699L27.6971 11.7318C27.6971 11.7318 27.0136 10.4739 26.967 10.435C26.9281 10.4078 26.2835 10.3379 25.8718 10.3108L25.9486 10.501C26.0385 10.5302 26.1183 10.584 26.179 10.6564C26.3616 10.8661 26.478 11.2621 26.0625 11.6855C26.2256 11.7436 26.2929 11.7623 26.4353 11.7436C26.2917 11.9146 25.9655 12.2797 25.9461 12.5981C25.9266 12.8582 26.0897 12.9358 26.0897 12.9358C26.0897 12.9358 25.8411 13.2233 25.8296 13.7038C25.947 13.5714 26.0754 13.4493 26.2136 13.3387C26.5011 13.1084 26.8971 12.8493 27.1651 12.6862C27.1615 12.7546 27.1707 12.8232 27.1923 12.8882C27.1923 12.8882 27.693 12.4765 28.1139 12.6591C28.3041 12.7446 28.2186 13.0126 28.2186 13.0126C28.2186 13.0126 28.4789 12.9156 28.6614 13.0981C28.844 13.2806 29.1041 13.7504 29.2362 13.9332C29.2943 14.0187 29.4458 14.1818 29.601 14.4339C29.8129 14.7874 29.9899 15.1607 30.1293 15.5485C30.137 15.3931 30.1683 15.1758 30.4365 15.1758L30.0287 14.4457L30.0272 14.4465Z" fill="#CAA13E"/>
<path fill-rule="evenodd" clip-rule="evenodd" d="M9.47574 20.0621C9.47574 20.0621 9.37872 19.8212 9.47574 19.3515C9.57276 18.8817 9.72431 18.6603 9.77475 17.9691C9.82518 17.2779 10.2757 16.4157 10.2757 16.4157L11.5222 15.8489L12.4039 16.0895L12.664 17.2702L11.5493 17.8846C11.5493 17.8846 11.4912 18.1447 11.1766 18.3543C10.862 18.564 10.427 18.7271 10.3223 18.9408C10.2597 19.0717 10.2141 19.2101 10.1864 19.3525C10.1864 19.3525 9.86793 19.2864 9.67772 19.4961C9.47574 19.7099 9.48342 19.9001 9.47574 20.0631V20.0621Z" fill="#F4EFC8"/>
<path fill-rule="evenodd" clip-rule="evenodd" d="M11.9922 19.7477C11.9922 19.7477 11.8873 19.8138 11.8097 19.9781C11.7329 19.854 11.5494 19.1159 11.5417 18.4518C11.534 17.7878 11.4943 17.6232 11.6479 17.3943C11.8015 17.1654 12.4039 16.9243 12.3184 16.5121C12.2329 16.1199 11.8755 15.9569 11.4367 16.0695C11.1295 16.1463 10.9009 16.7996 10.5824 17.1258C10.3415 17.3743 10.0543 17.3354 9.97675 17.4714C9.87179 17.6539 9.96881 17.8364 9.93783 17.9529C9.9299 17.9918 9.83287 18.2015 9.65803 18.4539C9.30475 18.9626 8.70673 19.6812 8.62891 20.3258C8.65604 19.9607 8.63684 19.953 8.73387 19.5491L8.6755 19.452L9.0595 18.1938L9.30807 17.157L9.86359 15.4208L10.842 13.6462L11.7936 12.582L12.7838 12.6481L12.9003 14.1354L13.4673 16.9279L14.6595 18.3958L12.7487 19.6817L11.9915 19.7477H11.9922Z" fill="#EBCC73"/>
<path fill-rule="evenodd" clip-rule="evenodd" d="M12.5865 20.2751C12.5865 20.2751 12.4234 20.3141 12.3651 20.2831C12.3067 20.2521 12.2489 20.217 12.2681 20.1781C12.2873 20.1392 12.3922 20.0734 12.3922 20.0422C12.3944 20.014 12.3854 19.986 12.3673 19.9643C12.3492 19.9425 12.3233 19.9287 12.2952 19.9257C12.2058 19.9142 12.1787 19.9723 12.1787 19.9723C12.1787 19.9723 12.0932 19.9065 12.0236 19.8955C12.0648 19.8904 12.1062 19.8878 12.1477 19.8876C12.0404 19.8389 11.9266 19.8063 11.8098 19.7905C11.9068 19.7324 12.0973 19.5614 12.2215 19.5614C12.3456 19.5614 12.4234 19.5422 12.404 19.4762C12.3845 19.4101 12.2875 19.3131 12.1828 19.2742C12.2215 19.2276 12.2489 19.1577 12.1557 18.967C12.0584 18.7768 12.0973 18.6485 12.1285 18.6022C12.1557 18.5438 12.2527 18.4391 12.2993 18.3731C12.3459 18.307 12.3848 18.2177 12.4624 18.1711C12.5013 18.1439 12.6254 18.0943 12.7498 18.0469C12.8858 18.0003 12.9984 17.9419 13.076 18.0003C13.1615 18.0584 13.1226 18.1362 13.1226 18.1362C13.1226 18.1362 13.3906 18.039 13.6313 18.1634C13.8722 18.2796 14.4586 18.3536 14.4586 18.3536L14.6688 18.777L13.2785 19.9692L12.7038 20.2567L12.5873 20.2759L12.5865 20.2751Z" fill="#E5C66B"/>
<path fill-rule="evenodd" clip-rule="evenodd" d="M14.5164 18.3262C14.5164 18.3262 14.0853 18.6137 13.9882 18.7184C14.0463 18.7263 14.1434 18.7653 14.1045 18.8234C14.0579 18.8815 13.7783 19.0835 13.6229 19.2739C13.4599 19.4641 13.3045 19.705 13.2502 19.8215C13.1921 19.9262 12.7492 20.2332 12.5979 20.2718C12.9164 20.2718 13.5571 19.8796 13.7978 19.8796C13.7901 19.9961 13.8638 20.1282 13.9998 20.1397C14.1357 20.1512 14.5279 20.2252 15.056 19.8991C15.5841 19.5806 15.4095 19.3436 15.6307 19.1884C16.0542 18.9086 16.2249 18.66 16.4579 18.5049C16.6908 18.3498 16.8114 18.3144 16.8114 18.3144C16.8114 18.3144 16.8191 18.198 16.8882 18.2097C16.9071 18.2119 16.9251 18.2192 16.9402 18.2309C16.9552 18.2425 16.9668 18.258 16.9737 18.2758C16.9737 18.2758 17.3777 17.9883 17.8953 17.9107C17.8832 17.9053 17.8736 17.8957 17.8682 17.8836C17.8682 17.8836 17.9068 17.8641 17.9148 17.8447C17.9148 17.8447 17.9419 17.8058 17.9614 17.8252C17.9808 17.8447 18.008 17.9883 18.0469 18.0467C18.1324 18.0078 18.2954 17.6427 18.2954 17.6427L18.6879 16.5204V15.4951L18.3807 15.5535L16.0767 16.5319L14.6784 17.9806L14.5153 18.3262H14.5164Z" fill="#E6BD62"/>
<path fill-rule="evenodd" clip-rule="evenodd" d="M21.1493 13.2972C21.2739 13.267 21.3934 13.2185 21.5039 13.1534C21.4573 13.2778 21.4573 13.4137 21.2553 13.7089C21.0533 14.004 21.0456 14.0468 20.8826 14.3535C20.7195 14.6719 20.7 15.1302 20.5446 15.3319C20.6143 15.2981 20.689 15.2759 20.7658 15.2661C20.7658 15.2661 20.6107 15.4021 20.5446 15.5457C20.4786 15.6893 20.3621 15.9883 20.0749 16.1711C19.7876 16.3539 19.4223 16.4701 19.0301 16.9012C18.6377 17.3244 18.234 17.8604 18.0317 18.0532C18.1367 17.8707 18.2803 17.5056 18.3192 17.265C18.3581 17.0243 18.3113 16.7366 18.3773 16.4184C18.4434 16.1002 18.4434 15.8708 18.7613 15.3153C19.0793 14.7598 19.6235 12.8298 19.6235 12.8298L20.7963 12.457L21.1498 13.2959L21.1493 13.2972Z" fill="#B6933F"/>
<path fill-rule="evenodd" clip-rule="evenodd" d="M20.3029 12.5864C20.3029 12.5864 19.9496 13.0951 19.8526 13.5456C19.7556 13.9962 19.8447 13.9573 19.7866 14.1787C19.7518 14.3137 19.7518 14.4554 19.7866 14.5904C19.9089 14.3933 20.0764 14.2281 20.2753 14.1086C20.6093 13.9069 20.8812 13.763 21.0433 13.5922C21.2063 13.4097 21.3423 13.1107 21.6956 12.8816C21.5519 12.8621 21.35 12.7961 21.3116 12.8048C21.4554 12.6417 21.8863 12.3931 22.3212 12.0941C22.7523 11.7869 22.7252 11.663 23.4243 11.3563C23.1952 11.3952 23.0864 11.3369 22.8959 11.3563C22.9727 11.1933 23.2415 11.1154 23.5103 10.8477C23.7791 10.5799 23.3396 10.1836 23.3396 10.1836L21.2916 11.4224L20.3014 12.5874L20.3029 12.5864Z" fill="#C49937"/>
<path fill-rule="evenodd" clip-rule="evenodd" d="M14.7454 11.662L14.792 11.2893L15.3784 10.3495L15.9921 8.69906V6.44267L15.9455 5.13784L16.0425 4.28331L16.1162 4.0117L16.1941 3.90674L16.6948 4.16683L17.3863 5.10661L17.4523 6.92037L16.7803 9.78245L14.8618 11.8758L14.7454 11.662Z" fill="#DFC068"/>
<path fill-rule="evenodd" clip-rule="evenodd" d="M16.2719 3.80162C16.2719 3.80162 15.9647 3.80955 15.8992 5.08725C15.8336 6.36495 15.8019 7.03669 15.7553 7.66978C15.7087 8.30286 15.6002 8.68712 15.5456 9.06011C15.4911 9.43311 15.4601 9.94152 15.2856 10.2523C15.2088 10.3959 15.0447 10.8465 14.6601 11.1844C14.229 11.5571 13.5849 11.8175 13.4874 11.8369C13.3164 11.8756 12.4504 11.9611 12.0971 12.1554C11.9729 12.2215 11.7592 12.299 11.5224 12.5205C11.0523 12.9436 10.4272 13.7009 9.97664 14.6135C9.28544 15.9767 8.59424 19.8252 8.59424 19.8252L8.74963 19.5651C8.74963 19.5651 8.76909 19.2195 9.11469 18.6135C9.4526 18.0078 9.35558 17.3281 9.82534 16.1669C10.0079 15.7243 10.237 15.1496 10.5165 14.6601C10.9594 13.864 11.4952 13.1804 12.0351 12.8077C12.9165 12.202 13.8875 12.0699 13.8875 12.0699L14.9323 11.3787C14.9323 11.3787 15.1148 11.0254 15.3557 10.6215C15.6934 10.0547 16.1237 9.42159 16.2176 8.50127C16.3615 7.13807 16.0157 6.24488 16.0351 5.4372C16.0546 4.62952 16.0623 4.03535 16.2256 3.89147C16.3889 3.7476 16.2722 3.80213 16.2722 3.80213L16.2719 3.80162Z" fill="#A88F33"/>
<path fill-rule="evenodd" clip-rule="evenodd" d="M16.2717 9.89915C16.2717 9.89915 16.7326 8.76507 16.9435 7.75925C16.9824 7.55727 17.06 7.35554 17.0794 7.19247C17.1765 6.24091 17.2036 5.84872 17.0794 5.32827C16.9824 4.94427 16.6097 4.59816 16.4154 4.32987C16.2252 4.05007 16.1358 3.94587 16.1747 3.88699C16.2136 3.82811 16.3649 3.73186 16.5124 3.74338C16.6691 3.74794 16.8233 3.78433 16.9656 3.85035C17.1078 3.91636 17.2351 4.01062 17.3398 4.12738C17.6388 4.47298 17.8756 5.64597 17.8756 5.64597L18.1247 7.19375L18.7578 9.14319L16.2723 9.90069L16.2717 9.89915Z" fill="#C99E3D"/>
<path fill-rule="evenodd" clip-rule="evenodd" d="M20.602 8.71871C20.602 8.71871 20.5165 8.75737 20.3614 8.71871C20.368 8.78211 20.357 8.84611 20.3296 8.90365C20.3022 8.96119 20.2594 9.01006 20.206 9.04486C20.0429 8.97881 18.5164 9.11091 18.5164 9.11091C18.5164 9.11091 17.8057 8.98649 17.5843 8.04671C17.4292 7.42131 17.7008 6.55935 17.6114 5.99231C17.4755 5.15724 17.2853 4.99391 17.2658 4.73407C17.2464 4.47423 17.2269 4.40793 17.2269 4.24486C17.1414 4.2254 17.091 4.19827 17.0057 4.19827C16.9863 4.12147 17.0249 4.05439 16.9397 3.91846C16.9863 3.93791 17.3048 3.97683 17.6775 4.33011C17.9847 4.61759 17.9847 4.7223 18.031 4.78067C18.0891 4.83878 18.5592 5.24147 18.7611 5.64287C18.9631 6.04428 19.3553 7.32428 19.4447 7.53395C19.4718 7.61945 19.5302 7.70495 19.6751 7.899C19.9003 8.17881 20.2303 8.6414 20.6031 8.7182L20.602 8.71871Z" fill="#B58634"/>
<path fill-rule="evenodd" clip-rule="evenodd" d="M18.0854 4.7998C18.3207 5.17984 18.5321 5.57416 18.7183 5.98048C18.9474 6.49683 19.0833 6.92025 19.3708 7.26585C19.2154 6.81555 18.9397 5.93004 18.7766 5.61542C18.5941 5.28262 18.2214 4.92422 18.0854 4.80006V4.7998Z" fill="#A88F33"/>
<path fill-rule="evenodd" clip-rule="evenodd" d="M15.4449 11.1846C15.4449 11.1846 15.0527 11.2816 14.3226 11.6661C14.0817 11.7903 13.8528 11.895 13.6314 11.9923C13.0561 12.2524 12.4392 12.4927 11.9497 12.6253C11.9886 12.6719 12.0078 12.6911 12.0078 12.6911C12.0078 12.6911 12.0078 12.8816 12.1128 12.9901C12.0547 13.0485 11.2777 13.5766 11.5071 15.3436C11.6622 15.2854 11.8447 15.2076 11.8719 15.2076C11.9187 15.2156 11.9302 15.3436 11.9884 15.3436C12.0465 15.3436 12.2369 15.2668 12.4389 15.0056C12.4312 15.1106 12.3148 16.1669 12.9399 16.8775C13.0564 16.7416 13.3516 16.291 13.3516 16.291L13.3592 16.1474C13.3592 16.1474 13.3864 15.6464 13.5497 15.1882C13.713 14.7299 14.0312 14.392 14.0312 14.392L15.6929 12.0191L15.4444 11.1843L15.4449 11.1846Z" fill="#E6C367"/>
<path fill-rule="evenodd" clip-rule="evenodd" d="M13.8912 14.669C13.8152 14.7228 13.7313 14.7646 13.6427 14.7932C13.6155 14.6961 13.5766 14.362 13.8057 14.0359C14.0738 13.6435 14.66 13.1348 14.8231 12.7303C14.928 12.4699 14.8814 11.8177 15.8135 10.9826C16.7456 10.1475 17.1104 9.86028 17.1104 9.86028L18.6173 9.10303L20.4697 9.83314L19.5493 13.4402L18.8349 15.1298L15.9933 14.594L13.891 14.669H13.8912Z" fill="#DCBA5A"/>
<path fill-rule="evenodd" clip-rule="evenodd" d="M14.9758 13.6894L15.3294 13.2467V12.9321C15.3294 12.9321 15.7216 12.8272 16.1447 12.3961C16.5679 11.9649 17.1544 11.1378 17.671 11.1882C18.1876 11.2466 18.238 12.3105 18.2575 12.6098C18.277 12.9091 18.343 13.5882 18.4477 13.9536C18.5642 14.3186 17.1895 15.701 17.1895 15.701L16.2558 16.4117L14.9758 13.6894Z" fill="#E9CE77"/>
<path fill-rule="evenodd" clip-rule="evenodd" d="M16.0698 17.3748C16.0698 17.3748 16.3573 16.9243 16.1466 16.8272C16.2708 16.5477 16.4999 16.2525 16.4999 16.2525C16.4999 16.2525 16.663 15.8488 17.1911 15.3516C17.7192 14.8545 18.0456 14.5243 18.1311 14.1904C18.1838 13.9729 18.2125 13.7502 18.2166 13.5264C18.2737 13.573 18.3348 13.6146 18.3992 13.6505C18.4847 13.6894 18.8884 14.0233 18.8303 14.6953C18.7721 15.3673 18.5231 15.6468 18.5231 15.6468C18.5231 15.6468 18.2824 15.8875 18.1117 16.0119C17.9289 16.136 17.8631 16.2796 17.5561 16.2914C17.5877 16.2663 17.6232 16.2466 17.6611 16.2331C17.6611 16.2331 17.3426 16.1944 17.1716 16.3495C17.0006 16.5047 16.6371 16.9826 16.4546 17.1265C16.2721 17.243 16.0706 17.3751 16.0706 17.3751L16.0698 17.3748Z" fill="#CDAE50"/>
<path fill-rule="evenodd" clip-rule="evenodd" d="M28.9826 9.82128C28.5237 9.65406 28.0416 9.55974 27.5536 9.54173C26.738 9.51459 25.5458 9.56118 24.3769 9.56886C23.1186 9.57654 21.9769 9.13776 20.3925 9.06019C20.1324 8.9048 19.4709 8.22512 17.406 9.66589C17.5302 9.65821 18.9051 9.34742 19.3826 9.9457C19.8641 10.5399 19.7282 11.5495 19.6624 11.7902C19.538 12.3262 19.134 13.1068 18.9712 13.6544C18.8084 14.202 18.8468 14.4897 18.7303 14.8737C18.6138 15.2577 18.3576 15.4484 18.5089 15.8911C18.7108 15.7669 18.8161 15.7669 19.1535 15.0096C19.4909 14.2524 19.4215 13.7125 19.9808 13.0717C20.5284 12.4271 21.44 11.5454 21.7867 11.324C22.1333 11.1026 24.8855 9.67357 27.7673 11.0368C28.4624 10.963 28.9828 9.82102 28.9828 9.82102L28.9826 9.82128Z" fill="#D2A83E"/>
<path fill-rule="evenodd" clip-rule="evenodd" d="M18.5669 9.29285C18.564 9.26366 18.5576 9.23494 18.5477 9.20734C18.5207 9.15055 18.4854 9.09816 18.4427 9.05195C18.4427 9.05195 17.7592 8.92779 17.4136 8.96644C16.8077 9.03249 16.2601 9.78206 16.0038 10.1666C15.7476 10.5511 15.4291 11.145 15.0835 11.452C15.0873 11.4221 15.0804 11.3918 15.0641 11.3665C15.0641 11.3665 15.0835 11.3936 15.0449 11.4325C15.0062 11.4714 15.0059 11.4906 15.0254 11.5093L15.0838 11.5674C15.103 11.5674 15.639 11.3265 16.3691 10.6458C17.1458 9.93515 17.74 9.57061 18.0508 9.44568C18.2165 9.37524 18.3898 9.32397 18.5672 9.29285V9.29285H18.5669Z" fill="#C29637"/>
<path fill-rule="evenodd" clip-rule="evenodd" d="M31.8256 6.3728C31.8256 6.3728 31.7012 6.52794 31.5458 6.69895C31.2002 7.064 30.7496 7.4754 30.3651 7.89882C30.0003 8.30279 29.5887 8.61741 29.1263 9.14554C28.664 9.67367 28.1279 10.2599 27.9922 10.4309C27.8681 10.6019 27.7711 10.8815 27.7711 11.0251C27.705 10.9785 27.6274 10.9281 27.6274 10.9281C27.6601 10.989 27.6991 11.0464 27.7439 11.0991C27.8409 11.235 27.9922 11.4063 28.0701 11.5107C28.1655 11.6437 28.2341 11.7941 28.2718 11.9534C28.3184 11.961 28.6174 12.0194 28.9904 11.4058C29.3634 10.7921 29.8523 10.1204 29.8523 10.1204L30.629 8.96685L31.1185 7.98842L31.7329 6.89325L31.8264 6.3728H31.8256Z" fill="#AC8132"/>
<path fill-rule="evenodd" clip-rule="evenodd" d="M32.6217 5.58862C32.6217 5.58862 32.1517 5.97263 31.9691 6.20303C31.7866 6.43343 31.3547 7.0381 31.3547 7.0381L31.5101 7.01865L32.2986 6.31976L32.6058 5.77218L32.6214 5.58965L32.6217 5.58862Z" fill="#A88F33"/>
<path fill-rule="evenodd" clip-rule="evenodd" d="M32.4776 36.4505C32.4776 36.4505 32.47 36.1321 32.6486 35.9419C32.8312 35.7514 33.2933 35.4718 33.7438 34.4233C34.1944 33.3747 34.2445 33.1379 34.2445 33.1379C34.2445 33.1379 33.4369 33.8291 32.9389 33.9922C33.0554 33.7513 33.1215 33.5805 33.1798 33.4561C33.1138 33.398 32.8342 33.3319 32.8071 33.301C32.9622 33.1456 33.0477 32.7649 33.3624 32.5125C33.7663 32.2053 34.5041 31.6774 35.0776 31.2069C35.651 30.7364 36.7784 29.642 36.9223 29.3235C37.0078 29.4476 37.027 29.5252 37.027 29.5252C37.027 29.5252 36.4602 30.2633 36.1651 30.733C35.9047 31.137 35.9242 31.3661 35.9242 31.3661L36.4602 31.1357C36.4602 31.1357 36.6154 31.7104 35.9126 32.5844C36.2198 32.4679 36.3437 32.5378 36.5183 32.4405C36.2309 32.6233 35.8348 32.8719 35.4621 33.5552C35.097 34.2387 34.5999 35.0348 33.7612 35.5317C32.9456 36.056 32.4756 36.4482 32.4756 36.4482L32.4776 36.4505Z" fill="#A67A2E"/>
<path fill-rule="evenodd" clip-rule="evenodd" d="M30.3728 10.2253C30.3728 10.2253 30.0544 10.8891 30.0078 11.4057C30.0001 11.5301 29.9689 11.6272 29.9689 11.7708C29.9612 12.2329 29.996 12.7495 29.8921 12.9901C29.8532 12.8931 29.8337 12.827 29.7948 12.7884C29.7367 12.9514 29.6317 13.4601 29.5462 13.6503C29.5076 13.5262 29.4221 13.0951 29.43 12.5864C29.4379 12.0777 29.4492 11.9804 29.4492 11.8757C29.43 12.0309 29.325 12.2408 29.2861 12.365C29.228 12.2603 29.162 12.1243 29.0842 12.0117C29.0376 12.0885 28.9795 12.2019 28.929 12.2603C28.9211 12.2137 28.9019 12.0892 28.8901 11.9147C28.8824 11.7127 28.8707 11.4526 28.8824 11.398C28.9016 11.2933 29.065 10.8817 29.4106 10.5049C29.8222 10.0543 30.2456 9.18851 30.3698 8.92048C30.4939 8.65245 31.0221 7.53809 31.0221 7.53809H31.426L30.8395 8.87389C30.8395 8.87389 30.4863 9.604 30.3037 9.87229C30.1212 10.1406 29.7367 10.9093 29.5657 11.2083C29.6898 11.0453 29.7948 10.9598 29.9192 10.8044C30.0395 10.6956 30.3734 10.2258 30.3734 10.2258L30.3728 10.2253Z" fill="#8C6228"/>
<path fill-rule="evenodd" clip-rule="evenodd" d="M32.6292 5.5376C32.5632 5.74069 32.4589 5.92926 32.322 6.09312C32.0811 6.38061 31.5645 6.76486 31.3123 7.07155C31.0819 7.37056 30.6211 8.18617 30.8305 9.15309C30.9073 8.94342 31.052 8.52793 31.4365 8.05792C31.821 7.5879 32.2326 7.04825 32.4349 6.62893C32.6366 6.2055 32.6637 5.87168 32.6637 5.87168L32.7405 5.77465L32.6939 5.55321L32.6279 5.5376H32.6292Z" fill="#CBA94C"/>
<path fill-rule="evenodd" clip-rule="evenodd" d="M40.4933 31.297C40.4933 31.297 40.3379 30.8738 40.2913 30.4893C40.2447 30.1048 40.3681 30.0285 40.2252 29.5884C40.1397 29.3204 39.9846 29.358 39.9457 29.3204C39.9068 29.2828 39.8796 28.8778 39.8873 28.6563C39.895 28.4349 39.8796 28.1476 39.8407 28.0232C39.7826 27.9766 39.7437 27.9377 39.6582 27.6505C39.5612 27.363 39.5146 27.2194 39.468 27.1341C39.4214 27.0489 39.2852 26.9711 39.2852 26.8856C39.2852 26.7146 39.4406 26.6255 39.4406 26.5784C39.4329 26.4813 39.3164 26.5592 39.2852 26.5318C39.2465 26.4852 39.3825 26.2056 39.332 26.1667C39.3126 26.1475 39.1766 26.3106 39.1416 26.264C39.1027 26.2171 39.0561 25.7551 38.9862 25.4484C38.9204 25.1494 38.8502 24.932 38.8426 24.8427C38.8349 24.7572 38.3065 23.2504 38.1785 22.8853C38.0753 22.5768 37.9885 22.2631 37.9184 21.9455C37.8795 21.763 37.8524 21.39 37.8329 21.4289C37.8134 21.4678 37.8252 21.658 37.794 21.6504C37.7668 21.6424 37.6698 20.9786 37.6388 20.8737C37.6117 20.7687 37.4484 20.4129 37.4084 20.1553C37.3695 19.895 37.2843 19.2153 37.2259 18.7532C37.1676 18.2911 37.1404 18.1009 37.1404 17.9852C37.15 17.7022 37.1344 17.4189 37.0938 17.1386C37.017 16.6492 36.8634 16.055 36.7288 15.7096C36.4687 15.0571 35.7772 13.3872 35.6536 12.9717C35.6536 12.8668 35.7895 12.9251 35.7895 12.9251C35.7895 12.9251 36.1272 13.7717 36.3757 14.424C36.6166 15.0765 36.8458 15.6513 36.9041 15.7096C36.9507 15.7677 37.3158 16.4085 37.4788 17.4571C37.6419 18.5057 37.7 19.4726 37.7973 20.1172C37.8439 20.4244 37.8828 20.7503 37.9798 21.0764C38.0845 21.43 38.2476 21.795 38.4614 22.3541C38.6439 22.8241 38.7798 23.2163 38.8536 23.5542C38.9391 23.9853 38.9391 24.3115 38.9895 24.5252C39.0364 24.7078 39.106 25.0726 39.2693 25.6004C39.4326 26.1283 39.673 26.8083 39.8361 27.2314C40.1548 28.078 40.2969 28.7848 40.345 29.1617C40.3875 29.55 40.5314 30.8938 40.4925 31.2975L40.4933 31.297Z" fill="#A88F33"/>
<path fill-rule="evenodd" clip-rule="evenodd" d="M32.6487 5.49128L32.6292 5.53787C32.6292 5.53787 32.6873 5.55733 32.6758 5.63515C32.6766 5.74163 32.6701 5.84803 32.6564 5.95362C32.6372 6.08955 32.5982 6.19426 32.5906 6.27976C32.5906 6.46229 32.6177 6.67195 32.3602 7.1924C32.2834 7.33602 32.236 7.46018 32.1971 7.54568C32.1001 7.75535 32.0806 7.78658 31.9951 7.8836C32.1311 7.8068 32.6205 7.4996 32.8688 7.54568C32.6981 7.64271 32.4377 7.83317 32.2747 8.08175C32.3136 8.08943 32.4766 8.12066 32.7355 8.08175C33.1666 8.0157 33.6481 7.86031 34.0713 7.89128C34.5336 7.91842 34.3511 7.33602 34.3511 7.33602L33.8176 6.16328L32.8079 5.45288L32.6487 5.49154V5.49128Z" fill="#BE9C44"/>
<path fill-rule="evenodd" clip-rule="evenodd" d="M35.2817 14.276C35.2817 14.276 34.8311 13.8254 34.6486 12.2792C34.4661 10.7258 34.505 8.43917 34.505 8.43917L34.1399 7.54599C34.1399 7.54599 34.0631 6.95181 33.8719 6.73063C33.6807 6.50945 33.3051 6.13645 33.1341 5.95393C32.9631 5.7714 32.7691 5.52282 32.6526 5.48391C32.7107 5.38689 32.9711 4.8393 33.9689 4.83162C34.9668 4.82394 35.2745 5.37921 35.3787 5.58119C35.4829 5.78317 35.9535 6.65639 36.128 8.32039C36.2911 9.98234 36.2991 10.1068 36.2719 10.6815C36.2525 10.9999 36.1475 11.7377 35.9647 12.526C35.7978 13.1941 35.6153 13.9398 35.2812 14.2775L35.2817 14.276Z" fill="#A17C34"/>
<path fill-rule="evenodd" clip-rule="evenodd" d="M33.8688 15.6003C34.019 15.6112 34.169 15.5773 34.3 15.503C34.4436 15.4954 34.964 15.5614 35.3639 15.0527C35.391 15.169 35.4612 15.4838 35.2784 15.7634C35.3757 15.6661 35.5193 15.6275 35.5388 15.6003C35.5464 15.7439 35.6824 16.1866 35.1076 17.2623C35.2628 17.0915 35.4453 17.0992 35.6084 17.0797C35.6163 17.2817 35.7249 17.9611 35.4376 18.3265C35.2474 18.575 34.9366 18.4972 34.9366 18.4972C34.9412 18.4429 34.9412 18.3884 34.9366 18.3341C34.929 18.2292 34.89 18.1245 34.9174 18.0546C34.7673 17.986 34.6305 17.8912 34.5135 17.7748C34.1755 17.4563 33.7367 16.9128 33.7058 16.5089C33.6669 16.0583 34.0708 15.9613 34.0708 15.9613C34.037 15.931 34.0081 15.8956 33.9853 15.8563C33.9659 15.7905 33.9464 15.6856 33.8688 15.6003V15.6003Z" fill="#8C6228"/>
<path fill-rule="evenodd" clip-rule="evenodd" d="M30.8737 10.7146C30.8737 10.7146 30.8542 10.6875 30.7495 10.8117C30.769 10.6875 30.7884 10.5708 30.7961 10.4581C30.8457 10.3539 30.9098 10.2571 30.9866 10.1709C30.9282 10.2871 30.8893 10.3921 30.8893 10.3921C30.8893 10.3921 31.0332 10.1241 31.2428 9.96098C31.3864 9.8445 31.569 9.79023 31.6465 9.68143C31.732 9.56495 31.7126 9.5455 31.732 9.52604C31.732 9.52604 31.9225 9.40188 32.2138 9.03657C32.2525 8.98998 32.3108 8.93954 32.3498 8.89295C32.4155 8.86582 32.5709 8.79593 32.7535 8.70249C32.9439 8.59778 33.1574 8.45417 33.2895 8.39529C33.5496 8.27881 33.8256 8.29058 33.9536 8.1078C34.0506 8.08066 34.1553 7.78934 34.1361 7.54102C34.2797 7.59913 35.0175 8.05737 35.2702 9.05935C35.4527 9.77001 35.1263 10.8652 34.9904 11.3936C34.8544 11.9219 34.8352 12.3139 34.6448 12.5545C34.4039 12.8732 33.6274 13.3225 33.437 13.545C33.2739 13.7275 32.7847 14.1896 32.8039 14.5234C32.8234 14.772 33.13 14.9074 33.1963 14.9545C33.2626 15.0016 33.2621 15.0595 33.3866 15.0313C33.511 15.0032 33.5573 14.9458 33.608 14.9458C33.6661 14.9535 33.6661 14.9653 33.6932 14.9653C33.7129 14.9647 33.7325 14.962 33.7516 14.9573C33.7516 14.9573 33.7321 15.3109 32.905 15.4181C32.8466 15.4261 32.7885 15.4453 32.7146 15.457C32.8118 15.4105 32.8699 15.4105 32.9749 15.2668C32.8584 15.2474 32.5243 15.2279 32.4388 15.2008C32.466 15.1542 32.5553 15.0298 32.629 14.9717C32.6951 14.9136 32.6214 14.8949 32.5633 14.9251C32.4632 14.9932 32.3672 15.067 32.2758 15.1463C32.1787 15.2318 32.0932 15.3482 31.9379 15.4535C31.8913 15.2981 31.8989 15.0029 32.0817 14.7894C32.0349 14.7971 31.9455 14.933 31.8603 14.9059C31.8449 14.7642 31.8541 14.621 31.8874 14.4825C31.934 14.3076 32.1864 14.0009 32.1864 14.0009L33.4058 11.8221L33.6658 10.1717L30.8737 10.7141V10.7146Z" fill="#92723A"/>
<path fill-rule="evenodd" clip-rule="evenodd" d="M30.8079 10.8077C30.8079 10.8077 30.7419 10.8543 30.874 10.9436C30.8545 10.9708 30.8079 11.0678 30.7495 11.1338C30.6837 11.2106 30.6136 11.2583 30.5865 11.3243C30.5284 11.4602 30.4818 11.5534 30.4818 11.6118C30.4818 11.6702 30.4623 12.0429 30.2992 12.2835C30.2409 12.369 30.1748 12.5127 30.1282 12.6097C30.0312 12.7804 29.9457 12.9169 29.9262 12.9937C29.8876 13.1296 29.8604 13.5023 29.8604 13.5023C29.8604 13.5023 29.9459 13.3974 29.9769 13.3587C29.9301 13.4558 29.8796 13.5605 29.8059 13.6383C29.8525 13.5994 29.9884 13.5023 30.2176 13.3004C30.536 13.0326 31.0332 12.582 31.6392 12.2252C31.4564 12.2912 31.3012 12.2912 31.1771 12.3107C31.2741 12.2136 32.1478 11.1884 32.6061 11.0913C32.6339 11.0561 32.6477 11.0118 32.645 10.9669L32.2525 10.9283L31.4564 11.099L31.3401 10.4846L30.8079 10.8069V10.8077Z" fill="#B18E3E"/>
<path fill-rule="evenodd" clip-rule="evenodd" d="M32.0739 14.3031C32.0739 14.3031 31.9689 14.4078 31.8719 14.6681C31.7972 14.5901 31.7332 14.5026 31.6814 14.4078C31.5378 14.1672 31.3166 13.8602 30.8 14.0351C30.7924 13.872 30.7806 13.7865 30.8 13.67C30.8855 13.6508 31.1456 13.4411 31.4057 13.1342C31.5885 12.9245 31.7593 12.6836 31.8757 12.3769C31.9525 12.3186 32.0854 12.2216 32.2597 12.1089C32.5083 11.9382 32.8073 11.7049 32.8539 11.4448C32.7374 11.4914 32.4889 11.6079 32.1159 11.5887C32.2597 11.5227 32.4809 11.4528 32.4538 11.1653C32.5122 11.1264 32.5588 11.0992 32.5588 11.0992C32.515 11.0846 32.4689 11.0781 32.4228 11.0798C32.4149 11.0527 32.4034 11.014 32.3373 11.0332C32.2713 11.0524 32.2605 11.0527 32.2518 11.0798C32.2247 11.0877 32.1353 11.0798 32.0693 11.1266C32.0032 11.1735 31.8207 11.3284 31.7508 11.3555C31.778 11.3089 31.8166 11.2393 31.8166 11.2393C31.8166 11.2393 31.6264 11.2585 31.4905 11.3161C31.2419 11.4016 30.9547 11.557 30.6633 11.7083C30.6905 11.6617 30.7022 11.6315 30.7214 11.6228C30.7406 11.6141 30.7875 11.6036 30.7875 11.5956C30.7875 11.5877 30.7683 11.5188 30.7798 11.4909C30.8669 11.3064 30.9697 11.1297 31.087 10.9628C31.2229 10.78 31.2501 10.5199 31.2501 10.5199L31.8443 10.2209L33.5141 9.83691L34.5978 9.90296L34.4619 10.6525L33.8219 11.9612L33.2743 13.1534L32.6489 13.8838L32.0741 14.3031H32.0739Z" fill="#543E26"/>
<path fill-rule="evenodd" clip-rule="evenodd" d="M34.7806 11.0593C34.7806 11.0593 34.1281 11.867 33.9455 11.9914C34.062 11.7428 34.7806 10.2631 35.0407 9.8515C34.9826 9.8049 34.9048 9.8049 35.0873 9.0835C34.9322 9.4483 34.8776 9.63876 34.7496 9.73578C34.6216 9.83281 34.6058 9.80183 34.5192 9.80183C34.5356 9.77228 34.5423 9.73836 34.5384 9.70481C34.5384 9.70481 33.9909 9.63876 33.6168 9.63876C33.2428 9.63876 32.5025 9.84074 32.0906 10.0038C31.7644 10.1398 31.5819 10.1398 31.4654 10.225C31.349 10.322 31.2829 10.427 31.2245 10.4541C31.1779 10.4813 30.9568 10.5511 30.9061 10.6249C30.8595 10.7017 30.7819 10.7879 30.7819 10.8074C30.7819 10.8269 30.7625 10.8542 30.8208 10.8345C30.84 10.8269 30.9839 10.749 31.147 10.652C31.3682 10.5278 31.6362 10.3842 31.8305 10.2987C32.3857 10.0773 32.5606 10.1162 32.8089 10.0696C33.069 10.023 33.442 9.91422 33.6903 9.91422C33.9389 9.90654 34.4089 9.91422 34.5177 9.93367C34.4711 9.97258 34.4322 10.0192 34.4517 10.1822C34.4517 10.2288 34.4127 10.2793 34.3749 10.3919C34.2586 10.7104 34.0372 11.2385 33.9141 11.5065C33.7433 11.8713 33.5493 12.1783 33.4533 12.3685C33.3573 12.5587 33.1461 13.0597 32.9369 13.3277C32.7278 13.5958 32.6185 13.7588 32.5529 13.8172C32.4874 13.8756 32.0169 14.2209 32.0519 14.3453C32.1374 14.3182 32.6773 14.1149 33.0693 13.6736C33.4612 13.2322 33.5393 12.9629 33.846 12.722C34.1526 12.4811 34.3935 12.0774 34.5372 11.7436C34.6575 11.4328 34.6303 11.3358 34.7816 11.0601L34.7806 11.0593Z" fill="#806031"/>
<path fill-rule="evenodd" clip-rule="evenodd" d="M20.7184 17.0875C20.7184 17.0875 20.6329 17.4408 20.4386 17.6156C20.2484 17.7866 19.9105 17.9341 19.8718 18.2216C19.8252 18.5088 20.2098 18.6527 20.2098 18.6527C20.2098 18.6527 19.9998 18.9983 19.9998 19.2584C19.9998 19.5264 19.9922 19.5768 20.0193 19.8331C19.9885 19.8529 19.9623 19.8791 19.9425 19.9099C19.9425 19.9099 19.9617 20.1585 20.1522 20.3136C20.3426 20.4687 20.5054 20.5622 20.6025 20.5233C20.6173 20.5549 20.6303 20.5874 20.6414 20.6205C20.6414 20.6205 20.7853 20.2555 20.8823 19.937C20.9793 19.6109 21.0648 19.6572 21.1035 19.2184C21.1421 18.7796 21.5643 18.0262 21.5643 18.0262L21.8523 17.3824L21.3825 17.0173L20.7184 17.0872V17.0875Z" fill="#B6903C"/>
<path fill-rule="evenodd" clip-rule="evenodd" d="M21.5923 17.7205C21.4955 17.8199 21.406 17.9263 21.3248 18.0389C21.2006 18.2099 21.1036 18.3651 20.9211 18.4314C20.7386 18.4977 20.6221 18.4972 20.6336 18.6799C20.6451 18.8627 20.8161 18.94 20.9131 19.0332C21.0181 19.1303 21.1036 19.2933 21.057 19.4761C21.1151 19.449 21.2201 19.4177 21.3171 19.2081C21.4141 18.9984 22.0928 17.7207 22.0928 17.7207H21.5923V17.7205Z" fill="#685026"/>
<path fill-rule="evenodd" clip-rule="evenodd" d="M24.269 14.7728C24.269 14.7728 24.3271 14.6176 24.269 14.505C24.2106 14.3885 23.8573 14.3496 23.6825 14.2175C23.5 14.0816 23.2785 13.9871 23.096 14.0468C23.1231 13.9807 23.2319 13.8368 23.1426 13.8059C23.0571 13.7787 22.7389 13.9223 22.6534 13.9884C22.5679 14.0544 22.3736 14.132 22.3349 14.1789C22.2963 14.2257 22.23 14.3148 22.191 14.2759C22.1521 14.2487 22.1329 14.1789 22.0669 14.2175C22.0008 14.2562 21.6829 14.5165 21.6243 14.6681C21.5656 14.8196 21.4338 15.1575 21.0378 15.5418C20.6417 15.926 20.4707 16.1749 20.5872 16.3185C20.7037 16.4621 20.7582 16.3574 20.7777 16.4816C20.7926 16.6035 20.786 16.727 20.7582 16.8466C20.7116 17.0486 20.634 17.2388 20.7388 17.2777C21.0068 17.3632 21.2671 17.2009 21.3252 17.2506C21.4417 17.3553 21.2592 17.7321 21.5349 17.8059C21.8147 17.8827 22.0904 17.7398 22.0904 17.7398L23.1078 17.1922L24.0865 16.6759L24.5872 15.6854L24.3187 14.8583L24.2675 14.7728H24.269Z" fill="#D4B968"/>
<path fill-rule="evenodd" clip-rule="evenodd" d="M23.3088 17.1378C23.3088 17.1378 23.1378 16.8777 23.3477 16.6483C23.5577 16.419 23.8564 16.3222 23.9729 16.1786C23.9507 16.1512 23.921 16.131 23.8874 16.1205C23.9647 15.9821 24.0827 15.8709 24.2253 15.8017C24.1672 15.7436 24.0894 15.697 24.0041 15.697C23.8137 15.697 23.6969 15.8135 23.5223 15.8135C23.3516 15.8135 23.3321 15.728 23.3321 15.728C23.3321 15.728 23.6196 15.7009 23.5922 15.5726C23.5651 15.4367 23.5154 15.4367 23.5154 15.4367C23.5154 15.4367 24.0707 15.2063 24.1677 15.0834C24.2647 14.9605 24.2532 14.8154 24.2727 14.7573C24.3385 14.7573 24.723 14.5553 24.8784 14.6408C25.0337 14.7263 24.9249 14.9593 24.9249 14.9593C24.9249 14.9593 25.3952 14.6057 25.6348 14.2591C25.8445 14.2785 25.942 14.1155 26.0956 14.1155C26.2861 14.1155 26.5851 14.3756 26.6432 14.9308C26.6821 15.2493 26.7402 15.4318 26.6821 15.995C26.655 16.3135 26.6627 16.9934 26.7589 17.3308C26.8247 17.5989 26.9801 17.5717 26.9801 17.5717C26.9563 17.6534 26.909 17.7263 26.8442 17.7814C26.7392 17.8784 26.7277 18.1349 26.7392 18.232C26.7547 18.3029 26.7742 18.3729 26.7976 18.4416C26.7976 18.4416 26.6734 18.5852 26.6422 18.6825C26.615 18.7795 26.487 18.8456 26.3936 18.8456C26.3002 18.8456 26.347 18.8376 26.2229 18.8456C26.0987 18.8535 26.0598 18.8727 25.982 18.8456C25.9041 18.8184 25.846 18.7872 25.8773 18.5384C25.9044 18.2898 24.918 17.7112 24.918 17.7112L23.3052 17.1365L23.3088 17.1378Z" fill="#CCA849"/>
<path fill-rule="evenodd" clip-rule="evenodd" d="M21.4564 19.592C21.4564 19.592 21.8096 20.062 23.2622 20.062C23.9534 20.062 24.1943 19.996 24.3374 19.9571C24.4928 19.9181 25.0752 19.6893 25.6617 18.9978C26.1898 18.3727 26.0733 18.1164 26.0733 18.1164L25.7661 18.0698L24.7677 18.2058L21.8135 19.464L21.4551 19.592H21.4564Z" fill="#585136"/>
<path fill-rule="evenodd" clip-rule="evenodd" d="M22.5397 19.7086C22.5397 19.7086 21.2815 19.9884 21.2815 19.1923C21.2815 18.4156 22.0582 17.6 22.2525 17.4564C22.4545 17.3125 22.936 17.1492 22.936 17.1492H24.0972L24.3184 17.7357L24.2214 19.0016L22.5397 19.7084V19.7086Z" fill="#252211"/>
<path fill-rule="evenodd" clip-rule="evenodd" d="M23.7008 17.3865C23.7008 17.3865 23.4602 17.165 22.9126 17.4633C22.365 17.7615 21.9221 18.3849 21.895 18.9509C21.8679 19.4516 22.3066 19.8246 22.9902 19.8441C23.4988 19.8633 23.8058 19.8051 23.9612 19.7673C23.9223 19.7207 23.7203 19.4683 23.7203 19.4683L23.7011 17.3867L23.7008 17.3865Z" fill="#C3B378"/>
<path fill-rule="evenodd" clip-rule="evenodd" d="M23.4643 17.5104C23.4643 17.5104 23.4062 17.4638 23.2339 17.557C23.0903 17.6338 22.8806 17.8368 22.7175 17.9804C22.6126 18.0659 22.5465 18.1046 22.4871 18.1706C22.2462 18.4581 22.0443 18.9281 22.161 19.1611C22.2777 19.3941 22.662 19.6621 23.6407 19.4796L23.4615 17.5107L23.4643 17.5104Z" fill="#E6D89C"/>
<path fill-rule="evenodd" clip-rule="evenodd" d="M23.1457 17.9922C23.1457 17.9922 22.9903 18.2331 22.9903 18.6176C22.9903 19.0098 23.2117 19.635 24.0273 19.6816C24.6525 19.7205 25.0718 18.7807 25.5262 18.4157C25.8718 18.1361 26.0815 18.1282 26.0815 18.1282C26.0815 18.1282 25.7282 17.7442 24.7846 17.2468C23.8525 16.7458 22.8078 16.6797 22.2407 17.4487C22.5088 17.4293 23.3748 17.2078 23.3748 17.2078L23.7982 17.3438L23.1457 17.9925V17.9922Z" fill="#252211"/>
<path fill-rule="evenodd" clip-rule="evenodd" d="M24.3649 18.5008C24.3378 18.4427 24.3183 18.3649 24.4309 18.3457C24.5436 18.3265 24.594 18.3377 24.6329 18.4225C24.6718 18.5072 24.7097 18.5778 24.6521 18.6129C24.594 18.6439 24.4425 18.6129 24.3646 18.5003L24.3649 18.5008ZM24.1824 17.9532C24.1824 17.9532 24.1435 17.9803 24.1629 17.9261C24.1706 17.8603 24.2213 17.7435 24.3454 17.7709C24.4696 17.7983 24.4427 17.934 24.4222 17.9729C24.4018 18.0118 24.2981 18.0776 24.2203 18.0497C24.2104 18.0472 24.2013 18.0424 24.1936 18.0357C24.1859 18.029 24.18 18.0205 24.1762 18.0111C24.1724 18.0016 24.1709 17.9914 24.1718 17.9813C24.1727 17.9711 24.176 17.9613 24.1814 17.9527L24.1824 17.9532Z" fill="#6F674D"/>
<path fill-rule="evenodd" clip-rule="evenodd" d="M13.6707 18.2017C13.6707 18.2017 13.9779 18.4321 14.3347 18.4231C14.688 18.4152 15.1424 18.0504 15.3521 17.8172C15.4762 17.6812 15.5825 17.5376 15.6977 17.425C15.7949 17.3279 15.8607 17.2813 15.9073 17.2153C15.9734 17.1385 16.0433 16.9941 16.0783 16.9473C15.9928 17.0133 15.8687 17.13 15.7404 17.2076C15.6163 17.2844 15.3482 17.4288 15.2394 17.4677C15.1347 17.5066 14.0472 18.0821 14.0472 18.0821L13.6707 18.2017Z" fill="#AC924C"/>
<path fill-rule="evenodd" clip-rule="evenodd" d="M14.1399 15.332C14.1399 15.332 14.3106 15.2155 14.6409 15.1416C14.9593 15.0648 15.6001 15.0056 15.6001 15.0056L16.1282 15.236L16.3379 16.0322L15.9539 16.8596L15.4647 17.1668L14.9092 16.2736L14.1412 15.3336L14.1399 15.332Z" fill="#9F8E57"/>
<path fill-rule="evenodd" clip-rule="evenodd" d="M13.4489 16.0428L13.2661 16.1792C13.2661 16.1792 13.313 16.0937 13.3516 15.8336C13.3903 15.5735 13.5925 14.9404 13.8877 14.5754C14.1828 14.2103 14.1752 14.2298 14.1752 14.2298C14.148 14.2248 14.1201 14.2257 14.0933 14.2323C14.0665 14.239 14.0414 14.2513 14.0198 14.2684C14.0587 14.1824 14.3073 13.8752 14.5558 13.7216C14.8044 13.568 14.9014 13.5196 15.1615 13.6448C15.4216 13.77 15.4877 13.835 15.6781 13.8273C15.8686 13.8197 16.0314 13.6177 16.0314 13.6177C16.0314 13.6177 16.0703 13.7418 15.9267 14.0293C15.7831 14.3168 15.2161 14.9031 15.2161 14.9031L14.0354 15.7107L13.4489 16.0435V16.0428Z" fill="#EAC970"/>
<path fill-rule="evenodd" clip-rule="evenodd" d="M14.3223 15.2352C14.3223 15.2352 15.1768 15.3517 15.4369 15.1111C15.4446 15.1382 15.4759 15.1382 15.4759 15.1577C15.4738 15.1723 15.4669 15.1859 15.4564 15.1963C15.4847 15.1918 15.5133 15.1892 15.5419 15.1886C15.5761 15.1988 15.6113 15.2053 15.6469 15.2081C15.6755 15.2075 15.7041 15.2048 15.7324 15.2001C15.7297 15.2195 15.7231 15.238 15.7131 15.2547C15.703 15.2714 15.6898 15.286 15.674 15.2974C15.7129 15.2974 15.7508 15.3051 15.7508 15.3361C15.7508 15.3671 15.7585 15.4605 15.7119 15.48C15.6733 15.4906 15.6322 15.4878 15.5954 15.472C15.5985 15.5455 15.6185 15.6174 15.6538 15.6819C15.7306 15.8256 15.8944 15.9891 16.1146 15.942C16.1146 15.942 16.2308 16.2216 15.7416 16.8429C15.6758 16.9284 15.6056 17.0449 15.5204 17.1419C15.4867 17.2153 15.461 17.2921 15.4436 17.371C15.4436 17.371 16.271 17.0526 16.5078 16.3263C16.7487 15.5962 16.7953 14.8778 16.7487 14.2061C16.7407 14.0156 16.7098 13.88 16.6632 13.7827C16.5467 13.5418 16.2203 13.5807 16.0885 13.7166C15.898 13.9071 15.5795 14.3807 15.1369 14.7068C14.6863 15.033 14.6671 15.0908 14.3213 15.2352H14.3223Z" fill="#D7BC6B"/>
<path fill-rule="evenodd" clip-rule="evenodd" d="M13.2971 16.2838C13.2971 16.2838 13.134 16.3809 13.0485 16.7446C12.963 17.1174 13.1253 17.5718 13.2193 17.7154C13.3132 17.859 13.5265 18.2515 13.9688 18.2709C14.0783 18.2703 14.1866 18.2479 14.2873 18.2049C14.4417 18.1341 14.5866 18.044 14.7184 17.9368C14.9089 17.7932 15.064 17.6691 15.0446 17.6573C14.998 17.6378 13.8718 16.7057 13.8718 16.7057L13.4484 16.2332L13.2968 16.2844L13.2971 16.2838Z" fill="#585136"/>
<path fill-rule="evenodd" clip-rule="evenodd" d="M14.3618 17.8292C14.3618 17.8292 14.5909 17.81 14.7268 17.7245C14.8628 17.639 13.9307 16.7148 13.9307 16.7148L13.9967 17.7132L14.3618 17.8292Z" fill="#453A25"/>
<path fill-rule="evenodd" clip-rule="evenodd" d="M13.3711 16.2133C13.3711 16.2133 13.2546 16.4348 13.2546 16.4931C13.2351 16.6833 13.2935 17.2814 13.3401 17.4716C13.3867 17.6736 13.6391 17.9802 13.9655 17.9802C14.1672 17.9802 14.447 17.8561 14.447 17.8251C14.447 17.7862 14.1595 17.7483 14.082 17.6037C14.0354 17.5269 14.0159 17.3359 14.0052 17.1429C13.9975 17.0187 13.9975 16.8828 14.0441 16.8357C14.149 16.7192 14.1682 16.3851 14.1682 16.3851L14.541 15.6926H14.0507L13.4642 16.0577L13.3711 16.2133Z" fill="#84754B"/>
<path fill-rule="evenodd" clip-rule="evenodd" d="M13.2275 16.4272C13.2275 16.4272 13.6115 15.9186 13.9576 15.8018C14.3038 15.6851 14.4586 15.7552 14.4586 15.7552L14.2567 16.2718L13.9692 16.5903L13.9886 16.7534C13.9886 16.7534 13.9418 17.1845 14.2293 17.4835C14.5167 17.7825 14.7302 17.771 14.8547 17.771C14.9791 17.771 15.3362 17.666 15.5187 17.2349C15.6818 16.8312 15.8177 16.3133 15.4916 15.7941C15.1729 15.2775 14.6099 15.2576 14.5011 15.2576C14.3923 15.2576 13.5381 15.3003 13.2275 16.4265V16.4272Z" fill="#252211"/>
<path fill-rule="evenodd" clip-rule="evenodd" d="M23.0875 18.1552C22.9439 18.0891 23.0798 17.6854 23.2234 17.561C23.367 17.4366 23.5496 17.2932 23.8683 17.2735C23.9845 17.2658 24.0972 17.3395 24.078 17.4174C24.0508 17.561 23.8488 17.763 23.6663 17.9066C23.4139 18.1047 23.2506 18.2289 23.0875 18.1552Z" fill="#F7F7E7"/>
<path fill-rule="evenodd" clip-rule="evenodd" d="M15.3204 15.9534C15.4253 15.9457 15.5613 16.0302 15.5884 16.1438C15.6155 16.268 15.5223 16.5166 15.3204 16.5166C15.1573 16.5166 15.0718 16.3146 15.0718 16.2565C15.0736 16.2087 15.087 16.1621 15.1107 16.1205C15.1184 16.1088 15.1378 15.9728 15.3204 15.9534V15.9534Z" fill="#F8F6DE"/>
<path fill-rule="evenodd" clip-rule="evenodd" d="M13.8056 16.043C13.8056 16.043 13.5376 16.1671 13.4134 16.427C13.3247 16.6188 13.2979 16.8336 13.3366 17.0414C13.3561 17.1384 13.4531 17.379 13.5191 17.4645C13.5852 17.55 13.6745 17.6084 13.7406 17.6005C13.8066 17.5925 13.9423 17.4179 13.9423 17.3132C13.9423 17.2085 13.9502 16.7656 14.0782 16.5248C14.1909 16.2841 13.8064 16.0432 13.8064 16.0432L13.8056 16.043Z" fill="#D4C38B"/>
<path fill-rule="evenodd" clip-rule="evenodd" d="M13.8445 16.0234C13.7979 16.0505 13.7204 16.0894 13.7396 16.1399C13.759 16.1864 13.9221 16.2167 13.9805 16.3303C14.0465 16.4468 14.0465 16.571 14.0271 16.6293C14.0778 16.6052 14.1238 16.5723 14.163 16.532C14.2485 16.435 14.3532 16.3032 14.4425 16.3032C14.5009 16.3032 14.559 16.3303 14.6136 16.3303C14.6991 16.3303 14.7843 16.3032 14.7961 16.2138C14.8153 16.0974 14.633 15.9924 14.5281 16.0119C14.5475 15.9351 14.5746 15.8216 14.4891 15.7438C14.4036 15.666 14.1359 15.8022 14.0775 15.8411C14.0191 15.88 13.8445 16.0236 13.8445 16.0236V16.0234Z" fill="#E2D59D"/>
<path fill-rule="evenodd" clip-rule="evenodd" d="M20.0158 24.1824L20.5906 24.0127L20.7536 24.1292C20.7536 24.1292 20.8699 24.3778 21.0526 24.4087C20.9943 24.5329 20.8427 24.6391 20.8507 24.7272C20.8586 24.8153 20.9362 24.8826 20.9362 24.8826C20.9362 24.8826 20.4196 25.7369 21.4372 26.5978C21.1963 26.6948 20.8896 26.8282 20.7265 26.905C20.8427 26.9321 21.0913 26.9818 21.1963 27.076C21.3012 27.1702 21.3012 27.2002 21.3982 27.2585C21.4953 27.3169 21.5534 27.3945 21.5342 27.4293C21.4681 27.3904 21.2467 27.2741 21.208 27.3827C21.1694 27.4912 20.2488 27.4487 20.2488 27.4487L18.6954 27.7477C18.6954 27.7477 18.7535 27.5923 18.5904 27.4487C18.4002 27.278 18.1673 27.4564 17.9187 27.2662C17.5926 27.0176 17.5808 26.7301 17.4761 26.6216C17.5808 26.5555 17.7945 26.4585 18.3032 26.3912C18.2838 26.3523 18.2177 26.2358 18.2566 26.1311C18.3032 25.9952 18.4973 25.9097 18.4391 25.7471C18.5246 25.7276 18.5633 25.7276 18.7771 25.4596C18.979 25.1916 19.1032 25.1335 19.2586 25.114C19.414 25.0946 19.5072 25.114 19.7947 24.846C19.9964 24.6558 19.9306 24.4927 19.9306 24.4927C19.9306 24.4927 20.0624 24.4499 20.0161 24.1819L20.0158 24.1824Z" fill="#CBAC5A"/>
<path fill-rule="evenodd" clip-rule="evenodd" d="M18.3185 24.2688C18.3262 24.2299 18.3574 24.2105 18.5671 24.2299C18.7768 24.2494 20.1049 24.1058 20.4661 24.0863C20.8312 24.0592 22.1165 24.0784 22.742 24.2105C23.3674 24.3426 24.0002 24.4979 24.3069 24.5755C24.6141 24.661 24.7109 24.6917 24.6991 24.7306C24.6914 24.7696 24.6223 24.8074 24.5826 24.7967C24.5439 24.789 23.5263 24.4782 23.212 24.4127C22.8976 24.3472 21.8099 24.1718 21.2152 24.1823C20.6599 24.1902 20.4385 24.1746 19.9687 24.2289C19.4987 24.2873 18.722 24.3648 18.489 24.3339C18.2586 24.3067 18.3062 24.3067 18.318 24.2678L18.3185 24.2688Z" fill="#D6BC6F"/>
<path fill-rule="evenodd" clip-rule="evenodd" d="M21.4447 27.3126C21.4447 27.3126 22.2408 27.7437 22.5283 28.2718C22.738 28.664 22.4042 28.8583 22.4042 28.8583C22.4042 28.8583 22.8547 28.8583 22.7963 29.1069C22.7692 29.2621 22.0196 29.6814 21.5186 29.9028C21.01 30.1243 21.0294 30.1127 20.7809 30.1514C20.54 30.1903 19.8797 30.0746 19.7438 30.2679C19.6079 30.4612 19.667 30.6603 19.7049 30.6913C19.7438 30.7184 20.0584 30.7573 20.0584 30.7573C20.0584 30.7573 19.9924 30.9399 19.3401 30.9593C18.6878 30.9788 18.5245 31.0251 18.4856 31.0953C18.4466 31.1611 18.6097 31.1224 18.909 31.1721C19.208 31.2187 19.6273 31.2489 19.6273 31.2489C19.6273 31.2489 19.4914 31.3653 19.1381 31.4585C18.7341 31.5632 18.101 31.6605 17.9108 31.777C18.0079 31.843 18.1517 31.9401 18.218 31.9477C18.055 31.9866 17.8256 32.0722 17.7869 32.1031C17.845 32.142 17.9229 32.1886 17.9229 32.1886C17.9229 32.1886 17.5965 32.5808 17.4063 32.6781C17.216 32.7754 16.1209 33.2838 15.744 33.1868C14.8043 32.9382 14.6878 31.9091 14.4587 31.8315C14.1131 31.715 13.95 31.9477 13.6431 31.7847C13.779 31.6876 13.853 31.6295 13.9966 31.5635C13.8412 31.4867 13.0374 30.977 13.0374 30.977C12.9533 30.7938 12.86 30.6149 12.7578 30.4412C12.6024 30.1732 12.3738 29.8158 12.2023 29.5012C11.8295 28.81 11.8101 28.4915 11.4722 28.0993C11.5305 28.0225 11.7323 28.0333 11.7323 28.0333L14.5636 28.9653L19.5841 29.1108L20.8897 27.2468L21.4449 27.3129L21.4447 27.3126Z" fill="#DFC677"/>
<path fill-rule="evenodd" clip-rule="evenodd" d="M14.0078 30.1552C14.0381 30.1889 14.0734 30.2178 14.1125 30.2407C14.2098 30.3068 14.3534 30.3846 14.4504 30.5008C14.4893 30.4427 14.5864 30.3377 14.7576 30.5008C14.9289 30.6639 15.1416 30.5477 15.274 30.5863C15.4099 30.6332 15.4176 30.6524 15.4176 30.6524C15.4176 30.6524 15.4944 30.5863 15.6662 30.5164C15.7711 30.4775 15.8953 30.4504 16.0312 30.4117C16.1554 30.3846 16.2913 30.3457 16.3848 30.3457C16.4703 30.4038 16.777 30.7297 18.0081 30.2486C19.1693 29.7981 19.4371 29.7477 19.6314 29.8173C19.6508 29.7707 19.6703 29.6813 19.9693 29.6931C19.9693 29.569 19.7207 29.1455 19.7207 29.1455L18.3498 28.6758H17.6L15.3516 29.0874L14.1056 29.7983L14.0086 30.1567L14.0078 30.1552Z" fill="#C4A859"/>
<path fill-rule="evenodd" clip-rule="evenodd" d="M13.2583 29.3671C13.2583 29.3671 13.2854 29.5768 13.5962 29.7982C13.9034 30.0194 13.9999 30.1515 13.9999 30.1515C13.9999 30.1515 14.0583 30.0747 14.1049 29.9964C14.1515 29.9109 14.1904 29.8139 14.268 29.7867C14.4234 29.7207 14.7766 29.8448 14.8545 29.8254C14.9205 29.8062 14.9011 29.6702 14.9709 29.6702C15.134 29.6623 15.2387 29.7749 15.2971 29.7749C15.3555 29.7749 15.4988 29.7673 15.5183 29.7363C15.5377 29.7053 15.5454 29.3828 15.7668 29.2274C16.0077 29.0566 16.3029 29.1303 16.3812 29.1692C16.3812 29.2274 16.3889 29.3712 16.5443 29.3789C16.6997 29.3866 16.7151 29.3595 16.8515 29.406C16.988 29.4526 17.1505 29.3984 17.2243 29.6272C17.2903 29.608 17.4457 29.5886 17.4068 29.3671C17.4836 29.309 17.5507 29.2701 17.714 29.041C17.7529 28.9829 17.8187 28.9168 17.8694 28.8313C18.0053 28.8313 18.1684 28.8042 18.3857 28.9944C18.3197 29.041 18.2808 29.0712 18.2616 29.1186C18.3184 29.1748 18.3703 29.2359 18.4167 29.3011C18.4751 29.3779 18.514 29.4721 18.5877 29.4916C18.7508 29.5381 19.0188 29.4721 19.3178 29.4916C19.6053 29.511 19.8459 29.6157 19.9509 29.6818C19.9898 29.6626 19.9898 29.6546 20.0868 29.6741C20.1839 29.6935 20.2576 29.7012 20.1529 29.5771C20.211 29.6042 20.2771 29.6626 20.3354 29.6042C20.3938 29.5458 20.4401 29.4606 20.6032 29.4411C20.7663 29.4217 20.8246 29.4488 20.8907 29.278C20.9762 29.0684 20.681 29.0684 20.681 29.0684C20.681 29.0684 20.817 28.944 20.9685 28.7809C21.151 28.6101 21.3607 28.3887 21.4111 28.1168C21.4966 27.6158 21.0074 27.55 21.0074 27.55L18.6346 28.2802L15.7336 28.1363L13.2598 29.3674L13.2583 29.3671Z" fill="#927D49"/>
<path fill-rule="evenodd" clip-rule="evenodd" d="M11.1263 22.5126C11.1263 22.5126 11.0495 22.6096 11.0021 22.8387C10.9548 23.0678 10.975 23.0407 10.9361 23.2038C10.8972 23.3668 10.4192 24.9901 10.5984 25.5377C10.7776 26.0853 11.0879 26.2873 11.2819 26.7299C11.3208 26.827 11.3587 26.8853 11.3789 26.9708C11.445 27.2581 11.3869 27.4795 11.4644 27.767C11.4916 27.864 11.5617 27.9767 11.6664 28.0931C11.8968 28.3338 12.2724 28.5629 12.4344 28.726C12.6633 28.9669 12.9897 29.4564 13.4052 29.5027C13.6266 29.5298 13.9412 29.4366 14.2013 29.2815C14.4317 29.1376 14.5741 28.9359 14.8157 28.8207C14.9865 28.7352 15.169 28.7042 15.3321 28.6653C15.67 28.5993 15.977 28.5885 16.1595 28.6264C16.439 28.6848 17.0993 28.8867 17.4651 28.8867C17.7509 28.8821 18.0352 28.843 18.3117 28.7703C18.8669 28.6072 19.5387 28.3274 19.9816 28.2032C20.2417 28.1264 20.4513 28.1062 20.6651 28.0596C21.0301 27.9741 21.3368 27.8576 21.5117 27.6362C21.3952 27.5002 21.2516 27.2906 20.4746 27.2983C19.5932 27.3177 18.5756 27.8069 18.0746 27.8848C17.5736 27.9626 17.3563 28.0284 16.7969 27.8264C16.2486 27.6224 16.2304 27.4874 16.2304 27.4874C16.2304 27.4874 15.6546 27.0848 15.4138 26.0582C15.1729 25.0316 15.4138 24.2836 16.0392 23.5727C16.2022 23.3901 16.1633 23.2271 16.1633 23.2271C16.1633 23.2271 16.575 22.6718 16.4623 22.1519C16.3382 21.6352 15.542 21.7402 15.542 21.7402L11.1265 22.5126H11.1263Z" fill="#6E6342"/>
<path fill-rule="evenodd" clip-rule="evenodd" d="M11.7903 24.2412C11.7561 24.3056 11.7399 24.3781 11.7437 24.4509C11.7514 24.5556 11.7826 24.6915 12.097 24.9984C12.365 25.2662 12.3066 25.5652 12.3066 25.5652C12.3066 25.5652 12.4416 25.5923 12.8076 25.4211C13.0951 25.2852 13.1916 25.526 13.1916 25.526C13.2753 25.4822 13.366 25.4532 13.4597 25.4405C13.5445 25.4327 13.6266 25.4065 13.7003 25.3637C13.7003 25.3637 14.0382 25.7093 14.3334 25.8724C14.6014 26.0163 14.7568 26.1133 14.8889 26.0163C15.0131 25.9308 15.0131 25.7559 15.0051 25.6784C14.9743 25.6068 14.9353 25.539 14.8889 25.4764C14.8034 25.3522 14.6675 25.2084 14.6585 25.0924C14.6391 24.8246 14.8605 24.5059 14.8136 24.4283C14.7668 24.3508 14.5925 24.3313 14.1614 24.4867C13.7149 24.6342 11.7885 24.242 11.7885 24.242L11.7903 24.2412Z" fill="#39331F"/>
<path fill-rule="evenodd" clip-rule="evenodd" d="M12.8076 25.9767C12.8076 25.9767 12.5864 25.767 12.664 24.7494C12.7578 24.748 12.8516 24.7571 12.9435 24.7765C12.9435 24.7765 13.064 25.565 12.8076 25.9767Z" fill="#292311"/>
<path fill-rule="evenodd" clip-rule="evenodd" d="M11.2313 21.736C11.2622 21.7132 11.2908 21.6875 11.3168 21.6592C11.24 21.8029 10.8854 22.3776 11.1729 23.2825C11.4604 24.1834 12.1826 24.8551 13.0719 24.8864C13.9613 24.9176 14.4287 24.4824 14.9633 23.8301C15.1729 23.57 15.4138 23.2436 15.6273 23.0224C15.9458 22.6766 16.1944 22.5796 16.1944 22.2457C16.1944 21.5622 15.4952 21.2553 14.4661 20.9486C13.437 20.6419 12.5087 20.6798 12.0272 20.8897C11.5574 21.1186 11.3555 21.3595 11.231 21.7363L11.2313 21.736Z" fill="#252211"/>
<path fill-rule="evenodd" clip-rule="evenodd" d="M14.5359 26.2834L14.6127 26.2445C14.6127 26.2445 14.6319 25.9373 14.7563 25.9455C14.8805 25.9649 14.9389 26.1283 14.9271 26.1864C14.9194 26.2445 14.8884 26.3418 14.764 26.33C14.6009 26.3338 14.5352 26.2834 14.5352 26.2834H14.5359Z" fill="#3F3824"/>
<path fill-rule="evenodd" clip-rule="evenodd" d="M14.1904 24.9785C14.1904 24.9785 14.2672 24.9514 14.3612 25.0446C14.438 25.0446 14.7728 25.0057 14.8778 25.0717C14.9827 25.1378 15.0137 25.1959 15.0137 25.1959C15.0137 25.1959 14.6215 25.2814 14.4078 25.1959C14.1904 25.1222 14.1904 24.9785 14.1904 24.9785V24.9785Z" fill="#2D2815"/>
<path fill-rule="evenodd" clip-rule="evenodd" d="M15.9185 25.0368C15.9185 25.0173 15.7089 24.8737 15.4874 24.8269C15.4485 24.8192 15.4406 24.8463 15.4106 24.8463C15.3912 24.8386 15.3835 24.7803 15.3835 24.7803L15.2576 24.8466C15.2576 24.8466 15.2381 24.8737 15.3041 24.9234C15.3623 24.97 15.4595 25.0089 15.4867 25.0864C15.5138 25.164 15.5138 25.1911 15.5256 25.2029C15.5333 25.2106 15.6692 25.2029 15.7352 25.164C15.8013 25.1251 15.9257 25.0616 15.9178 25.036L15.9185 25.0368Z" fill="#82764F"/>
<path fill-rule="evenodd" clip-rule="evenodd" d="M13.9575 25.8252C13.9575 25.8252 13.9962 25.5575 14.2565 25.5457C14.5243 25.5263 14.575 25.7863 14.575 25.7863L14.4196 25.9417C14.4196 25.9379 14.3031 25.7748 13.9588 25.8252H13.9575Z" fill="#2D2816"/>
<path fill-rule="evenodd" clip-rule="evenodd" d="M15.6467 24.6718C15.6467 24.6718 15.5029 24.8272 15.1847 24.8738C15.1575 24.8349 15.0992 24.7573 15.1847 24.6331C15.2702 24.509 15.3672 24.4701 15.4642 24.5087C15.507 24.5157 15.547 24.5347 15.5793 24.5636C15.6116 24.5925 15.635 24.63 15.6467 24.6718V24.6718Z" fill="#574F35"/>
<path fill-rule="evenodd" clip-rule="evenodd" d="M16.233 24.8622C16.241 24.8233 16.2138 24.8156 16.233 24.7962C16.2522 24.7767 16.3574 24.738 16.3769 24.7572C16.3846 24.7652 16.3769 24.7962 16.3769 24.834C16.3769 24.8719 16.3769 24.9108 16.3574 24.9387C16.3303 24.9777 16.2527 24.9971 16.2138 24.9856C16.1749 24.9741 16.1672 24.9195 16.1672 24.9088C16.1864 24.9011 16.233 24.8817 16.233 24.8622ZM16.8961 24.4429C16.8961 24.4234 16.9621 24.3845 17.001 24.3845C17.0591 24.3845 17.0591 24.4311 17.0671 24.4429C17.0863 24.4506 17.0863 24.435 17.1057 24.47C17.1252 24.5051 17.1526 24.567 17.1329 24.606C17.1132 24.6449 17.0358 24.6717 17.0166 24.6641C16.9895 24.6446 16.904 24.47 16.8961 24.4429V24.4429Z" fill="#82764F"/>
<path fill-rule="evenodd" clip-rule="evenodd" d="M15.5613 24.9517C15.5613 24.9517 15.6468 24.9709 15.7633 25.0682C15.7244 25.0953 15.666 25.1263 15.666 25.1263C15.666 25.1263 15.6583 25.0369 15.5613 24.9514V24.9517Z" fill="#6E6342"/>
<path fill-rule="evenodd" clip-rule="evenodd" d="M15.371 24.097C15.3515 24.0778 15.4291 24.0312 15.4757 24.0389C15.5223 24.0466 15.5417 24.0778 15.5922 24.0855C15.6426 24.0932 15.6505 24.066 15.669 24.0466C15.6874 24.0271 15.7545 24.0389 15.766 24.0466C15.7732 24.0551 15.7797 24.0642 15.7855 24.0737C15.7863 24.059 15.7901 24.0445 15.7968 24.0313C15.8034 24.0181 15.8127 24.0064 15.8241 23.9969C15.839 23.986 15.8562 23.9785 15.8744 23.9752C15.8925 23.9718 15.9112 23.9726 15.9291 23.9775C15.9368 24.0046 15.9757 24.1016 15.968 24.1211C15.9603 24.1405 15.8438 24.1679 15.8241 24.1482C15.8436 24.1951 15.9291 24.2921 15.9406 24.3113C15.9521 24.3305 15.8551 24.3773 15.8164 24.3697C15.7622 24.3658 15.4281 24.1715 15.37 24.0978L15.371 24.097ZM15.8797 23.4524C15.8725 23.4329 15.8587 23.4164 15.8408 23.4058C15.8136 23.3981 15.7243 23.4058 15.7243 23.4524C15.7243 23.499 15.8011 23.7596 15.8873 23.8953C15.9846 24.0312 16.0504 24.1436 16.1165 24.1748C16.1372 24.1843 16.1608 24.1855 16.1824 24.1783C16.204 24.1711 16.2221 24.1559 16.2329 24.1359C16.2406 24.1165 16.2601 23.9729 16.2524 23.6349C16.2447 23.297 16.233 22.9709 16.2135 22.9514C16.194 22.932 16.1165 22.9322 16.0893 22.9709C16.0622 23.0095 15.8873 23.3943 15.8794 23.4524H15.8797Z" fill="#585136"/>
<path fill-rule="evenodd" clip-rule="evenodd" d="M15.534 25.4406C15.534 25.4406 15.3981 25.3551 15.266 25.4135C15.1418 25.4718 15.1495 25.7009 15.1495 25.7009C15.1774 25.7119 15.2076 25.7158 15.2374 25.7124C15.2672 25.709 15.2958 25.6984 15.3205 25.6815C15.406 25.6234 15.5146 25.5264 15.534 25.4408V25.4406Z" fill="#574F35"/>
<path fill-rule="evenodd" clip-rule="evenodd" d="M15.7902 25.7477C15.7825 25.6709 15.7134 25.6709 15.7134 25.6312C15.7181 25.6122 15.7291 25.5954 15.7446 25.5834C15.76 25.5715 15.7791 25.565 15.7986 25.5652C15.8375 25.5652 15.8754 25.6117 15.923 25.642C15.9696 25.6691 16.0395 25.7188 16.0472 25.7779C16.0549 25.837 15.9704 25.9991 15.8765 25.9991C15.7825 25.9991 15.8104 25.8242 15.7909 25.7467L15.7902 25.7477ZM16.5397 25.6427C16.5397 25.6427 16.3844 25.6893 16.3959 25.6427C16.4074 25.5961 16.4427 25.5846 16.4932 25.5846C16.5188 25.5578 16.5532 25.5412 16.5902 25.5378C16.6113 25.5367 16.6321 25.5437 16.6483 25.5572C16.6483 25.5572 16.7533 25.5106 16.7842 25.5378C16.8152 25.5649 16.7922 25.5649 16.8114 25.5961C16.8358 25.6308 16.8519 25.6707 16.8582 25.7126C16.8582 25.7436 16.7417 25.8096 16.6483 25.7981C16.5397 25.7748 16.5589 25.6622 16.5397 25.6427V25.6427ZM17.4445 25.4679C17.4445 25.4679 17.491 25.495 17.4524 25.5262C17.4253 25.5534 17.2893 25.603 17.1726 25.6117C17.0561 25.6117 16.9514 25.6309 16.9514 25.5923C16.9514 25.5536 17.0484 25.4758 17.1065 25.4564C17.1182 25.4418 17.133 25.43 17.1498 25.4219C17.1667 25.4138 17.1851 25.4097 17.2038 25.4098C17.2504 25.4098 17.4327 25.3903 17.4834 25.3826C17.53 25.3747 17.5689 25.4018 17.5415 25.4407C17.53 25.4679 17.4445 25.4679 17.4445 25.4679V25.4679ZM17.7125 24.2688C17.7125 24.2688 17.6541 24.3929 17.5883 24.3929C17.5223 24.3852 17.5223 24.3658 17.5223 24.3463C17.5223 24.3192 17.5883 24.2493 17.5804 24.2298C17.5612 24.2298 17.5143 24.2298 17.5223 24.1833C17.5223 24.1443 17.5883 24.0977 17.6464 24.1065C17.6903 24.0704 17.745 24.0499 17.8018 24.0483C17.8679 24.0483 17.926 24.0675 17.926 24.1065C17.926 24.1454 17.8492 24.2306 17.821 24.2503C17.7901 24.2813 17.7511 24.3015 17.7125 24.2695V24.2688ZM16.827 26.5638C16.827 26.5638 16.7502 26.5718 16.7502 26.6104C16.7502 26.6299 16.7694 26.6299 16.7968 26.6183C16.8126 26.6175 16.8282 26.6148 16.8434 26.6104C16.851 26.6183 16.851 26.657 16.9094 26.657C16.9573 26.6505 17.0035 26.6347 17.0453 26.6104C17.0919 26.5912 17.1309 26.5715 17.1309 26.5336C17.1114 26.4676 17.0725 26.4363 17.0144 26.4363C16.9846 26.4344 16.9549 26.4412 16.9289 26.4558C16.9289 26.4558 16.9094 26.4169 16.8434 26.4558C16.7773 26.4947 16.785 26.4947 16.8045 26.5142C16.8393 26.5451 16.8277 26.5654 16.8277 26.5654L16.827 26.5638ZM16.3882 26.9678C16.3882 26.9483 16.4852 26.9094 16.5124 26.9212C16.5395 26.9289 16.6171 27.0763 16.6171 27.092C16.6171 27.1114 16.52 27.158 16.4811 27.158C16.4422 27.158 16.3764 27.092 16.3764 27.0812C16.3764 27.0735 16.423 27.062 16.423 27.0541C16.4345 27.0349 16.3882 26.988 16.3882 26.9686V26.9678ZM16.081 26.4007C16.1005 26.3931 16.1005 26.3736 16.1276 26.3542C16.1361 26.3485 16.1458 26.3449 16.1559 26.3435C16.166 26.3422 16.1763 26.3432 16.186 26.3465C16.1928 26.3343 16.2023 26.3237 16.2137 26.3156C16.2251 26.3075 16.2382 26.302 16.252 26.2996C16.2986 26.2919 16.3375 26.2996 16.3288 26.3191C16.3288 26.3774 16.3677 26.4161 16.3677 26.4627C16.3677 26.5093 16.3406 26.5677 16.2436 26.6066C16.1465 26.6337 16.0144 26.6337 15.995 26.626C15.9755 26.6183 15.9561 26.5405 15.9755 26.5016C15.995 26.4627 16.0493 26.4202 16.0805 26.4007H16.081Z" fill="#82764F"/>
<path fill-rule="evenodd" clip-rule="evenodd" d="M16.205 26.4272C16.205 26.4272 16.1389 26.4662 16.1389 26.4856C16.1331 26.5044 16.1305 26.5241 16.1312 26.5437C16.1312 26.5552 16.2168 26.536 16.2283 26.5243C16.2321 26.5166 16.205 26.4475 16.205 26.4272Z" fill="#6E6342"/>
<path fill-rule="evenodd" clip-rule="evenodd" d="M15.6272 26.2444C15.6659 26.2524 15.7319 26.2444 15.7824 26.2639C15.8213 26.2833 15.8484 26.3222 15.8095 26.3688C15.7706 26.4154 15.7327 26.4853 15.6464 26.4735C15.5494 26.4658 15.4562 26.4154 15.4562 26.3765C15.4546 26.3519 15.4579 26.3272 15.4659 26.3039C15.4739 26.2805 15.4864 26.259 15.5028 26.2406C15.5417 26.2096 15.5609 26.2291 15.627 26.2444H15.6272Z" fill="#585136"/>
<path fill-rule="evenodd" clip-rule="evenodd" d="M15.5808 26.2837C15.5808 26.2837 15.4566 26.3807 15.4254 26.4276C15.3865 26.4742 15.1963 26.7148 15.1382 26.7652C15.1575 26.7312 15.1795 26.6987 15.204 26.6682C15.1272 26.7173 15.0696 26.7913 15.0409 26.8779C14.9943 27.0217 15.3012 27.0993 15.503 27.1577C15.7047 27.216 15.7828 27.2345 15.7828 27.2345C15.7085 27.1229 15.6447 27.0046 15.5923 26.8812C15.5155 26.6987 15.4758 26.6792 15.5263 26.5937C15.5652 26.5082 15.6235 26.4501 15.6235 26.384C15.6002 26.3226 15.5808 26.2837 15.5808 26.2837Z" fill="#574F35"/>
<path fill-rule="evenodd" clip-rule="evenodd" d="M11.1533 26.5905C11.1816 26.5957 11.2106 26.5957 11.2388 26.5905C11.297 26.5826 11.9029 26.3601 12.536 26.4001C13.0099 26.4287 13.4797 26.5059 13.9379 26.6305C14.734 26.8401 15.7242 27.2556 16.365 27.4927C16.5358 27.5585 16.7029 27.6752 16.8258 27.7215C17.3153 27.912 17.3345 27.912 17.622 27.9624C17.9599 28.009 18.3055 27.8964 18.6667 27.8188C19.1093 27.7215 19.8666 27.675 20.5306 27.5779C20.7454 27.5482 20.9572 27.5001 21.1637 27.4343C21.1637 27.4343 20.6356 27.9624 19.3694 28.1527C18.8576 28.2304 18.3375 28.2369 17.8239 28.1721C17.42 28.1332 17.1522 28.0748 16.9502 28.0167C16.7211 27.9507 16.2511 27.7758 15.6725 27.6327C15.2686 27.5278 14.818 27.4502 14.3016 27.3532C13.0278 27.1199 11.6454 26.8522 11.1528 26.5921L11.1533 26.5905Z" fill="#252211"/>
<path fill-rule="evenodd" clip-rule="evenodd" d="M9.72392 24.1904C9.41672 24.4505 9.09084 24.6991 8.77263 24.9397L7.8134 25.6768C7.48726 25.9174 7.16879 26.166 6.84239 26.4069C6.51599 26.6478 6.19011 26.8766 5.84399 27.0981C6.15119 26.838 6.47708 26.5971 6.80322 26.3603C7.12937 26.1235 7.46754 25.8913 7.78217 25.6512L8.7414 24.9131C9.07138 24.6725 9.38984 24.4239 9.72392 24.1909V24.1904ZM8.0269 26.9089C8.0269 26.9089 8.3725 26.6214 8.8036 26.2177C9.33941 25.717 9.99579 25.0759 10.2055 24.9597L8.02665 26.9092L8.0269 26.9089Z" fill="#CFB66C"/>
<path fill-rule="evenodd" clip-rule="evenodd" d="M8.0271 26.9088C8.19811 26.738 8.38064 26.5711 8.56316 26.4078L8.84272 26.1671C8.92822 26.0903 9.0255 26.0041 9.11075 25.9186C9.2815 25.7478 9.44867 25.565 9.61942 25.3904C9.70405 25.3027 9.79354 25.2197 9.88745 25.1419C9.9344 25.1003 9.98655 25.065 10.0426 25.0369C10.0894 25.0098 10.1399 24.9601 10.2057 24.9514C10.167 25.0098 10.1204 25.0369 10.0815 25.0873C10.0349 25.1263 9.996 25.1729 9.95734 25.2115C9.87184 25.297 9.77481 25.3746 9.68931 25.4524C9.50678 25.6078 9.31657 25.7596 9.13404 25.9222C8.95152 26.0847 8.78076 26.2601 8.59798 26.4231C8.40009 26.5903 8.21756 26.7534 8.0271 26.9095V26.9088ZM10.3495 25.3554C10.3495 25.3554 9.08361 26.5944 8.82326 26.7961L10.3495 25.3554Z" fill="#CFB66C"/>
<path fill-rule="evenodd" clip-rule="evenodd" d="M10.3495 25.3552C10.2356 25.487 10.1135 25.6115 9.98395 25.728L9.59995 26.093C9.47579 26.2172 9.35905 26.3416 9.22721 26.4658C9.09127 26.5822 8.96711 26.6962 8.82324 26.8037L9.19598 26.4386C9.32039 26.3145 9.45633 26.2098 9.58843 26.0853L9.96116 25.7203C10.0892 25.5923 10.2136 25.4679 10.3495 25.3552V25.3552ZM10.4076 26.027C10.2909 26.3526 10.1534 26.6705 9.99598 26.9785C9.66983 27.6311 9.18062 28.4464 8.96686 28.8622L10.4076 26.027Z" fill="#CFB66C"/>
<path fill-rule="evenodd" clip-rule="evenodd" d="M10.4076 26.0273C10.4076 26.171 10.3687 26.2954 10.3221 26.4195C10.2767 26.5438 10.2249 26.6657 10.167 26.7846C10.1086 26.9011 10.0426 27.0255 9.97653 27.1382C9.91048 27.2508 9.83291 27.367 9.77454 27.4838L9.38235 28.175C9.24641 28.4054 9.11432 28.6371 8.9707 28.8585C9.06773 28.6099 9.19982 28.377 9.32424 28.1478C9.46017 27.9174 9.58433 27.687 9.70824 27.4487C9.76873 27.3299 9.82316 27.2082 9.87131 27.0839C9.92942 26.9595 9.98753 26.843 10.0344 26.7303C10.0925 26.6062 10.1391 26.4894 10.1975 26.377C10.2632 26.2565 10.3178 26.14 10.4071 26.0273H10.4076Z" fill="#CFB66C"/>
<path fill-rule="evenodd" clip-rule="evenodd" d="M11.7904 29.2117C11.7904 29.2117 11.4064 29.7203 11.4448 30.365C11.5495 30.0273 11.6816 29.5107 11.7904 29.2117ZM12.1555 29.7216C12.1555 29.7216 12.0196 31.104 11.9069 31.7837C12.0661 30.998 12.0971 31.0641 12.1555 29.7216ZM14.6991 31.8654C14.6991 31.8654 14.1244 33.555 14.1126 34.0245C14.237 33.5417 14.4777 32.5553 14.6991 31.8641V31.8654Z" fill="#DEC270"/>
<path fill-rule="evenodd" clip-rule="evenodd" d="M16.043 29.1074C16.043 29.1074 16.9751 30.6452 17.6742 31.9577C17.485 31.2972 17.0498 30.0859 16.043 29.1074Z" fill="#CBAF59"/>
<path fill-rule="evenodd" clip-rule="evenodd" d="M18.5476 31.3711C19.0594 32.2757 19.5209 33.2079 19.93 34.1633C19.8524 33.5031 19.6425 32.3731 18.5476 31.3711Z" fill="#E3C677"/>
<path fill-rule="evenodd" clip-rule="evenodd" d="M25.9105 33.6383C26.0656 33.5413 26.3726 33.0129 26.6406 32.8811C26.9084 32.7452 27.1104 32.718 27.3512 32.45C27.5919 32.1702 27.6584 31.9994 28.1861 31.7782C28.9241 31.4595 28.4165 31.0479 28.4165 31.0479C28.4978 30.968 28.5847 30.8941 28.6766 30.8267C28.867 30.6831 29.0882 30.5082 29.069 30.2013C29.0419 29.6849 28.9448 28.9354 28.5214 28.5004C28.9331 28.4149 29.7213 28.3568 30.211 28.2326C30.7778 28.0888 31.0382 27.8868 31.0382 27.8868C31.0382 27.8868 30.712 27.3315 31.2401 26.7724C31.7683 26.2133 32.1994 25.8792 32.5178 25.2538C32.1528 25.2072 31.5962 25.0132 30.1759 25.5528C30.2526 25.5889 30.3266 25.6304 30.3974 25.677C30.3974 25.677 29.5237 25.9179 29.2052 26.1859C28.6497 26.6557 28.5798 27.0402 27.9779 27.3277C27.3761 27.6152 26.7701 27.5373 26.2694 27.7703C25.7687 28.0033 25.6947 28.2014 25.5119 28.2869C25.5508 28.3335 25.5042 28.4111 25.5779 28.4771C25.5313 28.5432 25.2595 28.9858 24.9838 28.9858C25.0109 29.0908 25.2439 29.1683 25.2439 29.1683C25.2439 29.1683 25.0731 29.2927 24.6382 29.3237C24.8593 29.5541 25.0693 29.8053 25.6478 30.1703C25.6012 30.2673 25.4069 30.4112 25.4848 30.5937C25.5703 30.7763 25.792 31.0248 26.6769 31.2268C26.2264 31.246 25.6985 31.351 24.9873 31.254C24.2767 31.1685 24.1602 31.118 23.7214 31.2268C23.768 31.2734 23.8922 31.2734 24.001 31.3976C23.8845 31.4053 23.1544 31.3121 22.9058 31.6385C22.6457 31.9761 22.5331 32.5317 22.5525 32.9044C22.4166 32.9704 22.2845 33.0869 22.3506 33.3278C22.4166 33.5687 22.7622 33.6463 22.9836 33.7976C23.2048 33.9606 23.2243 34.0188 23.4342 33.9801C23.6554 33.9335 23.9815 33.7123 24.172 33.7123C24.3625 33.7123 24.4981 33.8559 24.4981 33.8559C24.4981 33.8559 25.0147 33.6074 25.0652 33.654C25.1118 33.7005 25.0729 33.9996 25.1233 34.0462C25.1745 34.0812 25.7564 33.7356 25.9118 33.6383H25.9105Z" fill="#ECD592"/>
<path fill-rule="evenodd" clip-rule="evenodd" d="M37.2 18.0971C34.7729 11.8292 28.7728 10.668 28.7728 10.668H11.6543L11.7204 17.0524H15.1295V31.3087H11.6541V37.6816H28.2989C32.3104 37.6816 35.5261 33.6504 35.5261 33.6504C40.6755 26.3418 37.1998 18.0971 37.1998 18.0971H37.2ZM28.3883 29.3552C28.3883 29.3552 27.0827 31.2389 25.6621 31.2389H22.8205L22.7532 17.068H26.3999C26.3999 17.068 28.0895 17.4212 29.2699 20.7649C29.2699 20.7649 30.8349 25.5521 28.3883 29.3552V29.3552Z" fill="white" fill-opacity="0.8"/>
</g>
<defs>
<clipPath id="clip0_5123_74522">
<rect width="48" height="48" fill="white"/>
</clipPath>
</defs>
</svg>
