<svg width="18" height="18" viewBox="0 0 18 18" fill="none" xmlns="http://www.w3.org/2000/svg">
    <path fill-rule="evenodd" clip-rule="evenodd" d="M16.4993 8.16602C16.9596 8.16602 17.3327 8.53911 17.3327 8.99935V16.4993C17.3327 16.9596 16.9596 17.3327 16.4993 17.3327H1.49935C1.03911 17.3327 0.666016 16.9596 0.666016 16.4993V9.00281C0.666016 8.54257 1.03911 8.16947 1.49935 8.16947C1.95959 8.16947 2.33268 8.54257 2.33268 9.00281V15.666H15.666V8.99935C15.666 8.53911 16.0391 8.16602 16.4993 8.16602Z" fill="#030308"/>
    <path fill-rule="evenodd" clip-rule="evenodd" d="M4.66009 7.99343C4.98553 7.66799 5.51317 7.66799 5.8386 7.99343L8.99935 11.1542L12.1601 7.99343C12.4855 7.66799 13.0132 7.66799 13.3386 7.99343C13.664 8.31886 13.664 8.8465 13.3386 9.17194L9.5886 12.9219C9.26317 13.2474 8.73553 13.2474 8.41009 12.9219L4.66009 9.17194C4.33466 8.8465 4.33466 8.31886 4.66009 7.99343Z" fill="#030308"/>
    <path fill-rule="evenodd" clip-rule="evenodd" d="M8.99589 0.666016C9.45613 0.666016 9.82922 1.03911 9.82922 1.49935V12.3327C9.82922 12.7929 9.45613 13.166 8.99589 13.166C8.53565 13.166 8.16256 12.7929 8.16256 12.3327V1.49935C8.16256 1.03911 8.53565 0.666016 8.99589 0.666016Z" fill="#030308"/>
</svg>
