<svg width="48" height="48" viewBox="0 0 48 48" fill="none" xmlns="http://www.w3.org/2000/svg">
<path fill-rule="evenodd" clip-rule="evenodd" d="M31.6947 4C32.2254 3.9999 32.7344 4.21074 33.1096 4.5861L40.4145 11.8942C41.1952 12.6752 41.1952 13.941 40.4145 14.722L19.7317 35.4139C19.3566 35.7892 18.8478 36 18.3172 36H11C9.89543 36 9 35.1046 9 34V26.7199C9 26.1899 9.21039 25.6815 9.58494 25.3065L30.28 4.58663C30.6551 4.21114 31.164 4.0001 31.6947 4ZM31.6956 8.82959L13 27.5476V32H17.4885L36.1722 13.3081L31.6956 8.82959ZM5 42C5 40.8954 5.89543 40 7 40H43C44.1046 40 45 40.8954 45 42C45 43.1046 44.1046 44 43 44H7C5.89543 44 5 43.1046 5 42Z" fill="#333333"/>
</svg>
