<svg width="20" height="21" viewBox="0 0 20 21" fill="none" xmlns="http://www.w3.org/2000/svg">
<g clip-path="url(#clip0_692_8967)">
<path d="M10 20.5C15.5228 20.5 20 16.0228 20 10.5C20 4.97715 15.5228 0.5 10 0.5C4.47715 0.5 0 4.97715 0 10.5C0 16.0228 4.47715 20.5 10 20.5Z" fill="#687EE3"/>
<path d="M10 14.0363V17.5193L14.2867 11.5L10 14.0363Z" fill="#D2D8EC"/>
<path d="M10 8.66211V13.1453L14.2867 10.609L10 8.66211Z" fill="#C4C8D8"/>
<path d="M10 3.5V8.66192L14.2867 10.6088L10 3.5Z" fill="#D0D6EA"/>
<path d="M9.9996 14.0363V17.5193L5.71289 11.5L9.9996 14.0363Z" fill="#DEE2F6"/>
<path d="M9.9996 8.66211V13.1453L5.71289 10.609L9.9996 8.66211Z" fill="#D2D8EC"/>
<path d="M9.9996 3.5V8.66192L5.71289 10.6088L9.9996 3.5Z" fill="#DEE2F6"/>
</g>
<defs>
<clipPath id="clip0_692_8967">
<rect width="20" height="20" fill="white" transform="translate(0 0.5)"/>
</clipPath>
</defs>
</svg>
