<svg width="48" height="48" viewBox="0 0 48 48" fill="none" xmlns="http://www.w3.org/2000/svg">
<path fill-rule="evenodd" clip-rule="evenodd" d="M46 24C46 36.1503 36.1503 46 24 46C11.8497 46 2 36.1503 2 24C2 11.8497 11.8497 2 24 2C36.1503 2 46 11.8497 46 24ZM19.7575 16.929C18.9765 16.148 17.7102 16.148 16.9291 16.929C16.1481 17.7101 16.1481 18.9764 16.9291 19.7575L21.1716 24L16.9288 28.2427C16.1478 29.0238 16.1478 30.2901 16.9288 31.0712C17.7099 31.8522 18.9762 31.8522 19.7572 31.0712L24 26.8284L28.2428 31.0712C29.0239 31.8522 30.2902 31.8522 31.0712 31.0712C31.8523 30.2901 31.8523 29.0238 31.0712 28.2427L26.8284 24L31.0709 19.7575C31.852 18.9764 31.852 17.7101 31.0709 16.929C30.2899 16.148 29.0236 16.148 28.2425 16.929L24 21.1715L19.7575 16.929Z" fill="#333333"/>
</svg>
