<svg width="48" height="48" viewBox="0 0 48 48" fill="none" xmlns="http://www.w3.org/2000/svg">
<path fill-rule="evenodd" clip-rule="evenodd" d="M7 8C6.44772 8 6 8.44772 6 9V12H42V9C42 8.44772 41.5523 8 41 8H7ZM46 9C46 6.23858 43.7614 4 41 4H7C4.23858 4 2 6.23858 2 9V39C2 41.7614 4.23858 44 7 44H41C43.7614 44 46 41.7614 46 39V9ZM42 16H6V39C6 39.5523 6.44772 40 7 40H41C41.5523 40 42 39.5523 42 39V16ZM10 24C10 22.8954 10.8954 22 12 22H14C15.1046 22 16 22.8954 16 24C16 25.1046 15.1046 26 14 26H12C10.8954 26 10 25.1046 10 24ZM18 24C18 22.8954 18.8954 22 20 22H36C37.1046 22 38 22.8954 38 24C38 25.1046 37.1046 26 36 26H20C18.8954 26 18 25.1046 18 24ZM10 32C10 30.8954 10.8954 30 12 30H14C15.1046 30 16 30.8954 16 32C16 33.1046 15.1046 34 14 34H12C10.8954 34 10 33.1046 10 32ZM18 32C18 30.8954 18.8954 30 20 30H36C37.1046 30 38 30.8954 38 32C38 33.1046 37.1046 34 36 34H20C18.8954 34 18 33.1046 18 32Z" fill="#333333"/>
</svg>
