<svg width="48" height="48" viewBox="0 0 48 48" fill="none" xmlns="http://www.w3.org/2000/svg">
<path fill-rule="evenodd" clip-rule="evenodd" d="M2 24C2 11.8497 11.8497 2 24 2C36.1503 2 46 11.8497 46 24C46 36.1503 36.1503 46 24 46C11.8497 46 2 36.1503 2 24ZM24 6C14.0589 6 6 14.0589 6 24C6 33.9411 14.0589 42 24 42C33.9411 42 42 33.9411 42 24C42 14.0589 33.9411 6 24 6ZM24.0086 10.0001C25.1132 10.0002 26.0085 10.8957 26.0084 12.0003L26.0073 23.1806L33.9008 31.0741C34.6819 31.8551 34.6819 33.1215 33.9008 33.9025C33.1198 34.6836 31.8534 34.6836 31.0724 33.9025L22.593 25.4231C22.2179 25.048 22.0071 24.5392 22.0072 24.0087L22.0084 11.9999C22.0085 10.8953 22.904 9.99999 24.0086 10.0001Z" fill="#333333"/>
</svg>
