<svg width="48" height="48" viewBox="0 0 48 48" fill="none" xmlns="http://www.w3.org/2000/svg">
<path fill-rule="evenodd" clip-rule="evenodd" d="M24 2C25.1046 2 26 2.89543 26 4V12H28C29.1046 12 30 12.8954 30 14V30C30 31.1046 29.1046 32 28 32H26V40C26 41.1046 25.1046 42 24 42C22.8954 42 22 41.1046 22 40V32H20C18.8954 32 18 31.1046 18 30V14C18 12.8954 18.8954 12 20 12H22V4C22 2.89543 22.8954 2 24 2ZM26 28V16H22V28H26Z" fill="#333333"/>
<path fill-rule="evenodd" clip-rule="evenodd" d="M10 4C11.1046 4 12 4.89543 12 6V14H14C15.1046 14 16 14.8954 16 16V32C16 33.1046 15.1046 34 14 34H12V42C12 43.1046 11.1046 44 10 44C8.89543 44 8 43.1046 8 42V34H6C4.89543 34 4 33.1046 4 32V16C4 14.8954 4.89543 14 6 14H8V6C8 4.89543 8.89543 4 10 4ZM12 30V18H8V30H12Z" fill="#333333"/>
<path fill-rule="evenodd" clip-rule="evenodd" d="M32 16C32 14.8954 32.8954 14 34 14H36V6C36 4.89543 36.8954 4 38 4C39.1046 4 40 4.89543 40 6V14H42C43.1046 14 44 14.8954 44 16V32C44 33.1046 43.1046 34 42 34H40V42C40 43.1046 39.1046 44 38 44C36.8954 44 36 43.1046 36 42V34H34C32.8954 34 32 33.1046 32 32V16ZM40 30H36V18H40V30Z" fill="#333333"/>
</svg>
