<svg width="48" height="48" viewBox="0 0 48 48" fill="none" xmlns="http://www.w3.org/2000/svg">
<path fill-rule="evenodd" clip-rule="evenodd" d="M10 2C7.79086 2 6 3.79086 6 6V42C6 44.2092 7.79088 46 10 46H38C40.2092 46 42 44.2092 42 42V14C42 13.4696 41.7893 12.9609 41.4142 12.5858L31.4142 2.58579C31.0391 2.21071 30.5304 2 30 2H10ZM16 18C14.8954 18 14 18.8954 14 20C14 21.1046 14.8954 22 16 22H32C33.1046 22 34 21.1046 34 20C34 18.8954 33.1046 18 32 18H16ZM16 26C14.8954 26 14 26.8954 14 28C14 29.1046 14.8954 30 16 30H32C33.1046 30 34 29.1046 34 28C34 26.8954 33.1046 26 32 26H16Z" fill="#333333"/>
</svg>
