<svg width="64" height="64" viewBox="0 0 64 64" fill="none" xmlns="http://www.w3.org/2000/svg">
    <path fill-rule="evenodd" clip-rule="evenodd" d="M30.0909 27.0263C30.0909 28.1164 30.9456 29 32 29C33.0544 29 33.9091 28.1164 33.9091 27.0263V10.7386L35.741 12.6324C36.4865 13.4032 37.6953 13.4032 38.4408 12.6324C39.1864 11.8617 39.1864 10.612 38.4408 9.84124L33.3512 4.57939L33.3395 4.56733C33.1589 4.38343 32.9517 4.24424 32.7308 4.14976C32.5057 4.05326 32.2589 4 32 4C31.4781 4 31.0052 4.21648 30.6605 4.56733L30.6489 4.57926L25.5592 9.84124C24.8136 10.612 24.8136 11.8617 25.5592 12.6324C26.3047 13.4032 27.5135 13.4032 28.259 12.6324L30.0909 10.7386V27.0263ZM4 20.9609C4 19.8779 4.87461 19 5.95349 19H11.1628C15.1186 19 18.3256 22.219 18.3256 26.19V38.925L20.2001 37.0434C20.963 36.2776 22.1998 36.2776 22.9627 37.0434C23.7256 37.8092 23.7256 39.0508 22.9627 39.8166L17.7534 45.0457C16.9905 45.8114 15.7537 45.8114 14.9908 45.0457L9.78147 39.8166C9.01858 39.0508 9.01858 37.8092 9.78147 37.0434C10.5444 36.2776 11.7812 36.2776 12.5441 37.0434L14.4186 38.925V26.19C14.4186 24.385 12.9609 22.9218 11.1628 22.9218H5.95349C4.87461 22.9218 4 22.0439 4 20.9609ZM49.5814 26.19C49.5814 24.385 51.0391 22.9218 52.8372 22.9218H58.0465C59.1254 22.9218 60 22.0439 60 20.9609C60 19.8779 59.1254 19 58.0465 19H52.8372C48.8814 19 45.6744 22.219 45.6744 26.19V38.925L43.7999 37.0434C43.037 36.2776 41.8002 36.2776 41.0373 37.0434C40.2744 37.8092 40.2744 39.0508 41.0373 39.8166L46.2466 45.0457C47.0095 45.8114 48.2464 45.8114 49.0092 45.0457L54.2185 39.8166C54.9814 39.0508 54.9814 37.8092 54.2185 37.0434C53.4557 36.2776 52.2188 36.2776 51.4559 37.0434L49.5814 38.925V26.19ZM7.90698 47.5809C7.90698 46.4979 7.03237 45.62 5.95349 45.62C4.87461 45.62 4 46.4979 4 47.5809V52.81C4 56.7809 7.20688 60 11.1628 60H52.8372C56.7931 60 60 56.7809 60 52.81V47.5809C60 46.4979 59.1254 45.62 58.0465 45.62C56.9676 45.62 56.093 46.4979 56.093 47.5809V52.81C56.093 54.6149 54.6353 56.0782 52.8372 56.0782H11.1628C9.36467 56.0782 7.90698 54.6149 7.90698 52.81V47.5809Z" fill="#EAAA00"/>
</svg>