<svg width="44" height="40" viewBox="0 0 44 40" fill="none" xmlns="http://www.w3.org/2000/svg">
    <path fill-rule="evenodd" clip-rule="evenodd" d="M12.9999 9C12.9999 4.02944 17.0293 0 21.9999 0C26.9705 0 30.9999 4.02944 30.9999 9C30.9999 13.9706 26.9705 18 21.9999 18C17.0293 18 12.9999 13.9706 12.9999 9ZM21.9999 4C19.2385 4 16.9999 6.23858 16.9999 9C16.9999 11.7614 19.2385 14 21.9999 14C24.7613 14 26.9999 11.7614 26.9999 9C26.9999 6.23858 24.7613 4 21.9999 4Z" fill="#F9F9F9"/>
    <path fill-rule="evenodd" clip-rule="evenodd" d="M11.6403 2.11069C12.2722 3.01664 12.0501 4.26333 11.1441 4.89525C9.84386 5.8022 8.99991 7.30274 8.99991 9.0002C8.99991 10.8166 9.9673 12.4091 11.4245 13.2872C12.3706 13.8572 12.6754 15.0863 12.1054 16.0324C11.5353 16.9785 10.3062 17.2833 9.36009 16.7132C6.75172 15.1415 4.99991 12.2764 4.99991 9.0002C4.99991 5.94006 6.52896 3.23746 8.85572 1.61451C9.76167 0.982587 11.0084 1.20474 11.6403 2.11069Z" fill="#F9F9F9"/>
    <path fill-rule="evenodd" clip-rule="evenodd" d="M32.3595 2.11069C32.9915 1.20474 34.2381 0.982587 35.1441 1.61451C37.4709 3.23746 38.9999 5.94006 38.9999 9.0002C38.9999 12.0602 37.4709 14.763 35.1441 16.3859C34.2381 17.0178 32.9914 16.7956 32.3595 15.8897C31.7276 14.9837 31.9498 13.737 32.8558 13.1051C34.1559 12.1982 34.9999 10.6976 34.9999 9.0002C34.9999 7.30274 34.156 5.8022 32.8557 4.89525C31.9498 4.26333 31.7276 3.01664 32.3595 2.11069Z" fill="#F9F9F9"/>
    <path fill-rule="evenodd" clip-rule="evenodd" d="M10.5713 40C9.15118 40 7.99991 38.8487 7.99991 37.4286C7.99991 32.6361 7.99991 30.2398 8.71041 28.3495C9.65763 25.8292 11.4746 23.8269 13.7615 22.783C15.4767 22 17.6512 22 21.9999 22C26.3487 22 28.5231 22 30.2383 22.783C32.5252 23.8269 34.3422 25.8292 35.2894 28.3495C35.9999 30.2398 35.9999 32.6361 35.9999 37.4286C35.9999 38.8487 34.8486 40 33.4285 40H10.5713ZM11.9999 36V34.5714C11.9999 31.9089 11.9999 30.5776 12.5074 29.5275C13.184 28.1274 14.4818 27.0149 16.1153 26.435C17.3405 26 18.8937 26 21.9999 26C25.1061 26 26.6593 26 27.8845 26.435C29.518 27.0149 30.8158 28.1274 31.4924 29.5275C31.9999 30.5776 31.9999 31.9089 31.9999 34.5714V36H11.9999Z" fill="#F9F9F9"/>
    <path fill-rule="evenodd" clip-rule="evenodd" d="M8.15008 23.9641C8.65155 24.9483 8.26024 26.1526 7.27607 26.6541C6.14706 27.2294 5.22918 28.1472 4.65397 29.2762C4.38559 29.8029 4.20124 30.4983 4.10235 31.7086C4.00156 32.9423 4 34.5269 4 36.8001V38.0001C4 39.1047 3.10457 40.0001 2 40.0001C0.895431 40.0001 1.00175e-06 39.1047 1.00175e-06 38.0001L5.24917e-07 36.7145C-1.95022e-05 34.5469 -3.54797e-05 32.7986 0.115637 31.3829C0.234736 29.9252 0.486362 28.6448 1.08993 27.4602C2.04868 25.5786 3.5785 24.0488 5.46007 23.0901C6.44425 22.5886 7.6486 22.9799 8.15008 23.9641Z" fill="#F9F9F9"/>
    <path fill-rule="evenodd" clip-rule="evenodd" d="M36.2087 24.0842C35.7293 25.061 36.1034 26.2564 37.0442 26.7541C38.1235 27.325 39.001 28.236 39.5509 29.3565C39.8074 29.8792 39.9837 30.5694 40.0782 31.7707C40.1746 32.9951 40.176 34.5678 40.176 36.824V38.015C40.176 39.1113 41.032 40 42.088 40C43.1439 40 43.9999 39.1113 43.9999 38.015V36.739C43.9999 34.5877 43.9999 32.8525 43.8894 31.4474C43.7755 30.0006 43.535 28.7298 42.958 27.5541C42.0414 25.6866 40.579 24.1683 38.7803 23.2168C37.8394 22.7191 36.6881 23.1074 36.2087 24.0842Z" fill="#F9F9F9"/>
</svg>