<svg width="64" height="64" viewBox="0 0 64 64" fill="none" xmlns="http://www.w3.org/2000/svg">
    <path fill-rule="evenodd" clip-rule="evenodd" d="M13.4142 16.0802C11.2549 18.2395 10 21.641 10 26.666C10 27.7706 9.10457 28.666 8 28.666C6.89543 28.666 6 27.7706 6 26.666C6 21.0244 7.41176 16.4258 10.5858 13.2518C13.7598 10.0778 18.3584 8.66602 24 8.66602C25.1046 8.66602 26 9.56145 26 10.666C26 11.7706 25.1046 12.666 24 12.666C18.975 12.666 15.5735 13.9209 13.4142 16.0802Z" fill="#EAAA00"/>
    <path fill-rule="evenodd" clip-rule="evenodd" d="M53.3333 37.9993C54.4379 37.9993 55.3333 38.8948 55.3333 39.9993C55.3333 45.641 53.9216 50.2395 50.7475 53.4136C47.5735 56.5876 42.975 57.9993 37.3333 57.9993C36.2288 57.9993 35.3333 57.1039 35.3333 55.9993C35.3333 54.8948 36.2288 53.9993 37.3333 53.9993C42.3584 53.9993 45.7598 52.7444 47.9191 50.5851C50.0784 48.4258 51.3333 45.0244 51.3333 39.9993C51.3333 38.8948 52.2288 37.9993 53.3333 37.9993Z" fill="#EAAA00"/>
    <path fill-rule="evenodd" clip-rule="evenodd" d="M50.6667 12.666C44.4075 12.666 39.3333 17.7402 39.3333 23.9993V27.3327H54V12.666H50.6667ZM35.3333 23.9993C35.3333 15.531 42.1984 8.66602 50.6667 8.66602H56C57.1046 8.66602 58 9.56145 58 10.666V29.3327C58 30.4373 57.1046 31.3327 56 31.3327H37.3333C36.2288 31.3327 35.3333 30.4373 35.3333 29.3327V23.9993Z" fill="#EAAA00"/>
    <path fill-rule="evenodd" clip-rule="evenodd" d="M6 37.3327C6 36.2281 6.89543 35.3327 8 35.3327H26.6667C27.7712 35.3327 28.6667 36.2281 28.6667 37.3327V42.666C28.6667 51.1343 21.8016 57.9993 13.3333 57.9993H8C6.89543 57.9993 6 57.1039 6 55.9993V37.3327ZM10 39.3327V53.9993H13.3333C19.5925 53.9993 24.6667 48.9252 24.6667 42.666V39.3327H10Z" fill="#EAAA00"/>
</svg>