<svg width="48" height="48" viewBox="0 0 48 48" fill="none" xmlns="http://www.w3.org/2000/svg">
<path fill-rule="evenodd" clip-rule="evenodd" d="M22.7506 4.43826C23.481 3.85391 24.519 3.85391 25.2494 4.43826L40.2494 16.4383C40.7238 16.8178 41 17.3924 41 18V42C41 43.1046 40.1046 44 39 44H9C7.89543 44 7 43.1046 7 42V18C7 17.3924 7.27618 16.8178 7.75061 16.4383L22.7506 4.43826ZM11 40H17V29C17 27.8954 17.8954 27 19 27H29C30.1046 27 31 27.8954 31 29V40H37V18.9612L24 8.56125L11 18.9613V40ZM27 40V31H21V40H27Z" fill="#333333"/>
</svg>
