<svg width="44" height="38" viewBox="0 0 44 38" fill="none" xmlns="http://www.w3.org/2000/svg">
    <path d="M34 21C34 19.8954 33.1046 19 32 19C30.8954 19 30 19.8954 30 21V26.1716L29.4142 25.5858C28.6332 24.8047 27.3668 24.8047 26.5858 25.5858C25.8047 26.3668 25.8047 27.6332 26.5858 28.4142L30.5858 32.4142C31.3668 33.1953 32.6332 33.1953 33.4142 32.4142L37.4142 28.4142C38.1953 27.6332 38.1953 26.3668 37.4142 25.5858C36.6332 24.8047 35.3668 24.8047 34.5858 25.5858L34 26.1716V21Z" fill="#F9F9F9"/>
    <path fill-rule="evenodd" clip-rule="evenodd" d="M17 0C12.7027 0 8.72924 0.577663 5.76093 1.5671C4.28723 2.05834 2.95035 2.68735 1.94082 3.48295C0.953835 4.26079 0 5.43418 0 7L0 31C0 32.5658 0.95384 33.7392 1.94082 34.517C2.95035 35.3126 4.28723 35.9417 5.76093 36.4329C8.72924 37.4223 12.7027 38 17 38C19.8711 38 22.5828 37.7423 24.9409 37.2829C25.4583 37.1821 25.8899 36.8903 26.1769 36.4949C27.9014 37.4538 29.8869 38 32 38C38.6274 38 44 32.6274 44 26C44 20.0541 39.6754 15.1181 34 14.1659V7C34 5.43418 33.0462 4.26079 32.0592 3.48295C31.0496 2.68735 29.7128 2.05834 28.2391 1.5671C25.2708 0.577663 21.2973 0 17 0ZM4.41672 6.6246C4.19551 6.79893 4.08628 6.92528 4.03412 7C4.08628 7.07471 4.19551 7.20106 4.41672 7.37539C4.92527 7.77617 5.78508 8.22457 7.02585 8.63816C9.48646 9.45837 13.013 10 17 10C20.987 10 24.5135 9.45837 26.9742 8.63816C28.2149 8.22457 29.0747 7.77617 29.5833 7.37539C29.8045 7.20106 29.9137 7.07471 29.9659 7C29.9137 6.92528 29.8045 6.79893 29.5833 6.6246C29.0747 6.22382 28.2149 5.77542 26.9742 5.36183C24.5135 4.54163 20.987 4 17 4C13.013 4 9.48646 4.54163 7.02584 5.36183C5.78508 5.77542 4.92527 6.22382 4.41672 6.6246ZM4.41672 31.3754C4.12545 31.1458 4.02833 30.9995 4 30.9447V27.7432C4.55386 27.9985 5.14546 28.2277 5.76093 28.4329C8.72924 29.4223 12.7027 30 17 30C18.2478 30 19.4643 29.9513 20.6339 29.8588C21.1016 31.2368 21.8129 32.5024 22.7164 33.6042C20.9811 33.8571 19.047 34 17 34C13.013 34 9.48646 33.4584 7.02585 32.6382C5.78508 32.2246 4.92527 31.7762 4.41672 31.3754ZM4 19.7432V22.9447C4.02833 22.9995 4.12545 23.1458 4.41672 23.3754C4.92527 23.7762 5.78508 24.2246 7.02585 24.6382C9.48646 25.4584 13.013 26 17 26C18.0316 26 19.0355 25.9637 20.0004 25.8952C20.0126 24.4745 20.2717 23.1127 20.7368 21.8506C19.5346 21.9485 18.2832 22 17 22C12.7027 22 8.72924 21.4223 5.76093 20.4329C5.14546 20.2277 4.55386 19.9985 4 19.7432ZM23.5598 17.4699C21.6171 17.806 19.3851 18 17 18C13.013 18 9.48646 17.4584 7.02585 16.6382C5.78508 16.2246 4.92527 15.7762 4.41672 15.3754C4.12545 15.1459 4.02833 14.9995 4 14.9447V11.7432C4.55386 11.9985 5.14546 12.2277 5.76093 12.4329C8.72924 13.4223 12.7027 14 17 14C21.2973 14 25.2708 13.4223 28.2391 12.4329C28.8545 12.2277 29.4461 11.9985 30 11.7432V14.1659C27.5093 14.5838 25.2788 15.7689 23.5598 17.4699ZM26.0336 20.6706L26.0466 20.6562L26.0577 20.6437C27.5219 19.0203 29.6418 18 32 18C36.4182 18 40 21.5818 40 26C40 30.4182 36.4182 34 32 34C30.5673 34 29.2225 33.6234 28.0593 32.9637C26.0114 31.8023 24.5263 29.7637 24.1149 27.3586C24.0394 26.917 24 26.4631 24 26C24 23.953 24.7689 22.0855 26.0336 20.6706Z" fill="#F9F9F9"/>
</svg>