<svg width="58" height="59" viewBox="0 0 58 59" fill="none" xmlns="http://www.w3.org/2000/svg">
    <path fill-rule="evenodd" clip-rule="evenodd" d="M25.8982 6.81142C26.4728 7.85045 26.1105 9.16654 25.0891 9.75099L8.48781 19.2502V39.5732C8.48781 40.7653 7.53778 41.7317 6.36585 41.7317C5.19393 41.7317 4.2439 40.7653 4.2439 39.5732V17.9878C4.2439 17.208 4.65739 16.4888 5.32554 16.1065L23.0085 5.98834C24.0299 5.40388 25.3237 5.77239 25.8982 6.81142ZM32.1018 6.81142C32.6763 5.77239 33.9701 5.40388 34.9915 5.98834L52.6745 16.1065C53.3426 16.4888 53.7561 17.208 53.7561 17.9878V39.5732C53.7561 40.7653 52.8061 41.7317 51.6342 41.7317C50.4622 41.7317 49.5122 40.7653 49.5122 39.5732V19.2502L32.9109 9.75099C31.8895 9.16654 31.5272 7.85045 32.1018 6.81142ZM8.76032 45.2603C9.33486 44.2213 10.6286 43.8528 11.6501 44.4373L29 54.3649L46.3499 44.4373C47.3714 43.8528 48.6651 44.2213 49.2397 45.2603C49.8142 46.2994 49.452 47.6155 48.4306 48.1999L30.0403 58.7228C29.3944 59.0924 28.6056 59.0924 27.9597 58.7228L9.56945 48.1999C8.54803 47.6155 8.18577 46.2994 8.76032 45.2603Z" fill="#EAAA00"/>
    <path fill-rule="evenodd" clip-rule="evenodd" d="M27.9308 19.0014C28.5915 18.6093 29.4085 18.6093 30.0692 19.0014L38.557 24.0379C39.2089 24.4248 39.6098 25.1347 39.6098 25.9024V35.9756C39.6098 36.7433 39.2089 37.4533 38.557 37.8401L30.0692 42.8767C29.4085 43.2687 28.5915 43.2687 27.9308 42.8767L19.443 37.8401C18.7911 37.4533 18.3902 36.7433 18.3902 35.9756V25.9024C18.3902 25.1347 18.7911 24.4248 19.443 24.0379L27.9308 19.0014ZM29 23.3648L22.6341 27.1422V34.7358L29 38.5132L35.3659 34.7358V27.1422L29 23.3648Z" fill="#EAAA00"/>
    <path fill-rule="evenodd" clip-rule="evenodd" d="M29 8.63414C30.1719 8.63414 31.122 9.60056 31.122 10.7927V20.8659C31.122 22.058 30.1719 23.0244 29 23.0244C27.8281 23.0244 26.8781 22.058 26.8781 20.8659V10.7927C26.8781 9.60056 27.8281 8.63414 29 8.63414Z" fill="#EAAA00"/>
    <path fill-rule="evenodd" clip-rule="evenodd" d="M35.6454 34.1852C36.2269 33.1501 37.5231 32.7905 38.5406 33.382L48.443 39.1381C49.4605 39.7295 49.8141 41.0481 49.2326 42.0831C48.6512 43.1182 47.355 43.4778 46.3375 42.8863L36.435 37.1302C35.4175 36.5388 35.064 35.2202 35.6454 34.1852Z" fill="#EAAA00"/>
    <path fill-rule="evenodd" clip-rule="evenodd" d="M22.3546 34.1852C22.936 35.2202 22.5825 36.5388 21.565 37.1302L11.6625 42.8863C10.645 43.4778 9.34882 43.1182 8.76739 42.0831C8.18595 41.0481 8.53946 39.7295 9.55697 39.1381L19.4594 33.382C20.4769 32.7905 21.7731 33.1501 22.3546 34.1852Z" fill="#EAAA00"/>
    <path fill-rule="evenodd" clip-rule="evenodd" d="M29 4.31707C27.8281 4.31707 26.8781 5.28348 26.8781 6.47561C26.8781 7.66774 27.8281 8.63414 29 8.63414C30.1719 8.63414 31.122 7.66774 31.122 6.47561C31.122 5.28348 30.1719 4.31707 29 4.31707ZM22.6341 6.47561C22.6341 2.89923 25.4842 0 29 0C32.5158 0 35.3659 2.89923 35.3659 6.47561C35.3659 10.052 32.5158 12.9512 29 12.9512C25.4842 12.9512 22.6341 10.052 22.6341 6.47561Z" fill="#EAAA00"/>
    <path fill-rule="evenodd" clip-rule="evenodd" d="M6.36585 41.7317C5.19393 41.7317 4.2439 42.6981 4.2439 43.8902C4.2439 45.0824 5.19393 46.0488 6.36585 46.0488C7.53778 46.0488 8.48781 45.0824 8.48781 43.8902C8.48781 42.6981 7.53778 41.7317 6.36585 41.7317ZM0 43.8902C0 40.3139 2.85009 37.4146 6.36585 37.4146C9.88162 37.4146 12.7317 40.3139 12.7317 43.8902C12.7317 47.4666 9.88162 50.3659 6.36585 50.3659C2.85009 50.3659 0 47.4666 0 43.8902Z" fill="#EAAA00"/>
    <path fill-rule="evenodd" clip-rule="evenodd" d="M51.6342 41.7317C50.4622 41.7317 49.5122 42.6981 49.5122 43.8902C49.5122 45.0824 50.4622 46.0488 51.6341 46.0488C52.8061 46.0488 53.7561 45.0824 53.7561 43.8902C53.7561 42.6981 52.8061 41.7317 51.6342 41.7317ZM45.2683 43.8902C45.2683 40.3139 48.1184 37.4146 51.6341 37.4146C55.1499 37.4146 58 40.3139 58 43.8902C58 47.4666 55.1499 50.3659 51.6341 50.3659C48.1184 50.3659 45.2683 47.4666 45.2683 43.8902Z" fill="#EAAA00"/>
</svg>
