<svg width="48" height="48" viewBox="0 0 48 48" fill="none" xmlns="http://www.w3.org/2000/svg">
    <path fill-rule="evenodd" clip-rule="evenodd"
          d="M14.9999 13C14.9999 8.02944 19.0293 4 23.9999 4C28.9705 4 32.9999 8.02944 32.9999 13C32.9999 17.9706 28.9705 22 23.9999 22C19.0293 22 14.9999 17.9706 14.9999 13ZM23.9999 8C21.2385 8 18.9999 10.2386 18.9999 13C18.9999 15.7614 21.2385 18 23.9999 18C26.7613 18 28.9999 15.7614 28.9999 13C28.9999 10.2386 26.7613 8 23.9999 8Z"
          fill="#F9F9F9"/>
    <path fill-rule="evenodd" clip-rule="evenodd"
          d="M13.6403 6.11069C14.2722 7.01664 14.0501 8.26333 13.1441 8.89525C11.8439 9.8022 10.9999 11.3027 10.9999 13.0002C10.9999 14.8166 11.9673 16.4091 13.4245 17.2872C14.3706 17.8572 14.6754 19.0863 14.1054 20.0324C13.5353 20.9785 12.3062 21.2833 11.3601 20.7132C8.75172 19.1415 6.99991 16.2764 6.99991 13.0002C6.99991 9.94006 8.52896 7.23746 10.8557 5.61451C11.7617 4.98259 13.0084 5.20474 13.6403 6.11069Z"
          fill="#F9F9F9"/>
    <path fill-rule="evenodd" clip-rule="evenodd"
          d="M34.3595 6.11069C34.9915 5.20474 36.2381 4.98259 37.1441 5.61451C39.4709 7.23746 40.9999 9.94006 40.9999 13.0002C40.9999 16.0602 39.4709 18.763 37.1441 20.3859C36.2381 21.0178 34.9914 20.7956 34.3595 19.8897C33.7276 18.9837 33.9498 17.737 34.8558 17.1051C36.1559 16.1982 36.9999 14.6976 36.9999 13.0002C36.9999 11.3027 36.156 9.8022 34.8557 8.89525C33.9498 8.26333 33.7276 7.01664 34.3595 6.11069Z"
          fill="#F9F9F9"/>
    <path fill-rule="evenodd" clip-rule="evenodd"
          d="M12.5713 44C11.1512 44 9.99991 42.8487 9.99991 41.4286C9.99991 36.6361 9.99991 34.2398 10.7104 32.3495C11.6576 29.8292 13.4746 27.8269 15.7615 26.783C17.4767 26 19.6512 26 23.9999 26C28.3487 26 30.5231 26 32.2383 26.783C34.5252 27.8269 36.3422 29.8292 37.2894 32.3495C37.9999 34.2398 37.9999 36.6361 37.9999 41.4286C37.9999 42.8487 36.8486 44 35.4285 44H12.5713ZM13.9999 40V38.5714C13.9999 35.9089 13.9999 34.5776 14.5074 33.5275C15.184 32.1274 16.4818 31.0149 18.1153 30.435C19.3405 30 20.8937 30 23.9999 30C27.1061 30 28.6593 30 29.8845 30.435C31.518 31.0149 32.8158 32.1274 33.4924 33.5275C33.9999 34.5776 33.9999 35.9089 33.9999 38.5714V40H13.9999Z"
          fill="#F9F9F9"/>
    <path fill-rule="evenodd" clip-rule="evenodd"
          d="M10.1501 27.9641C10.6515 28.9483 10.2602 30.1526 9.27607 30.6541C8.14706 31.2294 7.22918 32.1472 6.65397 33.2762C6.38559 33.8029 6.20124 34.4983 6.10235 35.7086C6.00156 36.9423 6 38.5269 6 40.8001V42.0001C6 43.1047 5.10457 44.0001 4 44.0001C2.89543 44.0001 2 43.1047 2 42.0001L2 40.7145C1.99998 38.5469 1.99996 36.7986 2.11564 35.3829C2.23474 33.9252 2.48636 32.6448 3.08993 31.4602C4.04868 29.5786 5.5785 28.0488 7.46007 27.0901C8.44425 26.5886 9.6486 26.9799 10.1501 27.9641Z"
          fill="#F9F9F9"/>
    <path fill-rule="evenodd" clip-rule="evenodd"
          d="M38.2087 28.0842C37.7293 29.061 38.1034 30.2564 39.0442 30.7541C40.1235 31.325 41.001 32.236 41.5509 33.3565C41.8074 33.8792 41.9837 34.5694 42.0782 35.7707C42.1746 36.9951 42.176 38.5678 42.176 40.824V42.015C42.176 43.1113 43.032 44 44.088 44C45.1439 44 45.9999 43.1113 45.9999 42.015V40.739C45.9999 38.5877 45.9999 36.8525 45.8894 35.4474C45.7755 34.0006 45.535 32.7298 44.958 31.5541C44.0414 29.6866 42.579 28.1683 40.7803 27.2168C39.8394 26.7191 38.6881 27.1074 38.2087 28.0842Z"
          fill="#F9F9F9"/>
</svg>
