<svg width="48" height="48" viewBox="0 0 48 48" fill="none" xmlns="http://www.w3.org/2000/svg">
    <path d="M36 26C36 24.8954 35.1046 24 34 24C32.8954 24 32 24.8954 32 26V31.1716L31.4142 30.5858C30.6332 29.8047 29.3668 29.8047 28.5858 30.5858C27.8047 31.3668 27.8047 32.6332 28.5858 33.4142L32.5858 37.4142C33.3668 38.1953 34.6332 38.1953 35.4142 37.4142L39.4142 33.4142C40.1953 32.6332 40.1953 31.3668 39.4142 30.5858C38.6332 29.8047 37.3668 29.8047 36.5858 30.5858L36 31.1716V26Z"
          fill="#F9F9F9"/>
    <path fill-rule="evenodd" clip-rule="evenodd"
          d="M19 5C14.7027 5 10.7292 5.57766 7.76093 6.5671C6.28723 7.05834 4.95035 7.68735 3.94082 8.48295C2.95383 9.26079 2 10.4342 2 12V36C2 37.5658 2.95384 38.7392 3.94082 39.517C4.95035 40.3126 6.28723 40.9417 7.76093 41.4329C10.7292 42.4223 14.7027 43 19 43C21.8711 43 24.5828 42.7423 26.9409 42.2829C27.4583 42.1821 27.8899 41.8903 28.1769 41.4949C29.9014 42.4538 31.8869 43 34 43C40.6274 43 46 37.6274 46 31C46 25.0541 41.6754 20.1181 36 19.1659V12C36 10.4342 35.0462 9.26079 34.0592 8.48295C33.0496 7.68735 31.7128 7.05834 30.2391 6.5671C27.2708 5.57766 23.2973 5 19 5ZM6.41672 11.6246C6.19551 11.7989 6.08628 11.9253 6.03412 12C6.08628 12.0747 6.19551 12.2011 6.41672 12.3754C6.92527 12.7762 7.78508 13.2246 9.02585 13.6382C11.4865 14.4584 15.013 15 19 15C22.987 15 26.5135 14.4584 28.9742 13.6382C30.2149 13.2246 31.0747 12.7762 31.5833 12.3754C31.8045 12.2011 31.9137 12.0747 31.9659 12C31.9137 11.9253 31.8045 11.7989 31.5833 11.6246C31.0747 11.2238 30.2149 10.7754 28.9742 10.3618C26.5135 9.54163 22.987 9 19 9C15.013 9 11.4865 9.54163 9.02584 10.3618C7.78508 10.7754 6.92527 11.2238 6.41672 11.6246ZM6.41672 36.3754C6.12545 36.1458 6.02833 35.9995 6 35.9447V32.7432C6.55386 32.9985 7.14546 33.2277 7.76093 33.4329C10.7292 34.4223 14.7027 35 19 35C20.2478 35 21.4643 34.9513 22.6339 34.8588C23.1016 36.2368 23.8129 37.5024 24.7164 38.6042C22.9811 38.8571 21.047 39 19 39C15.013 39 11.4865 38.4584 9.02585 37.6382C7.78508 37.2246 6.92527 36.7762 6.41672 36.3754ZM6 24.7432V27.9447C6.02833 27.9995 6.12545 28.1458 6.41672 28.3754C6.92527 28.7762 7.78508 29.2246 9.02585 29.6382C11.4865 30.4584 15.013 31 19 31C20.0316 31 21.0355 30.9637 22.0004 30.8952C22.0126 29.4745 22.2717 28.1127 22.7368 26.8506C21.5346 26.9485 20.2832 27 19 27C14.7027 27 10.7292 26.4223 7.76093 25.4329C7.14546 25.2277 6.55386 24.9985 6 24.7432ZM25.5598 22.4699C23.6171 22.806 21.3851 23 19 23C15.013 23 11.4865 22.4584 9.02585 21.6382C7.78508 21.2246 6.92527 20.7762 6.41672 20.3754C6.12545 20.1459 6.02833 19.9995 6 19.9447V16.7432C6.55386 16.9985 7.14546 17.2277 7.76093 17.4329C10.7292 18.4223 14.7027 19 19 19C23.2973 19 27.2708 18.4223 30.2391 17.4329C30.8545 17.2277 31.4461 16.9985 32 16.7432V19.1659C29.5093 19.5838 27.2788 20.7689 25.5598 22.4699ZM28.0336 25.6706L28.0466 25.6562L28.0577 25.6437C29.5219 24.0203 31.6418 23 34 23C38.4182 23 42 26.5818 42 31C42 35.4182 38.4182 39 34 39C32.5673 39 31.2225 38.6234 30.0593 37.9637C28.0114 36.8023 26.5263 34.7637 26.1149 32.3586C26.0394 31.917 26 31.4631 26 31C26 28.953 26.7689 27.0855 28.0336 25.6706Z"
          fill="#F9F9F9"/>
</svg>
