<svg width="56" height="56" viewBox="0 0 56 56" fill="none" xmlns="http://www.w3.org/2000/svg">
    <path d="M26.0909 23.0263C26.0909 24.1164 26.9456 25 28 25C29.0544 25 29.9091 24.1164 29.9091 23.0263V6.73858L31.741 8.63245C32.4865 9.40322 33.6953 9.40322 34.4408 8.63245C35.1864 7.86168 35.1864 6.61201 34.4408 5.84124L29.3512 0.579386L29.3395 0.567328C29.1589 0.383433 28.9517 0.244243 28.7308 0.14976C28.5057 0.0532607 28.2589 0 28 0C27.4781 0 27.0052 0.216485 26.6605 0.567329L26.6489 0.579256L21.5592 5.84124C20.8136 6.61201 20.8136 7.86168 21.5592 8.63245C22.3047 9.40322 23.5135 9.40322 24.259 8.63245L26.0909 6.73858V23.0263Z" fill="#EAAA00"/>
    <path d="M0 16.9609C0 15.8779 0.874606 15 1.95349 15H7.16279C11.1186 15 14.3256 18.219 14.3256 22.19V34.925L16.2001 33.0434C16.963 32.2776 18.1998 32.2776 18.9627 33.0434C19.7256 33.8092 19.7256 35.0508 18.9627 35.8166L13.7534 41.0457C12.9905 41.8114 11.7537 41.8114 10.9908 41.0457L5.78147 35.8166C5.01858 35.0508 5.01858 33.8092 5.78147 33.0434C6.54435 32.2776 7.78123 32.2776 8.54412 33.0434L10.4186 34.925V22.19C10.4186 20.385 8.96091 18.9218 7.16279 18.9218H1.95349C0.874606 18.9218 0 18.0439 0 16.9609Z" fill="#EAAA00"/>
    <path d="M45.5814 22.19C45.5814 20.385 47.0391 18.9218 48.8372 18.9218H54.0465C55.1254 18.9218 56 18.0439 56 16.9609C56 15.8779 55.1254 15 54.0465 15H48.8372C44.8814 15 41.6744 18.219 41.6744 22.19V34.925L39.7999 33.0434C39.037 32.2776 37.8002 32.2776 37.0373 33.0434C36.2744 33.8092 36.2744 35.0508 37.0373 35.8166L42.2466 41.0457C43.0095 41.8114 44.2464 41.8114 45.0092 41.0457L50.2185 35.8166C50.9814 35.0508 50.9814 33.8092 50.2185 33.0434C49.4557 32.2776 48.2188 32.2776 47.4559 33.0434L45.5814 34.925V22.19Z" fill="#EAAA00"/>
    <path d="M3.90698 43.5809C3.90698 42.4979 3.03237 41.62 1.95349 41.62C0.874606 41.62 0 42.4979 0 43.5809V48.81C0 52.7809 3.20688 56 7.16279 56H48.8372C52.7931 56 56 52.7809 56 48.81V43.5809C56 42.4979 55.1254 41.62 54.0465 41.62C52.9676 41.62 52.093 42.4979 52.093 43.5809V48.81C52.093 50.6149 50.6353 52.0782 48.8372 52.0782H7.16279C5.36467 52.0782 3.90698 50.6149 3.90698 48.81V43.5809Z" fill="#EAAA00"/>
</svg>
