<svg width="52" height="50" viewBox="0 0 52 50" fill="none" xmlns="http://www.w3.org/2000/svg">
    <path fill-rule="evenodd" clip-rule="evenodd" d="M7.41421 8.08023C5.25491 10.2395 4 13.641 4 18.666C4 19.7706 3.10457 20.666 2 20.666C0.89543 20.666 0 19.7706 0 18.666C0 13.0244 1.41176 8.42583 4.58579 5.2518C7.75981 2.07778 12.3584 0.666016 18 0.666016C19.1046 0.666016 20 1.56145 20 2.66602C20 3.77059 19.1046 4.66602 18 4.66602C12.975 4.66602 9.57352 5.92092 7.41421 8.08023Z" fill="#EAAA00"/>
    <path fill-rule="evenodd" clip-rule="evenodd" d="M47.3333 29.9993C48.4379 29.9993 49.3333 30.8948 49.3333 31.9993C49.3333 37.641 47.9216 42.2395 44.7475 45.4136C41.5735 48.5876 36.975 49.9993 31.3333 49.9993C30.2288 49.9993 29.3333 49.1039 29.3333 47.9993C29.3333 46.8948 30.2288 45.9993 31.3333 45.9993C36.3584 45.9993 39.7598 44.7444 41.9191 42.5851C44.0784 40.4258 45.3333 37.0244 45.3333 31.9993C45.3333 30.8948 46.2288 29.9993 47.3333 29.9993Z" fill="#EAAA00"/>
    <path fill-rule="evenodd" clip-rule="evenodd" d="M44.6667 4.66602C38.4075 4.66602 33.3333 9.74018 33.3333 15.9993V19.3327H48V4.66602H44.6667ZM29.3333 15.9993C29.3333 7.53105 36.1984 0.666016 44.6667 0.666016H50C51.1046 0.666016 52 1.56145 52 2.66602V21.3327C52 22.4373 51.1046 23.3327 50 23.3327H31.3333C30.2288 23.3327 29.3333 22.4373 29.3333 21.3327V15.9993Z" fill="#EAAA00"/>
    <path fill-rule="evenodd" clip-rule="evenodd" d="M0 29.3327C0 28.2281 0.89543 27.3327 2 27.3327H20.6667C21.7712 27.3327 22.6667 28.2281 22.6667 29.3327V34.666C22.6667 43.1343 15.8016 49.9993 7.33333 49.9993H2C0.89543 49.9993 0 49.1039 0 47.9993V29.3327ZM4 31.3327V45.9993H7.33333C13.5925 45.9993 18.6667 40.9252 18.6667 34.666V31.3327H4Z" fill="#EAAA00"/>
</svg>