<svg width="56" height="58" viewBox="0 0 56 58" fill="none" xmlns="http://www.w3.org/2000/svg">
    <path d="M32.001 22.0527C32.001 22.5895 31.9088 23.218 31.8032 23.9382C31.7851 24.0612 31.7667 24.1869 31.7482 24.3153L29.7263 34.4972C29.7263 34.7486 29.4736 34.8743 29.3472 34.8743H26.8198C26.5671 34.8743 26.3143 34.6229 26.4407 34.3715L28.4626 24.3153C28.589 23.6868 28.589 23.184 28.589 22.8069C28.589 20.2929 27.1989 18.9101 24.1661 18.9101C20.5013 18.9101 17.974 20.9213 17.2157 24.9438L15.3202 34.6229C15.3202 34.8743 15.0675 35 14.9411 35H12.4137C12.161 35 11.9082 34.7486 12.0346 34.4972L15.5729 16.5218C15.5729 16.2704 15.8257 16.1447 15.952 16.1447H18.3531C18.6058 16.1447 18.8585 16.3961 18.7322 16.6475L18.6058 17.4017C18.4794 17.7788 18.9849 18.0302 19.2377 17.7788C20.8805 16.5218 22.9024 16.019 25.177 16.019C29.4736 15.7675 32.001 18.0302 32.001 22.0527Z" fill="#EAAA00"/>
    <path d="M14.001 41C12.8964 41 12.001 41.8954 12.001 43C12.001 44.1046 12.8964 45 14.001 45H30.001C31.1055 45 32.001 44.1046 32.001 43C32.001 41.8954 31.1055 41 30.001 41H14.001Z" fill="#EAAA00"/>
    <path fill-rule="evenodd" clip-rule="evenodd" d="M6.66797 57.6654C3.35429 57.6654 0.667969 54.9792 0.667969 51.6654V6.33203C0.667969 3.01833 3.35427 0.332031 6.66797 0.332031H38.668C41.9818 0.332031 44.668 3.01835 44.668 6.33203V24.3793C44.8857 24.3481 45.1083 24.332 45.3346 24.332H50.668C53.2453 24.332 55.3346 26.4213 55.3346 28.9987V51.6654C55.3346 54.9791 52.6484 57.6654 49.3346 57.6654L6.66797 57.6654ZM4.66797 6.33203C4.66797 5.22747 5.56341 4.33203 6.66797 4.33203H38.668C39.7726 4.33203 40.668 5.22745 40.668 6.33203V53.6654H6.66797C5.56338 53.6654 4.66797 52.77 4.66797 51.6654V6.33203ZM44.668 28.9987V53.6654H49.3346C50.4393 53.6654 51.3346 52.77 51.3346 51.6654V28.9987C51.3346 28.6305 51.0362 28.332 50.668 28.332H45.3346C44.9664 28.332 44.668 28.6305 44.668 28.9987Z" fill="#EAAA00"/>
</svg>
