<svg width="64" height="64" viewBox="0 0 64 64" fill="none" xmlns="http://www.w3.org/2000/svg">
    <path fill-rule="evenodd" clip-rule="evenodd" d="M28.8982 8.81142C29.4728 9.85045 29.1105 11.1665 28.0891 11.751L11.4878 21.2502V41.5732C11.4878 42.7653 10.5378 43.7317 9.36585 43.7317C8.19393 43.7317 7.2439 42.7653 7.2439 41.5732V19.9878C7.2439 19.208 7.65739 18.4888 8.32554 18.1065L26.0085 7.98834C27.0299 7.40388 28.3237 7.77239 28.8982 8.81142ZM35.1018 8.81142C35.6763 7.77239 36.9701 7.40388 37.9915 7.98834L55.6745 18.1065C56.3426 18.4888 56.7561 19.208 56.7561 19.9878V41.5732C56.7561 42.7653 55.8061 43.7317 54.6342 43.7317C53.4622 43.7317 52.5122 42.7653 52.5122 41.5732V21.2502L35.9109 11.751C34.8895 11.1665 34.5272 9.85045 35.1018 8.81142ZM11.7603 47.2603C12.3349 46.2213 13.6286 45.8528 14.6501 46.4373L32 56.3649L49.3499 46.4373C50.3714 45.8528 51.6651 46.2213 52.2397 47.2603C52.8142 48.2994 52.452 49.6155 51.4306 50.1999L33.0403 60.7228C32.3944 61.0924 31.6056 61.0924 30.9597 60.7228L12.5694 50.1999C11.548 49.6155 11.1858 48.2994 11.7603 47.2603Z" fill="#EAAA00"/>
    <path fill-rule="evenodd" clip-rule="evenodd" d="M30.9308 21.0014C31.5915 20.6093 32.4085 20.6093 33.0692 21.0014L41.557 26.0379C42.2089 26.4248 42.6098 27.1347 42.6098 27.9024V37.9756C42.6098 38.7433 42.2089 39.4533 41.557 39.8401L33.0692 44.8767C32.4085 45.2687 31.5915 45.2687 30.9308 44.8767L22.443 39.8401C21.7911 39.4533 21.3902 38.7433 21.3902 37.9756V27.9024C21.3902 27.1347 21.7911 26.4248 22.443 26.0379L30.9308 21.0014ZM32 25.3648L25.6341 29.1422V36.7358L32 40.5132L38.3659 36.7358V29.1422L32 25.3648Z" fill="#EAAA00"/>
    <path fill-rule="evenodd" clip-rule="evenodd" d="M32 10.6341C33.1719 10.6341 34.122 11.6006 34.122 12.7927V22.8659C34.122 24.058 33.1719 25.0244 32 25.0244C30.8281 25.0244 29.8781 24.058 29.8781 22.8659V12.7927C29.8781 11.6006 30.8281 10.6341 32 10.6341Z" fill="#EAAA00"/>
    <path fill-rule="evenodd" clip-rule="evenodd" d="M38.6454 36.1852C39.2269 35.1501 40.5231 34.7905 41.5406 35.382L51.443 41.1381C52.4605 41.7295 52.8141 43.0481 52.2326 44.0831C51.6512 45.1182 50.355 45.4778 49.3375 44.8863L39.435 39.1302C38.4175 38.5388 38.064 37.2202 38.6454 36.1852Z" fill="#EAAA00"/>
    <path fill-rule="evenodd" clip-rule="evenodd" d="M25.3546 36.1852C25.936 37.2202 25.5825 38.5388 24.565 39.1302L14.6625 44.8863C13.645 45.4778 12.3488 45.1182 11.7674 44.0831C11.186 43.0481 11.5395 41.7295 12.557 41.1381L22.4594 35.382C23.4769 34.7905 24.7731 35.1501 25.3546 36.1852Z" fill="#EAAA00"/>
    <path fill-rule="evenodd" clip-rule="evenodd" d="M32 6.31707C30.8281 6.31707 29.8781 7.28348 29.8781 8.47561C29.8781 9.66774 30.8281 10.6341 32 10.6341C33.1719 10.6341 34.122 9.66774 34.122 8.47561C34.122 7.28348 33.1719 6.31707 32 6.31707ZM25.6341 8.47561C25.6341 4.89923 28.4842 2 32 2C35.5158 2 38.3659 4.89923 38.3659 8.47561C38.3659 12.052 35.5158 14.9512 32 14.9512C28.4842 14.9512 25.6341 12.052 25.6341 8.47561Z" fill="#EAAA00"/>
    <path fill-rule="evenodd" clip-rule="evenodd" d="M9.36585 43.7317C8.19393 43.7317 7.2439 44.6981 7.2439 45.8902C7.2439 47.0824 8.19393 48.0488 9.36585 48.0488C10.5378 48.0488 11.4878 47.0824 11.4878 45.8902C11.4878 44.6981 10.5378 43.7317 9.36585 43.7317ZM3 45.8902C3 42.3139 5.85009 39.4146 9.36585 39.4146C12.8816 39.4146 15.7317 42.3139 15.7317 45.8902C15.7317 49.4666 12.8816 52.3659 9.36585 52.3659C5.85009 52.3659 3 49.4666 3 45.8902Z" fill="#EAAA00"/>
    <path fill-rule="evenodd" clip-rule="evenodd" d="M54.6342 43.7317C53.4622 43.7317 52.5122 44.6981 52.5122 45.8902C52.5122 47.0824 53.4622 48.0488 54.6341 48.0488C55.8061 48.0488 56.7561 47.0824 56.7561 45.8902C56.7561 44.6981 55.8061 43.7317 54.6342 43.7317ZM48.2683 45.8902C48.2683 42.3139 51.1184 39.4146 54.6341 39.4146C58.1499 39.4146 61 42.3139 61 45.8902C61 49.4666 58.1499 52.3659 54.6341 52.3659C51.1184 52.3659 48.2683 49.4666 48.2683 45.8902Z" fill="#EAAA00"/>
</svg>