<svg width="64" height="64" viewBox="0 0 64 64" fill="none" xmlns="http://www.w3.org/2000/svg">
    <path d="M36 25.0527C36 25.5895 35.9078 26.218 35.8022 26.9382C35.7841 27.0612 35.7657 27.1869 35.7473 27.3153L33.7253 37.4972C33.7253 37.7486 33.4726 37.8743 33.3462 37.8743H30.8188C30.5661 37.8743 30.3134 37.6229 30.4397 37.3715L32.4617 27.3153C32.588 26.6868 32.588 26.184 32.588 25.8069C32.588 23.2929 31.198 21.9101 28.1651 21.9101C24.5004 21.9101 21.973 23.9213 21.2148 27.9438L19.3192 37.6229C19.3192 37.8743 19.0665 38 18.9401 38H16.4127C16.16 38 15.9072 37.7486 16.0336 37.4972L19.572 19.5218C19.572 19.2704 19.8247 19.1447 19.9511 19.1447H22.3521C22.6048 19.1447 22.8576 19.3961 22.7312 19.6475L22.6048 20.4017C22.4785 20.7788 22.9839 21.0302 23.2367 20.7788C24.8795 19.5218 26.9014 19.019 29.176 19.019C33.4726 18.7675 36 21.0302 36 25.0527Z" fill="#EAAA00"/>
    <path d="M18 44C16.8954 44 16 44.8954 16 46C16 47.1046 16.8954 48 18 48H34C35.1046 48 36 47.1046 36 46C36 44.8954 35.1046 44 34 44H18Z" fill="#EAAA00"/>
    <path fill-rule="evenodd" clip-rule="evenodd" d="M10.667 60.6654C7.35331 60.6654 4.66699 57.9792 4.66699 54.6654V9.33203C4.66699 6.01833 7.35329 3.33203 10.667 3.33203H42.667C45.9808 3.33203 48.667 6.01835 48.667 9.33203V27.3793C48.8847 27.3481 49.1073 27.332 49.3337 27.332H54.667C57.2444 27.332 59.3337 29.4213 59.3337 31.9987V54.6654C59.3337 57.9791 56.6474 60.6654 53.3337 60.6654L10.667 60.6654ZM8.66699 9.33203C8.66699 8.22747 9.56243 7.33203 10.667 7.33203H42.667C43.7716 7.33203 44.667 8.22745 44.667 9.33203V56.6654H10.667C9.56241 56.6654 8.66699 55.77 8.66699 54.6654V9.33203ZM48.667 31.9987V56.6654H53.3337C54.4383 56.6654 55.3337 55.77 55.3337 54.6654V31.9987C55.3337 31.6305 55.0352 31.332 54.667 31.332H49.3337C48.9654 31.332 48.667 31.6305 48.667 31.9987Z" fill="#EAAA00"/>
</svg>