<svg width="48" height="48" viewBox="0 0 48 48" fill="none" xmlns="http://www.w3.org/2000/svg">
<path fill-rule="evenodd" clip-rule="evenodd" d="M2 24C2 11.8497 11.8497 2 24 2C36.1503 2 46 11.8497 46 24C46 36.1503 36.1503 46 24 46C11.8497 46 2 36.1503 2 24ZM17.3182 40.719C15.6332 40.045 14.074 39.1237 12.6853 38C13.5734 37.2812 14.5309 36.6453 15.5463 36.1041C15.8263 37.0907 16.1406 38.0209 16.4862 38.8849C16.742 39.5244 17.0192 40.1383 17.3182 40.719ZM19.2869 34.6229C19.5574 35.6293 19.864 36.5592 20.2001 37.3994C20.8682 39.0695 21.6137 40.2869 22.3391 41.0541C23.0606 41.817 23.6226 42 24 42C24.3774 42 24.9394 41.817 25.6609 41.0541C26.3863 40.2869 27.1318 39.0695 27.7999 37.3994C28.136 36.5592 28.4426 35.6293 28.7131 34.6229C27.2111 34.2167 25.631 34 24 34C22.369 34 20.7889 34.2167 19.2869 34.6229ZM29.5192 30.6984C27.7553 30.2426 25.9058 30 24 30C22.0942 30 20.2447 30.2426 18.4808 30.6985C18.2601 29.2207 18.1092 27.6458 18.0411 26H29.9589C29.8908 27.6458 29.7399 29.2207 29.5192 30.6984ZM32.4537 36.1041C32.1737 37.0907 31.8594 38.0209 31.5138 38.8849C31.258 39.5244 30.9808 40.1383 30.6818 40.719C32.3668 40.045 33.9261 39.1237 35.3148 37.9999C34.4267 37.2811 33.4691 36.6453 32.4537 36.1041ZM38.1372 35.143C36.6889 33.9273 35.081 32.8944 33.3497 32.0804C33.6717 30.1667 33.8809 28.1233 33.962 26H41.8901C41.5109 29.4305 40.1676 32.5705 38.1372 35.143ZM41.8901 22C41.5109 18.5695 40.1676 15.4295 38.1372 12.857C36.6889 14.0727 35.081 15.1056 33.3497 15.9196C33.6717 17.8333 33.8809 19.8767 33.962 22H41.8901ZM29.9589 22C29.8908 20.3542 29.7399 18.7793 29.5192 17.3016C27.7553 17.7574 25.9058 18 24 18C22.0942 18 20.2447 17.7574 18.4808 17.3016C18.2601 18.7793 18.1092 20.3542 18.0411 22H29.9589ZM14.038 22C14.1191 19.8766 14.3283 17.8333 14.6503 15.9195C12.919 15.1055 11.3112 14.0727 9.86283 12.857C7.83239 15.4295 6.48909 18.5694 6.10986 22H14.038ZM6.10986 26C6.48909 29.4306 7.83239 32.5705 9.86283 35.143C11.3112 33.9273 12.919 32.8945 14.6503 32.0805C14.3283 30.1667 14.1191 28.1234 14.038 26H6.10986ZM12.6853 10C13.5734 10.7188 14.5309 11.3547 15.5463 11.8959C15.8263 10.9093 16.1406 9.97912 16.4862 9.11508C16.742 8.47559 17.0192 7.86166 17.3182 7.28098C15.6332 7.95497 14.074 8.87629 12.6853 10ZM24 6C23.6226 6 23.0606 6.183 22.3391 6.94592C21.6137 7.71305 20.8682 8.93045 20.2001 10.6006C19.864 11.4408 19.5574 12.3707 19.2869 13.3771C20.7889 13.7833 22.369 14 24 14C25.631 14 27.2111 13.7833 28.7131 13.3771C28.4426 12.3707 28.136 11.4408 27.7999 10.6006C27.1318 8.93045 26.3863 7.71305 25.6609 6.94592C24.9394 6.183 24.3774 6 24 6ZM32.4537 11.8959C33.4691 11.3547 34.4267 10.7189 35.3148 10.0001C33.9261 8.87631 32.3668 7.95498 30.6818 7.28098C30.9808 7.86167 31.258 8.47559 31.5138 9.11508C31.8594 9.97914 32.1737 10.9093 32.4537 11.8959Z" fill="#333333"/>
</svg>
