<svg width="44" height="44" viewBox="0 0 44 44" fill="none" xmlns="http://www.w3.org/2000/svg">
<path fill-rule="evenodd" clip-rule="evenodd" d="M0 22C0 9.84973 9.84973 0 22 0C34.1503 0 44 9.84973 44 22C44 34.1503 34.1503 44 22 44C9.84973 44 0 34.1503 0 22ZM15.3182 38.719C13.6332 38.045 12.074 37.1237 10.6853 36C11.5734 35.2812 12.5309 34.6453 13.5463 34.1041C13.8263 35.0907 14.1406 36.0209 14.4862 36.8849C14.742 37.5244 15.0192 38.1383 15.3182 38.719ZM17.2869 32.6229C17.5574 33.6293 17.864 34.5592 18.2001 35.3994C18.8682 37.0695 19.6137 38.2869 20.3391 39.0541C21.0606 39.817 21.6226 40 22 40C22.3774 40 22.9394 39.817 23.6609 39.0541C24.3863 38.2869 25.1318 37.0695 25.7999 35.3994C26.136 34.5592 26.4426 33.6293 26.7131 32.6229C25.2111 32.2167 23.631 32 22 32C20.369 32 18.7889 32.2167 17.2869 32.6229ZM27.5192 28.6984C25.7553 28.2426 23.9058 28 22 28C20.0942 28 18.2447 28.2426 16.4808 28.6985C16.2601 27.2207 16.1092 25.6458 16.0411 24H27.9589C27.8908 25.6458 27.7399 27.2207 27.5192 28.6984ZM30.4537 34.1041C30.1737 35.0907 29.8594 36.0209 29.5138 36.8849C29.258 37.5244 28.9808 38.1383 28.6818 38.719C30.3668 38.045 31.9261 37.1237 33.3148 35.9999C32.4267 35.2811 31.4691 34.6453 30.4537 34.1041ZM36.1372 33.143C34.6889 31.9273 33.081 30.8944 31.3497 30.0804C31.6717 28.1667 31.8809 26.1233 31.962 24H39.8901C39.5109 27.4305 38.1676 30.5705 36.1372 33.143ZM39.8901 20C39.5109 16.5695 38.1676 13.4295 36.1372 10.857C34.6889 12.0727 33.081 13.1056 31.3497 13.9196C31.6717 15.8333 31.8809 17.8767 31.962 20H39.8901ZM27.9589 20C27.8908 18.3542 27.7399 16.7793 27.5192 15.3016C25.7553 15.7574 23.9058 16 22 16C20.0942 16 18.2447 15.7574 16.4808 15.3016C16.2601 16.7793 16.1092 18.3542 16.0411 20H27.9589ZM12.038 20C12.1191 17.8766 12.3283 15.8333 12.6503 13.9195C10.919 13.1055 9.31116 12.0727 7.86283 10.857C5.83239 13.4295 4.48909 16.5694 4.10986 20H12.038ZM4.10986 24C4.48909 27.4306 5.83239 30.5705 7.86283 33.143C9.31116 31.9273 10.919 30.8945 12.6503 30.0805C12.3283 28.1667 12.1191 26.1234 12.038 24H4.10986ZM10.6853 8.00004C11.5734 8.71883 12.5309 9.35466 13.5463 9.8959C13.8263 8.90932 14.1406 7.97912 14.4862 7.11508C14.742 6.47559 15.0192 5.86166 15.3182 5.28098C13.6332 5.95497 12.074 6.87629 10.6853 8.00004ZM22 4C21.6226 4 21.0606 4.183 20.3391 4.94592C19.6137 5.71305 18.8682 6.93045 18.2001 8.60064C17.864 9.44084 17.5574 10.3707 17.2869 11.3771C18.7889 11.7833 20.369 12 22 12C23.631 12 25.2111 11.7833 26.7131 11.3771C26.4426 10.3707 26.136 9.44084 25.7999 8.60064C25.1318 6.93045 24.3863 5.71305 23.6609 4.94592C22.9394 4.183 22.3774 4 22 4ZM30.4537 9.89594C31.4691 9.3547 32.4267 8.71887 33.3148 8.00008C31.9261 6.87631 30.3668 5.95498 28.6818 5.28098C28.9808 5.86167 29.258 6.47559 29.5138 7.11508C29.8594 7.97914 30.1737 8.90935 30.4537 9.89594Z" fill="#333333"/>
</svg>
