<svg width="48" height="48" viewBox="0 0 48 48" fill="none" xmlns="http://www.w3.org/2000/svg">
<path d="M24 1C25.1046 1 26 1.89543 26 3V6.15C26 7.25457 25.1046 8.15 24 8.15C22.8954 8.15 22 7.25457 22 6.15V3C22 1.89543 22.8954 1 24 1Z" fill="#333333"/>
<path d="M10.5646 7.73667C9.78356 6.95562 8.51723 6.95562 7.73618 7.73666C6.95513 8.51771 6.95513 9.78404 7.73617 10.5651L9.96358 12.7925C10.7446 13.5736 12.011 13.5736 12.792 12.7925C13.5731 12.0115 13.5731 10.7451 12.792 9.96409L10.5646 7.73667Z" fill="#333333"/>
<path d="M3 22C1.89543 22 1 22.8954 1 24C1 25.1046 1.89543 26 3 26H6.15C7.25457 26 8.15 25.1046 8.15 24C8.15 22.8954 7.25457 22 6.15 22H3Z" fill="#333333"/>
<path d="M12.792 35.2079C13.5731 35.9889 13.5731 37.2552 12.792 38.0363L10.5646 40.2637C9.78355 41.0447 8.51722 41.0447 7.73617 40.2637C6.95513 39.4826 6.95513 38.2163 7.73618 37.4352L9.96359 35.2079C10.7446 34.4268 12.011 34.4268 12.792 35.2079Z" fill="#333333"/>
<path d="M38.0363 35.2079C37.2552 34.4268 35.9889 34.4268 35.2079 35.2079C34.4268 35.9889 34.4268 37.2552 35.2079 38.0363L37.4353 40.2637C38.2163 41.0447 39.4826 41.0447 40.2637 40.2637C41.0447 39.4826 41.0447 38.2163 40.2637 37.4353L38.0363 35.2079Z" fill="#333333"/>
<path d="M39.8496 24C39.8496 22.8954 40.745 22 41.8496 22H44.9996C46.1042 22 46.9996 22.8954 46.9996 24C46.9996 25.1046 46.1042 26 44.9996 26H41.8496C40.745 26 39.8496 25.1046 39.8496 24Z" fill="#333333"/>
<path d="M40.2637 10.5651C41.0447 9.78403 41.0447 8.5177 40.2637 7.73666C39.4826 6.95561 38.2163 6.95562 37.4352 7.73667L35.2079 9.96409C34.4268 10.7451 34.4268 12.0115 35.2079 12.7925C35.9889 13.5736 37.2552 13.5736 38.0363 12.7925L40.2637 10.5651Z" fill="#333333"/>
<path d="M10 24C10 16.268 16.268 10 24 10C31.732 10 38 16.268 38 24C38 31.732 31.732 38 24 38C16.268 38 10 31.732 10 24Z" fill="#333333"/>
<path d="M26 41.8501C26 40.7455 25.1046 39.8501 24 39.8501C22.8954 39.8501 22 40.7455 22 41.8501V45.0001C22 46.1047 22.8954 47.0001 24 47.0001C25.1046 47.0001 26 46.1047 26 45.0001V41.8501Z" fill="#333333"/>
</svg>
