<svg width="480" height="240" viewBox="0 0 480 240" fill="none" xmlns="http://www.w3.org/2000/svg">
<mask id="mask0_18962_102598" style="mask-type:alpha" maskUnits="userSpaceOnUse" x="0" y="0" width="480" height="240">
<rect width="480" height="240" fill="#D9D9D9"/>
</mask>
<g mask="url(#mask0_18962_102598)">
<mask id="mask1_18962_102598" style="mask-type:alpha" maskUnits="userSpaceOnUse" x="-15" y="184" width="550" height="72">
<path d="M65 184H535V256H-15L65 184Z" fill="url(#paint0_linear_18962_102598)"/>
</mask>
<g mask="url(#mask1_18962_102598)">
<path d="M65 184H535V256H-15L65 184Z" fill="url(#paint1_linear_18962_102598)"/>
<line opacity="0.4" x1="15" y1="195.5" x2="535" y2="195.5" stroke="#0D0E14"/>
<line opacity="0.4" x1="15" y1="211.5" x2="535" y2="211.5" stroke="#0D0E14"/>
<line opacity="0.4" x1="15" y1="231.5" x2="535" y2="231.5" stroke="#0D0E14"/>
<line opacity="0.4" x1="8.43129" y1="266.705" x2="170.833" y2="130.434" stroke="#0D0E14"/>
<line opacity="0.4" x1="63.4815" y1="279.833" x2="199.752" y2="117.431" stroke="#0D0E14"/>
<line opacity="0.4" x1="165.702" y1="290.502" x2="271.702" y2="106.905" stroke="#0D0E14"/>
<line opacity="0.4" x1="280.412" y1="298.39" x2="352.92" y2="99.1752" stroke="#0D0E14"/>
<line opacity="0.4" x1="401.236" y1="303.256" x2="438.05" y2="94.4772" stroke="#0D0E14"/>
</g>
<ellipse opacity="0.6" cx="224" cy="228.5" rx="71" ry="11.5" fill="#15161C"/>
<path fill-rule="evenodd" clip-rule="evenodd" d="M70.1082 159.14C71.4794 165.266 64.6784 174.489 53.7028 180.826C41.8107 187.692 29.4348 188.619 25.7082 183.01L25.6594 183.032L25.4688 182.619C25.3006 182.321 25.1582 182.012 25.041 181.692L23.4094 178.157L24.0904 177.843L24.6247 179.001C24.7805 172.976 31.2883 164.898 41.2023 159.174C51.7551 153.081 62.6888 151.665 67.6217 155.343L66.5355 153.035L67.2141 152.715L69.3056 157.16C69.3395 157.215 69.3726 157.27 69.4049 157.326C69.6143 157.689 69.7852 158.068 69.9187 158.463L70.2141 159.09L70.1082 159.14Z" fill="#F9F9F9" fill-opacity="0.8"/>
<ellipse cx="45.2026" cy="165.5" rx="25.3484" ry="12.5006" transform="rotate(-30 45.2026 165.5)" fill="#0D0E13"/>
<path d="M66.7219 153.076C68.3004 155.81 67.5394 159.709 64.7292 163.915C61.9387 168.091 57.2131 172.423 51.2029 175.893C45.1928 179.363 39.0788 181.289 34.0669 181.618C29.0195 181.949 25.2617 180.658 23.6833 177.924C22.1049 175.19 22.8659 171.29 25.6761 167.085C28.4665 162.908 33.1922 158.577 39.2023 155.107C45.2125 151.637 51.3264 149.71 56.3383 149.382C61.3858 149.051 65.1435 150.342 66.7219 153.076Z" stroke="#F9F9F9" stroke-opacity="0.8"/>
<path d="M108 126L195.974 128.826C219.483 129.582 242.435 121.58 260.38 106.373V106.373C280.248 89.5357 306.162 81.6027 332.051 84.4327L350.222 86.419C391.22 90.9005 432.063 76.7338 461.48 47.8282L472.5 37" stroke="#F9F9F9" stroke-opacity="0.6"/>
<rect x="249" y="20" width="88.1034" height="101.452" rx="4" fill="#111419"/>
<rect x="249.5" y="20.5" width="87.1034" height="100.452" rx="3.5" stroke="#F9F9F9" stroke-opacity="0.8"/>
<rect opacity="0.6" x="257.509" y="29.8444" width="71.0846" height="81.7638" rx="1.5" stroke="#F9F9F9" stroke-opacity="0.8"/>
<path d="M304.566 56.7096C304.566 63.4631 299.386 68.8912 293.052 68.8912C286.718 68.8912 281.538 63.4631 281.538 56.7096C281.538 49.9561 286.718 44.5281 293.052 44.5281C299.386 44.5281 304.566 49.9561 304.566 56.7096Z" fill="#36C56E" fill-opacity="0.3" stroke="#1C8929"/>
<mask id="path-21-inside-1_18962_102598" fill="white">
<path d="M323.755 105.434C323.755 97.2908 320.52 89.4815 314.762 83.7236C309.004 77.9657 301.195 74.731 293.052 74.731C284.909 74.731 277.1 77.9657 271.342 83.7236C265.584 89.4814 262.349 97.2908 262.349 105.434L293.052 105.434H323.755Z"/>
</mask>
<path d="M323.755 105.434C323.755 97.2908 320.52 89.4815 314.762 83.7236C309.004 77.9657 301.195 74.731 293.052 74.731C284.909 74.731 277.1 77.9657 271.342 83.7236C265.584 89.4814 262.349 97.2908 262.349 105.434L293.052 105.434H323.755Z" fill="#36C56E" fill-opacity="0.3" stroke="#1C8929" stroke-width="2" mask="url(#path-21-inside-1_18962_102598)"/>
<rect x="202" y="41" width="111.345" height="128.215" rx="4" fill="#111419"/>
<rect x="202.5" y="41.5" width="110.345" height="127.215" rx="3.5" stroke="#F9F9F9" stroke-opacity="0.8"/>
<rect opacity="0.6" x="212.622" y="53.3093" width="90.1003" height="103.597" rx="1.5" stroke="#F9F9F9" stroke-opacity="0.8"/>
<path d="M272.356 87.3936C272.356 95.9947 265.757 102.921 257.672 102.921C249.588 102.921 242.989 95.9947 242.989 87.3936C242.989 78.7925 249.588 71.8667 257.672 71.8667C265.757 71.8667 272.356 78.7925 272.356 87.3936Z" fill="#36C56E" fill-opacity="0.3" stroke="#1C8929"/>
<mask id="path-26-inside-2_18962_102598" fill="white">
<path d="M296.474 148.971C296.474 138.68 292.386 128.81 285.109 121.534C277.833 114.257 267.963 110.169 257.672 110.169C247.381 110.169 237.512 114.257 230.235 121.534C222.958 128.81 218.87 138.68 218.87 148.971L257.672 148.971H296.474Z"/>
</mask>
<path d="M296.474 148.971C296.474 138.68 292.386 128.81 285.109 121.534C277.833 114.257 267.963 110.169 257.672 110.169C247.381 110.169 237.512 114.257 230.235 121.534C222.958 128.81 218.87 138.68 218.87 148.971L257.672 148.971H296.474Z" fill="#36C56E" fill-opacity="0.3" stroke="#1C8929" stroke-width="2" mask="url(#path-26-inside-2_18962_102598)"/>
<rect x="155" y="61" width="130.448" height="150.213" rx="4" fill="#111419"/>
<rect x="155.5" y="61.5" width="129.448" height="149.213" rx="3.5" stroke="#F9F9F9" stroke-opacity="0.8"/>
<rect opacity="0.6" x="167.359" y="75.3356" width="105.73" height="121.542" rx="1.5" stroke="#F9F9F9" stroke-opacity="0.8"/>
<path d="M237.513 115.353C237.513 125.473 229.747 133.63 220.224 133.63C210.701 133.63 202.936 125.473 202.936 115.353C202.936 105.234 210.701 97.0767 220.224 97.0767C229.747 97.0767 237.513 105.234 237.513 115.353Z" fill="#36C56E" fill-opacity="0.3" stroke="#1C8929"/>
<mask id="path-31-inside-3_18962_102598" fill="white">
<path d="M265.683 187.495C265.683 175.439 260.894 163.876 252.369 155.351C243.843 146.825 232.281 142.036 220.224 142.036C208.168 142.036 196.605 146.825 188.08 155.351C179.554 163.876 174.765 175.439 174.765 187.495L220.224 187.495H265.683Z"/>
</mask>
<path d="M265.683 187.495C265.683 175.439 260.894 163.876 252.369 155.351C243.843 146.825 232.281 142.036 220.224 142.036C208.168 142.036 196.605 146.825 188.08 155.351C179.554 163.876 174.765 175.439 174.765 187.495L220.224 187.495H265.683Z" fill="#36C56E" fill-opacity="0.3" stroke="#1C8929" stroke-width="2" mask="url(#path-31-inside-3_18962_102598)"/>
<ellipse cx="409.5" cy="76.5" rx="27.5" ry="18.5" fill="#1C8929"/>
<path d="M409.5 65.25V69.75" stroke="#F9F9F9" stroke-opacity="0.8" stroke-width="2.25" stroke-linecap="round" stroke-linejoin="round"/>
<path fill-rule="evenodd" clip-rule="evenodd" d="M408.375 75.375L419.625 77.625L416.25 79.875L419.625 83.25L416.25 86.625L412.875 83.25L410.625 86.625L408.375 75.375Z" stroke="#F9F9F9" stroke-opacity="0.8" stroke-width="2.25" stroke-linecap="round" stroke-linejoin="round"/>
<path d="M417.455 68.545L414.273 71.727" stroke="#F9F9F9" stroke-opacity="0.8" stroke-width="2.25" stroke-linecap="round" stroke-linejoin="round"/>
<path d="M401.545 84.4548L404.727 81.2728" stroke="#F9F9F9" stroke-opacity="0.8" stroke-width="2.25" stroke-linecap="round" stroke-linejoin="round"/>
<path d="M398.25 76.5H402.75" stroke="#F9F9F9" stroke-opacity="0.8" stroke-width="2.25" stroke-linecap="round" stroke-linejoin="round"/>
<path d="M401.545 68.545L404.727 71.727" stroke="#F9F9F9" stroke-opacity="0.8" stroke-width="2.25" stroke-linecap="round" stroke-linejoin="round"/>
</g>
<defs>
<linearGradient id="paint0_linear_18962_102598" x1="275" y1="184" x2="275" y2="256" gradientUnits="userSpaceOnUse">
<stop stop-color="#1F2329"/>
<stop offset="1" stop-color="#16181C"/>
</linearGradient>
<linearGradient id="paint1_linear_18962_102598" x1="275" y1="184" x2="275" y2="256" gradientUnits="userSpaceOnUse">
<stop stop-color="#1F2329"/>
<stop offset="1" stop-color="#16181C"/>
</linearGradient>
</defs>
</svg>
