<svg width="48" height="48" viewBox="0 0 48 48" fill="none" xmlns="http://www.w3.org/2000/svg">
<path d="M42.9271 14.4634C42.834 14.1279 42.652 13.8123 42.382 13.5542C41.983 13.1729 41.4673 12.9892 40.9559 13.0005H29.0001C27.8955 13.0005 27.0001 13.8959 27.0001 15.0005C27.0001 16.1051 27.8955 17.0005 29.0001 17.0005H36.3213L25.851 27.9546L17.3793 22.7921C16.5306 22.2749 15.4308 22.4594 14.7974 23.2253L4.45888 35.7253C3.7549 36.5765 3.87422 37.8372 4.72538 38.5412C5.57655 39.2452 6.83724 39.1258 7.54123 38.2747L16.7763 27.1088L25.1439 32.2079C25.9464 32.6969 26.9811 32.5613 27.6304 31.8819L39 19.987V27.0005C39 28.1051 39.8954 29.0005 41 29.0005C42.1045 29.0005 43 28.1051 43 27.0005V15.0205C43.0008 14.9347 42.9962 14.8488 42.9861 14.7634C42.9741 14.6623 42.9544 14.562 42.9271 14.4634Z" fill="#333333"/>
</svg>
