<svg width="48" height="48" viewBox="0 0 48 48" fill="none" xmlns="http://www.w3.org/2000/svg">
<g clip-path="url(#clip0_5116_74502)">
<path d="M24 48C37.2548 48 48 37.2548 48 24C48 10.7452 37.2548 0 24 0C10.7452 0 0 10.7452 0 24C0 37.2548 10.7452 48 24 48Z" fill="#8247E5"/>
<path d="M31.9438 18.8652C31.3682 18.5303 30.6198 18.5303 29.9866 18.8652L25.4966 21.4326L22.4457 23.107L17.9557 25.6745C17.38 26.0093 16.6317 26.0093 15.9984 25.6745L12.4294 23.6652C11.8538 23.3303 11.4509 22.7163 11.4509 22.0465V18.0838C11.4509 17.414 11.7962 16.8 12.4294 16.4652L15.9409 14.5117C16.5165 14.1768 17.2649 14.1768 17.8981 14.5117L21.4095 16.4652C21.9852 16.8 22.3881 17.414 22.3881 18.0838V20.6512L25.439 18.921V16.3535C25.439 15.6838 25.0936 15.0698 24.4604 14.7349L17.9557 11.0512C17.38 10.7163 16.6317 10.7163 15.9984 11.0512L9.37851 14.7349C8.74528 15.0698 8.3999 15.6838 8.3999 16.3535V23.7768C8.3999 24.4465 8.74528 25.0605 9.37851 25.3954L15.9984 29.0791C16.5741 29.414 17.3224 29.414 17.9557 29.0791L22.4457 26.5675L25.4966 24.8372L29.9866 22.3256C30.5623 21.9908 31.3106 21.9908 31.9438 22.3256L35.4553 24.2791C36.0309 24.614 36.4339 25.2279 36.4339 25.8977V29.8605C36.4339 30.5303 36.0885 31.1442 35.4553 31.4791L31.9438 33.4884C31.3682 33.8233 30.6198 33.8233 29.9866 33.4884L26.4752 31.5349C25.8996 31.2 25.4966 30.5861 25.4966 29.9163V27.3489L22.4457 29.0791V31.6465C22.4457 32.3163 22.791 32.9303 23.4243 33.2652L30.0442 36.9489C30.6198 37.2838 31.3682 37.2838 32.0014 36.9489L38.6213 33.2652C39.197 32.9303 39.5999 32.3163 39.5999 31.6465V24.2233C39.5999 23.5535 39.2545 22.9396 38.6213 22.6047L31.9438 18.8652Z" fill="white"/>
</g>
<defs>
<clipPath id="clip0_5116_74502">
<rect width="48" height="48" fill="white"/>
</clipPath>
</defs>
</svg>
