<svg width="48" height="48" viewBox="0 0 48 48" fill="none" xmlns="http://www.w3.org/2000/svg">
<path d="M26.6905 24.0002C26.6905 30.6275 21.3871 36 14.8455 36C8.30378 36 3 30.6263 3 24.0002C3 17.3741 8.30337 12 14.8455 12C21.3876 12 26.6905 17.3729 26.6905 24.0002ZM39.685 24.0002C39.685 30.2384 37.0333 35.2975 33.7622 35.2975C30.4912 35.2975 27.8395 30.2384 27.8395 24.0002C27.8395 17.762 30.4908 12.7029 33.7618 12.7029C37.0329 12.7029 39.685 17.7604 39.685 24.0002ZM45 24.0002C45 29.5881 44.0675 34.1208 42.917 34.1208C41.7664 34.1208 40.8343 29.5893 40.8343 24.0002C40.8343 18.4111 41.7668 13.8796 42.917 13.8796C44.0671 13.8796 45 18.4107 45 24.0002Z" fill="#333333"/>
</svg>
