<svg width="49" height="48" viewBox="0 0 49 48" fill="none" xmlns="http://www.w3.org/2000/svg">
<path d="M41.1546 6.66699L26.5703 17.5003L29.2824 11.1159L41.1546 6.66699Z" fill="#E17726" stroke="#E17726" stroke-width="0.25" stroke-linecap="round" stroke-linejoin="round"/>
<path d="M7.51367 6.66699L21.9681 17.6014L19.3859 11.1159L7.51367 6.66699Z" fill="#E27625" stroke="#E27625" stroke-width="0.25" stroke-linecap="round" stroke-linejoin="round"/>
<path d="M35.9039 31.7861L32.0234 37.7373L40.3326 40.0339L42.7128 31.9162L35.9039 31.7861Z" fill="#E27625" stroke="#E27625" stroke-width="0.25" stroke-linecap="round" stroke-linejoin="round"/>
<path d="M5.9707 31.9162L8.33648 40.0339L16.6312 37.7373L12.7651 31.7861L5.9707 31.9162Z" fill="#E27625" stroke="#E27625" stroke-width="0.25" stroke-linecap="round" stroke-linejoin="round"/>
<path d="M16.185 21.7329L13.877 25.2285L22.0995 25.604L21.8255 16.7207L16.185 21.7329Z" fill="#E27625" stroke="#E27625" stroke-width="0.25" stroke-linecap="round" stroke-linejoin="round"/>
<path d="M32.4847 21.7325L26.7579 16.6191L26.5703 25.6036L34.7928 25.228L32.4847 21.7325Z" fill="#E27625" stroke="#E27625" stroke-width="0.25" stroke-linecap="round" stroke-linejoin="round"/>
<path d="M16.6309 37.7369L21.6076 35.3247L17.3233 31.9736L16.6309 37.7369Z" fill="#E27625" stroke="#E27625" stroke-width="0.25" stroke-linecap="round" stroke-linejoin="round"/>
<path d="M27.0605 35.3247L32.0229 37.7369L31.3449 31.9736L27.0605 35.3247Z" fill="#E27625" stroke="#E27625" stroke-width="0.25" stroke-linecap="round" stroke-linejoin="round"/>
<path d="M32.0229 37.7374L27.0605 35.3252L27.4644 38.5607L27.4211 39.933L32.0229 37.7374Z" fill="#D5BFB2" stroke="#D5BFB2" stroke-width="0.25" stroke-linecap="round" stroke-linejoin="round"/>
<path d="M16.6309 37.7374L21.2471 39.933L21.2182 38.5607L21.6076 35.3252L16.6309 37.7374Z" fill="#D5BFB2" stroke="#D5BFB2" stroke-width="0.25" stroke-linecap="round" stroke-linejoin="round"/>
<path d="M21.3347 29.8359L17.209 28.6227L20.1229 27.2793L21.3347 29.8359Z" fill="#233447" stroke="#233447" stroke-width="0.25" stroke-linecap="round" stroke-linejoin="round"/>
<path d="M27.3359 29.8359L28.5477 27.2793L31.4761 28.6227L27.3359 29.8359Z" fill="#233447" stroke="#233447" stroke-width="0.25" stroke-linecap="round" stroke-linejoin="round"/>
<path d="M16.6316 37.7373L17.353 31.7861L12.7656 31.9162L16.6316 37.7373Z" fill="#CC6228" stroke="#CC6228" stroke-width="0.25" stroke-linecap="round" stroke-linejoin="round"/>
<path d="M31.3164 31.7861L32.0233 37.7373L35.9037 31.9162L31.3164 31.7861Z" fill="#CC6228" stroke="#CC6228" stroke-width="0.25" stroke-linecap="round" stroke-linejoin="round"/>
<path d="M34.7928 25.2275L26.5703 25.6031L27.3348 29.8354L28.5466 27.2787L31.475 28.622L34.7928 25.2275Z" fill="#CC6228" stroke="#CC6228" stroke-width="0.25" stroke-linecap="round" stroke-linejoin="round"/>
<path d="M17.2092 28.622L20.1232 27.2787L21.335 29.8354L22.0995 25.6031L13.877 25.2275L17.2092 28.622Z" fill="#CC6228" stroke="#CC6228" stroke-width="0.25" stroke-linecap="round" stroke-linejoin="round"/>
<path d="M13.877 25.2275L17.3247 31.9731L17.2092 28.622L13.877 25.2275Z" fill="#E27525" stroke="#E27525" stroke-width="0.25" stroke-linecap="round" stroke-linejoin="round"/>
<path d="M31.4755 28.622L31.3457 31.9731L34.7934 25.2275L31.4755 28.622Z" fill="#E27525" stroke="#E27525" stroke-width="0.25" stroke-linecap="round" stroke-linejoin="round"/>
<path d="M22.0986 25.6035L21.334 29.8358L22.3005 34.8335L22.5169 28.2469L22.0986 25.6035Z" fill="#E27525" stroke="#E27525" stroke-width="0.25" stroke-linecap="round" stroke-linejoin="round"/>
<path d="M26.57 25.6035L26.166 28.2325L26.368 34.8335L27.3345 29.8358L26.57 25.6035Z" fill="#E27525" stroke="#E27525" stroke-width="0.25" stroke-linecap="round" stroke-linejoin="round"/>
<path d="M27.3356 29.8355L26.3691 34.8331L27.0616 35.3243L31.346 31.9732L31.4758 28.6221L27.3356 29.8355Z" fill="#F5841F" stroke="#F5841F" stroke-width="0.25" stroke-linecap="round" stroke-linejoin="round"/>
<path d="M17.209 28.6221L17.3245 31.9732L21.6088 35.3243L22.3012 34.8331L21.3347 29.8355L17.209 28.6221Z" fill="#F5841F" stroke="#F5841F" stroke-width="0.25" stroke-linecap="round" stroke-linejoin="round"/>
<path d="M27.4212 39.9329L27.4644 38.5606L27.0894 38.2428H21.5789L21.2182 38.5606L21.2471 39.9329L16.6309 37.7373L18.2465 39.0662L21.5211 41.334H27.1326L30.4216 39.0662L32.0229 37.7373L27.4212 39.9329Z" fill="#C0AC9D" stroke="#C0AC9D" stroke-width="0.25" stroke-linecap="round" stroke-linejoin="round"/>
<path d="M27.0611 35.325L26.3686 34.834H22.3006L21.6083 35.325L21.2188 38.5607L21.5794 38.2428H27.09L27.465 38.5607L27.0611 35.325Z" fill="#161616" stroke="#161616" stroke-width="0.25" stroke-linecap="round" stroke-linejoin="round"/>
<path d="M41.7745 18.2081L43.0008 12.2281L41.1543 6.66699L27.0605 17.1393L32.4845 21.7325L40.1444 23.9715L41.8323 21.9926L41.0966 21.4581L42.265 20.3893L41.3707 19.6959L42.5392 18.8003L41.7745 18.2081Z" fill="#763E1A" stroke="#763E1A" stroke-width="0.25" stroke-linecap="round" stroke-linejoin="round"/>
<path d="M5.66797 12.2281L6.90857 18.2081L6.11517 18.8003L7.29806 19.6959L6.40367 20.3893L7.57214 21.4581L6.83643 21.9926L8.52423 23.9715L16.1843 21.7325L21.6082 17.1393L7.51444 6.66699L5.66797 12.2281Z" fill="#763E1A" stroke="#763E1A" stroke-width="0.25" stroke-linecap="round" stroke-linejoin="round"/>
<path d="M40.1453 23.9713L32.4853 21.7324L34.7934 25.228L31.3457 31.9735L35.9042 31.9158H42.713L40.1453 23.9713Z" fill="#F5841F" stroke="#F5841F" stroke-width="0.25" stroke-linecap="round" stroke-linejoin="round"/>
<path d="M16.1839 21.7324L8.52402 23.9713L5.9707 31.9158H12.7651L17.3236 31.9735L13.8759 25.228L16.1839 21.7324Z" fill="#F5841F" stroke="#F5841F" stroke-width="0.25" stroke-linecap="round" stroke-linejoin="round"/>
<path d="M26.5707 25.604L27.0611 17.1395L29.2826 11.1162H19.3867L21.6082 17.1395L22.0987 25.604L22.2862 28.2618L22.3007 34.834H26.3687L26.3831 28.2618L26.5707 25.604Z" fill="#F5841F" stroke="#F5841F" stroke-width="0.25" stroke-linecap="round" stroke-linejoin="round"/>
</svg>
