<svg width="48" height="48" viewBox="0 0 48 48" fill="none" xmlns="http://www.w3.org/2000/svg">
<path fill-rule="evenodd" clip-rule="evenodd" d="M5.99902 7C5.99902 6.44772 6.44674 6 6.99902 6H40.999C41.5513 6 41.999 6.44772 41.999 7V11C41.999 11.5523 41.5513 12 40.999 12H6.99902C6.44674 12 5.99902 11.5523 5.99902 11V7ZM5.99902 22C5.99902 21.4477 6.44674 21 6.99902 21H40.999C41.5513 21 41.999 21.4477 41.999 22V26C41.999 26.5523 41.5513 27 40.999 27H6.99902C6.44674 27 5.99902 26.5523 5.99902 26V22ZM6.99969 36C6.4474 36 5.99969 36.4477 5.99969 37V41C5.99969 41.5523 6.4474 42 6.99969 42H40.9997C41.552 42 41.9997 41.5523 41.9997 41V37C41.9997 36.4477 41.552 36 40.9997 36H6.99969Z" fill="black"/>
</svg>
