<svg width="100" height="48" viewBox="0 0 100 48" fill="none" xmlns="http://www.w3.org/2000/svg">
<path d="M28.3915 16.447C28.3708 17.3463 28.289 18.2431 28.1475 19.1314L25.7071 31.5773C25.7071 31.8213 25.4631 31.9433 25.219 31.9433H22.1686C21.9062 31.925 21.6988 31.7176 21.6805 31.4552V31.3332L24.1209 19.1314C24.2624 18.5311 24.3442 17.9173 24.3649 17.3011C24.3649 14.3727 22.6566 12.6644 18.9961 12.6644C14.6034 12.6644 11.553 14.9828 10.5768 19.9855L8.25849 31.6993C8.25849 31.9433 8.01445 32.0653 7.77041 32.0653H4.59794C4.3356 32.047 4.12817 31.8396 4.10986 31.5773V31.4552L8.50252 9.61397C8.52082 9.35163 8.72826 9.1442 8.99059 9.12589H11.919C12.1814 9.1442 12.3888 9.35163 12.4071 9.61397V9.73599L12.2851 10.5901C12.2802 10.8464 12.423 11.0831 12.6511 11.2002C12.7854 11.2161 12.9196 11.1721 13.0172 11.0782C15.1086 9.57248 17.6405 8.80011 20.2163 8.88186C25.219 8.75984 28.3915 11.5663 28.3915 16.447Z" fill="black"/>
<path d="M54.6254 18.8875V19.4976C54.6254 19.7417 54.5034 19.9857 54.2594 19.9857L36.2007 23.2802C35.9481 23.3205 35.7748 23.5572 35.8151 23.8097C35.82 23.8366 35.8261 23.8634 35.8346 23.8903C36.5667 26.8187 38.763 28.405 42.9117 28.405C45.3032 28.505 47.6484 27.7241 49.5007 26.2086C49.7301 26.0866 50.0034 26.0866 50.2328 26.2086L50.3548 26.3306L51.575 28.405C51.697 28.649 51.697 28.893 51.4529 29.015C48.9308 31.0406 45.7803 32.1204 42.5456 32.0655C35.7126 32.0655 31.564 28.1609 31.564 22.182C31.564 14.4949 36.9328 8.76001 44.3759 8.76001C50.4646 8.76001 54.6254 12.2985 54.6254 18.8875ZM36.3227 20.3517L50.3548 17.7894C50.5903 17.7784 50.7721 17.5783 50.7623 17.3428C50.7599 17.2854 50.7452 17.2305 50.7208 17.1793C50.2328 14.0068 47.7924 12.2985 44.2539 12.2985C39.7392 12.2985 36.5667 15.227 35.8346 19.7417C35.8297 19.9979 35.9725 20.2346 36.2007 20.3517H36.3227Z" fill="black"/>
<path d="M54.9913 29.1383L56.3335 26.6979C56.4823 26.4441 56.7947 26.3404 57.0656 26.4539C59.3071 27.8058 61.8914 28.4843 64.5087 28.4062C68.4133 28.4062 70.4876 27.186 70.4876 24.9897C70.4876 20.597 57.7977 23.7695 57.7977 15.9603C57.7977 11.4456 61.9463 8.51718 68.1693 8.51718C70.8024 8.5001 73.4002 9.1285 75.7344 10.3475C75.9784 10.4695 76.1004 10.7135 75.8564 10.9576L74.7582 13.5199C74.6094 13.7737 74.297 13.8774 74.0261 13.764C72.1165 12.7366 69.9702 12.2314 67.8032 12.2998C64.0206 12.2998 61.9463 13.764 61.9463 15.7163C61.9463 20.353 74.6362 17.0585 74.6362 24.7456C74.6362 29.5043 70.3656 32.1887 64.1427 32.1887C60.9738 32.2924 57.8404 31.4871 55.1133 29.8704C54.8693 29.5043 54.8693 29.2603 54.9913 29.1383Z" fill="black"/>
<path d="M83.4096 24.6211C83.3083 25.0201 83.268 25.4313 83.2876 25.8413C83.1228 27.2201 84.1063 28.4708 85.4839 28.6355C85.5241 28.6404 85.5644 28.644 85.6059 28.6477H86.216C87.1604 28.6514 88.0878 28.3976 88.9004 27.9156C89.1713 27.8021 89.4836 27.9058 89.6325 28.1596V28.2816L90.2426 30.3559C90.3475 30.5817 90.2487 30.8501 90.023 30.9551C90.0144 30.9587 90.0071 30.9624 89.9986 30.966C88.4636 31.797 86.7407 32.2167 84.9958 32.1862C81.4573 32.1862 79.0169 30.1119 79.0169 26.4514C78.9962 25.8388 79.0377 25.2251 79.1389 24.6211L83.1655 4.36606C83.1655 4.12202 83.4096 4 83.6536 4H86.9481C87.2104 4.0183 87.4179 4.22573 87.4362 4.48807V4.61009L86.7041 8.39266C86.6992 8.6489 86.8419 8.88561 87.0701 9.00275H92.4389C92.7013 9.02105 92.9087 9.22848 92.927 9.49082V9.61284L92.4389 12.0532C92.4389 12.2972 92.1949 12.4193 91.9509 12.4193H86.338C86.094 12.4193 85.8499 12.5413 85.8499 12.7853L83.4096 24.6211Z" fill="black"/>
<path d="M6.55262 38.6521L6.20975 40.3628H9.21628L8.96614 41.5647H5.97914L5.50815 43.9245H4L5.29583 37.4502H10.1888L9.93863 38.6521H6.55262Z" fill="black"/>
<path d="M11.2698 38.9482H12.7036L11.714 43.9254H10.2803L11.2698 38.9482ZM11.6261 38.038C11.4687 37.8928 11.3906 37.7146 11.3906 37.5048C11.3906 37.2583 11.4785 37.0533 11.6542 36.8898C11.8299 36.7263 12.0605 36.6445 12.3436 36.6445C12.5962 36.6445 12.8012 36.7153 12.9586 36.8532C13.116 36.9911 13.1941 37.1631 13.1941 37.3669C13.1941 37.6317 13.105 37.8464 12.9256 38.0087C12.7463 38.1722 12.5156 38.254 12.2313 38.254C11.9849 38.2552 11.7835 38.1832 11.6261 38.038Z" fill="black"/>
<path d="M18.8166 39.3143C19.1436 39.6071 19.3071 40.0244 19.3071 40.5662C19.3071 40.7699 19.2852 40.9701 19.2425 41.1677L18.6873 43.9241H17.2438L17.7795 41.2605C17.8039 41.1555 17.8161 41.0408 17.8161 40.9176C17.8161 40.6589 17.7453 40.4612 17.6038 40.327C17.4622 40.1916 17.2487 40.1232 16.9656 40.1232C16.5959 40.1232 16.2884 40.2294 16.0456 40.4429C15.8028 40.6553 15.6381 40.9749 15.5514 41.3996L15.0524 43.9241H13.6089L14.5985 38.9482H15.9675L15.8565 39.4839C16.3006 39.0775 16.846 38.8738 17.4939 38.8738C18.0491 38.875 18.4896 39.0214 18.8166 39.3143Z" fill="black"/>
<path d="M26.6518 38.9482L25.6622 43.9253H24.2932L24.3859 43.436C23.9722 43.8119 23.4634 43.9998 22.8594 43.9998C22.4714 43.9998 22.1139 43.9107 21.7869 43.7313C21.4599 43.5532 21.2 43.2957 21.006 42.959C20.812 42.6222 20.7144 42.2256 20.7144 41.7693C20.7144 41.2214 20.8364 40.7272 21.0792 40.2855C21.322 39.8438 21.6539 39.4985 22.0736 39.2484C22.4922 38.9995 22.9558 38.8738 23.461 38.8738C24.2248 38.8738 24.7654 39.1239 25.0802 39.623L25.2095 38.947H26.6518V38.9482ZM24.0613 42.5978C24.2834 42.4599 24.4567 42.2671 24.5799 42.0194C24.7031 41.7717 24.7641 41.4886 24.7641 41.1689C24.7641 40.8297 24.6641 40.5613 24.464 40.3648C24.2626 40.1672 23.9844 40.0683 23.6269 40.0683C23.3438 40.0683 23.0901 40.1379 22.868 40.277C22.6459 40.4149 22.4726 40.6077 22.3494 40.8554C22.2262 41.1031 22.1652 41.3861 22.1652 41.7058C22.1652 42.045 22.2652 42.3135 22.4653 42.5099C22.6666 42.7076 22.9449 42.8064 23.3024 42.8064C23.5867 42.8064 23.8392 42.7369 24.0613 42.5978Z" fill="black"/>
<path d="M32.7551 39.3143C33.0821 39.6071 33.2456 40.0244 33.2456 40.5662C33.2456 40.7699 33.2237 40.9701 33.1809 41.1677L32.6258 43.9241H31.1823L31.7179 41.2605C31.7424 41.1555 31.7546 41.0408 31.7546 40.9176C31.7546 40.6589 31.6838 40.4612 31.5422 40.327C31.4007 40.1916 31.1872 40.1232 30.9041 40.1232C30.5344 40.1232 30.2269 40.2294 29.9841 40.4429C29.7413 40.6553 29.5765 40.9749 29.4899 41.3996L28.9908 43.9241H27.5474L28.5369 38.9482H29.906L29.7949 39.4839C30.2391 39.0775 30.7845 38.8738 31.4324 38.8738C31.9876 38.875 32.4281 39.0214 32.7551 39.3143Z" fill="black"/>
<path d="M35.8359 43.7216C35.454 43.5373 35.1587 43.2762 34.9525 42.9394C34.7463 42.6027 34.6426 42.2134 34.6426 41.7693C34.6426 41.2214 34.7719 40.7272 35.0306 40.2904C35.2893 39.8524 35.6505 39.5058 36.1129 39.2533C36.5754 39.0007 37.0964 38.8738 37.676 38.8738C38.2067 38.8738 38.6643 38.9836 39.0487 39.2032C39.4342 39.4216 39.7222 39.7316 39.9138 40.133L38.6936 40.7431C38.4776 40.2929 38.1079 40.0671 37.5832 40.0671C37.3001 40.0671 37.0451 40.1367 36.8206 40.2758C36.5949 40.4137 36.4192 40.6064 36.2935 40.8541C36.1678 41.1018 36.1044 41.3813 36.1044 41.6948C36.1044 42.0341 36.2056 42.3037 36.4094 42.505C36.6132 42.7052 36.8963 42.8052 37.2599 42.8052C37.7907 42.8052 38.197 42.5831 38.4813 42.139L39.5453 42.8052C39.3049 43.181 38.9767 43.4739 38.5606 43.6837C38.1445 43.8936 37.6833 43.9985 37.1781 43.9985C36.6644 43.9985 36.2166 43.9058 35.8359 43.7216Z" fill="black"/>
<path d="M41.5599 38.9482H42.9936L42.004 43.9241H40.5703L41.5599 38.9482ZM41.9162 38.038C41.7588 37.8928 41.6807 37.7146 41.6807 37.5048C41.6807 37.2583 41.7685 37.0533 41.9442 36.8898C42.1199 36.7263 42.3506 36.6445 42.6336 36.6445C42.8862 36.6445 43.0912 36.7153 43.2486 36.8532C43.406 36.9911 43.4841 37.1631 43.4841 37.3669C43.4841 37.6317 43.395 37.8464 43.2157 38.0087C43.0363 38.1722 42.8057 38.254 42.5214 38.254C42.2749 38.2552 42.0736 38.1832 41.9162 38.038Z" fill="black"/>
<path d="M49.9403 38.9494L48.9508 43.9253H47.5817L47.6745 43.436C47.2608 43.8119 46.752 43.9998 46.148 43.9998C45.76 43.9998 45.4025 43.9107 45.0755 43.7313C44.7485 43.5532 44.4886 43.2957 44.2946 42.959C44.1005 42.6222 44.0029 42.2256 44.0029 41.7693C44.0029 41.2214 44.1249 40.7272 44.3678 40.2855C44.6106 39.8438 44.9425 39.4985 45.3622 39.2484C45.7807 38.9995 46.2444 38.8738 46.7496 38.8738C47.5134 38.8738 48.0539 39.1239 48.3687 39.623L48.4981 38.947H49.9403V38.9494ZM47.3499 42.599C47.572 42.4611 47.7452 42.2683 47.8685 42.0206C47.9917 41.7729 48.0527 41.4899 48.0527 41.1702C48.0527 40.831 47.9527 40.5625 47.7525 40.3661C47.5512 40.1684 47.273 40.0696 46.9155 40.0696C46.6324 40.0696 46.3786 40.1391 46.1566 40.2782C45.9345 40.4161 45.7612 40.6089 45.638 40.8566C45.5147 41.1043 45.4537 41.3874 45.4537 41.707C45.4537 42.0463 45.5538 42.3147 45.7539 42.5111C45.9552 42.7088 46.2334 42.8076 46.5909 42.8076C46.8752 42.8076 47.1278 42.7381 47.3499 42.599Z" fill="black"/>
<path d="M52.2055 37.0627H53.6477L52.2799 43.9251H50.8364L52.2055 37.0627Z" fill="black"/>
<path d="M66.0234 37.4502L64.7374 43.9245H63.3317L64.0907 40.0772L61.621 43.2412H60.9548L59.6224 40.0406L58.8451 43.9257H57.4395L58.7353 37.4514H59.9555L61.5734 41.4841L64.7374 37.4514H66.0234V37.4502Z" fill="black"/>
<path d="M72.7746 38.9494L71.785 43.9253H70.4147L70.5075 43.436C70.095 43.8119 69.585 43.9998 68.9822 43.9998C68.5942 43.9998 68.2367 43.9107 67.9085 43.7313C67.5815 43.5532 67.3216 43.2957 67.1276 42.959C66.9323 42.6234 66.8359 42.2256 66.8359 41.7693C66.8359 41.2214 66.958 40.7272 67.202 40.2855C67.4448 39.845 67.7767 39.4985 68.1952 39.2484C68.615 38.9995 69.0774 38.8738 69.5826 38.8738C70.3476 38.8738 70.8857 39.1239 71.2005 39.623L71.3299 38.947H72.7746V38.9494ZM70.1841 42.599C70.4074 42.4611 70.5795 42.2683 70.7039 42.0206C70.8272 41.7742 70.8869 41.4899 70.8869 41.1702C70.8869 40.831 70.7869 40.5625 70.5868 40.3661C70.3867 40.1684 70.1072 40.0696 69.7497 40.0696C69.4666 40.0696 69.2141 40.1391 68.992 40.2782C68.7687 40.4161 68.5967 40.6089 68.4722 40.8566C68.349 41.1031 68.2892 41.3874 68.2892 41.707C68.2892 42.0463 68.3892 42.3147 68.5893 42.5111C68.7894 42.7088 69.0689 42.8076 69.4264 42.8076C69.7107 42.8076 69.9633 42.7381 70.1841 42.599Z" fill="black"/>
<path d="M76.6904 39.0336C76.9966 38.9287 77.3554 38.8762 77.769 38.8762L77.5103 40.2087C77.3358 40.1952 77.2272 40.1891 77.1772 40.1891C76.7404 40.1891 76.389 40.2977 76.1291 40.5137C75.8667 40.7297 75.6886 41.0652 75.5959 41.5216L75.1151 43.9266H73.6704L74.6612 38.9506H76.0302L75.9094 39.5424C76.1266 39.3069 76.3853 39.1386 76.6904 39.0336Z" fill="black"/>
<path d="M81.8844 41.1125L83.5951 43.9251H81.921L80.7362 41.9923L79.8577 42.7232L79.6185 43.9251H78.1738L79.5429 37.0627H80.9864L80.2188 40.9014L82.6043 38.9491H84.4822L81.8844 41.1125Z" fill="black"/>
<path d="M89.8034 41.8266H85.9928C86.0416 42.505 86.4699 42.8443 87.2777 42.8443C87.5302 42.8443 87.7731 42.804 88.0049 42.7235C88.2367 42.6429 88.4381 42.5294 88.6101 42.3818L89.2117 43.3336C88.9335 43.5568 88.6174 43.7216 88.2599 43.8326C87.9012 43.9449 87.5254 43.9998 87.13 43.9998C86.6188 43.9998 86.1697 43.9095 85.7842 43.7264C85.3998 43.5459 85.1021 43.2847 84.8959 42.9443C84.6884 42.6063 84.5859 42.2134 84.5859 41.7693C84.5859 41.2214 84.7104 40.7272 84.9605 40.2855C85.2107 39.8438 85.5572 39.4985 86.0026 39.2484C86.4455 38.9995 86.9507 38.8738 87.518 38.8738C88 38.8738 88.4161 38.9629 88.7712 39.1422C89.1262 39.3216 89.4008 39.5766 89.5948 39.9097C89.7888 40.2428 89.8864 40.6284 89.8864 41.0664C89.8864 41.2958 89.8571 41.5484 89.8034 41.8266ZM86.5931 40.2306C86.3601 40.4124 86.1929 40.6638 86.0941 40.9847H88.5637C88.5637 40.6638 88.4637 40.4124 88.2623 40.2306C88.0622 40.05 87.7914 39.9573 87.4534 39.9573C87.1154 39.9573 86.8274 40.05 86.5931 40.2306Z" fill="black"/>
<path d="M92.8076 42.1686C92.7954 42.2186 92.7881 42.2869 92.7881 42.3723C92.7881 42.6932 92.965 42.8543 93.3164 42.8543C93.5067 42.8543 93.7008 42.7945 93.8996 42.6774L94.112 43.7048C93.7923 43.9012 93.3774 44.0001 92.8722 44.0001C92.4037 44.0001 92.0291 43.8768 91.7448 43.6303C91.4605 43.3839 91.3177 43.0447 91.3177 42.6127C91.3177 42.4883 91.3336 42.3443 91.3641 42.1783L91.7619 40.1711H90.9932L91.2165 39.0608H91.984L92.2243 37.8491H93.6678L93.4274 39.0608H94.6671L94.4451 40.1711H93.2054L92.8076 42.1686Z" fill="black"/>
</svg>
