<svg width="48" height="48" viewBox="0 0 48 48" fill="none" xmlns="http://www.w3.org/2000/svg">
<path d="M24 48C37.2548 48 48 37.2548 48 24C48 10.7452 37.2548 0 24 0C10.7452 0 0 10.7452 0 24C0 37.2548 10.7452 48 24 48Z" fill="black"/>
<path d="M36 19.4065C36 20.1756 35.8484 21.0986 35.6967 22.1753L33.2704 34.6347C33.2704 34.9424 32.9671 35.0962 32.8155 35.0962H29.7826C29.4793 35.0962 29.176 34.7885 29.3277 34.4809L31.754 22.1753C31.9056 21.4062 31.9056 20.7909 31.9056 20.3295C31.9056 17.2531 30.2375 15.561 26.5981 15.561C22.2004 15.561 19.1676 18.0222 18.2577 22.9444L15.9831 34.7885C15.9831 35.0962 15.6798 35.25 15.5281 35.25H12.4953C12.192 35.25 11.8887 34.9424 12.0403 34.6347L16.2864 12.6385C16.2864 12.3308 16.5896 12.177 16.7413 12.177H19.6225C19.9258 12.177 20.2291 12.4846 20.0774 12.7923L19.9258 13.7152C19.7741 14.1767 20.3807 14.4843 20.684 14.1767C22.6554 12.6385 25.0817 12.0232 27.8113 12.0232C32.9671 11.7155 36 14.4843 36 19.4065Z" fill="white"/>
</svg>
