<svg width="48" height="48" viewBox="0 0 48 48" fill="none" xmlns="http://www.w3.org/2000/svg">
<path fill-rule="evenodd" clip-rule="evenodd" d="M17.0709 40H4C2.89543 40 2 39.1046 2 38C2 36.8954 2.89543 36 4 36H8V18C8 9.16343 15.1634 2 24 2C32.8366 2 40 9.16343 40 18V36H44C45.1046 36 46 36.8954 46 38C46 39.1046 45.1046 40 44 40H30.9291C30.4439 43.3923 27.5264 46 24 46C20.4736 46 17.5561 43.3923 17.0709 40ZM12 18C12 11.3726 17.3726 6 24 6C30.6274 6 36 11.3726 36 18V36H12V18ZM21.1707 40C21.5826 41.1652 22.6938 42 24 42C25.3062 42 26.4174 41.1652 26.8293 40H21.1707Z" fill="#333333"/>
</svg>
