<svg width="13" height="13" viewBox="0 0 13 13" fill="none" xmlns="http://www.w3.org/2000/svg">
    <path d="M4.0628 3.77109C4.58997 3.24391 5.31994 2.91683 6.12518 2.91683C6.93044 2.91683 7.66041 3.24391 8.18759 3.77109C8.41539 3.99889 8.41539 4.36824 8.18759 4.59605C7.95978 4.82385 7.59044 4.82385 7.36263 4.59605C7.04531 4.27873 6.60862 4.0835 6.12518 4.0835C5.64178 4.0835 5.20508 4.27873 4.88776 4.59605C4.65995 4.82385 4.29061 4.82385 4.0628 4.59605C3.835 4.36824 3.835 3.99889 4.0628 3.77109Z" fill="#F9F9F9" fill-opacity="0.6"/>
    <path fill-rule="evenodd" clip-rule="evenodd" d="M0.583496 6.12516C0.583496 3.0646 3.0646 0.583496 6.12516 0.583496C9.18573 0.583496 11.6668 3.0646 11.6668 6.12516C11.6668 7.44533 11.2052 8.65767 10.4345 9.60959L12.5772 11.7522C12.805 11.98 12.805 12.3494 12.5772 12.5772C12.3494 12.805 11.98 12.805 11.7522 12.5772L9.60959 10.4345C8.65767 11.2052 7.44533 11.6668 6.12516 11.6668C3.0646 11.6668 0.583496 9.18573 0.583496 6.12516ZM6.12516 1.75016C3.70893 1.75016 1.75016 3.70893 1.75016 6.12516C1.75016 8.5414 3.70893 10.5002 6.12516 10.5002C8.5414 10.5002 10.5002 8.5414 10.5002 6.12516C10.5002 3.70893 8.5414 1.75016 6.12516 1.75016Z" fill="#F9F9F9"/>
</svg>
