<svg width="48" height="48" viewBox="0 0 48 48" fill="none" xmlns="http://www.w3.org/2000/svg">
<path fill-rule="evenodd" clip-rule="evenodd" d="M6 36C7.10457 36 8 36.8954 8 38V40H40V38C40 36.8954 40.8954 36 42 36C43.1046 36 44 36.8954 44 38V42C44 43.1046 43.1046 44 42 44H6C4.89543 44 4 43.1046 4 42V38C4 36.8954 4.89543 36 6 36Z" fill="#333333"/>
<path fill-rule="evenodd" clip-rule="evenodd" d="M28.5858 4.58579C29.3668 3.80474 30.6332 3.80474 31.4142 4.58579L41.4142 14.5858C42.1953 15.3668 42.1953 16.6332 41.4142 17.4142L31.4142 27.4142C30.6332 28.1953 29.3668 28.1953 28.5858 27.4142C27.8047 26.6332 27.8047 25.3668 28.5858 24.5858L37.1716 16L28.5858 7.41421C27.8047 6.63317 27.8047 5.36683 28.5858 4.58579Z" fill="#333333"/>
<path fill-rule="evenodd" clip-rule="evenodd" d="M14.7639 17.2654C21.1448 14.7396 29.9785 14 40 14C41.1046 14 42 14.8954 42 16C42 17.1046 41.1046 18 40 18C30.0215 18 21.8552 18.7604 16.2361 20.9846C13.4594 22.0837 11.426 23.4946 10.0844 25.2362C8.76258 26.952 8 29.1329 8 32C8 33.1046 7.10457 34 6 34C4.89543 34 4 33.1046 4 32C4 28.3671 4.98742 25.298 6.91563 22.7951C8.82399 20.3179 11.5406 18.5413 14.7639 17.2654Z" fill="#333333"/>
</svg>
