<svg width="48" height="48" viewBox="0 0 48 48" fill="none" xmlns="http://www.w3.org/2000/svg">
<path d="M7.54123 11.7254C6.83724 10.8742 5.57655 10.7549 4.72538 11.4589C3.87422 12.1629 3.7549 13.4236 4.45888 14.2747L14.7974 26.7747C15.4308 27.5406 16.5306 27.7251 17.3793 27.2079L25.851 22.0455L36.3216 32.9999H29C27.8954 32.9999 27 33.8953 27 34.9999C27 36.1045 27.8954 36.9999 29 36.9999H40.9753C41.4803 37.0062 41.988 36.8224 42.382 36.4458C42.6135 36.2245 42.7803 35.9609 42.8819 35.6787C42.944 35.5065 42.9831 35.3234 42.9956 35.133C42.9989 35.0836 43.0004 35.0342 43 34.9847V23C43 21.8954 42.1046 21 41 21C39.8954 21 39 21.8954 39 23V30.0131L27.6304 18.1181C26.9811 17.4388 25.9464 17.3032 25.1439 17.7922L16.7763 22.8912L7.54123 11.7254Z" fill="#333333"/>
</svg>
