<svg width="48" height="48" viewBox="0 0 48 48" fill="none" xmlns="http://www.w3.org/2000/svg">
<path fill-rule="evenodd" clip-rule="evenodd" d="M39.5563 39.5563C35.5751 43.5375 30.0751 46 24 46C17.9249 46 12.4249 43.5375 8.44365 39.5563C4.46244 35.5751 2 30.0751 2 24C2 17.9249 4.46244 12.4249 8.44365 8.44365C12.4249 4.46244 17.9249 2 24 2C30.0751 2 35.5751 4.46244 39.5563 8.44365C43.5375 12.4249 46 17.9249 46 24C46 30.0751 43.5375 35.5751 39.5563 39.5563ZM35.4142 19.4142C36.1953 18.6332 36.1953 17.3668 35.4142 16.5858C34.6332 15.8047 33.3668 15.8047 32.5858 16.5858L22 27.1716L17.4142 22.5858C16.6332 21.8047 15.3668 21.8047 14.5858 22.5858C13.8047 23.3668 13.8047 24.6332 14.5858 25.4142L20.5858 31.4142C21.3668 32.1953 22.6332 32.1953 23.4142 31.4142L35.4142 19.4142Z" fill="#333333"/>
</svg>
