<svg width="48" height="48" viewBox="0 0 48 48" fill="none" xmlns="http://www.w3.org/2000/svg">
<path fill-rule="evenodd" clip-rule="evenodd" d="M26.1414 4.80795C26.9224 4.02691 28.1888 4.02691 28.9698 4.80795L41.4143 17.2524C41.9863 17.8244 42.1574 18.6846 41.8478 19.432C41.5383 20.1793 40.809 20.6666 40.0001 20.6666H8.00006C6.89549 20.6666 6.00006 19.7712 6.00006 18.6666C6.00006 17.562 6.89549 16.6666 8.00006 16.6666H35.1716L26.1414 7.63638C25.3604 6.85533 25.3604 5.589 26.1414 4.80795ZM6.1523 28.5679C6.46186 27.8206 7.19113 27.3333 8.00006 27.3333H40.0001C41.1046 27.3333 42.0001 28.2287 42.0001 29.3333C42.0001 30.4379 41.1046 31.3333 40.0001 31.3333H12.8285L21.8587 40.3635C22.6398 41.1446 22.6398 42.4109 21.8587 43.1919C21.0777 43.973 19.8113 43.973 19.0303 43.1919L6.58584 30.7475C6.01385 30.1755 5.84274 29.3153 6.1523 28.5679Z" fill="#333333"/>
</svg>
