<svg width="24" height="24" viewBox="0 0 24 24" fill="none" xmlns="http://www.w3.org/2000/svg">
<path fill-rule="evenodd" clip-rule="evenodd" d="M2.40422 10.9293C2.0137 10.5388 2.0137 9.90561 2.40422 9.51509L8.62644 3.29286C8.91244 3.00687 9.34256 2.92131 9.71623 3.07609C10.0899 3.23087 10.3336 3.59551 10.3336 3.99997L10.3336 20C10.3336 20.5523 9.88584 21 9.33355 21C8.78127 21 8.33355 20.5523 8.33355 20V6.41418L3.81843 10.9293C3.42791 11.3198 2.79475 11.3198 2.40422 10.9293ZM14.2842 20.9239C13.9105 20.7691 13.6669 20.4044 13.6669 20L13.6669 3.99997C13.6669 3.44769 14.1146 2.99997 14.6669 2.99997C15.2192 2.99997 15.6669 3.44769 15.6669 3.99997L15.6669 17.5858L20.182 13.0706C20.5725 12.6801 21.2057 12.6801 21.5962 13.0706C21.9867 13.4612 21.9867 14.0943 21.5962 14.4849L15.374 20.7071C15.088 20.9931 14.6579 21.0786 14.2842 20.9239Z" fill="#030308"/>
</svg>
