<svg width="48" height="48" viewBox="0 0 48 48" fill="none" xmlns="http://www.w3.org/2000/svg">
<path fill-rule="evenodd" clip-rule="evenodd" d="M24 44C35.0457 44 44 35.0457 44 24C44 12.9543 35.0457 4 24 4C12.9543 4 4 12.9543 4 24C4 35.0457 12.9543 44 24 44ZM34.989 16.3426C35.1741 14.3453 32.9539 15.1677 32.9539 15.1677C31.3146 15.8124 29.624 16.4675 27.9151 17.1297C22.6164 19.183 17.1422 21.3043 12.4789 23.392C9.95041 24.2732 11.4305 25.1544 11.4305 25.1544L15.4392 26.3293C17.2893 26.858 18.2761 26.2706 18.2761 26.2706L26.9101 20.6898C29.9937 18.6925 29.2536 20.3373 28.5136 21.0423L22.038 26.9167C21.0513 27.7392 21.5446 28.4441 21.9764 28.7966C23.1998 29.8221 26.2096 31.6985 27.5236 32.5176C27.8655 32.7308 28.0926 32.8724 28.1435 32.9087C28.4519 33.1437 30.117 34.2011 31.2271 33.9662C32.3372 33.7312 32.4605 32.38 32.4605 32.38L33.9406 23.1571C34.1627 21.5559 34.4173 20.0169 34.6207 18.7877C34.8127 17.6267 34.9591 16.7421 34.989 16.3426Z" fill="#333333"/>
</svg>
