<svg width="48" height="48" viewBox="0 0 48 48" fill="none" xmlns="http://www.w3.org/2000/svg">
<mask id="mask0_929_80449" style="mask-type:alpha" maskUnits="userSpaceOnUse" x="4" y="4" width="40" height="40">
<path d="M31.12 4H16.88C12.3241 4 10.0461 4 8.3122 4.90069C6.85106 5.6597 5.6597 6.85106 4.90069 8.3122C4 10.0461 4 12.3241 4 16.88V31.12C4 35.6759 4 37.9539 4.90069 39.6878C5.6597 41.1489 6.85106 42.3403 8.3122 43.0993C10.0461 44 12.3241 44 16.88 44H31.12C35.6759 44 37.9539 44 39.6878 43.0993C41.1489 42.3403 42.3403 41.1489 43.0993 39.6878C44 37.9539 44 35.6759 44 31.12V16.88C44 12.3241 44 10.0461 43.0993 8.3122C42.3403 6.85106 41.1489 5.6597 39.6878 4.90069C37.9539 4 35.6759 4 31.12 4Z" fill="#C4C4C4"/>
</mask>
<g mask="url(#mask0_929_80449)">
<path d="M44.6844 4H2.94531V44H44.6844V4Z" fill="#2980FE"/>
<mask id="mask1_929_80449" style="mask-type:luminance" maskUnits="userSpaceOnUse" x="10" y="14" width="30" height="20">
<path d="M39.0175 14.8203H10.5625V33.1797H39.0175V14.8203Z" fill="white"/>
</mask>
<g mask="url(#mask1_929_80449)">
<path d="M19.8906 21.1346H19.8956C19.8906 21.1039 19.8906 21.0681 19.8906 21.0374V21.1346Z" fill="#29AEFF"/>
<path d="M30.0778 22.1067H24.439V32.2842C24.439 32.7651 24.8278 33.154 25.3088 33.154H29.2079C29.6889 33.154 30.0778 32.7651 30.0778 32.2842V22.1067Z" fill="white"/>
<path d="M21.7173 14.8203H21.528H11.4324C10.9514 14.8203 10.5625 15.2092 10.5625 15.6902V19.2208C10.5625 19.7018 10.9514 20.0907 11.4324 20.0907H13.8015H14.743V21.1345V32.3098C14.743 32.7908 15.1319 33.1797 15.6129 33.1797H19.3175C19.7985 33.1797 20.1873 32.7908 20.1873 32.3098V21.1345V21.0373V20.0907H21.1289H21.5126H21.702C23.1552 20.0907 24.3371 18.9087 24.3371 17.4555C24.3525 16.0023 23.1705 14.8203 21.7173 14.8203Z" fill="white"/>
<path d="M30.083 22.1067V29.2089C30.2775 29.255 30.477 29.2908 30.6817 29.3215C30.9682 29.3624 31.265 29.388 31.5618 29.3931C31.5771 29.3931 31.5925 29.3931 31.613 29.3931V23.7441C30.7584 23.6878 30.083 22.9765 30.083 22.1067Z" fill="url(#paint0_linear_929_80449)"/>
<path d="M31.7254 14.8203C27.7035 14.8203 24.439 18.0849 24.439 22.1068C24.439 25.5658 26.849 28.4619 30.0829 29.209V22.1068C30.0829 21.2011 30.8197 20.4642 31.7254 20.4642C32.6311 20.4642 33.3679 21.2011 33.3679 22.1068C33.3679 22.8692 32.8511 23.5088 32.145 23.693C32.0119 23.7288 31.8687 23.7493 31.7254 23.7493V29.3932C31.8687 29.3932 32.0068 29.3881 32.145 29.383C35.9724 29.1629 39.0118 25.9905 39.0118 22.1068C39.0169 18.0849 35.7524 14.8203 31.7254 14.8203Z" fill="white"/>
<path d="M31.7261 29.3932V23.7493C31.6852 23.7493 31.6493 23.7493 31.6084 23.7441V29.3932C31.6493 29.3932 31.6903 29.3932 31.7261 29.3932Z" fill="white"/>
</g>
</g>
<defs>
<linearGradient id="paint0_linear_929_80449" x1="31.7279" y1="25.751" x2="30.0837" y2="25.751" gradientUnits="userSpaceOnUse">
<stop stop-color="white"/>
<stop offset="0.9667" stop-color="white" stop-opacity="0.3233"/>
<stop offset="1" stop-color="white" stop-opacity="0.3"/>
</linearGradient>
</defs>
</svg>
