<svg width="48" height="48" viewBox="0 0 48 48" fill="none" xmlns="http://www.w3.org/2000/svg">
<mask id="mask0_18840_86309" style="mask-type:alpha" maskUnits="userSpaceOnUse" x="4" y="4" width="40" height="40">
<path d="M31.12 4H16.88C12.3241 4 10.0461 4 8.3122 4.90069C6.85106 5.6597 5.6597 6.85106 4.90069 8.3122C4 10.0461 4 12.3241 4 16.88V31.12C4 35.6759 4 37.9539 4.90069 39.6878C5.6597 41.1489 6.85106 42.3403 8.3122 43.0993C10.0461 44 12.3241 44 16.88 44H31.12C35.6759 44 37.9539 44 39.6878 43.0993C41.1489 42.3403 42.3403 41.1489 43.0993 39.6878C44 37.9539 44 35.6759 44 31.12V16.88C44 12.3241 44 10.0461 43.0993 8.3122C42.3403 6.85106 41.1489 5.6597 39.6878 4.90069C37.9539 4 35.6759 4 31.12 4Z" fill="#C4C4C4"/>
</mask>
<g mask="url(#mask0_18840_86309)">
<path d="M44.6844 4H2.94531V44H44.6844V4Z" fill="white"/>
<path fill-rule="evenodd" clip-rule="evenodd" d="M33.9808 14.7876C34.3313 14.7876 34.6618 14.9314 34.906 15.1751C35.1503 15.4251 35.2871 15.7626 35.2808 16.1063C35.2187 19.8314 35.0745 22.6814 34.8061 24.9376C34.544 27.1939 34.1503 28.8688 33.5566 30.2251C33.1566 31.1314 32.6618 31.8814 32.0808 32.5188C31.2997 33.3626 30.4061 33.9751 29.4313 34.5564C29.0145 34.8057 28.5808 35.0518 28.126 35.31C27.1566 35.8608 26.0892 36.4665 24.8808 37.2752C24.444 37.5688 23.8745 37.5688 23.4376 37.2752C22.2103 36.457 21.1292 35.8439 20.1503 35.2886C19.9334 35.1652 19.7208 35.0445 19.5124 34.9252C18.3682 34.2626 17.3376 33.6314 16.4376 32.7188C15.8376 32.1188 15.3187 31.3876 14.906 30.5188C14.3439 29.3563 13.9618 27.9501 13.6808 26.1314C13.3061 23.7001 13.1187 20.5188 13.0503 16.1063C13.044 15.7626 13.1745 15.4251 13.4187 15.1751C13.6618 14.9314 13.9997 14.7876 14.3503 14.7876H14.8871C16.5439 14.7939 20.1997 14.6314 23.3618 12.1689C23.8313 11.8063 24.4871 11.8063 24.9566 12.1689C28.1187 14.6314 31.7745 14.7939 33.4376 14.7876H33.9808ZM31.0745 29.3939C31.4808 28.5563 31.8187 27.4001 32.0745 25.7376C32.3808 23.7501 32.5682 21.0501 32.6566 17.3751C30.706 17.3188 27.3566 16.9439 24.1618 14.7939C20.9682 16.9376 17.6187 17.3126 15.6745 17.3751C15.7439 20.4126 15.8808 22.7751 16.0997 24.6314C16.3503 26.7439 16.706 28.1751 17.1503 29.1814C17.4439 29.8501 17.7682 30.3314 18.1566 30.7563C18.6745 31.3251 19.3313 31.7939 20.225 32.3314C20.5955 32.5538 21.0039 32.7852 21.4492 33.037C22.2418 33.4857 23.1492 33.9994 24.1618 34.6439C25.1566 34.0099 26.0513 33.5015 26.8345 33.0561C27.0703 32.9219 27.2966 32.7934 27.5124 32.6688C28.6124 32.0376 29.425 31.5126 30.0313 30.9001C30.4376 30.4814 30.7682 30.0251 31.0745 29.3939Z" fill="#2980FE"/>
</g>
</svg>
