<svg width="48" height="48" viewBox="0 0 48 48" fill="none" xmlns="http://www.w3.org/2000/svg">
<path d="M46 11.0257C44.4555 11.7074 42.7963 12.168 41.052 12.3762C42.8314 11.3149 44.1965 9.63097 44.8402 7.62642C43.1755 8.61027 41.3313 9.32513 39.3687 9.70836C37.7964 8.04281 35.5583 7 33.0796 7C28.3221 7 24.4636 10.8433 24.4636 15.5857C24.4636 16.2563 24.5413 16.9085 24.6855 17.5386C17.5215 17.1794 11.1751 13.7617 6.92443 8.56974C6.18453 9.84101 5.75909 11.3149 5.75909 12.8847C5.75909 15.862 7.28142 18.4912 9.59174 20.0296C8.17854 19.9835 6.85044 19.5985 5.6888 18.9555V19.066C5.6888 23.2243 8.65762 26.6936 12.6013 27.4822C11.8762 27.6775 11.1159 27.7806 10.3316 27.7806C9.77671 27.7806 9.23474 27.7291 8.70942 27.6296C9.80631 31.038 12.9878 33.5216 16.7594 33.588C13.8091 35.891 10.093 37.2636 6.0569 37.2636C5.3614 37.2636 4.67515 37.223 4 37.1438C7.81415 39.5813 12.3423 41 17.2071 41C33.0593 41 41.7253 27.9225 41.7253 16.5806C41.7253 16.2121 41.716 15.8399 41.6994 15.4714C43.3826 14.2591 44.8439 12.7502 45.9963 11.0312L46 11.0257Z" fill="#333333"/>
</svg>
