<svg width="12" height="12" viewBox="0 0 12 12" fill="none" xmlns="http://www.w3.org/2000/svg">
    <path fill-rule="evenodd" clip-rule="evenodd" d="M5.24984 1.48714C5.25313 1.35503 5.20437 1.22187 5.10355 1.12106C4.90829 0.925794 4.59171 0.925794 4.39645 1.12106L1.39645 4.12105C1.20118 4.31632 1.20118 4.6329 1.39645 4.82816C1.59171 5.02342 1.90829 5.02342 2.10355 4.82816L4.25 2.68172V10.4998C4.25 10.7759 4.47386 10.9998 4.75 10.9998C5.02614 10.9998 5.25 10.7759 5.25 10.4998V1.49976C5.25 1.49554 5.24995 1.49133 5.24984 1.48714Z" fill="#EAAA00"/>
    <path fill-rule="evenodd" clip-rule="evenodd" d="M7.75 1.52539C7.75 1.24925 7.52614 1.02539 7.25 1.02539C6.97386 1.02539 6.75 1.24925 6.75 1.52539V10.5254C6.75 10.5932 6.76349 10.6578 6.78794 10.7168C6.81123 10.7731 6.84524 10.826 6.88998 10.8724C6.89425 10.8768 6.8986 10.8811 6.90303 10.8854C6.94864 10.9294 7.00056 10.963 7.0558 10.9863C7.1155 11.0115 7.18113 11.0254 7.25 11.0254C7.31887 11.0254 7.3845 11.0115 7.4442 10.9863C7.49944 10.963 7.55136 10.9294 7.59697 10.8854C7.59949 10.883 7.60199 10.8805 7.60446 10.878L10.6036 7.87894C10.7988 7.68368 10.7988 7.3671 10.6036 7.17184C10.4083 6.97657 10.0917 6.97657 9.89645 7.17184L7.75 9.31828V1.52539Z" fill="#F9F9F9" fill-opacity="0.6"/>
</svg>
