<svg width="48" height="48" viewBox="0 0 48 48" fill="none" xmlns="http://www.w3.org/2000/svg">
<g clip-path="url(#clip0_205_87)">
<path d="M24 48C28.7468 48 33.3869 46.5924 37.3337 43.9553C41.2805 41.3181 44.3566 37.5698 46.1731 33.1844C47.9896 28.799 48.4649 23.9734 47.5388 19.3178C46.6128 14.6623 44.327 10.3859 40.9706 7.02945C37.6141 3.67299 33.3377 1.38721 28.6822 0.461164C24.0266 -0.464881 19.201 0.0103989 14.8156 1.8269C10.4302 3.64341 6.68188 6.71955 4.04473 10.6663C1.40758 14.6131 0 19.2533 0 24C0 30.3652 2.52856 36.4697 7.02944 40.9706C11.5303 45.4714 17.6348 48 24 48Z" fill="#C0E79B"/>
<path d="M26.6562 20.062V16.862H34.0002V12H14.0182V16.866H21.3562V20.066C15.3942 20.338 10.9102 21.514 10.9102 22.92C10.9102 24.326 15.3962 25.5 21.3562 25.776V36H26.6622V25.774C32.6162 25.5 37.0902 24.326 37.0902 22.918C37.0902 21.51 32.6122 20.336 26.6562 20.062ZM26.6562 24.91C26.5062 24.91 25.7382 24.964 24.0262 24.964C22.6562 24.964 21.6962 24.93 21.3542 24.91C16.0902 24.676 12.1542 23.764 12.1542 22.674C12.1542 21.584 16.0842 20.674 21.3542 20.438V24C21.7022 24.024 22.6842 24.084 24.0502 24.084C25.6862 24.084 26.5062 24.018 26.6622 24V20.432C31.9222 20.664 35.8442 21.576 35.8442 22.668C35.8442 23.76 31.9162 24.67 26.6642 24.91H26.6562Z" fill="#26A17B"/>
</g>
<defs>
<clipPath id="clip0_205_87">
<rect width="48" height="48" fill="white"/>
</clipPath>
</defs>
</svg>
