<svg width="48" height="48" viewBox="0 0 48 48" fill="none" xmlns="http://www.w3.org/2000/svg">
<path d="M11.1149 15.5853C18.2311 8.6226 29.7686 8.6226 36.8848 15.5853L37.7412 16.4233C38.097 16.7714 38.097 17.3359 37.7412 17.684L34.8115 20.5506C34.6336 20.7246 34.3452 20.7246 34.1673 20.5506L32.9887 19.3974C28.0243 14.54 19.9754 14.54 15.011 19.3974L13.7488 20.6323C13.5709 20.8064 13.2825 20.8064 13.1046 20.6323L10.1749 17.7658C9.81908 17.4177 9.81908 16.8532 10.1749 16.5051L11.1149 15.5853ZM42.9437 21.5136L45.5512 24.0649C45.907 24.413 45.907 24.9775 45.5512 25.3256L33.794 36.8294C33.4382 37.1776 32.8613 37.1776 32.5055 36.8295C32.5055 36.8295 32.5055 36.8294 32.5055 36.8294L24.161 28.6648C24.072 28.5778 23.9278 28.5778 23.8388 28.6648C23.8388 28.6648 23.8388 28.6648 23.8388 28.6648L15.4945 36.8294C15.1387 37.1776 14.5618 37.1776 14.206 36.8295C14.206 36.8295 14.206 36.8295 14.206 36.8295L2.4485 25.3254C2.09269 24.9773 2.09269 24.4129 2.4485 24.0647L5.05595 21.5135C5.41176 21.1654 5.98864 21.1654 6.34444 21.5135L14.6891 29.6782C14.778 29.7653 14.9223 29.7653 15.0112 29.6782C15.0112 29.6782 15.0112 29.6782 15.0112 29.6782L23.3554 21.5135C23.7112 21.1654 24.2881 21.1653 24.6439 21.5135C24.6439 21.5135 24.6439 21.5135 24.644 21.5135L32.9886 29.6782C33.0775 29.7653 33.2218 29.7653 33.3107 29.6782L41.6552 21.5136C42.011 21.1655 42.5879 21.1655 42.9437 21.5136Z" fill="#3B99FC"/>
</svg>
