<svg width="48" height="48" viewBox="0 0 48 48" fill="none" xmlns="http://www.w3.org/2000/svg">
<path fill-rule="evenodd" clip-rule="evenodd" d="M25.7309 3.99793C25.3733 3.38029 24.7137 3 24 3C23.2863 3 22.6267 3.38029 22.2691 3.99793L0.269147 41.9979C-0.089073 42.6167 -0.0897577 43.3796 0.267351 43.999C0.62446 44.6184 1.28504 45 2 45H46C46.715 45 47.3755 44.6184 47.7327 43.999C48.0898 43.3796 48.0891 42.6167 47.7309 41.9979L25.7309 3.99793ZM26 18.9988C25.9991 17.8943 25.1029 16.9996 23.9983 17.0005C22.8938 17.0014 21.9991 17.8976 22 19.0021L22.0083 29.0016C22.0092 30.1062 22.9054 31.0009 24.01 31C25.1145 30.9991 26.0092 30.1029 26.0083 28.9983L26 18.9988ZM26 35C26 33.8954 25.1046 33 24 33C22.8954 33 22 33.8954 22 35V36C22 37.1046 22.8954 38 24 38C25.1046 38 26 37.1046 26 36V35Z" fill="#333333"/>
</svg>
