<svg width="48" height="48" viewBox="0 0 48 48" fill="none" xmlns="http://www.w3.org/2000/svg">
<path fill-rule="evenodd" clip-rule="evenodd" d="M2 24C2 11.8497 11.8497 2 24 2C36.1503 2 46 11.8497 46 24C46 36.1503 36.1503 46 24 46C11.8497 46 2 36.1503 2 24Z" fill="#333333"/>
<path fill-rule="evenodd" clip-rule="evenodd" d="M17 17C17 15.8954 17.8954 15 19 15H31C32.1046 15 33 15.8954 33 17V29C33 30.1046 32.1046 31 31 31C29.8954 31 29 30.1046 29 29V21.8284L18.4142 32.4142C17.6332 33.1953 16.3668 33.1953 15.5858 32.4142C14.8047 31.6332 14.8047 30.3668 15.5858 29.5858L26.1716 19H19C17.8954 19 17 18.1046 17 17Z" fill="white"/>
</svg>
