<svg width="48" height="48" viewBox="0 0 48 48" fill="none" xmlns="http://www.w3.org/2000/svg">
    <g clip-path="url(#clip0_5123_74521)">
        <circle cx="24" cy="24" r="18" fill="white"/>
        <path d="M48 24C48 37.2 37.2 48 24 48C10.8 48 0 37.2 0 24C0 10.8 10.8 0 24 0C37.2 0 48 10.8 48 24ZM24 25C24 25 21.4 24.6 18.8 27.6C16.4 30.2 11.4 35.2 11.4 35.2H15.4C15.4 35.2 18 32.2 19 31.4C19.6 30.8 20 30.2 20.4 29.8C21.4 28.8 22.2 28 24.2 27.8C26.2 27.8 27 28.6 28 29.8C28.4 30.4 28.8 30.8 29.4 31.4C30.4 32.2 33 35.2 33 35.2H36.8C36.8 35.2 31.6 30 29.4 27.6C26.6 24.6 24 25 24 25ZM24 23C24.2 23 26.8 23.4 29.4 20.4C31.6 18 36.8 12.8 36.8 12.8H33C33 12.8 30.4 15.8 29.4 16.6C28.8 17.2 28.4 17.6 28 18.2C27 19.4 26.2 20.2 24.2 20.2C22.2 20.2 21.4 19.2 20.4 18.2C19.8 17.8 19.4 17.4 18.8 16.8C17.8 16 15.2 13 15.2 13H11.4C11.4 13 16.4 18 18.8 20.6C21.4 23.4 24 23 24 23Z" fill="black"/>
    </g>
    <defs>
        <clipPath id="clip0_5123_74521">
            <rect width="48" height="48" fill="white"/>
        </clipPath>
    </defs>
</svg>
